<svg width="800" height="800" viewBox="0 0 800 800" fill="none" xmlns="http://www.w3.org/2000/svg">
<ellipse opacity="0.5" cx="399.5" cy="400" rx="373.5" ry="369" fill="url(#paint0_radial_2079_5702)"/>
<path d="M26.1943 185.171L623.954 158L675.277 592.734L44.3082 605.414L26.1943 185.171Z" fill="#ECFF00" fill-opacity="0.6"/>
<path d="M96.2714 205.923L718.322 194.435L749.58 634H109.4L96.2714 205.923Z" fill="#ECFF00" fill-opacity="0.6"/>
<path d="M107 604.5L94.3286 200.266H630.5L704.5 618.5L107 604.5Z" stroke="black" stroke-width="8"/>
<path d="M72.4645 245.137L602.757 254.648L645.381 534.637L53.6598 553.185L72.4645 245.137Z" fill="#ECFF00"/>
<ellipse cx="425.5" cy="571" rx="17.5" ry="18" fill="black"/>
<path d="M377.897 588.341L369.38 588.341L369.38 574.962L356 574.962L356 566.38L369.38 566.38L369.38 553L377.897 553L377.897 566.38L391.342 566.38L391.342 574.962L377.897 574.962L377.897 588.341Z" fill="black"/>
<path d="M146 140.849V123.015H174.015V95H191.985V123.015H220V140.849H191.985V169H174.015V140.849H146Z" fill="#ECFF00"/>
<path d="M606 701.012V673.779H648.779V631H676.221V673.779H719V701.012H676.221V744H648.779V701.012H606Z" fill="#ECFF00"/>
<circle cx="556.5" cy="734.5" r="17.5" fill="#ECFF00"/>
<circle cx="530" cy="94" r="9" fill="#ECFF00"/>
<path d="M709 338.544V329.386H723.007V315H731.993V329.386H746V338.544H731.993V353H723.007V338.544H709Z" fill="#ECFF00"/>
<circle cx="88.5" cy="76.5" r="17.5" fill="#ECFF00"/>
<path d="M399.268 117.109C294.916 117.463 209.465 201.594 208.003 305.231C206.907 389.187 260.896 461.051 336.34 487.417C338.158 488.139 339.976 486.514 339.795 484.709C339.492 482.542 339.169 480.375 338.846 478.209C338.2 473.875 337.553 469.542 337.069 465.209C336.705 462.862 335.251 461.056 333.252 459.973C273.623 434.15 231.996 374.745 232.728 305.955C233.643 215.679 307.822 142.199 398.539 141.484C491.438 140.768 567.243 215.522 567.237 307.603C567.232 375.671 525.778 434.167 466.692 459.982C464.51 460.884 463.055 462.87 462.873 465.218L460.145 484.717C459.781 486.703 461.781 488.148 463.599 487.426C538.32 461.431 591.955 390.659 591.961 307.605C591.605 202.523 505.257 116.936 399.268 117.109Z" fill="black"/>
<path d="M399.799 336.48C424.524 336.482 444.523 316.622 444.525 292.067C444.526 267.693 424.53 247.65 399.805 247.648C375.081 247.647 355.082 267.506 355.08 292.061C355.078 316.616 375.075 336.478 399.799 336.48Z" fill="black"/>
<path d="M439.247 368.621C443.609 372.955 445.791 377.649 446.517 384.149C447.971 396.788 447.243 407.621 445.606 425.134C444.15 441.745 441.422 463.772 437.966 486.341C435.419 502.41 433.419 511.076 431.601 517.215C428.691 527.145 417.419 535.991 399.785 535.99C382.15 535.989 371.061 527.321 367.971 517.21C366.154 511.071 364.155 502.405 361.61 486.336C358.158 463.947 355.432 441.739 353.979 425.128L353.963 424.933C352.519 407.534 351.623 396.734 353.073 384.143C353.801 377.643 356.164 373.129 360.346 368.616C368.528 359.95 382.89 354.534 399.797 354.535C416.705 354.536 431.066 360.135 439.247 368.621Z" fill="black"/>
<path d="M271.452 306.138C272.365 238.611 326.909 182.825 394.902 180.302C467.985 177.418 528.519 235.74 528.333 307.6C528.33 351.294 505.966 390.111 472.15 413.039C470.332 414.302 467.968 412.858 468.15 410.872C468.514 403.108 468.697 396.247 468.334 389.205C468.334 386.858 469.243 384.692 470.879 383.067C491.06 364.11 503.788 337.389 503.79 307.779C503.794 249.641 455.075 202.333 395.809 204.676C341.269 206.839 297.453 250.891 295.995 305.056C295.265 335.75 307.989 363.556 328.895 383.057C330.713 384.682 331.621 386.849 331.439 389.196C331.075 396.418 331.075 403.279 331.62 411.043C331.62 413.029 329.256 414.292 327.62 413.209C293.262 389.915 270.903 350.554 271.452 306.138Z" fill="black"/>
<defs>
<radialGradient id="paint0_radial_2079_5702" cx="0" cy="0" r="1" gradientUnits="userSpaceOnUse" gradientTransform="translate(399.5 400) rotate(90) scale(369 373.5)">
<stop stop-color="#ECFF00"/>
<stop offset="1" stop-color="#C4C4C4" stop-opacity="0"/>
</radialGradient>
</defs>
</svg>
