<svg width="560" height="500" viewBox="0 0 560 500" fill="none" xmlns="http://www.w3.org/2000/svg">
<g clip-path="url(#clip0_2065_5343)">
<path opacity="0.5" d="M112.767 256.61L-83.127 452.504L-36.7011 498.93L127.086 498.93L261.184 353.582L165.987 256.61L112.767 256.61Z" fill="#ECFF00" fill-opacity="0.25"/>
<path d="M381.21 374L379 485L546 477.365L521.219 374L381.21 374Z" fill="#06566A" fill-opacity="0.2"/>
<path d="M340 438.475L475 445L464.337 333L340 341.995L340 438.475Z" fill="#06566A" fill-opacity="0.4"/>
<path d="M532 453.707L414.613 457L403 326.991L532 322L532 453.707Z" fill="#ECFF00"/>
<path d="M348.911 415.011L371.508 351.401L511 338.5L532.423 455.091L352.078 468.397L348.911 415.011Z" stroke="black" stroke-width="3"/>
<ellipse cx="509.466" cy="394.264" rx="5.4662" ry="5.26374" fill="black"/>
<path d="M510.773 415.319L508.139 415.319L508.139 411.18L504 411.18L504 408.525L508.139 408.525L508.139 404.386L510.773 404.386L510.773 408.525L514.932 408.525L514.932 411.18L510.773 411.18L510.773 415.319Z" fill="black"/>
<path d="M120 31.1783L374.388 13.321L370.186 153.836L124.775 150.685L120 31.1783Z" fill="#06566A" fill-opacity="0.4"/>
<path d="M132.892 12.3704L383.412 0V136.218H143.704L132.892 12.3704Z" fill="#06566A" fill-opacity="0.4"/>
<path d="M153.586 165L349 156.676L345.979 21L145 31.4046L153.586 165Z" fill="#ECFF00"/>
<circle cx="261.361" cy="142.789" r="5.92497" fill="black"/>
<path d="M243.831 148.64L240.785 148.64L240.785 143.855L236 143.855L236 140.785L240.785 140.785L240.785 136L243.831 136L243.831 140.785L248.64 140.785L248.64 143.855L243.831 143.855L243.831 148.64Z" fill="black"/>
<path d="M159.903 159.405L151.587 27.3317L345.04 5.67282L348.466 147.097L159.903 159.405Z" stroke="black" stroke-width="3"/>
<path d="M17 232.718L230.79 223L249.145 378.483L23.4785 383.018L17 232.718Z" fill="#06566A" fill-opacity="0.4"/>
<path d="M47.7861 240.498L270.263 236.389L281.443 393.6H52.4816L47.7861 240.498Z" fill="#06566A" fill-opacity="0.4"/>
<path d="M41.3682 383L47.5 240L243.928 243.083L252.135 376.972L41.3682 383Z" stroke="black" stroke-width="3"/>
<path d="M38.5466 264L223.161 267.956L238 365.285L32 373L38.5466 264Z" fill="#ECFF00"/>
<circle cx="210.361" cy="281.789" r="5.92497" fill="black"/>
<path d="M192.831 287.64L189.785 287.64L189.785 282.855L185 282.855L185 279.785L189.785 279.785L189.785 275L192.831 275L192.831 279.785L197.64 279.785L197.64 282.855L192.831 282.855L192.831 287.64Z" fill="black"/>
<rect x="105.327" y="339.684" width="57.4713" height="12.7011" fill="#06566A" fill-opacity="0.2"/>
<rect x="101.017" y="335.201" width="57.4713" height="12.7011" fill="#06566A"/>
<rect x="77.3105" y="294.483" width="56.0345" height="35.1149" fill="#06566A" fill-opacity="0.2"/>
<rect x="73" y="290" width="56.0345" height="35.1149" fill="#06566A"/>
<rect x="141.966" y="301.58" width="56.0345" height="17.5575" fill="#06566A" fill-opacity="0.2"/>
<rect x="139.873" y="299.345" width="53.0345" height="14.5575" stroke="#06566A" stroke-width="3"/>
<rect x="217" y="109" width="92" height="19" fill="#06566A" fill-opacity="0.2"/>
<rect x="210" y="102" width="93" height="19" fill="#06566A"/>
<rect x="182.251" y="50.4611" width="68.2635" height="42.7784" fill="#06566A" fill-opacity="0.2"/>
<rect x="177" y="45" width="68.2635" height="42.7784" fill="#06566A"/>
<rect x="264" y="51" width="68" height="29" fill="#06566A" fill-opacity="0.2"/>
<rect x="261.5" y="46.5" width="65" height="26" stroke="#06566A" stroke-width="3"/>
<rect x="182" y="109" width="23" height="18" fill="#06566A" fill-opacity="0.2"/>
<rect x="178.5" y="103.5" width="18" height="16" stroke="#06566A" stroke-width="3"/>
<rect x="434" y="433" width="61" height="13" fill="#06566A" fill-opacity="0.2"/>
<rect x="430" y="428" width="61" height="13" fill="#06566A"/>
<rect x="433" y="360" width="60" height="36" fill="#06566A" fill-opacity="0.2"/>
<rect x="429" y="355" width="59" height="36" fill="#06566A"/>
<rect x="434" y="404" width="60" height="18" fill="#06566A" fill-opacity="0.2"/>
<rect x="431.5" y="401.5" width="57" height="15" stroke="#06566A" stroke-width="3"/>
<rect x="359" y="273" width="61" height="13" fill="#06566A" fill-opacity="0.2"/>
<rect x="355" y="268" width="61" height="13" fill="#06566A"/>
<rect x="358" y="200" width="60" height="36" fill="#06566A" fill-opacity="0.2"/>
<rect x="354" y="195" width="59" height="36" fill="#06566A"/>
<rect x="378" y="244" width="60" height="18" fill="#06566A" fill-opacity="0.2"/>
<rect x="375.5" y="241.5" width="57" height="15" stroke="#06566A" stroke-width="3"/>
<path d="M346.799 117.5L405.5 113.5L409 181.5M409 181.5H446.5L445 295.5L350.5 294L341 184.5L409 181.5ZM445.487 258.5H468L485.5 341M246 258.5H346.799" stroke="black" stroke-width="3" stroke-linecap="round"/>
</g>
<defs>
<clipPath id="clip0_2065_5343">
<rect width="560" height="500" fill="white"/>
</clipPath>
</defs>
</svg>
