<svg width="1330" height="570" viewBox="0 0 1330 570" fill="none" xmlns="http://www.w3.org/2000/svg">
<g clip-path="url(#clip0_2065_5129)">
<path opacity="0.5" d="M843.901 213.108L556 501.009L624.231 569.24L864.944 569.24L1062.02 355.626L922.117 213.108L843.901 213.108Z" fill="#ECFF00" fill-opacity="0.25"/>
<path d="M30.2286 173.894L252.764 173.894L252.764 121.429L176.549 45.6117L-0.000163803 45.6117L-0.000155217 143.823L30.2286 173.894Z" fill="#ECFF00" fill-opacity="0.2"/>
<path opacity="0.2" d="M318.656 6.87068e-05L344.147 27.75L344.147 121.325L273.481 195.863L200.235 195.863L189.586 185.86L189.586 133.26L318.656 6.87068e-05Z" fill="#06708A"/>
<path d="M1165.21 459L1163 570L1330 562.365L1305.22 459L1165.21 459Z" fill="#06566A" fill-opacity="0.2"/>
<path d="M1124 523.475L1259 530L1248.34 418L1124 426.995L1124 523.475Z" fill="#06566A" fill-opacity="0.4"/>
<path d="M1316 538.707L1198.61 542L1187 411.991L1316 407L1316 538.707Z" fill="#ECFF00"/>
<path d="M1132.91 500.011L1155.51 436.401L1295 423.5L1316.42 540.091L1136.08 553.397L1132.91 500.011Z" stroke="black" stroke-width="3"/>
<ellipse cx="1293.47" cy="479.264" rx="5.4662" ry="5.26374" fill="black"/>
<path d="M1294.77 500.319L1292.14 500.319L1292.14 496.18L1288 496.18L1288 493.525L1292.14 493.525L1292.14 489.386L1294.77 489.386L1294.77 493.525L1298.93 493.525L1298.93 496.18L1294.77 496.18L1294.77 500.319Z" fill="black"/>
<path d="M1020 93.1783L1274.39 75.321L1270.19 215.836L1024.77 212.685L1020 93.1783Z" fill="#06566A" fill-opacity="0.4"/>
<path d="M1032.89 74.3704L1283.41 62V198.218H1043.7L1032.89 74.3704Z" fill="#06566A" fill-opacity="0.4"/>
<path d="M1053.59 227L1249 218.676L1245.98 83L1045 93.4046L1053.59 227Z" fill="#ECFF00"/>
<circle cx="1161.36" cy="204.789" r="5.92497" fill="black"/>
<path d="M1143.83 210.64L1140.79 210.64L1140.79 205.855L1136 205.855L1136 202.785L1140.79 202.785L1140.79 198L1143.83 198L1143.83 202.785L1148.64 202.785L1148.64 205.855L1143.83 205.855L1143.83 210.64Z" fill="black"/>
<path d="M1059.9 221.405L1051.59 89.3317L1245.04 67.6728L1248.47 209.097L1059.9 221.405Z" stroke="black" stroke-width="3"/>
<path d="M821 312.718L1034.79 303L1053.15 458.483L827.478 463.018L821 312.718Z" fill="#06566A" fill-opacity="0.4"/>
<path d="M851.786 320.498L1074.26 316.389L1085.44 473.6H856.481L851.786 320.498Z" fill="#06566A" fill-opacity="0.4"/>
<path d="M845.368 463L851.5 320L1047.93 323.083L1056.13 456.972L845.368 463Z" stroke="black" stroke-width="3"/>
<path d="M842.547 344L1027.16 347.956L1042 445.285L836 453L842.547 344Z" fill="#ECFF00"/>
<circle cx="1014.36" cy="361.789" r="5.92497" fill="black"/>
<path d="M996.831 367.64L993.785 367.64L993.785 362.855L989 362.855L989 359.785L993.785 359.785L993.785 355L996.831 355L996.831 359.785L1001.64 359.785L1001.64 362.855L996.831 362.855L996.831 367.64Z" fill="black"/>
<rect x="909.328" y="419.684" width="57.4713" height="12.7011" fill="#06566A" fill-opacity="0.2"/>
<rect x="905.017" y="415.201" width="57.4713" height="12.7011" fill="#06566A"/>
<rect x="881.311" y="374.483" width="56.0345" height="35.1149" fill="#06566A" fill-opacity="0.2"/>
<rect x="877" y="370" width="56.0345" height="35.1149" fill="#06566A"/>
<rect x="945.965" y="381.58" width="56.0345" height="17.5575" fill="#06566A" fill-opacity="0.2"/>
<rect x="943.874" y="379.345" width="53.0345" height="14.5575" stroke="#06566A" stroke-width="3"/>
<rect x="1112" y="169" width="92" height="19" fill="#06566A" fill-opacity="0.2"/>
<rect x="1105" y="162" width="93" height="19" fill="#06566A"/>
<rect x="1077.25" y="110.461" width="68.2635" height="42.7784" fill="#06566A" fill-opacity="0.2"/>
<rect x="1072" y="105" width="68.2635" height="42.7784" fill="#06566A"/>
<rect x="1159" y="111" width="68" height="29" fill="#06566A" fill-opacity="0.2"/>
<rect x="1156.5" y="106.5" width="65" height="26" stroke="#06566A" stroke-width="3"/>
<rect x="1077" y="169" width="23" height="18" fill="#06566A" fill-opacity="0.2"/>
<rect x="1073.5" y="163.5" width="18" height="16" stroke="#06566A" stroke-width="3"/>
<rect x="1218" y="517" width="61" height="13" fill="#06566A" fill-opacity="0.2"/>
<rect x="1214" y="512" width="61" height="13" fill="#06566A"/>
<rect x="1217" y="444" width="60" height="36" fill="#06566A" fill-opacity="0.2"/>
<rect x="1213" y="439" width="59" height="36" fill="#06566A"/>
<rect x="1218" y="488" width="60" height="18" fill="#06566A" fill-opacity="0.2"/>
<rect x="1215.5" y="485.5" width="57" height="15" stroke="#06566A" stroke-width="3"/>
<rect x="1143" y="353" width="61" height="13" fill="#06566A" fill-opacity="0.2"/>
<rect x="1139" y="348" width="61" height="13" fill="#06566A"/>
<rect x="1142" y="280" width="60" height="36" fill="#06566A" fill-opacity="0.2"/>
<rect x="1138" y="275" width="59" height="36" fill="#06566A"/>
<rect x="1162" y="324" width="60" height="18" fill="#06566A" fill-opacity="0.2"/>
<rect x="1159.5" y="321.5" width="57" height="15" stroke="#06566A" stroke-width="3"/>
<path d="M1120 218.5L1123.5 238H1170L1175.5 263.064M1229.49 338.5H1252L1271 425.5M1049 338.5H1130.8M1125 264.5L1134.5 374L1229 375.5L1230.5 261.5L1125 264.5Z" stroke="black" stroke-width="3" stroke-linecap="round"/>
</g>
<defs>
<clipPath id="clip0_2065_5129">
<rect width="1330" height="570" fill="white"/>
</clipPath>
</defs>
</svg>
