<svg width="529" height="379" viewBox="0 0 529 379" fill="none" xmlns="http://www.w3.org/2000/svg">
<path opacity="0.4" d="M71 313.925L89.0688 66.2741L226.921 18L476 42.4971L448.009 359L140.76 348.221L71 313.925Z" fill="#9BBBC3"/>
<path opacity="0.9" d="M64.6131 298.13L104 71.4997L223.5 4.50016L491 44.5L433.21 376.5L147.5 349.5L64.6131 298.13Z" stroke="black" stroke-width="3"/>
<path d="M368.372 85.1857L389.093 77.1406L400.433 98.6342L489.987 81.8756L489.398 238.267L355.247 317.548L297.845 309.596L295.193 295.427L290.642 246.982L316.713 234.116L310.433 200.562L289.069 190.321L267.536 123.504L361.06 106.002L368.372 85.1857Z" fill="black"/>
<path d="M365.306 75.1266L386.027 67.0815L397.367 88.5751L486.921 71.8166L486.332 228.208L352.181 307.489L294.779 299.536L292.127 285.368L287.576 236.923L313.647 224.057L307.367 190.503L286.003 180.262L264.47 113.445L357.994 95.9431L365.306 75.1266Z" fill="#06566A"/>
<path d="M375.961 134H364.719V134.001H361V138.656H364.719V216.043L372.208 223.564H385.169V191.654L379.847 186.323H402.092L427.375 161.001H432.022V156.346L432.024 156.344H407.855L385.169 179.065V143.248L375.961 134Z" fill="#ECFF00"/>
<path d="M393.029 191.769L421.634 220.419L418.825 223.233L421.98 226.393L424.789 223.579L424.807 223.597L437.821 210.562L412.411 185.113L405.765 191.769H393.029Z" fill="#ECFF00"/>
<path d="M98.0316 163.518L127.33 157.831L124.936 132.878L219.067 115.263L240.918 183.068L262.599 193.46L268.97 227.51L242.515 240.566L248.466 303.916L70.0077 279.192L11.3155 154.14L84.3785 140.468L98.0316 163.518Z" fill="#ECFF00"/>
<path d="M98.0316 163.518L127.33 157.831L124.936 132.878L219.067 115.263L240.918 183.068L262.599 193.46L268.97 227.51L242.515 240.566L248.466 303.916L70.0077 279.192L11.3155 154.14L84.3785 140.468L98.0316 163.518Z" fill="black" fill-opacity="0.2"/>
<path d="M89.3317 153.076L116.065 146.084L113.621 122.154L207.751 104.539L229.603 172.344L251.283 182.736L257.655 216.786L231.2 229.842L237.151 293.192L58.6922 268.468L0 143.416L73.063 129.743L89.3317 153.076Z" fill="#ECFF00"/>
</svg>
