<svg width="800" height="450" viewBox="0 0 800 450" fill="none" xmlns="http://www.w3.org/2000/svg">
<path d="M702 242.936L625.329 251.443L636.959 286L583.564 255.4L328.971 270.634L288 38.3597L702 29L702 242.936Z" fill="#ECFF00" fill-opacity="0.6"/>
<path d="M271.061 158L248 406.276L365.195 402.966L403 446L403 400.718L598 395.159L541.671 158L271.061 158Z" fill="#ECFF00" fill-opacity="0.8"/>
<path d="M82 272.328L188.559 280.363L170.452 305.147L231.419 284.1L469 313L436.58 56L93.0441 78.1306L82 272.328Z" fill="#ECFF00" fill-opacity="0.8"/>
<path d="M155 258.566L209.55 101.965L519.824 74L556.306 117.145L598 357.241L162.644 390L155 258.566Z" stroke="black" stroke-width="8"/>
<ellipse cx="396.5" cy="200" rx="13.5" ry="13" fill="black"/>
<path d="M399.729 252L393.222 252L393.222 241.778L383 241.778L383 235.222L393.222 235.222L393.222 225L399.729 225L399.729 235.222L410 235.222L410 241.778L399.729 241.778L399.729 252Z" fill="black"/>
<path d="M354.872 225L369 251H340L354.872 225Z" fill="black"/>
<rect x="341" y="187" width="27" height="26" fill="black"/>
</svg>
