<svg width="800" height="450" viewBox="0 0 800 450" fill="none" xmlns="http://www.w3.org/2000/svg">
<path d="M68 119.557L660 78L650.222 405L79.1111 397.667L68 119.557Z" fill="#ECFF00" fill-opacity="0.6"/>
<path d="M98 75.7878L681 47V364H123.161L98 75.7878Z" fill="#ECFF00" fill-opacity="0.6"/>
<path d="M146.034 415L602 394.942L594.951 68L126 93.0722L146.034 415Z" fill="#ECFF00"/>
<path d="M199.897 321.129L231.633 265.667L261.782 321.129H199.897Z" stroke="black" stroke-width="8"/>
<path d="M545.352 241.785C545.352 312.368 488.291 369.569 417.924 369.569C347.557 369.569 290.495 312.368 290.495 241.785C290.495 171.201 347.557 114 417.924 114C488.291 114 545.352 171.201 545.352 241.785Z" stroke="black" stroke-width="8"/>
<rect x="204.124" y="173.837" width="53.262" height="52.5497" stroke="black" stroke-width="8"/>
</svg>
