<svg width="800" height="450" viewBox="0 0 800 450" fill="none" xmlns="http://www.w3.org/2000/svg">
<path d="M83 53.9385L565.647 32L607.086 383.016L97.6257 393.254L83 53.9385Z" fill="#ECFF00" fill-opacity="0.6"/>
<path d="M152.501 71.502L654.761 62.2263L680 417.143H163.101L152.501 71.502Z" fill="#ECFF00" fill-opacity="0.6"/>
<path d="M147.764 398.129L138.013 66.1266L595.309 77.3396L613.835 379.603L147.764 398.129Z" stroke="black" stroke-width="8"/>
<path d="M120.36 126.579L548.532 134.259L582.948 323.188L105.176 338.164L120.36 126.579Z" fill="#ECFF00"/>
<rect x="146.546" y="237.048" width="52.889" height="10.5778" transform="rotate(-45 146.546 237.048)" fill="black"/>
<rect x="154.026" y="169.731" width="52.889" height="10.5778" transform="rotate(45 154.026 169.731)" fill="black"/>
<rect x="209.257" y="244.809" width="65.328" height="10.7255" fill="black"/>
<circle cx="568.071" cy="351.54" r="13.3761" fill="black"/>
<path d="M528.498 364.75L521.621 364.75L521.621 353.947L510.818 353.947L510.818 347.017L521.621 347.017L521.621 336.214L528.498 336.214L528.498 347.017L539.354 347.017L539.354 353.947L528.498 353.947L528.498 364.75Z" fill="black"/>
</svg>
