<svg width="480" height="480" viewBox="0 0 480 480" fill="none" xmlns="http://www.w3.org/2000/svg">
<g clip-path="url(#clip0_2043_4305)">
<rect width="480" height="480" fill="white"/>
<path fill-rule="evenodd" clip-rule="evenodd" d="M288.663 214.32C289.093 222.347 343.606 218.366 351.05 212.836C351.05 157.32 321.158 128 266.589 128C211.846 128 181.433 157.84 181.433 202.427C181.433 246.823 215.915 266.147 245.221 282.571C266.876 294.708 285.706 305.261 285.706 323.175C285.706 335.32 280.144 342.259 267.458 342.259C250.775 342.259 243.997 333.758 244.866 304.786C244.866 298.54 181.433 296.458 179.348 304.786C174.656 374.702 218.103 395 267.979 395C316.466 395 354.352 369.15 354.352 322.482C354.352 273.899 317.816 254.615 287.642 238.689C266.418 227.487 248.341 217.946 248.341 201.039C248.341 184.211 260.854 181.955 267.979 181.955C275.793 181.955 289.68 183.168 288.663 214.32Z" fill="#ECFF00"/>
<circle opacity="0.5" cx="233" cy="233" r="233" fill="url(#paint0_radial_2043_4305)"/>
<path d="M462.881 480L452.036 480L452.036 462.964L435 462.964L435 452.036L452.036 452.036L452.036 435L462.881 435L462.881 452.036L480 452.036L480 462.964L462.881 462.964L462.881 480Z" fill="#ECFF00"/>
<path d="M47.0877 76L28.7719 76L28.7719 47.2281L-1.25766e-06 47.2281L-2.0644e-06 28.7719L28.7719 28.7719L28.7719 -3.10972e-07L47.0877 -1.11158e-06L47.0877 28.7719L76 28.7719L76 47.2281L47.0877 47.2281L47.0877 76Z" fill="#ECFF00"/>
<path d="M347.173 56.4473L347.23 55.1488L346.648 53.9866L346.474 53.6383L344.992 50.68L341.69 50.8873L111.467 65.3388C111.461 65.3391 111.456 65.3394 111.45 65.3397C108.05 65.5341 104.72 66.3956 101.653 67.8753C98.5804 69.3574 95.8306 71.4306 93.5615 73.9765C91.2923 76.5224 89.5485 79.491 88.4304 82.712C87.3186 85.9147 86.8474 89.3042 87.0432 92.6881L100.123 437.399C100.123 437.404 100.123 437.408 100.123 437.413C100.34 443.945 103.021 450.153 107.628 454.792C112.237 459.433 118.431 462.161 124.968 462.432C124.97 462.432 124.973 462.432 124.975 462.432L405.772 474.968C405.776 474.968 405.78 474.968 405.784 474.968C409.292 475.142 412.798 474.602 416.091 473.382C419.388 472.16 422.401 470.281 424.949 467.859C427.496 465.437 429.524 462.523 430.908 459.293C432.293 456.063 433.004 452.585 433 449.071V72.954C433.008 69.4017 432.284 65.886 430.873 62.6254C429.462 59.3648 427.395 56.4293 424.801 54.0011C422.206 51.5729 419.14 49.7038 415.792 48.5094C412.444 47.3151 408.886 46.821 405.339 47.0576L405.319 47.059L405.298 47.0605L382.098 48.8019L377.301 49.1619L377.476 53.9692L379.065 97.7492L366.7 88.1486L363.679 85.8031L360.625 88.1044L345.255 99.6842L347.173 56.4473ZM298.002 213.054C296.048 212.799 294.621 212.485 293.674 212.177C293.865 197.236 290.642 187.971 285.071 182.548C279.206 176.841 271.929 176.604 267.868 176.604C263.924 176.604 257.814 177.198 252.566 180.681C246.951 184.408 243.157 190.873 243.157 200.759C243.157 213.594 251.606 222.463 261.949 229.581C268.678 234.212 277.063 238.641 285.656 243.18C290.085 245.519 294.569 247.887 298.91 250.328C325.153 265.08 349.563 283.99 349.563 322.654C349.563 344.573 340.735 361.317 326.362 372.695C311.863 384.173 291.372 390.443 267.868 390.443C243.356 390.443 221.329 385.429 206.056 372.65C191.305 360.307 181.954 339.943 183.784 307.038C183.877 306.999 183.981 306.958 184.094 306.915C185.532 306.374 187.774 305.856 190.762 305.436C196.672 304.604 204.544 304.278 212.492 304.407C220.432 304.535 228.209 305.112 233.908 306.011C236.393 306.403 238.307 306.83 239.613 307.243C239.403 320.604 240.882 330.558 245.186 337.296C250.17 345.097 258.118 347.506 267.345 347.506C274.604 347.506 280.735 345.5 284.967 340.875C289.122 336.333 290.661 330.113 290.661 323.351C290.661 310.36 282.509 301.041 272.29 293.446C265.153 288.142 256.226 283.138 247.14 278.046C243.368 275.931 239.568 273.801 235.857 271.628C209.868 256.407 186 237.974 186 202.152C186 180.962 193.19 163.721 206.48 151.73C219.827 139.688 239.879 132.448 266.473 132.448C292.998 132.448 312.742 139.562 325.868 152.666C338.473 165.25 345.665 184.045 346.214 209.431C345.863 209.545 345.475 209.663 345.048 209.783C343.061 210.343 340.487 210.889 337.482 211.387C331.482 212.381 324.088 213.131 316.896 213.461C309.664 213.792 302.869 213.688 298.002 213.054ZM183.018 307.425C183.018 307.425 183.018 307.425 183.018 307.425C183.01 307.431 183.01 307.431 183.018 307.425ZM292.681 211.773C292.595 211.726 292.562 211.701 292.567 211.7C292.572 211.699 292.615 211.722 292.681 211.773Z" stroke="#052F3A" stroke-width="10"/>
<path d="M80.6294 269.116L12.2666 196.412L46.4517 160L142.191 269.145L46.4517 380L12.1907 345.537L80.6294 269.116Z" fill="#052F3A"/>
</g>
<defs>
<radialGradient id="paint0_radial_2043_4305" cx="0" cy="0" r="1" gradientUnits="userSpaceOnUse" gradientTransform="translate(233 233) rotate(90) scale(233)">
<stop stop-color="#ECFF00"/>
<stop offset="1" stop-color="#C4C4C4" stop-opacity="0"/>
</radialGradient>
<clipPath id="clip0_2043_4305">
<rect width="480" height="480" fill="white"/>
</clipPath>
</defs>
</svg>
