<svg width="480" height="480" viewBox="0 0 480 480" fill="none" xmlns="http://www.w3.org/2000/svg">
<g clip-path="url(#clip0_2043_4312)">
<circle opacity="0.5" cx="233" cy="233" r="233" fill="url(#paint0_radial_2043_4312)"/>
<mask id="path-2-inside-1_2043_4312" fill="white">
<path fill-rule="evenodd" clip-rule="evenodd" d="M366.937 405.58L367.039 406.007L367.032 406.009C371.168 426.252 326.172 454.194 265.965 468.647C205.759 483.099 152.982 478.628 147.478 458.713L147.47 458.715L147.368 458.288L138.555 421.575L248.34 395.222L358.124 368.868L366.937 405.58Z"/>
</mask>
<path fill-rule="evenodd" clip-rule="evenodd" d="M366.937 405.58L367.039 406.007L367.032 406.009C371.168 426.252 326.172 454.194 265.965 468.647C205.759 483.099 152.982 478.628 147.478 458.713L147.47 458.715L147.368 458.288L138.555 421.575L248.34 395.222L358.124 368.868L366.937 405.58Z" fill="#ECFF00"/>
<path d="M367.039 406.007L368.907 413.786L376.686 411.919L374.818 404.14L367.039 406.007ZM367.032 406.009L365.165 398.23L357.646 400.035L359.194 407.61L367.032 406.009ZM147.478 458.713L155.189 456.582L153.129 449.129L145.61 450.934L147.478 458.713ZM147.47 458.715L139.691 460.582L141.559 468.361L149.338 466.494L147.47 458.715ZM147.368 458.288L155.147 456.421L147.368 458.288ZM138.555 421.575L136.688 413.796L128.909 415.664L130.776 423.443L138.555 421.575ZM358.124 368.868L365.903 367.001L364.036 359.222L356.257 361.089L358.124 368.868ZM359.158 407.448L359.26 407.875L374.818 404.14L374.716 403.713L359.158 407.448ZM365.172 398.228L365.165 398.23L368.9 413.788L368.907 413.786L365.172 398.228ZM359.194 407.61C359.545 409.328 359.098 412.465 355.218 417.29C351.419 422.014 345.124 427.297 336.411 432.701C319.053 443.465 293.598 453.786 264.098 460.868L267.833 476.426C298.539 469.055 325.685 458.179 344.843 446.298C354.388 440.379 362.33 433.978 367.686 427.317C372.96 420.759 376.587 412.812 374.87 404.408L359.194 407.61ZM264.098 460.868C234.598 467.949 207.231 470.308 186.879 468.596C176.662 467.736 168.655 465.886 163.126 463.402C157.478 460.864 155.656 458.271 155.189 456.582L139.767 460.844C142.052 469.112 148.891 474.547 156.568 477.996C164.364 481.5 174.346 483.598 185.538 484.539C208.001 486.429 237.126 483.797 267.833 476.426L264.098 460.868ZM145.61 450.934L145.603 450.936L149.338 466.494L149.345 466.492L145.61 450.934ZM155.249 456.847L155.147 456.421L139.589 460.155L139.691 460.582L155.249 456.847ZM155.147 456.421L146.334 419.708L130.776 423.443L139.589 460.155L155.147 456.421ZM140.423 429.354L250.207 403.001L246.472 387.443L136.688 413.796L140.423 429.354ZM250.207 403.001L359.992 376.647L356.257 361.089L246.472 387.443L250.207 403.001ZM350.345 370.735L359.158 407.448L374.716 403.713L365.903 367.001L350.345 370.735Z" fill="#052F3A" mask="url(#path-2-inside-1_2043_4312)"/>
<path d="M353.896 368.39C354.705 371.761 353.585 376.078 349.444 381.345C345.338 386.569 338.67 392.166 329.743 397.742C311.926 408.87 285.894 419.428 255.88 426.633C225.867 433.837 197.879 436.247 176.951 434.419C166.466 433.504 157.984 431.543 151.954 428.752C145.874 425.939 142.916 422.602 142.106 419.23C141.297 415.858 142.418 411.542 146.558 406.274C150.665 401.051 157.332 395.453 166.259 389.878C184.076 378.749 210.109 368.191 240.122 360.987C270.135 353.782 298.124 351.372 319.051 353.2C329.536 354.116 338.018 356.077 344.048 358.867C350.129 361.681 353.087 365.018 353.896 368.39Z" fill="#ECFF00" stroke="#052F3A" stroke-width="8"/>
<ellipse cx="299" cy="375" rx="51" ry="19" fill="#AEB833"/>
<mask id="path-6-inside-2_2043_4312" fill="white">
<path fill-rule="evenodd" clip-rule="evenodd" d="M216.817 285.639L216.524 286.58L216.488 286.569C208.93 305.577 156.386 306.359 97.7938 288.107C39.2013 269.854 -3.60263 239.37 0.971771 219.432L0.935774 219.421L1.22884 218.48L12.458 182.433L120.252 216.013L228.046 249.592L216.817 285.639Z"/>
</mask>
<path fill-rule="evenodd" clip-rule="evenodd" d="M216.817 285.639L216.524 286.58L216.488 286.569C208.93 305.577 156.386 306.359 97.7938 288.107C39.2013 269.854 -3.60263 239.37 0.971771 219.432L0.935774 219.421L1.22884 218.48L12.458 182.433L120.252 216.013L228.046 249.592L216.817 285.639Z" fill="#ECFF00"/>
<path d="M216.524 286.58L214.145 294.218L221.783 296.597L224.162 288.959L216.524 286.58ZM216.488 286.569L218.867 278.931L211.792 276.727L209.054 283.613L216.488 286.569ZM0.971771 219.432L8.76918 221.221L10.4263 213.998L3.35112 211.794L0.971771 219.432ZM0.935774 219.421L-6.7022 217.042L-9.08155 224.68L-1.44357 227.059L0.935774 219.421ZM12.458 182.433L14.8374 174.795L7.19938 172.416L4.82003 180.054L12.458 182.433ZM228.046 249.592L235.684 251.972L238.064 244.334L230.426 241.954L228.046 249.592ZM209.179 283.26L208.886 284.201L224.162 288.959L224.455 288.019L209.179 283.26ZM218.903 278.942L218.867 278.931L214.109 294.207L214.145 294.218L218.903 278.942ZM209.054 283.613C208.387 285.29 206.221 287.751 200.307 289.86C194.534 291.917 186.388 293.173 176.17 293.311C155.808 293.587 128.879 289.411 100.173 280.469L95.4144 295.745C125.301 305.055 153.94 309.614 176.387 309.31C187.574 309.158 197.643 307.795 205.679 304.931C213.574 302.117 220.809 297.352 223.922 289.525L209.054 283.613ZM100.173 280.469C71.4668 271.526 46.9308 259.67 30.3273 247.879C21.996 241.962 16.004 236.302 12.4214 231.33C8.75087 226.237 8.36572 222.98 8.76918 221.221L-6.82564 217.643C-8.70938 225.854 -5.45943 233.884 -0.559708 240.684C4.42783 247.606 11.9412 254.446 21.0631 260.924C39.3661 273.922 65.5283 286.435 95.4144 295.745L100.173 280.469ZM3.35112 211.794L3.31512 211.783L-1.44357 227.059L-1.40758 227.07L3.35112 211.794ZM8.57375 221.8L8.86681 220.86L-6.40914 216.101L-6.7022 217.042L8.57375 221.8ZM8.86681 220.86L20.096 184.813L4.82003 180.054L-6.40914 216.101L8.86681 220.86ZM10.0787 190.071L117.873 223.651L122.631 208.375L14.8374 174.795L10.0787 190.071ZM117.873 223.651L225.667 257.23L230.426 241.954L122.631 208.375L117.873 223.651ZM220.408 247.213L209.179 283.26L224.455 288.019L235.684 251.972L220.408 247.213Z" fill="#052F3A" mask="url(#path-6-inside-2_2043_4312)"/>
<path d="M224.66 247.016C223.628 250.327 220.455 253.46 214.201 255.865C207.999 258.249 199.406 259.642 188.883 259.861C167.881 260.296 140.114 256.034 110.645 246.854C81.1758 237.674 55.9013 225.413 38.8618 213.127C30.3243 206.971 24.043 200.944 20.2923 195.459C16.5102 189.928 15.6781 185.547 16.7094 182.237C17.7408 178.926 20.9137 175.792 27.1677 173.388C33.3696 171.004 41.9626 169.61 52.4857 169.392C73.4882 168.957 101.255 173.218 130.724 182.399C160.193 191.579 185.468 203.84 202.507 216.126C211.045 222.282 217.326 228.309 221.077 233.794C224.859 239.325 225.691 243.706 224.66 247.016Z" fill="#ECFF00" stroke="#052F3A" stroke-width="8"/>
<mask id="path-9-inside-3_2043_4312" fill="white">
<path fill-rule="evenodd" clip-rule="evenodd" d="M472.664 380.342L472.473 381.219L472.442 381.213C466.692 400.876 414.351 406.26 354.307 393.155C294.263 380.05 248.925 353.348 251.89 333.077L251.86 333.071L252.051 332.194L260.102 295.306L370.408 319.381L480.715 343.455L472.664 380.342Z"/>
</mask>
<path fill-rule="evenodd" clip-rule="evenodd" d="M472.664 380.342L472.473 381.219L472.442 381.213C466.692 400.876 414.351 406.26 354.307 393.155C294.263 380.05 248.925 353.348 251.89 333.077L251.86 333.071L252.051 332.194L260.102 295.306L370.408 319.381L480.715 343.455L472.664 380.342Z" fill="#ECFF00"/>
<path d="M472.664 380.342L480.48 382.048L472.664 380.342ZM472.473 381.219L470.767 389.035L478.583 390.741L480.289 382.925L472.473 381.219ZM472.442 381.213L474.148 373.397L466.859 371.806L464.764 378.967L472.442 381.213ZM251.89 333.077L259.806 334.235L260.886 326.852L253.596 325.261L251.89 333.077ZM251.86 333.071L244.044 331.365L242.338 339.181L250.154 340.887L251.86 333.071ZM260.102 295.306L261.807 287.49L253.991 285.785L252.286 293.601L260.102 295.306ZM370.408 319.381L368.702 327.197L370.408 319.381ZM480.715 343.455L488.531 345.161L490.237 337.345L482.421 335.639L480.715 343.455ZM464.848 378.636L464.657 379.513L480.289 382.925L480.48 382.048L464.848 378.636ZM474.179 373.403L474.148 373.397L470.737 389.029L470.767 389.035L474.179 373.403ZM464.764 378.967C464.26 380.69 462.345 383.329 456.654 385.951C451.098 388.51 443.097 390.479 432.926 391.513C412.656 393.573 385.431 391.759 356.013 385.339L352.601 400.971C383.227 407.655 412.195 409.702 434.544 407.431C445.682 406.299 455.597 404.053 463.349 400.483C470.966 396.974 477.749 391.567 480.121 383.458L464.764 378.967ZM356.013 385.339C326.595 378.919 301.09 369.224 283.522 358.905C274.706 353.728 268.253 348.605 264.269 343.963C260.188 339.209 259.546 336.011 259.806 334.235L243.974 331.92C242.752 340.279 246.666 348.021 252.128 354.384C257.687 360.86 265.765 367.032 275.419 372.702C294.789 384.079 321.975 394.287 352.601 400.971L356.013 385.339ZM253.596 325.261L253.565 325.255L250.154 340.887L250.184 340.893L253.596 325.261ZM259.676 334.776L259.867 333.899L244.235 330.488L244.044 331.365L259.676 334.776ZM259.867 333.899L267.918 297.012L252.286 293.601L244.235 330.488L259.867 333.899ZM258.396 303.122L368.702 327.197L372.114 311.565L261.807 287.49L258.396 303.122ZM368.702 327.197L479.009 351.271L482.421 335.639L372.114 311.565L368.702 327.197ZM472.899 341.749L464.848 378.636L480.48 382.048L488.531 345.161L472.899 341.749Z" fill="#052F3A" mask="url(#path-9-inside-3_2043_4312)"/>
<path d="M477.117 341.183C476.377 344.571 473.489 347.968 467.468 350.908C461.497 353.822 453.058 355.958 442.594 357.091C421.709 359.352 393.677 357.522 363.52 350.941C333.364 344.359 307.119 334.343 289.075 323.586C280.034 318.196 273.253 312.738 269.039 307.601C264.79 302.42 263.58 298.128 264.319 294.74C265.059 291.352 267.947 287.955 273.968 285.015C279.939 282.101 288.378 279.965 298.843 278.832C319.727 276.571 347.76 278.401 377.916 284.982C408.072 291.564 434.317 301.58 452.361 312.337C461.402 317.727 468.184 323.185 472.397 328.322C476.646 333.503 477.856 337.795 477.117 341.183Z" fill="#ECFF00" stroke="#052F3A" stroke-width="8"/>
<path d="M27.8809 376L17.036 376L17.036 358.964L-7.44668e-07 358.964L-1.22234e-06 348.036L17.036 348.036L17.036 331L27.8809 331L27.8809 348.036L45 348.036L45 358.964L27.8809 358.964L27.8809 376Z" fill="#ECFF00"/>
<path d="M451.088 162L432.772 162L432.772 133.228L404 133.228L404 114.772L432.772 114.772L432.772 86L451.088 86L451.088 114.772L480 114.772L480 133.228L451.088 133.228L451.088 162Z" fill="#ECFF00"/>
<ellipse cx="146.5" cy="215" rx="39.5" ry="16" fill="#AEB833"/>
<mask id="path-15-inside-4_2043_4312" fill="white">
<path fill-rule="evenodd" clip-rule="evenodd" d="M229.854 25.6408L80.9472 195.128L111.874 222.367L112.074 222.135C128.381 234.525 173.696 207.812 214.247 161.656C255.403 114.813 276.067 65.6814 260.402 51.9188C259.922 51.4968 259.413 51.113 258.877 50.7668L229.854 25.6408Z"/>
</mask>
<path fill-rule="evenodd" clip-rule="evenodd" d="M229.854 25.6408L80.9472 195.128L111.874 222.367L112.074 222.135C128.381 234.525 173.696 207.812 214.247 161.656C255.403 114.813 276.067 65.6814 260.402 51.9188C259.922 51.4968 259.413 51.113 258.877 50.7668L229.854 25.6408Z" fill="#ECFF00"/>
<path d="M80.9472 195.128L74.9372 189.847L69.6635 195.85L75.6596 201.131L80.9472 195.128ZM229.854 25.6408L235.09 19.5924L229.086 14.3943L223.844 20.3606L229.854 25.6408ZM111.874 222.367L106.586 228.37L112.643 233.704L117.924 227.601L111.874 222.367ZM112.074 222.135L116.914 215.765L110.937 211.223L106.025 216.9L112.074 222.135ZM258.877 50.7668L253.641 56.8151L254.066 57.1831L254.538 57.4881L258.877 50.7668ZM86.9571 200.408L235.864 30.921L223.844 20.3606L74.9372 189.847L86.9571 200.408ZM117.162 216.363L86.2348 189.124L75.6596 201.131L106.586 228.37L117.162 216.363ZM106.025 216.9L105.824 217.132L117.924 227.601L118.124 227.37L106.025 216.9ZM208.237 156.376C188.37 178.989 167.535 196.596 149.998 206.964C141.198 212.166 133.59 215.33 127.596 216.569C121.458 217.838 118.345 216.852 116.914 215.765L107.234 228.505C113.957 233.613 122.624 233.935 130.835 232.237C139.192 230.51 148.505 226.434 158.14 220.737C177.475 209.306 199.573 190.479 220.257 166.936L208.237 156.376ZM255.122 57.9287C256.416 59.0654 257.914 61.7604 257.597 67.8693C257.286 73.8671 255.243 81.8056 251.258 91.2805C243.322 110.15 228.404 133.422 208.237 156.376L220.257 166.936C241.246 143.047 257.238 118.332 266.007 97.4837C270.374 87.1001 273.132 77.2476 273.576 68.6986C274.014 60.2608 272.221 51.6534 265.683 45.9088L255.122 57.9287ZM254.538 57.4881C254.747 57.6228 254.941 57.7693 255.122 57.9287L265.683 45.9088C264.903 45.2243 264.08 44.6032 263.216 44.0456L254.538 57.4881ZM224.618 31.6891L253.641 56.8151L264.113 44.7185L235.09 19.5924L224.618 31.6891Z" fill="#052F3A" mask="url(#path-15-inside-4_2043_4312)"/>
<path d="M227.762 28.9237C230.367 31.2124 231.939 35.3855 231.592 42.0766C231.248 48.7121 229.026 57.1291 224.945 66.8313C216.801 86.1952 201.614 109.828 181.242 133.016C160.87 156.204 139.388 174.307 121.234 184.876C112.138 190.172 104.077 193.459 97.5412 194.654C90.9504 195.86 86.6096 194.838 84.0047 192.55C81.3997 190.261 79.8276 186.088 80.1749 179.397C80.5192 172.761 82.741 164.344 86.8217 154.642C94.9661 135.278 110.152 111.645 130.525 88.4573C150.897 65.2694 172.378 47.1669 190.533 36.5974C199.629 31.3017 207.69 28.0148 214.226 26.819C220.816 25.6133 225.157 26.635 227.762 28.9237Z" fill="#ECFF00" stroke="#052F3A" stroke-width="8"/>
</g>
<defs>
<radialGradient id="paint0_radial_2043_4312" cx="0" cy="0" r="1" gradientUnits="userSpaceOnUse" gradientTransform="translate(233 233) rotate(90) scale(233)">
<stop stop-color="#ECFF00"/>
<stop offset="1" stop-color="#C4C4C4" stop-opacity="0"/>
</radialGradient>
<clipPath id="clip0_2043_4312">
<rect width="480" height="480" fill="white"/>
</clipPath>
</defs>
</svg>
