<svg width="600" height="420" viewBox="0 0 600 420" fill="none" xmlns="http://www.w3.org/2000/svg">
<circle cx="80" cy="125" r="14" fill="#ECFF00" fill-opacity="0.25" stroke="#ECFF00" stroke-width="2"/>
<circle cx="80" cy="125" r="8" fill="#ECFF00"/>
<rect x="66" y="57" width="28" height="28" rx="2" fill="#ECFF00" fill-opacity="0.25" stroke="#ECFF00" stroke-width="2"/>
<path fill-rule="evenodd" clip-rule="evenodd" d="M105.121 54.1213C106.293 55.2929 106.293 57.1924 105.121 58.364L84.4853 79L84.2426 79.2426C83.0711 80.4142 81.1716 80.4142 80 79.2426L79.7574 79L72.1213 71.364C70.9497 70.1924 70.9497 68.2929 72.1213 67.1213V67.1213C73.2929 65.9497 75.1924 65.9497 76.364 67.1213L82.0115 72.7688V72.7688C82.0721 72.8295 82.1705 72.8295 82.2312 72.7688V72.7688L100.879 54.1213C102.05 52.9497 103.95 52.9497 105.121 54.1213V54.1213Z" fill="#ECFF00"/>
<circle cx="138" cy="125" r="13" fill="#B4CCD2" fill-opacity="0.5" stroke="#82AAB5" stroke-width="4"/>
<mask id="path-6-inside-1_2092_6680" fill="white">
<rect x="123" y="56" width="30" height="30" rx="3"/>
</mask>
<rect x="123" y="56" width="30" height="30" rx="3" fill="#B4CCD2" fill-opacity="0.5" stroke="#82AAB5" stroke-width="8" mask="url(#path-6-inside-1_2092_6680)"/>
<rect x="49.5" y="36.5" width="121" height="121" rx="9.5" stroke="#82AAB5" stroke-width="3"/>
<path d="M451.408 96.7586C451.408 102.7 446.616 107.517 440.704 107.517C434.792 107.517 430 102.7 430 96.7586C430 90.8168 434.792 86 440.704 86C446.616 86 451.408 90.8168 451.408 96.7586Z" fill="#6A9AA6"/>
<path d="M446.056 96.7586C446.056 99.7295 443.66 102.138 440.704 102.138C437.748 102.138 435.352 99.7295 435.352 96.7586C435.352 93.7877 437.748 91.3793 440.704 91.3793C443.66 91.3793 446.056 93.7877 446.056 96.7586Z" fill="#6A9AA6"/>
<path d="M458.099 96.7586C458.099 94.5304 459.896 92.7241 462.113 92.7241H520.986C523.203 92.7241 525 94.5304 525 96.7586C525 98.9868 523.203 100.793 520.986 100.793H462.113C459.896 100.793 458.099 98.9868 458.099 96.7586Z" fill="#6A9AA6"/>
<path d="M451.408 125C451.408 130.942 446.616 135.759 440.704 135.759C434.792 135.759 430 130.942 430 125C430 119.058 434.792 114.241 440.704 114.241C446.616 114.241 451.408 119.058 451.408 125Z" fill="#ECFF00" fill-opacity="0.25"/>
<path d="M446.056 125C446.056 127.971 443.66 130.379 440.704 130.379C437.748 130.379 435.352 127.971 435.352 125C435.352 122.029 437.748 119.621 440.704 119.621C443.66 119.621 446.056 122.029 446.056 125Z" fill="#ECFF00" fill-opacity="0.25"/>
<path d="M458.099 125C458.099 122.772 459.896 120.966 462.113 120.966H520.986C523.203 120.966 525 122.772 525 125C525 127.228 523.203 129.034 520.986 129.034H462.113C459.896 129.034 458.099 127.228 458.099 125Z" fill="#ECFF00" fill-opacity="0.25"/>
<path d="M451.408 153.241C451.408 159.183 446.616 164 440.704 164C434.792 164 430 159.183 430 153.241C430 147.3 434.792 142.483 440.704 142.483C446.616 142.483 451.408 147.3 451.408 153.241Z" fill="#6A9AA6"/>
<path d="M446.056 153.241C446.056 156.212 443.66 158.621 440.704 158.621C437.748 158.621 435.352 156.212 435.352 153.241C435.352 150.27 437.748 147.862 440.704 147.862C443.66 147.862 446.056 150.27 446.056 153.241Z" fill="#6A9AA6"/>
<path d="M458.099 153.241C458.099 151.013 459.896 149.207 462.113 149.207H520.986C523.203 149.207 525 151.013 525 153.241C525 155.47 523.203 157.276 520.986 157.276H462.113C459.896 157.276 458.099 155.47 458.099 153.241Z" fill="#6A9AA6"/>
<g opacity="0.5">
<rect x="300" y="90.5176" width="16.6847" height="16.6847" rx="2" stroke="white" stroke-width="2"/>
<path fill-rule="evenodd" clip-rule="evenodd" d="M324.116 88.2913C324.83 89.0045 324.83 90.1608 324.116 90.8739L311.555 103.436V103.436C310.76 104.231 309.471 104.231 308.677 103.436V103.436L304.028 98.7875C303.315 98.0743 303.315 96.918 304.028 96.2048V96.2048C304.741 95.4917 305.898 95.4917 306.611 96.2048L310.049 99.6427V99.6427C310.086 99.6796 310.146 99.6796 310.182 99.6427V99.6427L321.534 88.2913C322.247 87.5781 323.403 87.5781 324.116 88.2913V88.2913Z" fill="white"/>
</g>
<rect opacity="0.5" x="328.408" y="94" width="81" height="8" rx="4" fill="white"/>
<rect x="300" y="118.72" width="16.6847" height="16.6847" rx="2" stroke="#ECFF00" stroke-width="2"/>
<path fill-rule="evenodd" clip-rule="evenodd" d="M324.116 116.493C324.83 117.207 324.83 118.363 324.116 119.076L311.555 131.638V131.638C310.76 132.433 309.471 132.433 308.677 131.638V131.638L304.028 126.99C303.315 126.276 303.315 125.12 304.028 124.407V124.407C304.741 123.694 305.898 123.694 306.611 124.407L310.049 127.845V127.845C310.086 127.882 310.146 127.882 310.182 127.845V127.845L321.534 116.493C322.247 115.78 323.403 115.78 324.116 116.493V116.493Z" fill="#ECFF00"/>
<rect x="328.408" y="122.772" width="81" height="7" rx="3.5" fill="#ECFF00"/>
<g opacity="0.5">
<rect x="300" y="146.922" width="16.6847" height="16.6847" rx="2" stroke="white" stroke-width="2"/>
<path fill-rule="evenodd" clip-rule="evenodd" d="M324.116 144.696C324.83 145.409 324.83 146.565 324.116 147.278L311.555 159.84V159.84C310.76 160.635 309.471 160.635 308.677 159.84V159.84L304.028 155.192C303.315 154.479 303.315 153.322 304.028 152.609V152.609C304.741 151.896 305.898 151.896 306.611 152.609L310.049 156.047V156.047C310.086 156.084 310.146 156.084 310.182 156.047V156.047L321.534 144.696C322.247 143.982 323.403 143.982 324.116 144.696V144.696Z" fill="white"/>
</g>
<rect opacity="0.5" x="328.408" y="150.543" width="81" height="8" rx="4" fill="white"/>
<rect x="285.5" y="69.5" width="265" height="111" rx="9.5" stroke="#82AAB5" stroke-width="3"/>
<rect x="320" y="257" width="160" height="32" rx="4" fill="#ECFF00" fill-opacity="0.25"/>
<rect x="326" y="263" width="2" height="20" rx="1" fill="#ECFF00" fill-opacity="0.25"/>
<rect x="320" y="257" width="160" height="32" rx="4" stroke="#ECFF00" stroke-width="2"/>
<rect x="118" y="215" width="174" height="100" rx="2" fill="#ECFF00" fill-opacity="0.25" stroke="#ECFF00" stroke-width="2"/>
<rect x="124.5" y="221.5" width="1" height="19" rx="0.5" fill="#ECFF00" fill-opacity="0.25" stroke="#ECFF00"/>
<rect x="286.485" y="301.707" width="1" height="11" rx="0.5" transform="rotate(45 286.485 301.707)" fill="#ECFF00" fill-opacity="0.25" stroke="#ECFF00"/>
<rect x="287.238" y="306.707" width="1" height="5" rx="0.5" transform="rotate(45 287.238 306.707)" fill="#ECFF00" fill-opacity="0.25" stroke="#ECFF00"/>
<rect x="320" y="215" width="158" height="28" rx="2" fill="#ECFF00" fill-opacity="0.25" stroke="#ECFF00" stroke-width="2"/>
<path fill-rule="evenodd" clip-rule="evenodd" d="M455.064 228.131C454.478 227.552 454.478 226.607 455.064 226.028C455.64 225.458 456.567 225.458 457.143 226.028L460.971 229.813C460.987 229.829 461.013 229.829 461.029 229.813L464.857 226.028C465.433 225.458 466.36 225.458 466.936 226.028C467.522 226.607 467.522 227.552 466.936 228.131L462.011 233C461.451 233.554 460.549 233.554 459.989 233L455.064 228.131Z" fill="#ECFF00"/>
<rect x="103.5" y="200.5" width="393" height="173" rx="9.5" stroke="#82AAB5" stroke-width="3"/>
<rect width="60" height="30" transform="translate(418 327)" fill="#ECFF00"/>
<path d="M428.535 342.256H426.344L426.332 341.049H428.172C428.496 341.049 428.762 341.008 428.969 340.926C429.176 340.84 429.33 340.717 429.432 340.557C429.537 340.393 429.59 340.193 429.59 339.959C429.59 339.693 429.539 339.479 429.438 339.314C429.34 339.15 429.186 339.031 428.975 338.957C428.768 338.883 428.5 338.846 428.172 338.846H426.953V346H425.195V337.469H428.172C428.668 337.469 429.111 337.516 429.502 337.609C429.896 337.703 430.23 337.846 430.504 338.037C430.777 338.229 430.986 338.471 431.131 338.764C431.275 339.053 431.348 339.396 431.348 339.795C431.348 340.146 431.268 340.471 431.107 340.768C430.951 341.064 430.703 341.307 430.363 341.494C430.027 341.682 429.588 341.785 429.045 341.805L428.535 342.256ZM428.459 346H425.863L426.549 344.629H428.459C428.768 344.629 429.02 344.58 429.215 344.482C429.41 344.381 429.555 344.244 429.648 344.072C429.742 343.9 429.789 343.703 429.789 343.48C429.789 343.23 429.746 343.014 429.66 342.83C429.578 342.646 429.445 342.506 429.262 342.408C429.078 342.307 428.836 342.256 428.535 342.256H426.842L426.854 341.049H428.963L429.367 341.523C429.887 341.516 430.305 341.607 430.621 341.799C430.941 341.986 431.174 342.23 431.318 342.531C431.467 342.832 431.541 343.154 431.541 343.498C431.541 344.045 431.422 344.506 431.184 344.881C430.945 345.252 430.596 345.531 430.135 345.719C429.678 345.906 429.119 346 428.459 346ZM437.57 337.469H439.322V343.105C439.322 343.762 439.182 344.314 438.9 344.764C438.623 345.213 438.238 345.551 437.746 345.777C437.258 346.004 436.695 346.117 436.059 346.117C435.422 346.117 434.855 346.004 434.359 345.777C433.867 345.551 433.48 345.213 433.199 344.764C432.922 344.314 432.783 343.762 432.783 343.105V337.469H434.541V343.105C434.541 343.488 434.602 343.801 434.723 344.043C434.844 344.285 435.018 344.463 435.244 344.576C435.475 344.689 435.746 344.746 436.059 344.746C436.379 344.746 436.65 344.689 436.873 344.576C437.1 344.463 437.271 344.285 437.389 344.043C437.51 343.801 437.57 343.488 437.57 343.105V337.469ZM444.584 337.469V346H442.832V337.469H444.584ZM447.209 337.469V338.846H440.248V337.469H447.209ZM452.119 337.469V346H450.367V337.469H452.119ZM454.744 337.469V338.846H447.783V337.469H454.744ZM462.59 341.535V341.939C462.59 342.588 462.502 343.17 462.326 343.686C462.15 344.201 461.902 344.641 461.582 345.004C461.262 345.363 460.879 345.639 460.434 345.83C459.992 346.021 459.502 346.117 458.963 346.117C458.428 346.117 457.938 346.021 457.492 345.83C457.051 345.639 456.668 345.363 456.344 345.004C456.02 344.641 455.768 344.201 455.588 343.686C455.412 343.17 455.324 342.588 455.324 341.939V341.535C455.324 340.883 455.412 340.301 455.588 339.789C455.764 339.273 456.012 338.834 456.332 338.471C456.656 338.107 457.039 337.83 457.48 337.639C457.926 337.447 458.416 337.352 458.951 337.352C459.49 337.352 459.98 337.447 460.422 337.639C460.867 337.83 461.25 338.107 461.57 338.471C461.895 338.834 462.145 339.273 462.32 339.789C462.5 340.301 462.59 340.883 462.59 341.535ZM460.814 341.939V341.523C460.814 341.07 460.773 340.672 460.691 340.328C460.609 339.984 460.488 339.695 460.328 339.461C460.168 339.227 459.973 339.051 459.742 338.934C459.512 338.812 459.248 338.752 458.951 338.752C458.654 338.752 458.391 338.812 458.16 338.934C457.934 339.051 457.74 339.227 457.58 339.461C457.424 339.695 457.305 339.984 457.223 340.328C457.141 340.672 457.1 341.07 457.1 341.523V341.939C457.1 342.389 457.141 342.787 457.223 343.135C457.305 343.479 457.426 343.77 457.586 344.008C457.746 344.242 457.941 344.42 458.172 344.541C458.402 344.662 458.666 344.723 458.963 344.723C459.26 344.723 459.523 344.662 459.754 344.541C459.984 344.42 460.178 344.242 460.334 344.008C460.49 343.77 460.609 343.479 460.691 343.135C460.773 342.787 460.814 342.389 460.814 341.939ZM470.799 337.469V346H469.041L465.613 340.281V346H463.855V337.469H465.613L469.047 343.193V337.469H470.799Z" fill="#06566A"/>
</svg>
