<svg width="600" height="420" viewBox="0 0 600 420" fill="none" xmlns="http://www.w3.org/2000/svg">
<rect x="256.191" y="115.709" width="53.4196" height="53.4196" rx="3" fill="#06708A"/>
<mask id="mask0_2091_6092" style="mask-type:alpha" maskUnits="userSpaceOnUse" x="253" y="113" width="59" height="59">
<rect x="253.975" y="113.493" width="57.8523" height="57.8523" fill="#D9D9D9"/>
</mask>
<g mask="url(#mask0_2091_6092)">
<path fill-rule="evenodd" clip-rule="evenodd" d="M255.574 140.334C260.346 140.334 264.215 136.527 264.215 131.831C264.215 127.136 260.346 123.329 255.574 123.329C250.801 123.329 246.932 127.136 246.932 131.831C246.932 136.527 250.801 140.334 255.574 140.334ZM303.302 128.242L333.279 171.697H294.911L294.912 171.698H257.441L276.176 145.246L283.976 156.258L303.302 128.242Z" fill="#ECFF00" fill-opacity="0.45"/>
</g>
<path d="M253.503 119.518C253.503 115.928 256.413 113.018 260.003 113.018H455.062C458.652 113.018 461.562 115.928 461.562 119.518V165.317C461.562 168.907 458.652 171.817 455.062 171.817H260.003C256.413 171.817 253.503 168.907 253.503 165.317V119.518Z" stroke="#9BBBC3" stroke-width="3"/>
<rect x="322.181" y="129.849" width="54.467" height="7.3321" fill="#06708A"/>
<rect x="383.98" y="129.849" width="31.4233" height="7.3321" fill="#06708A"/>
<rect x="322.181" y="146.607" width="72.2736" height="5.23722" fill="#9BBBC3"/>
<path d="M259.858 107.329L265.631 97.3291L254.084 97.3291L259.858 107.329ZM258.858 82.1904L258.858 98.3291L260.858 98.3291L260.858 82.1904L258.858 82.1904Z" fill="white" fill-opacity="0.75"/>
<path d="M458.872 107.329L464.645 97.3291L453.098 97.3291L458.872 107.329ZM457.872 82.1904L457.872 98.3291L459.872 98.3291L459.872 82.1904L457.872 82.1904Z" fill="white" fill-opacity="0.75"/>
<line x1="259.334" y1="81.1904" x2="459.396" y2="81.1904" stroke="white" stroke-opacity="0.75" stroke-width="2"/>
<rect x="313.278" y="78" width="89.0327" height="7.3321" rx="3.66605" fill="#ECFF00"/>
<rect x="55.0767" y="123.791" width="163.718" height="101.53" rx="3" fill="#06708A"/>
<path fill-rule="evenodd" clip-rule="evenodd" d="M85.3835 167.234C93.2121 167.234 99.5583 161.087 99.5583 153.504C99.5583 145.921 93.2121 139.774 85.3835 139.774C77.555 139.774 71.2088 145.921 71.2088 153.504C71.2088 161.087 77.555 167.234 85.3835 167.234ZM163.673 147.707L212.843 217.88H149.909H114.503H88.4466L119.178 175.166L131.972 192.949L163.673 147.707Z" fill="#ECFF00" fill-opacity="0.45"/>
<path d="M51.5 126.715C51.5 123.125 54.4101 120.215 58 120.215H215.871C219.46 120.215 222.371 123.125 222.371 126.715V266.183C222.371 269.773 219.46 272.683 215.871 272.683H58C54.4101 272.683 51.5 269.773 51.5 266.183V126.715Z" stroke="#9BBBC3" stroke-width="3"/>
<rect x="60.7875" y="236.108" width="65.9947" height="8.8839" fill="#06708A"/>
<rect x="135.665" y="236.108" width="38.0739" height="8.8839" fill="#06708A"/>
<rect x="60.7875" y="256.415" width="87.5699" height="6.34564" fill="#9BBBC3"/>
<path d="M59.5191 113.637L65.2926 103.637L53.7456 103.637L59.5191 113.637ZM58.5191 83.1782L58.5191 104.637L60.5191 104.637L60.5191 83.1782L58.5191 83.1782Z" fill="white" fill-opacity="0.75"/>
<path d="M215.407 113.637L221.181 103.637L209.634 103.637L215.407 113.637ZM214.407 83.1782L214.407 104.637L216.407 104.637L216.407 83.1782L214.407 83.1782Z" fill="white" fill-opacity="0.75"/>
<line x1="58.8841" y1="82.1782" x2="216.256" y2="82.1782" stroke="white" stroke-opacity="0.75" stroke-width="2"/>
<rect x="82.9973" y="78.1011" width="107.876" height="8.8839" rx="4.44195" fill="#ECFF00"/>
<rect x="256.191" y="233.708" width="135.12" height="83.7955" rx="3" fill="#06708A"/>
<path fill-rule="evenodd" clip-rule="evenodd" d="M281.79 269.702C288.162 269.702 293.328 264.746 293.328 258.632C293.328 252.519 288.162 247.563 281.79 247.563C275.418 247.563 270.252 252.519 270.252 258.632C270.252 264.746 275.418 269.702 281.79 269.702ZM345.514 253.959L385.537 310.535H305.492L284.283 310.535L309.297 276.097L319.711 290.435L345.514 253.959Z" fill="#ECFF00" fill-opacity="0.45"/>
<path d="M252.979 236.47C252.979 232.88 255.889 229.97 259.479 229.97H542C545.59 229.97 548.5 232.88 548.5 236.47V314.74C548.5 318.329 545.59 321.24 542 321.24H259.479C255.889 321.24 252.979 318.329 252.979 314.74V236.47Z" stroke="#9BBBC3" stroke-width="3"/>
<rect x="400.74" y="261.988" width="71.2261" height="9.42699" fill="#06708A"/>
<rect x="481.916" y="261.988" width="40.8503" height="9.42699" fill="#06708A"/>
<rect x="400.74" y="283.984" width="87.5018" height="6.28466" fill="#9BBBC3"/>
<path d="M259.335 224.28L265.108 214.28L253.561 214.28L259.335 224.28ZM258.335 199.142L258.335 215.28L260.335 215.28L260.335 199.142L258.335 199.142Z" fill="white" fill-opacity="0.75"/>
<path d="M543.715 224.28L549.488 214.28L537.941 214.28L543.715 224.28ZM542.715 199.142L542.715 215.28L544.715 215.28L544.715 199.142L542.715 199.142Z" fill="white" fill-opacity="0.75"/>
<line x1="258.811" y1="198.142" x2="544.239" y2="198.142" stroke="white" stroke-opacity="0.75" stroke-width="2"/>
<rect x="356.224" y="194.951" width="89.0327" height="7.3321" rx="3.66605" fill="#ECFF00"/>
</svg>
