<svg width="600" height="420" viewBox="0 0 600 420" fill="none" xmlns="http://www.w3.org/2000/svg">
<rect x="336" y="239" width="27" height="6" fill="#ECFF00"/>
<rect x="336" y="247" width="27" height="4" fill="#ECFF00" fill-opacity="0.25"/>
<rect x="336" y="253" width="27" height="4" fill="#ECFF00" fill-opacity="0.25"/>
<rect x="336" y="259" width="27" height="4" fill="#ECFF00" fill-opacity="0.25"/>
<rect x="303" y="265" width="60" height="4" fill="#ECFF00" fill-opacity="0.25"/>
<rect x="303" y="271" width="60" height="4" fill="#ECFF00" fill-opacity="0.25"/>
<rect x="303" y="277" width="44" height="4" fill="#ECFF00" fill-opacity="0.25"/>
<rect width="29" height="23" transform="translate(303 239)" fill="#ECFF00"/>
<path fill-rule="evenodd" clip-rule="evenodd" d="M310.138 247.9C311.318 247.9 312.275 247.027 312.275 245.95C312.275 244.873 311.318 244 310.138 244C308.957 244 308 244.873 308 245.95C308 247.027 308.957 247.9 310.138 247.9ZM319.344 247.033L326.758 257L317.268 257L311.929 257L308 257L312.634 250.933L314.563 253.459L319.344 247.033Z" fill="#ECFF00"/>
<rect x="289" y="219" width="88" height="88" rx="10" stroke="#82AAB5" stroke-width="2"/>
<rect width="60" height="40" transform="translate(178 311)" fill="#ECFF00" fill-opacity="0.25"/>
<path fill-rule="evenodd" clip-rule="evenodd" d="M185.812 327C187.366 327 188.625 325.657 188.625 324C188.625 322.343 187.366 321 185.812 321C184.259 321 183 322.343 183 324C183 325.657 184.259 327 185.812 327ZM197.926 325.667L207.682 341H195.195H188.17H183L189.098 331.667L191.636 335.552L197.926 325.667Z" fill="#ECFF00"/>
<rect x="213" y="323" width="20" height="4" fill="#ECFF00"/>
<rect x="213" y="329" width="20" height="4" fill="#ECFF00"/>
<rect x="213" y="335" width="14.6667" height="4" fill="#ECFF00"/>
<rect x="169" y="292" width="88" height="88" rx="10" stroke="#82AAB5" stroke-width="2"/>
<rect width="40" height="50" transform="translate(68 271)" fill="#ECFF00" fill-opacity="0.25"/>
<path fill-rule="evenodd" clip-rule="evenodd" d="M77.925 281.7C79.5404 281.7 80.85 280.424 80.85 278.85C80.85 277.276 79.5404 276 77.925 276C76.3096 276 75 277.276 75 278.85C75 280.424 76.3096 281.7 77.925 281.7ZM90.523 280.433L100.669 295H87.6829H80.3766H75L81.3415 286.133L83.9815 289.825L90.523 280.433Z" fill="#ECFF00"/>
<rect x="73" y="300" width="30" height="4" fill="#ECFF00"/>
<rect x="73" y="306" width="30" height="4" fill="#ECFF00"/>
<rect x="73" y="312" width="22" height="4" fill="#ECFF00"/>
<rect x="49" y="257" width="88" height="88" rx="10" stroke="#82AAB5" stroke-width="2"/>
<rect x="305" y="361" width="56" height="22" rx="11" fill="#ECFF00"/>
<path d="M321.457 374.629V376H317.162V374.629H321.457ZM317.73 367.469V376H315.973V367.469H317.73ZM326.051 368.928L323.73 376H321.861L325.031 367.469H326.221L326.051 368.928ZM327.979 376L325.652 368.928L325.465 367.469H326.666L329.854 376H327.979ZM327.873 372.824V374.201H323.367V372.824H327.873ZM333.984 372.256H331.793L331.781 371.049H333.621C333.945 371.049 334.211 371.008 334.418 370.926C334.625 370.84 334.779 370.717 334.881 370.557C334.986 370.393 335.039 370.193 335.039 369.959C335.039 369.693 334.988 369.479 334.887 369.314C334.789 369.15 334.635 369.031 334.424 368.957C334.217 368.883 333.949 368.846 333.621 368.846H332.402V376H330.645V367.469H333.621C334.117 367.469 334.561 367.516 334.951 367.609C335.346 367.703 335.68 367.846 335.953 368.037C336.227 368.229 336.436 368.471 336.58 368.764C336.725 369.053 336.797 369.396 336.797 369.795C336.797 370.146 336.717 370.471 336.557 370.768C336.4 371.064 336.152 371.307 335.812 371.494C335.477 371.682 335.037 371.785 334.494 371.805L333.984 372.256ZM333.908 376H331.312L331.998 374.629H333.908C334.217 374.629 334.469 374.58 334.664 374.482C334.859 374.381 335.004 374.244 335.098 374.072C335.191 373.9 335.238 373.703 335.238 373.48C335.238 373.23 335.195 373.014 335.109 372.83C335.027 372.646 334.895 372.506 334.711 372.408C334.527 372.307 334.285 372.256 333.984 372.256H332.291L332.303 371.049H334.412L334.816 371.523C335.336 371.516 335.754 371.607 336.07 371.799C336.391 371.986 336.623 372.23 336.768 372.531C336.916 372.832 336.99 373.154 336.99 373.498C336.99 374.045 336.871 374.506 336.633 374.881C336.395 375.252 336.045 375.531 335.584 375.719C335.127 375.906 334.568 376 333.908 376ZM344.033 374.629V376H339.492V374.629H344.033ZM340.066 367.469V376H338.309V367.469H340.066ZM343.441 370.943V372.279H339.492V370.943H343.441ZM344.027 367.469V368.846H339.492V367.469H344.027ZM350.543 374.629V376H346.248V374.629H350.543ZM346.816 367.469V376H345.059V367.469H346.816Z" fill="#06566A"/>
<rect x="289" y="328" width="88" height="88" rx="10" stroke="#82AAB5" stroke-width="2"/>
<rect width="60" height="38" transform="translate(418 192)" fill="#ECFF00" fill-opacity="0.25"/>
<rect x="428" y="197" width="8" height="6" fill="#ECFF00"/>
<rect x="438" y="197" width="14" height="6" fill="#ECFF00"/>
<rect x="454" y="197" width="14" height="6" fill="#ECFF00"/>
<rect x="428" y="208" width="8" height="6" fill="#ECFF00"/>
<rect x="438" y="208" width="14" height="6" fill="#ECFF00" fill-opacity="0.25"/>
<rect x="454" y="208" width="14" height="6" fill="#ECFF00" fill-opacity="0.25"/>
<rect x="428" y="219" width="8" height="6" fill="#ECFF00"/>
<rect x="438" y="219" width="14" height="6" fill="#ECFF00" fill-opacity="0.25"/>
<rect x="454" y="219" width="14" height="6" fill="#ECFF00" fill-opacity="0.25"/>
<rect x="409" y="172" width="88" height="88" rx="10" stroke="#82AAB5" stroke-width="2"/>
<path fill-rule="evenodd" clip-rule="evenodd" d="M305.921 142L308 144.103L303.187 148.971L303.159 149L303.187 149.029L308 153.897L305.921 156L300 150.011L299 149L300 147.989L305.921 142Z" fill="#ECFF00"/>
<rect x="318" y="141" width="26" height="4" fill="#ECFF00"/>
<rect x="318" y="147" width="26" height="4" fill="#ECFF00"/>
<rect x="318" y="153" width="19.0667" height="4" fill="#ECFF00"/>
<path fill-rule="evenodd" clip-rule="evenodd" d="M356.079 142L354 144.103L358.813 148.971L358.841 149L358.813 149.029L354 153.897L356.079 156L362 150.011L363 149L362 147.989L356.079 142Z" fill="#ECFF00"/>
<rect x="289" y="110" width="88" height="88" rx="10" stroke="#82AAB5" stroke-width="2"/>
<g opacity="0.25">
<path d="M178 189H177V190V250V251H178H238H239V250V190V189H238H178Z" stroke="#ECFF00" stroke-width="2"/>
<mask id="mask0_2091_6150" style="mask-type:alpha" maskUnits="userSpaceOnUse" x="177" y="189" width="62" height="62">
<path d="M178 189.5H177.5V190V250V250.5H178H238H238.5V250V190V189.5H238H178Z" fill="#06566A" stroke="#06566A"/>
</mask>
<g mask="url(#mask0_2091_6150)">
<rect width="60" height="6" transform="translate(178 190)" fill="#ECFF00"/>
<rect x="193" y="190" width="30" height="4" fill="black"/>
</g>
</g>
<rect x="189" y="205" width="38" height="18" fill="#ECFF00" fill-opacity="0.25" stroke="#ECFF00" stroke-width="2"/>
<rect x="189" y="227" width="38" height="18" stroke="#ECFF00" stroke-opacity="0.25" stroke-width="2"/>
<rect x="169" y="181" width="88" height="88" rx="10" stroke="#82AAB5" stroke-width="2"/>
<rect width="60" height="30" transform="translate(58 170)" fill="#ECFF00"/>
<path d="M71.6914 187.629V189H67.3965V187.629H71.6914ZM67.9648 180.469V189H66.207V180.469H67.9648ZM74.5684 180.469V189H72.8164V180.469H74.5684ZM83.1582 180.469V189H81.4004L77.9727 183.281V189H76.2148V180.469H77.9727L81.4062 186.193V180.469H83.1582ZM86.4453 180.469V189H84.6875V180.469H86.4453ZM91.5547 180.469L88.1738 184.682L86.2227 186.779L85.9062 185.115L87.2246 183.311L89.3984 180.469H91.5547ZM89.5566 189L87.043 185.057L88.3438 183.967L91.6367 189H89.5566Z" fill="#06566A"/>
<path fill-rule="evenodd" clip-rule="evenodd" d="M105.685 178.737C105.685 178.243 106.085 177.842 106.579 177.842H110.263C110.757 177.842 111.158 178.243 111.158 178.737V182.421C111.158 182.915 110.757 183.315 110.263 183.315C109.769 183.315 109.369 182.915 109.369 182.421V180.896L105.738 184.527C105.388 184.876 104.822 184.876 104.473 184.527C104.124 184.178 104.124 183.611 104.473 183.262L108.104 179.631H106.579C106.085 179.631 105.685 179.231 105.685 178.737Z" fill="#06566A"/>
<path fill-rule="evenodd" clip-rule="evenodd" d="M99.9474 180.368C99.2205 180.368 98.6313 180.957 98.6313 181.684V189.053C98.6313 189.779 99.2205 190.369 99.9474 190.369H107.316C108.043 190.369 108.632 189.779 108.632 189.053V186.105C108.632 185.611 109.032 185.211 109.526 185.211C110.02 185.211 110.421 185.611 110.421 186.105V189.053C110.421 190.767 109.031 192.157 107.316 192.157H99.9474C98.2325 192.157 96.8424 190.767 96.8424 189.053V181.684C96.8424 179.969 98.2325 178.579 99.9474 178.579H102.895C103.389 178.579 103.789 178.98 103.789 179.474C103.789 179.968 103.389 180.368 102.895 180.368H99.9474Z" fill="#06566A"/>
<rect x="49" y="146" width="88" height="88" rx="10" stroke="#82AAB5" stroke-width="2"/>
<rect width="60" height="43.0383" transform="translate(423 306)" fill="#ECFF00" fill-opacity="0.25"/>
<path d="M437.24 328.211L445.546 331.14V335.22L433 329.902V326.463L445.546 321.144V325.224L437.24 328.211Z" fill="#ECFF00"/>
<path d="M450.341 339.038H447.208L455.018 316H458.151L450.341 339.038Z" fill="#ECFF00"/>
<path d="M468.774 328.168L460.308 325.209V321.158L473 326.477V329.902L460.308 335.235V331.169L468.774 328.168Z" fill="#ECFF00"/>
<rect x="409" y="284" width="88" height="88" rx="10" stroke="#82AAB5" stroke-width="2"/>
<path d="M424.791 89.9434V91.3145H420.338V89.9434H424.791ZM420.859 86.4688V95H419.102V86.4688H420.859ZM426.045 86.4688V95H424.293V86.4688H426.045ZM433.299 93.6289V95H428.758V93.6289H433.299ZM429.332 86.4688V95H427.574V86.4688H429.332ZM432.707 89.9434V91.2793H428.758V89.9434H432.707ZM433.293 86.4688V87.8457H428.758V86.4688H433.293ZM437.793 87.9277L435.473 95H433.604L436.773 86.4688H437.963L437.793 87.9277ZM439.721 95L437.395 87.9277L437.207 86.4688H438.408L441.596 95H439.721ZM439.615 91.8242V93.2012H435.109V91.8242H439.615ZM445.006 95H443.148L443.16 93.6289H445.006C445.467 93.6289 445.855 93.5254 446.172 93.3184C446.488 93.1074 446.727 92.8008 446.887 92.3984C447.051 91.9961 447.133 91.5098 447.133 90.9395V90.5234C447.133 90.0859 447.086 89.7012 446.992 89.3691C446.902 89.0371 446.768 88.7578 446.588 88.5312C446.408 88.3047 446.188 88.1348 445.926 88.0215C445.664 87.9043 445.363 87.8457 445.023 87.8457H443.113V86.4688H445.023C445.594 86.4688 446.115 86.5664 446.588 86.7617C447.064 86.9531 447.477 87.2285 447.824 87.5879C448.172 87.9473 448.439 88.377 448.627 88.877C448.818 89.373 448.914 89.9258 448.914 90.5352V90.9395C448.914 91.5449 448.818 92.0977 448.627 92.5977C448.439 93.0977 448.172 93.5273 447.824 93.8867C447.48 94.2422 447.068 94.5176 446.588 94.7129C446.111 94.9043 445.584 95 445.006 95ZM444.145 86.4688V95H442.387V86.4688H444.145ZM455.676 93.6289V95H451.381V93.6289H455.676ZM451.949 86.4688V95H450.191V86.4688H451.949ZM458.553 86.4688V95H456.801V86.4688H458.553ZM467.143 86.4688V95H465.385L461.957 89.2812V95H460.199V86.4688H461.957L465.391 92.1934V86.4688H467.143ZM474.396 93.6289V95H469.855V93.6289H474.396ZM470.43 86.4688V95H468.672V86.4688H470.43ZM473.805 89.9434V91.2793H469.855V89.9434H473.805ZM474.391 86.4688V87.8457H469.855V86.4688H474.391Z" fill="#ECFF00"/>
<rect x="418" y="102" width="60" height="4" fill="#ECFF00" fill-opacity="0.25"/>
<rect x="418" y="108" width="60" height="4" fill="#ECFF00" fill-opacity="0.25"/>
<rect x="418" y="114" width="44" height="4" fill="#ECFF00" fill-opacity="0.25"/>
<rect x="409" y="62" width="88" height="88" rx="10" stroke="#82AAB5" stroke-width="2"/>
<rect x="308" y="19" width="40" height="4" fill="#ECFF00" fill-opacity="0.25"/>
<rect x="308" y="25" width="40" height="4" fill="#ECFF00" fill-opacity="0.25"/>
<rect x="308" y="31" width="29.3333" height="4" fill="#ECFF00" fill-opacity="0.25"/>
<rect x="298" y="40" width="60" height="2" fill="#ECFF00"/>
<rect x="308" y="47" width="40" height="4" fill="#ECFF00" fill-opacity="0.25"/>
<rect x="308" y="53" width="40" height="4" fill="#ECFF00" fill-opacity="0.25"/>
<rect x="308" y="59" width="29.3333" height="4" fill="#ECFF00" fill-opacity="0.25"/>
<rect x="289" y="2" width="88" height="88" rx="10" stroke="#82AAB5" stroke-width="2"/>
<rect width="40" height="30" transform="translate(193 89)" fill="#ECFF00"/>
<path fill-rule="evenodd" clip-rule="evenodd" d="M201.375 100C203.239 100 204.75 98.6569 204.75 97C204.75 95.3431 203.239 94 201.375 94C199.511 94 198 95.3431 198 97C198 98.6569 199.511 100 201.375 100ZM215.911 98.6667L227.618 114H212.634H204.204H198L205.317 104.667L208.363 108.552L215.911 98.6667Z" fill="#ECFF00"/>
<rect x="193" y="124" width="40" height="4" fill="#ECFF00" fill-opacity="0.25"/>
<rect x="193" y="130" width="40" height="4" fill="#ECFF00" fill-opacity="0.25"/>
<rect x="193" y="136" width="29.3333" height="4" fill="#ECFF00" fill-opacity="0.25"/>
<rect x="169" y="70" width="88" height="88" rx="10" stroke="#82AAB5" stroke-width="2"/>
<rect width="60" height="30" transform="translate(63 64)" fill="#ECFF00"/>
<path d="M73.5352 79.2559H71.3438L71.332 78.0488H73.1719C73.4961 78.0488 73.7617 78.0078 73.9688 77.9258C74.1758 77.8398 74.3301 77.7168 74.4316 77.5566C74.5371 77.3926 74.5898 77.1934 74.5898 76.959C74.5898 76.6934 74.5391 76.4785 74.4375 76.3145C74.3398 76.1504 74.1855 76.0312 73.9746 75.957C73.7676 75.8828 73.5 75.8457 73.1719 75.8457H71.9531V83H70.1953V74.4688H73.1719C73.668 74.4688 74.1113 74.5156 74.502 74.6094C74.8965 74.7031 75.2305 74.8457 75.5039 75.0371C75.7773 75.2285 75.9863 75.4707 76.1309 75.7637C76.2754 76.0527 76.3477 76.3965 76.3477 76.7949C76.3477 77.1465 76.2676 77.4707 76.1074 77.7676C75.9512 78.0645 75.7031 78.3066 75.3633 78.4941C75.0273 78.6816 74.5879 78.7852 74.0449 78.8047L73.5352 79.2559ZM73.459 83H70.8633L71.5488 81.6289H73.459C73.7676 81.6289 74.0195 81.5801 74.2148 81.4824C74.4102 81.3809 74.5547 81.2441 74.6484 81.0723C74.7422 80.9004 74.7891 80.7031 74.7891 80.4805C74.7891 80.2305 74.7461 80.0137 74.6602 79.8301C74.5781 79.6465 74.4453 79.5059 74.2617 79.4082C74.0781 79.3066 73.8359 79.2559 73.5352 79.2559H71.8418L71.8535 78.0488H73.9629L74.3672 78.5234C74.8867 78.5156 75.3047 78.6074 75.6211 78.7988C75.9414 78.9863 76.1738 79.2305 76.3184 79.5312C76.4668 79.832 76.541 80.1543 76.541 80.498C76.541 81.0449 76.4219 81.5059 76.1836 81.8809C75.9453 82.252 75.5957 82.5312 75.1348 82.7188C74.6777 82.9062 74.1191 83 73.459 83ZM82.5703 74.4688H84.3223V80.1055C84.3223 80.7617 84.1816 81.3145 83.9004 81.7637C83.623 82.2129 83.2383 82.5508 82.7461 82.7773C82.2578 83.0039 81.6953 83.1172 81.0586 83.1172C80.4219 83.1172 79.8555 83.0039 79.3594 82.7773C78.8672 82.5508 78.4805 82.2129 78.1992 81.7637C77.9219 81.3145 77.7832 80.7617 77.7832 80.1055V74.4688H79.541V80.1055C79.541 80.4883 79.6016 80.8008 79.7227 81.043C79.8438 81.2852 80.0176 81.4629 80.2441 81.5762C80.4746 81.6895 80.7461 81.7461 81.0586 81.7461C81.3789 81.7461 81.6504 81.6895 81.873 81.5762C82.0996 81.4629 82.2715 81.2852 82.3887 81.043C82.5098 80.8008 82.5703 80.4883 82.5703 80.1055V74.4688ZM89.584 74.4688V83H87.832V74.4688H89.584ZM92.209 74.4688V75.8457H85.248V74.4688H92.209ZM97.1191 74.4688V83H95.3672V74.4688H97.1191ZM99.7441 74.4688V75.8457H92.7832V74.4688H99.7441ZM107.59 78.5352V78.9395C107.59 79.5879 107.502 80.1699 107.326 80.6855C107.15 81.2012 106.902 81.6406 106.582 82.0039C106.262 82.3633 105.879 82.6387 105.434 82.8301C104.992 83.0215 104.502 83.1172 103.963 83.1172C103.428 83.1172 102.938 83.0215 102.492 82.8301C102.051 82.6387 101.668 82.3633 101.344 82.0039C101.02 81.6406 100.768 81.2012 100.588 80.6855C100.412 80.1699 100.324 79.5879 100.324 78.9395V78.5352C100.324 77.8828 100.412 77.3008 100.588 76.7891C100.764 76.2734 101.012 75.834 101.332 75.4707C101.656 75.1074 102.039 74.8301 102.48 74.6387C102.926 74.4473 103.416 74.3516 103.951 74.3516C104.49 74.3516 104.98 74.4473 105.422 74.6387C105.867 74.8301 106.25 75.1074 106.57 75.4707C106.895 75.834 107.145 76.2734 107.32 76.7891C107.5 77.3008 107.59 77.8828 107.59 78.5352ZM105.814 78.9395V78.5234C105.814 78.0703 105.773 77.6719 105.691 77.3281C105.609 76.9844 105.488 76.6953 105.328 76.4609C105.168 76.2266 104.973 76.0508 104.742 75.9336C104.512 75.8125 104.248 75.752 103.951 75.752C103.654 75.752 103.391 75.8125 103.16 75.9336C102.934 76.0508 102.74 76.2266 102.58 76.4609C102.424 76.6953 102.305 76.9844 102.223 77.3281C102.141 77.6719 102.1 78.0703 102.1 78.5234V78.9395C102.1 79.3887 102.141 79.7871 102.223 80.1348C102.305 80.4785 102.426 80.7695 102.586 81.0078C102.746 81.2422 102.941 81.4199 103.172 81.541C103.402 81.6621 103.666 81.7227 103.963 81.7227C104.26 81.7227 104.523 81.6621 104.754 81.541C104.984 81.4199 105.178 81.2422 105.334 81.0078C105.49 80.7695 105.609 80.4785 105.691 80.1348C105.773 79.7871 105.814 79.3887 105.814 78.9395ZM115.799 74.4688V83H114.041L110.613 77.2812V83H108.855V74.4688H110.613L114.047 80.1934V74.4688H115.799Z" fill="#06566A"/>
<rect x="49" y="35" width="88" height="88" rx="10" stroke="#82AAB5" stroke-width="2"/>
<path d="M73.5352 79.2559H71.3438L71.332 78.0488H73.1719C73.4961 78.0488 73.7617 78.0078 73.9688 77.9258C74.1758 77.8398 74.3301 77.7168 74.4316 77.5566C74.5371 77.3926 74.5898 77.1934 74.5898 76.959C74.5898 76.6934 74.5391 76.4785 74.4375 76.3145C74.3398 76.1504 74.1855 76.0312 73.9746 75.957C73.7676 75.8828 73.5 75.8457 73.1719 75.8457H71.9531V83H70.1953V74.4688H73.1719C73.668 74.4688 74.1113 74.5156 74.502 74.6094C74.8965 74.7031 75.2305 74.8457 75.5039 75.0371C75.7773 75.2285 75.9863 75.4707 76.1309 75.7637C76.2754 76.0527 76.3477 76.3965 76.3477 76.7949C76.3477 77.1465 76.2676 77.4707 76.1074 77.7676C75.9512 78.0645 75.7031 78.3066 75.3633 78.4941C75.0273 78.6816 74.5879 78.7852 74.0449 78.8047L73.5352 79.2559ZM73.459 83H70.8633L71.5488 81.6289H73.459C73.7676 81.6289 74.0195 81.5801 74.2148 81.4824C74.4102 81.3809 74.5547 81.2441 74.6484 81.0723C74.7422 80.9004 74.7891 80.7031 74.7891 80.4805C74.7891 80.2305 74.7461 80.0137 74.6602 79.8301C74.5781 79.6465 74.4453 79.5059 74.2617 79.4082C74.0781 79.3066 73.8359 79.2559 73.5352 79.2559H71.8418L71.8535 78.0488H73.9629L74.3672 78.5234C74.8867 78.5156 75.3047 78.6074 75.6211 78.7988C75.9414 78.9863 76.1738 79.2305 76.3184 79.5312C76.4668 79.832 76.541 80.1543 76.541 80.498C76.541 81.0449 76.4219 81.5059 76.1836 81.8809C75.9453 82.252 75.5957 82.5312 75.1348 82.7188C74.6777 82.9062 74.1191 83 73.459 83ZM82.5703 74.4688H84.3223V80.1055C84.3223 80.7617 84.1816 81.3145 83.9004 81.7637C83.623 82.2129 83.2383 82.5508 82.7461 82.7773C82.2578 83.0039 81.6953 83.1172 81.0586 83.1172C80.4219 83.1172 79.8555 83.0039 79.3594 82.7773C78.8672 82.5508 78.4805 82.2129 78.1992 81.7637C77.9219 81.3145 77.7832 80.7617 77.7832 80.1055V74.4688H79.541V80.1055C79.541 80.4883 79.6016 80.8008 79.7227 81.043C79.8438 81.2852 80.0176 81.4629 80.2441 81.5762C80.4746 81.6895 80.7461 81.7461 81.0586 81.7461C81.3789 81.7461 81.6504 81.6895 81.873 81.5762C82.0996 81.4629 82.2715 81.2852 82.3887 81.043C82.5098 80.8008 82.5703 80.4883 82.5703 80.1055V74.4688ZM89.584 74.4688V83H87.832V74.4688H89.584ZM92.209 74.4688V75.8457H85.248V74.4688H92.209ZM97.1191 74.4688V83H95.3672V74.4688H97.1191ZM99.7441 74.4688V75.8457H92.7832V74.4688H99.7441ZM107.59 78.5352V78.9395C107.59 79.5879 107.502 80.1699 107.326 80.6855C107.15 81.2012 106.902 81.6406 106.582 82.0039C106.262 82.3633 105.879 82.6387 105.434 82.8301C104.992 83.0215 104.502 83.1172 103.963 83.1172C103.428 83.1172 102.938 83.0215 102.492 82.8301C102.051 82.6387 101.668 82.3633 101.344 82.0039C101.02 81.6406 100.768 81.2012 100.588 80.6855C100.412 80.1699 100.324 79.5879 100.324 78.9395V78.5352C100.324 77.8828 100.412 77.3008 100.588 76.7891C100.764 76.2734 101.012 75.834 101.332 75.4707C101.656 75.1074 102.039 74.8301 102.48 74.6387C102.926 74.4473 103.416 74.3516 103.951 74.3516C104.49 74.3516 104.98 74.4473 105.422 74.6387C105.867 74.8301 106.25 75.1074 106.57 75.4707C106.895 75.834 107.145 76.2734 107.32 76.7891C107.5 77.3008 107.59 77.8828 107.59 78.5352ZM105.814 78.9395V78.5234C105.814 78.0703 105.773 77.6719 105.691 77.3281C105.609 76.9844 105.488 76.6953 105.328 76.4609C105.168 76.2266 104.973 76.0508 104.742 75.9336C104.512 75.8125 104.248 75.752 103.951 75.752C103.654 75.752 103.391 75.8125 103.16 75.9336C102.934 76.0508 102.74 76.2266 102.58 76.4609C102.424 76.6953 102.305 76.9844 102.223 77.3281C102.141 77.6719 102.1 78.0703 102.1 78.5234V78.9395C102.1 79.3887 102.141 79.7871 102.223 80.1348C102.305 80.4785 102.426 80.7695 102.586 81.0078C102.746 81.2422 102.941 81.4199 103.172 81.541C103.402 81.6621 103.666 81.7227 103.963 81.7227C104.26 81.7227 104.523 81.6621 104.754 81.541C104.984 81.4199 105.178 81.2422 105.334 81.0078C105.49 80.7695 105.609 80.4785 105.691 80.1348C105.773 79.7871 105.814 79.3887 105.814 78.9395ZM115.799 74.4688V83H114.041L110.613 77.2812V83H108.855V74.4688H110.613L114.047 80.1934V74.4688H115.799Z" fill="#06566A"/>
</svg>
