<svg width="600" height="420" viewBox="0 0 600 420" fill="none" xmlns="http://www.w3.org/2000/svg">
<rect x="305.5" y="181.5" width="192" height="212" rx="9.5" stroke="#82AAB5" stroke-width="3"/>
<path fill-rule="evenodd" clip-rule="evenodd" d="M337.698 199C334.417 199 331.756 201.66 331.756 204.94V205.864H330.841C326.51 205.864 323 209.374 323 213.703V239.078C323 243.505 326.589 247.094 331.017 247.094H375.914C379.161 247.094 381.793 244.462 381.793 241.216V204.878C381.793 201.632 379.161 199 375.914 199H337.698ZM331.756 211.586V239.509C331.598 240.034 331.11 240.417 330.533 240.417C329.827 240.417 329.255 239.845 329.255 239.139V211.586H331.756ZM336.76 210.073C336.76 207.748 338.645 205.864 340.969 205.864H372.581C374.905 205.864 376.79 207.748 376.79 210.073C376.79 212.397 374.905 214.281 372.581 214.281H340.969C338.645 214.281 336.76 212.397 336.76 210.073ZM339.032 221.196C337.777 221.196 336.76 222.213 336.76 223.468C336.76 224.722 337.777 225.739 339.032 225.739H352.05C353.304 225.739 354.321 224.722 354.321 223.468C354.321 222.213 353.304 221.196 352.05 221.196H339.032ZM336.76 233.353C336.76 232.099 337.777 231.082 339.032 231.082H352.05C353.304 231.082 354.321 232.099 354.321 233.353C354.321 234.608 353.304 235.625 352.05 235.625H339.032C337.777 235.625 336.76 234.608 336.76 233.353ZM361.938 221.196C360.683 221.196 359.666 222.213 359.666 223.468C359.666 224.722 360.683 225.739 361.938 225.739H374.956C376.21 225.739 377.227 224.722 377.227 223.468C377.227 222.213 376.21 221.196 374.956 221.196H361.938ZM359.666 233.353C359.666 232.099 360.683 231.082 361.938 231.082H374.956C376.21 231.082 377.227 232.099 377.227 233.353C377.227 234.608 376.21 235.625 374.956 235.625H361.938C360.683 235.625 359.666 234.608 359.666 233.353Z" fill="#ECFF00" fill-opacity="0.25"/>
<path d="M387.138 212.359C387.138 210.146 388.933 208.352 391.147 208.352H409.853C412.067 208.352 413.862 210.146 413.862 212.359C413.862 214.573 412.067 216.367 409.853 216.367H391.147C388.933 216.367 387.138 214.573 387.138 212.359Z" fill="#ECFF00" fill-opacity="0.25"/>
<path d="M419.207 212.359C419.207 210.146 421.002 208.352 423.216 208.352H441.922C444.136 208.352 445.931 210.146 445.931 212.359C445.931 214.573 444.136 216.367 441.922 216.367H423.216C421.002 216.367 419.207 214.573 419.207 212.359Z" fill="#ECFF00" fill-opacity="0.25"/>
<path d="M387.138 229.727C387.138 225.3 390.727 221.711 395.155 221.711H469.983C474.411 221.711 478 225.3 478 229.727C478 234.153 474.411 237.742 469.983 237.742H395.155C390.727 237.742 387.138 234.153 387.138 229.727Z" fill="#ECFF00" fill-opacity="0.25"/>
<path fill-rule="evenodd" clip-rule="evenodd" d="M337.698 260.453C334.417 260.453 331.756 263.113 331.756 266.394V267.318H330.841C326.51 267.318 323 270.827 323 275.157V300.531C323 304.958 326.589 308.547 331.017 308.547H375.914C379.161 308.547 381.793 305.915 381.793 302.669V266.331C381.793 263.085 379.161 260.453 375.914 260.453H337.698ZM331.756 273.039V300.962C331.598 301.487 331.11 301.87 330.533 301.87C329.827 301.87 329.255 301.298 329.255 300.592V273.039H331.756ZM336.76 271.526C336.76 269.202 338.645 267.318 340.969 267.318H372.581C374.905 267.318 376.79 269.202 376.79 271.526C376.79 273.85 374.905 275.734 372.581 275.734H340.969C338.645 275.734 336.76 273.85 336.76 271.526ZM339.032 282.65C337.777 282.65 336.76 283.666 336.76 284.921C336.76 286.175 337.777 287.192 339.032 287.192H352.05C353.304 287.192 354.321 286.175 354.321 284.921C354.321 283.666 353.304 282.65 352.05 282.65H339.032ZM336.76 294.807C336.76 293.552 337.777 292.536 339.032 292.536H352.05C353.304 292.536 354.321 293.552 354.321 294.807C354.321 296.061 353.304 297.078 352.05 297.078H339.032C337.777 297.078 336.76 296.061 336.76 294.807ZM361.938 282.65C360.683 282.65 359.666 283.666 359.666 284.921C359.666 286.175 360.683 287.192 361.938 287.192H374.956C376.21 287.192 377.227 286.175 377.227 284.921C377.227 283.666 376.21 282.65 374.956 282.65H361.938ZM359.666 294.807C359.666 293.552 360.683 292.536 361.938 292.536H374.956C376.21 292.536 377.227 293.552 377.227 294.807C377.227 296.061 376.21 297.078 374.956 297.078H361.938C360.683 297.078 359.666 296.061 359.666 294.807Z" fill="#ECFF00"/>
<path d="M387.138 273.812C387.138 271.599 388.933 269.805 391.147 269.805H409.853C412.067 269.805 413.862 271.599 413.862 273.812C413.862 276.026 412.067 277.82 409.853 277.82H391.147C388.933 277.82 387.138 276.026 387.138 273.812Z" fill="#ECFF00"/>
<path d="M419.207 273.812C419.207 271.599 421.002 269.805 423.216 269.805H441.922C444.136 269.805 445.931 271.599 445.931 273.812C445.931 276.026 444.136 277.82 441.922 277.82H423.216C421.002 277.82 419.207 276.026 419.207 273.812Z" fill="#ECFF00"/>
<path d="M387.138 291.18C387.138 286.753 390.727 283.164 395.155 283.164H469.983C474.411 283.164 478 286.753 478 291.18C478 295.607 474.411 299.195 469.983 299.195H395.155C390.727 299.195 387.138 295.607 387.138 291.18Z" fill="#ECFF00"/>
<path fill-rule="evenodd" clip-rule="evenodd" d="M337.698 321.906C334.417 321.906 331.756 324.566 331.756 327.847V328.771H330.841C326.51 328.771 323 332.28 323 336.61V361.984C323 366.411 326.589 370 331.017 370H375.914C379.161 370 381.793 367.368 381.793 364.122V327.784C381.793 324.538 379.161 321.906 375.914 321.906H337.698ZM331.756 334.493V362.415C331.598 362.941 331.11 363.323 330.533 363.323C329.827 363.323 329.255 362.751 329.255 362.045V334.493H331.756ZM336.76 332.979C336.76 330.655 338.645 328.771 340.969 328.771H372.581C374.905 328.771 376.79 330.655 376.79 332.979C376.79 335.303 374.905 337.187 372.581 337.187H340.969C338.645 337.187 336.76 335.303 336.76 332.979ZM339.032 344.103C337.777 344.103 336.76 345.119 336.76 346.374C336.76 347.628 337.777 348.645 339.032 348.645H352.05C353.304 348.645 354.321 347.628 354.321 346.374C354.321 345.119 353.304 344.103 352.05 344.103H339.032ZM336.76 356.26C336.76 355.005 337.777 353.989 339.032 353.989H352.05C353.304 353.989 354.321 355.005 354.321 356.26C354.321 357.514 353.304 358.531 352.05 358.531H339.032C337.777 358.531 336.76 357.514 336.76 356.26ZM361.938 344.103C360.683 344.103 359.666 345.119 359.666 346.374C359.666 347.628 360.683 348.645 361.938 348.645H374.956C376.21 348.645 377.227 347.628 377.227 346.374C377.227 345.119 376.21 344.103 374.956 344.103H361.938ZM359.666 356.26C359.666 355.005 360.683 353.989 361.938 353.989H374.956C376.21 353.989 377.227 355.005 377.227 356.26C377.227 357.514 376.21 358.531 374.956 358.531H361.938C360.683 358.531 359.666 357.514 359.666 356.26Z" fill="#ECFF00" fill-opacity="0.25"/>
<path d="M387.138 335.266C387.138 333.052 388.933 331.258 391.147 331.258H409.853C412.067 331.258 413.862 333.052 413.862 335.266C413.862 337.479 412.067 339.273 409.853 339.273H391.147C388.933 339.273 387.138 337.479 387.138 335.266Z" fill="#ECFF00" fill-opacity="0.25"/>
<path d="M419.207 335.266C419.207 333.052 421.002 331.258 423.216 331.258H441.922C444.136 331.258 445.931 333.052 445.931 335.266C445.931 337.479 444.136 339.273 441.922 339.273H423.216C421.002 339.273 419.207 337.479 419.207 335.266Z" fill="#ECFF00" fill-opacity="0.25"/>
<path d="M387.138 352.633C387.138 348.206 390.727 344.617 395.155 344.617H469.983C474.411 344.617 478 348.206 478 352.633C478 357.06 474.411 360.648 469.983 360.648H395.155C390.727 360.648 387.138 357.06 387.138 352.633Z" fill="#ECFF00" fill-opacity="0.25"/>
<rect x="446.5" y="38.5" width="94" height="127" rx="9.5" stroke="#82AAB5" stroke-width="3"/>
<path d="M461 54H476.5V58.65H461V54Z" fill="#ECFF00" fill-opacity="0.25"/>
<path d="M479.6 54H495.1V58.65H479.6V54Z" fill="#ECFF00" fill-opacity="0.25"/>
<path d="M461 61.75H507.5V71.05H461V61.75Z" fill="#ECFF00"/>
<path d="M461 133.05H523V138.475H461V133.05Z" fill="#ECFF00" fill-opacity="0.25"/>
<path d="M461 141.575H523V147H461V141.575Z" fill="#ECFF00" fill-opacity="0.25"/>
<rect x="461" y="77.25" width="62" height="48.05" fill="#ECFF00"/>
<path fill-rule="evenodd" clip-rule="evenodd" d="M475.676 85V89.4246H468.75V116H515.25V85H475.676ZM475.676 93.1128V111.696H473.697V93.1128H475.676ZM479.633 89.4246H511.293V94.8496H479.633V89.4246ZM494.086 99.3073H479.633V102.407H494.086V99.3073ZM479.633 105.507H494.086V108.607H479.633V105.507ZM511.639 99.3073H497.186V102.407H511.639V99.3073ZM497.186 105.507H511.639V108.607H497.186V105.507Z" fill="#06566A"/>
<path d="M93.4409 70.8229C93.4409 68.4244 95.3853 66.48 97.7839 66.48H118.051C120.449 66.48 122.394 68.4244 122.394 70.8229V70.8229C122.394 73.2215 120.449 75.1659 118.051 75.1659H97.7839C95.3853 75.1659 93.4409 73.2215 93.4409 70.8229V70.8229Z" fill="#ECFF00" fill-opacity="0.25"/>
<path d="M128.184 70.8229C128.184 68.4244 130.129 66.48 132.527 66.48H152.795C155.193 66.48 157.137 68.4244 157.137 70.8229V70.8229C157.137 73.2215 155.193 75.1659 152.795 75.1659H132.527C130.129 75.1659 128.184 73.2215 128.184 70.8229V70.8229Z" fill="#ECFF00" fill-opacity="0.25"/>
<path d="M93.4409 89.6424C93.4409 84.8453 97.3297 80.9565 102.127 80.9565H171.614C176.411 80.9565 180.3 84.8453 180.3 89.6424V89.6424C180.3 94.4394 176.411 98.3283 171.614 98.3283H102.127C97.3297 98.3283 93.4409 94.4394 93.4409 89.6424V89.6424Z" fill="#ECFF00"/>
<path d="M69.0265 155.54C69.0265 148.36 74.8468 142.54 82.0265 142.54H117.062C124.242 142.54 130.062 148.36 130.062 155.54V187.759C130.062 194.939 124.242 200.759 117.062 200.759H82.0265C74.8468 200.759 69.0265 194.939 69.0265 187.759V155.54Z" fill="#ECFF00"/>
<path d="M216.452 65.5411C216.452 65.0225 216.872 64.6021 217.391 64.6021V64.6021C217.909 64.6021 218.33 65.0225 218.33 65.5411V205.454C218.33 205.973 217.909 206.393 217.391 206.393V206.393C216.872 206.393 216.452 205.973 216.452 205.454V65.5411Z" fill="#6A9AA6"/>
<path d="M93.4409 115.681C93.4409 112.883 95.7094 110.614 98.5077 110.614H204.186C206.984 110.614 209.253 112.883 209.253 115.681V115.681C209.253 118.479 206.984 120.748 204.186 120.748H98.5077C95.7094 120.748 93.4409 118.479 93.4409 115.681V115.681Z" fill="#82AAB5" fill-opacity="0.5"/>
<path d="M93.4409 131.605C93.4409 128.807 95.7094 126.538 98.5077 126.538H204.186C206.984 126.538 209.253 128.807 209.253 131.605V131.605C209.253 134.403 206.984 136.672 204.186 136.672H98.5077C95.7094 136.672 93.4409 134.403 93.4409 131.605V131.605Z" fill="#82AAB5" fill-opacity="0.5"/>
<path d="M93.4409 211.46C93.4409 208.662 95.7094 206.394 98.5077 206.394H204.186C206.984 206.394 209.253 208.662 209.253 211.46V211.46C209.253 214.259 206.984 216.527 204.186 216.527H98.5077C95.7094 216.527 93.4409 214.259 93.4409 211.46V211.46Z" fill="#82AAB5" fill-opacity="0.5"/>
<path d="M93.4409 227.384C93.4409 224.586 95.7094 222.318 98.5077 222.318H204.186C206.984 222.318 209.253 224.586 209.253 227.384V227.384C209.253 230.183 206.984 232.451 204.186 232.451H98.5077C95.7094 232.451 93.4409 230.183 93.4409 227.384V227.384Z" fill="#82AAB5" fill-opacity="0.5"/>
<path d="M93.4409 243.387C93.4409 240.589 95.7094 238.32 98.5077 238.32H204.186C206.984 238.32 209.253 240.589 209.253 243.387V243.387C209.253 246.185 206.984 248.454 204.186 248.454H98.5077C95.7094 248.454 93.4409 246.185 93.4409 243.387V243.387Z" fill="#82AAB5" fill-opacity="0.5"/>
<path d="M93.4409 259.311C93.4409 256.513 95.7094 254.244 98.5077 254.244H147.845C150.643 254.244 152.912 256.513 152.912 259.311V259.311C152.912 262.11 150.643 264.378 147.845 264.378H98.5077C95.7094 264.378 93.4409 262.11 93.4409 259.311V259.311Z" fill="#82AAB5" fill-opacity="0.5"/>
<path d="M137.575 147.652C137.575 144.829 139.863 142.54 142.687 142.54H203.827C206.651 142.54 208.94 144.829 208.94 147.652V147.652C208.94 150.476 206.651 152.765 203.827 152.765H142.687C139.863 152.765 137.575 150.476 137.575 147.652V147.652Z" fill="#82AAB5" fill-opacity="0.5"/>
<path d="M137.575 163.72C137.575 160.897 139.863 158.608 142.687 158.608H203.827C206.651 158.608 208.94 160.897 208.94 163.72V163.72C208.94 166.544 206.651 168.832 203.827 168.832H142.687C139.863 168.832 137.575 166.544 137.575 163.72V163.72Z" fill="#82AAB5" fill-opacity="0.5"/>
<path d="M137.575 179.579C137.575 176.756 139.863 174.467 142.687 174.467H203.827C206.651 174.467 208.94 176.756 208.94 179.579V179.579C208.94 182.403 206.651 184.692 203.827 184.692H142.687C139.863 184.692 137.575 182.403 137.575 179.579V179.579Z" fill="#82AAB5" fill-opacity="0.5"/>
<path d="M137.575 195.647C137.575 192.823 139.863 190.534 142.687 190.534H203.827C206.651 190.534 208.94 192.823 208.94 195.647V195.647C208.94 198.47 206.651 200.759 203.827 200.759H142.687C139.863 200.759 137.575 198.47 137.575 195.647V195.647Z" fill="#82AAB5" fill-opacity="0.5"/>
<path d="M225.842 77.6021C225.842 70.4223 231.662 64.6021 238.842 64.6021H257.915C265.094 64.6021 270.915 70.4223 270.915 77.6021V94.7968C270.915 101.976 265.094 107.797 257.915 107.797H238.842C231.662 107.797 225.842 101.976 225.842 94.7968V77.6021Z" fill="#ECFF00"/>
<path d="M227.72 146.766C227.72 142.358 231.293 138.784 235.702 138.784H236.641C241.049 138.784 244.622 142.358 244.622 146.766V146.766C244.622 151.174 241.049 154.747 236.641 154.747H235.702C231.293 154.747 227.72 151.174 227.72 146.766V146.766Z" fill="#ECFF00"/>
<path d="M248.378 146.766C248.378 142.358 251.952 138.784 256.36 138.784H257.299C261.707 138.784 265.281 142.358 265.281 146.766V146.766C265.281 151.174 261.707 154.747 257.299 154.747H256.36C251.952 154.747 248.378 151.174 248.378 146.766V146.766Z" fill="#ECFF00"/>
<path d="M227.72 117.839C227.72 115.923 229.273 114.37 231.189 114.37H267.446C269.361 114.37 270.915 115.923 270.915 117.839V117.839C270.915 119.755 269.361 121.308 267.446 121.308H231.189C229.273 121.308 227.72 119.755 227.72 117.839V117.839Z" fill="#82AAB5" fill-opacity="0.5"/>
<path d="M227.72 128.742C227.72 126.826 229.273 125.273 231.189 125.273H267.446C269.361 125.273 270.915 126.826 270.915 128.742V128.742C270.915 130.658 269.361 132.211 267.446 132.211H231.189C229.273 132.211 227.72 130.658 227.72 128.742V128.742Z" fill="#82AAB5" fill-opacity="0.5"/>
<path d="M128 295.893C128 291.421 131.625 287.796 136.097 287.796H136.801C141.273 287.796 144.898 291.421 144.898 295.893V295.893C144.898 300.365 141.273 303.99 136.801 303.99H136.097C131.625 303.99 128 300.365 128 295.893V295.893Z" fill="#ECFF00" fill-opacity="0.25"/>
<path d="M158.276 295.893C158.276 291.421 161.901 287.796 166.372 287.796H167.781C172.252 287.796 175.878 291.421 175.878 295.893V295.893C175.878 300.365 172.252 303.99 167.781 303.99H166.372C161.901 303.99 158.276 300.365 158.276 295.893V295.893Z" fill="#ECFF00" fill-opacity="0.25"/>
<rect x="60.5" y="48.5" width="220.898" height="273" rx="9.5" stroke="#82AAB5" stroke-width="3"/>
</svg>
