<svg width="880" height="464" viewBox="0 0 880 464" fill="none" xmlns="http://www.w3.org/2000/svg">
<rect width="880" height="462" transform="translate(0 2)" fill="white"/>
<ellipse opacity="0.2" cx="637" cy="240" rx="221" ry="219" fill="url(#paint0_radial)"/>
<path d="M850.939 27H637V77.7132L710.271 151H880V56.0673L850.939 27Z" fill="#ECFF00" fill-opacity="0.2"/>
<path opacity="0.2" d="M554.854 178.854L531.685 153.632L531.685 68.5807L595.914 0.832988L662.488 0.832996L672.166 9.92467L672.166 57.7327L554.854 178.854Z" fill="#065669" fill-opacity="0.4"/>
<path d="M833.318 167.664L783.41 165.682L720.602 224.095L716.105 337.331L739.061 362.186L835.522 366.017L860.376 343.061L865.94 202.984L833.318 167.664Z" fill="#ECFF00"/>
<path d="M762.394 176.61L717.045 218.494L712.298 338.021L743.728 371.614L819.188 385.952L848.37 359.808L860.807 205.302L833.404 176.07L762.394 176.61Z" stroke="#065669" stroke-opacity="0.4" stroke-width="2"/>
<path d="M811.54 160.709L819.928 161.042L861.353 122.782L862.885 84.1981L852.817 73.2969L798.311 123.639L797.444 145.447L811.54 160.709Z" fill="#06566A"/>
<path d="M793.44 161.67L747.307 159.837L717.152 125.876L730.3 112.116L749.173 112.865L801.289 154.42L793.44 161.67Z" fill="#06566A"/>
<circle cx="740.022" cy="316.858" r="2.51834" transform="rotate(2.2743 740.022 316.858)" fill="white"/>
<circle cx="787.068" cy="348.551" r="2.09862" transform="rotate(2.2743 787.068 348.551)" fill="white"/>
<circle cx="797.652" cy="283.023" r="1.67889" transform="rotate(2.2743 797.652 283.023)" fill="white"/>
<circle cx="768.223" cy="262.531" r="2.51834" transform="rotate(2.2743 768.223 262.531)" fill="white"/>
<circle cx="795.281" cy="321.574" r="1.67889" transform="rotate(2.2743 795.281 321.574)" fill="white"/>
<circle cx="778.567" cy="298.227" r="1.67889" transform="rotate(2.2743 778.567 298.227)" fill="white"/>
<circle cx="799.641" cy="317.547" r="1.67889" transform="rotate(2.2743 799.641 317.547)" fill="white"/>
<circle cx="759.746" cy="306.721" r="1.67889" transform="rotate(2.2743 759.746 306.721)" fill="white"/>
<circle cx="755.42" cy="309.908" r="1.67889" transform="rotate(2.2743 755.42 309.908)" fill="white"/>
<circle cx="745.753" cy="299.443" r="1.67889" transform="rotate(2.2743 745.753 299.443)" fill="white"/>
<circle cx="754.002" cy="282.129" r="5.03668" transform="rotate(2.2743 754.002 282.129)" fill="white"/>
<circle cx="750.169" cy="251.733" r="1.67889" transform="rotate(2.2743 750.169 251.733)" fill="white"/>
<circle cx="745.259" cy="333.029" r="4.19724" transform="rotate(2.2743 745.259 333.029)" fill="white"/>
<circle cx="771.156" cy="315.575" r="2.51834" transform="rotate(2.2743 771.156 315.575)" fill="white"/>
<circle cx="742.858" cy="266.565" r="2.51834" transform="rotate(2.2743 742.858 266.565)" fill="white"/>
<circle cx="733.944" cy="300.654" r="2.51834" transform="rotate(2.2743 733.944 300.654)" fill="white"/>
<circle cx="763.076" cy="339.198" r="2.09862" transform="rotate(2.2743 763.076 339.198)" fill="white"/>
<circle cx="791.921" cy="300.439" r="2.51834" transform="rotate(2.2743 791.921 300.439)" fill="white"/>
<circle cx="794.802" cy="291.311" r="2.51834" transform="rotate(2.2743 794.802 291.311)" fill="white"/>
<circle cx="786.648" cy="285.106" r="3.35779" transform="rotate(2.2743 786.648 285.106)" fill="white"/>
<path opacity="0.2" d="M41.4037 301.207L36 310.957L41.4037 345.717L70.5839 372L152 364.793V322.402L121.019 294L41.4037 301.207Z" fill="#065669" fill-opacity="0.2"/>
<path d="M0 403.084V457H68L96 414.368L81.8182 344.152L54.9091 322L0 403.084Z" fill="#ECFF00" fill-opacity="0.4"/>
<path d="M33 87.8592C33 85.1756 35.1756 83 37.8592 83H90.3389C93.0226 83 95.1981 85.1756 95.1981 87.8592V140.339C95.1981 143.023 93.0226 145.198 90.3389 145.198H37.8592C35.1756 145.198 33 143.023 33 140.339V87.8592Z" fill="#06566A"/>
<path fill-rule="evenodd" clip-rule="evenodd" d="M50.4747 90.8398H42.6694V93.1788H44.6207V133.689L48.5554 137.619H57.3043V95.6706L52.4681 90.8398L50.4747 90.8398Z" fill="#ECFF00"/>
<path fill-rule="evenodd" clip-rule="evenodd" d="M53.123 112.531H69.55L86.5741 129.675L78.3607 137.946L78.3474 137.932L77.1007 139.188L75.4609 137.536L76.7075 136.281L53.123 112.531Z" fill="#ECFF00"/>
<path fill-rule="evenodd" clip-rule="evenodd" d="M57.3678 120.109H71.074L90.7552 100.771H71.1718L54.4292 117.222L57.3678 120.109Z" fill="#06566A"/>
<path fill-rule="evenodd" clip-rule="evenodd" d="M54.5834 117.235H56.3065H68.2703L81.4985 103.907H84.2219V101.555H83.8329H70.2155H68.2703L53.6455 116.29L54.5834 117.235Z" fill="#ECFF00"/>
<path d="M132.186 129.583L137.958 137.942H147.611L137.659 123.662L146.815 113.809H137.211L128.802 122.865V102.614H120.741V137.942H128.802V133.215L132.186 129.583Z" fill="#083D4A"/>
<path d="M154.659 110.028C157.247 110.028 159.386 108.087 159.386 105.5C159.386 102.862 157.247 100.922 154.659 100.922C152.022 100.922 149.932 102.862 149.932 105.5C149.932 108.087 152.022 110.028 154.659 110.028ZM158.74 113.809H150.679V137.942H158.74V113.809Z" fill="#083D4A"/>
<path d="M176.323 131.673C172.889 131.673 170.799 129.135 170.799 125.851C170.799 122.567 172.889 120.079 176.323 120.079C178.811 120.079 180.652 121.522 181.05 123.711H188.663C188.115 117.491 182.99 113.262 176.323 113.262C168.71 113.262 163.137 118.536 163.137 125.851C163.137 133.215 168.71 138.49 176.323 138.49C182.99 138.49 188.115 134.26 188.663 128.04H181.05C180.652 130.23 178.811 131.673 176.323 131.673Z" fill="#083D4A"/>
<path d="M204.394 129.583L210.166 137.942H219.819L209.867 123.662L219.023 113.809H209.419L201.01 122.865V102.614H192.949V137.942H201.01V133.215L204.394 129.583Z" fill="#083D4A"/>
<path d="M220.365 129.633C220.863 136.051 225.988 138.689 232.308 138.689C238.577 138.689 243.603 136.101 243.603 130.528C243.603 126.249 240.617 124.06 236.089 123.214L231.561 122.467C229.67 122.119 229.073 121.373 229.073 120.576C229.073 119.631 230.019 118.835 232.108 118.835C234.348 118.835 236.039 119.681 236.189 121.522H243.354C243.006 115.153 237.184 113.162 232.059 113.162C225.64 113.162 221.311 116.148 221.311 121.223C221.311 125.453 224.197 127.791 228.377 128.488L233.253 129.334C234.845 129.583 235.592 130.23 235.592 131.026C235.592 132.071 234.298 132.718 232.158 132.718C229.621 132.718 227.879 131.772 227.531 129.682L220.365 129.633Z" fill="#083D4A"/>
<path d="M266.416 130.677C264.625 131.026 263.281 131.275 262.137 131.275C259.749 131.275 258.355 130.08 258.355 127.642V120.726H266.565V113.809H258.355V105.599H250.294V113.809H245.567V120.726H250.294V127.891C250.294 134.409 254.176 138.689 259.997 138.689C262.386 138.689 264.177 138.49 267.312 137.494L266.416 130.677Z" fill="#083D4A"/>
<path d="M296.127 113.809H288.066V115.103C286.275 113.959 284.085 113.262 281.448 113.262C274.93 113.262 269.457 118.636 269.457 125.851C269.457 133.016 274.93 138.44 281.448 138.44C284.085 138.44 286.275 137.743 288.066 136.599V137.942H296.127V113.809ZM283.041 131.822C279.757 131.822 277.368 129.185 277.368 125.851C277.368 122.517 279.757 119.83 283.041 119.83C284.832 119.83 286.573 120.377 288.066 122.119V129.583C286.573 131.324 284.832 131.822 283.041 131.822Z" fill="#083D4A"/>
<path d="M317.972 113.411C314.39 113.411 311.802 114.556 309.663 116.397V113.809H301.602V137.942H309.663V124.159C311.553 122.268 314.041 121.223 317.972 121.074V113.411Z" fill="#083D4A"/>
<path d="M340.811 130.677C339.02 131.026 337.676 131.275 336.532 131.275C334.143 131.275 332.75 130.08 332.75 127.642V120.726H340.96V113.809H332.75V105.599H324.689V113.809H319.962V120.726H324.689V127.891C324.689 134.409 328.57 138.689 334.392 138.689C336.781 138.689 338.572 138.49 341.707 137.494L340.811 130.677Z" fill="#083D4A"/>
<path d="M345.972 104.106V137.942H359.606C370.205 137.942 377.867 130.976 377.867 120.925C377.867 111.023 370.205 104.106 359.606 104.106H345.972ZM354.381 130.379V111.67H359.606C365.079 111.67 369.309 115.7 369.309 120.925C369.309 126.299 365.079 130.379 359.606 130.379H354.381Z" fill="#083D4A"/>
<path d="M395.471 103.36C387.509 103.36 382.036 107.639 382.036 114.406C382.036 119.78 385.171 122.915 391.838 124.358L397.411 125.602C400.297 126.149 400.994 127.344 400.994 128.488C400.994 130.329 399.352 131.474 396.217 131.474C392.236 131.474 389.649 129.682 389.102 126.697H380.692C381.489 135.056 388.355 138.639 395.968 138.639C404.427 138.639 410 134.409 410 127.642C410 121.82 405.97 119.333 399.8 117.989L395.073 116.894C392.535 116.347 391.191 115.551 391.191 113.71C391.191 111.52 393.132 110.326 396.018 110.326C399.451 110.326 401.044 112.068 401.491 114.605H409.95C409.104 105.5 400.944 103.36 395.471 103.36Z" fill="#083D4A"/>
<rect y="456" width="880" height="8" fill="#06566A"/>
<defs>
<radialGradient id="paint0_radial" cx="0" cy="0" r="1" gradientUnits="userSpaceOnUse" gradientTransform="translate(637 240) rotate(90) scale(219 221)">
<stop offset="0.333333" stop-color="#ECFF00"/>
<stop offset="1" stop-color="#C4C4C4" stop-opacity="0"/>
</radialGradient>
</defs>
</svg>
