<svg width="903" height="464" viewBox="0 0 903 464" fill="none" xmlns="http://www.w3.org/2000/svg">
<rect width="880" height="462" transform="translate(0 2)" fill="white"/>
<ellipse opacity="0.2" cx="682" cy="240" rx="221" ry="219" fill="url(#paint0_radial)"/>
<path d="M850.939 27H637V77.7132L710.271 151H880V56.0673L850.939 27Z" fill="#ECFF00" fill-opacity="0.2"/>
<path opacity="0.2" d="M554.854 178.854L531.685 153.632L531.685 68.5807L595.914 0.832988L662.488 0.832996L672.166 9.92467L672.166 57.7327L554.854 178.854Z" fill="#065669" fill-opacity="0.4"/>
<path d="M833.318 167.664L783.41 165.682L720.602 224.095L716.105 337.331L739.061 362.186L835.522 366.017L860.376 343.061L865.94 202.984L833.318 167.664Z" fill="#ECFF00"/>
<path d="M762.394 176.61L717.045 218.494L712.298 338.021L743.728 371.614L819.188 385.952L848.37 359.808L860.807 205.302L833.404 176.07L762.394 176.61Z" stroke="#065669" stroke-opacity="0.4" stroke-width="2"/>
<path d="M811.54 160.709L819.928 161.042L861.353 122.782L862.885 84.1981L852.817 73.2969L798.311 123.639L797.444 145.447L811.54 160.709Z" fill="#06566A"/>
<path d="M793.44 161.67L747.307 159.837L717.152 125.876L730.3 112.116L749.173 112.865L801.289 154.42L793.44 161.67Z" fill="#06566A"/>
<circle cx="740.022" cy="316.858" r="2.51834" transform="rotate(2.2743 740.022 316.858)" fill="white"/>
<circle cx="787.068" cy="348.551" r="2.09862" transform="rotate(2.2743 787.068 348.551)" fill="white"/>
<circle cx="797.652" cy="283.023" r="1.67889" transform="rotate(2.2743 797.652 283.023)" fill="white"/>
<circle cx="768.223" cy="262.531" r="2.51834" transform="rotate(2.2743 768.223 262.531)" fill="white"/>
<circle cx="795.281" cy="321.574" r="1.67889" transform="rotate(2.2743 795.281 321.574)" fill="white"/>
<circle cx="778.567" cy="298.227" r="1.67889" transform="rotate(2.2743 778.567 298.227)" fill="white"/>
<circle cx="799.641" cy="317.547" r="1.67889" transform="rotate(2.2743 799.641 317.547)" fill="white"/>
<circle cx="759.746" cy="306.721" r="1.67889" transform="rotate(2.2743 759.746 306.721)" fill="white"/>
<circle cx="755.42" cy="309.908" r="1.67889" transform="rotate(2.2743 755.42 309.908)" fill="white"/>
<circle cx="745.753" cy="299.443" r="1.67889" transform="rotate(2.2743 745.753 299.443)" fill="white"/>
<circle cx="754.002" cy="282.129" r="5.03668" transform="rotate(2.2743 754.002 282.129)" fill="white"/>
<circle cx="750.169" cy="251.733" r="1.67889" transform="rotate(2.2743 750.169 251.733)" fill="white"/>
<circle cx="745.259" cy="333.029" r="4.19724" transform="rotate(2.2743 745.259 333.029)" fill="white"/>
<circle cx="771.156" cy="315.575" r="2.51834" transform="rotate(2.2743 771.156 315.575)" fill="white"/>
<circle cx="742.858" cy="266.565" r="2.51834" transform="rotate(2.2743 742.858 266.565)" fill="white"/>
<circle cx="733.944" cy="300.654" r="2.51834" transform="rotate(2.2743 733.944 300.654)" fill="white"/>
<circle cx="763.076" cy="339.198" r="2.09862" transform="rotate(2.2743 763.076 339.198)" fill="white"/>
<circle cx="791.921" cy="300.439" r="2.51834" transform="rotate(2.2743 791.921 300.439)" fill="white"/>
<circle cx="794.802" cy="291.311" r="2.51834" transform="rotate(2.2743 794.802 291.311)" fill="white"/>
<circle cx="786.648" cy="285.106" r="3.35779" transform="rotate(2.2743 786.648 285.106)" fill="white"/>
<path opacity="0.2" d="M41.4037 301.207L36 310.957L41.4037 345.717L70.5839 372L152 364.793V322.402L121.019 294L41.4037 301.207Z" fill="#065669" fill-opacity="0.2"/>
<path d="M0 403.084V457H68L96 414.368L81.8182 344.152L54.9091 322L0 403.084Z" fill="#ECFF00" fill-opacity="0.4"/>
<path d="M33 87.8592C33 85.1756 35.1756 83 37.8592 83H90.3389C93.0226 83 95.1981 85.1756 95.1981 87.8592V140.339C95.1981 143.023 93.0226 145.198 90.3389 145.198H37.8592C35.1756 145.198 33 143.023 33 140.339V87.8592Z" fill="#06566A"/>
<path fill-rule="evenodd" clip-rule="evenodd" d="M50.4747 90.8398H42.6694V93.1788H44.6207V133.689L48.5554 137.619H57.3043V95.6706L52.4681 90.8398L50.4747 90.8398Z" fill="#ECFF00"/>
<path fill-rule="evenodd" clip-rule="evenodd" d="M53.123 112.531H69.55L86.5741 129.675L78.3607 137.946L78.3474 137.932L77.1007 139.188L75.4609 137.536L76.7075 136.281L53.123 112.531Z" fill="#ECFF00"/>
<path fill-rule="evenodd" clip-rule="evenodd" d="M57.3678 120.109H71.074L90.7552 100.771H71.1718L54.4292 117.222L57.3678 120.109Z" fill="#06566A"/>
<path fill-rule="evenodd" clip-rule="evenodd" d="M54.5834 117.235H56.3065H68.2703L81.4985 103.907H84.2219V101.555H83.8329H70.2155H68.2703L53.6455 116.29L54.5834 117.235Z" fill="#ECFF00"/>
<path d="M132.186 129.583L137.958 137.942H147.611L137.659 123.662L146.815 113.809H137.211L128.802 122.865V102.614H120.741V137.942H128.802V133.215L132.186 129.583Z" fill="#083D4A"/>
<path d="M154.659 110.028C157.247 110.028 159.386 108.087 159.386 105.5C159.386 102.862 157.247 100.922 154.659 100.922C152.022 100.922 149.932 102.862 149.932 105.5C149.932 108.087 152.022 110.028 154.659 110.028ZM158.74 113.809H150.679V137.942H158.74V113.809Z" fill="#083D4A"/>
<path d="M176.323 131.673C172.889 131.673 170.799 129.135 170.799 125.851C170.799 122.567 172.889 120.079 176.323 120.079C178.811 120.079 180.652 121.522 181.05 123.711H188.663C188.115 117.491 182.99 113.262 176.323 113.262C168.71 113.262 163.137 118.536 163.137 125.851C163.137 133.215 168.71 138.49 176.323 138.49C182.99 138.49 188.115 134.26 188.663 128.04H181.05C180.652 130.23 178.811 131.673 176.323 131.673Z" fill="#083D4A"/>
<path d="M204.394 129.583L210.166 137.942H219.819L209.867 123.662L219.023 113.809H209.419L201.01 122.865V102.614H192.949V137.942H201.01V133.215L204.394 129.583Z" fill="#083D4A"/>
<path d="M220.365 129.633C220.863 136.051 225.988 138.689 232.308 138.689C238.577 138.689 243.603 136.101 243.603 130.528C243.603 126.249 240.617 124.06 236.089 123.214L231.561 122.467C229.67 122.119 229.073 121.373 229.073 120.576C229.073 119.631 230.019 118.835 232.108 118.835C234.348 118.835 236.039 119.681 236.189 121.522H243.354C243.006 115.153 237.184 113.162 232.059 113.162C225.64 113.162 221.311 116.148 221.311 121.223C221.311 125.453 224.197 127.791 228.377 128.488L233.253 129.334C234.845 129.583 235.592 130.23 235.592 131.026C235.592 132.071 234.298 132.718 232.158 132.718C229.621 132.718 227.879 131.772 227.531 129.682L220.365 129.633Z" fill="#083D4A"/>
<path d="M266.416 130.677C264.625 131.026 263.281 131.275 262.137 131.275C259.749 131.275 258.355 130.08 258.355 127.642V120.726H266.565V113.809H258.355V105.599H250.294V113.809H245.567V120.726H250.294V127.891C250.294 134.409 254.176 138.689 259.997 138.689C262.386 138.689 264.177 138.49 267.312 137.494L266.416 130.677Z" fill="#083D4A"/>
<path d="M296.127 113.809H288.066V115.103C286.275 113.959 284.085 113.262 281.448 113.262C274.93 113.262 269.457 118.636 269.457 125.851C269.457 133.016 274.93 138.44 281.448 138.44C284.085 138.44 286.275 137.743 288.066 136.599V137.942H296.127V113.809ZM283.041 131.822C279.757 131.822 277.368 129.185 277.368 125.851C277.368 122.517 279.757 119.83 283.041 119.83C284.832 119.83 286.573 120.377 288.066 122.119V129.583C286.573 131.324 284.832 131.822 283.041 131.822Z" fill="#083D4A"/>
<path d="M317.972 113.411C314.39 113.411 311.802 114.556 309.663 116.397V113.809H301.602V137.942H309.663V124.159C311.553 122.268 314.041 121.223 317.972 121.074V113.411Z" fill="#083D4A"/>
<path d="M340.811 130.677C339.02 131.026 337.676 131.275 336.532 131.275C334.143 131.275 332.75 130.08 332.75 127.642V120.726H340.96V113.809H332.75V105.599H324.689V113.809H319.962V120.726H324.689V127.891C324.689 134.409 328.57 138.689 334.392 138.689C336.781 138.689 338.572 138.49 341.707 137.494L340.811 130.677Z" fill="#083D4A"/>
<path d="M345.972 104.106V137.942H359.606C370.205 137.942 377.867 130.976 377.867 120.925C377.867 111.023 370.205 104.106 359.606 104.106H345.972ZM354.381 130.379V111.67H359.606C365.079 111.67 369.309 115.7 369.309 120.925C369.309 126.299 365.079 130.379 359.606 130.379H354.381Z" fill="#083D4A"/>
<path d="M395.471 103.36C387.509 103.36 382.036 107.639 382.036 114.406C382.036 119.78 385.171 122.915 391.838 124.358L397.411 125.602C400.297 126.149 400.994 127.344 400.994 128.488C400.994 130.329 399.352 131.474 396.217 131.474C392.236 131.474 389.649 129.682 389.102 126.697H380.692C381.489 135.056 388.355 138.639 395.968 138.639C404.427 138.639 410 134.409 410 127.642C410 121.82 405.97 119.333 399.8 117.989L395.073 116.894C392.535 116.347 391.191 115.551 391.191 113.71C391.191 111.52 393.132 110.326 396.018 110.326C399.451 110.326 401.044 112.068 401.491 114.605H409.95C409.104 105.5 400.944 103.36 395.471 103.36Z" fill="#083D4A"/>
<path d="M140.141 184.047V186.781H132.406V207H129.25V186.781H121.516V184.047H140.141ZM142.625 183.969H145.438V192.531C146.104 191.688 146.703 191.094 147.234 190.75C148.141 190.156 149.271 189.859 150.625 189.859C153.052 189.859 154.698 190.708 155.562 192.406C156.031 193.333 156.266 194.62 156.266 196.266V207H153.375V196.453C153.375 195.224 153.219 194.323 152.906 193.75C152.396 192.833 151.438 192.375 150.031 192.375C148.865 192.375 147.807 192.776 146.859 193.578C145.911 194.38 145.438 195.896 145.438 198.125V207H142.625V183.969ZM167.406 189.891C168.594 189.891 169.745 190.172 170.859 190.734C171.974 191.286 172.823 192.005 173.406 192.891C173.969 193.734 174.344 194.719 174.531 195.844C174.698 196.615 174.781 197.844 174.781 199.531H162.516C162.568 201.229 162.969 202.594 163.719 203.625C164.469 204.646 165.63 205.156 167.203 205.156C168.672 205.156 169.844 204.672 170.719 203.703C171.219 203.141 171.573 202.49 171.781 201.75H174.547C174.474 202.365 174.229 203.052 173.812 203.812C173.406 204.562 172.948 205.177 172.438 205.656C171.583 206.49 170.526 207.052 169.266 207.344C168.589 207.51 167.823 207.594 166.969 207.594C164.885 207.594 163.12 206.839 161.672 205.328C160.224 203.807 159.5 201.682 159.5 198.953C159.5 196.266 160.229 194.083 161.688 192.406C163.146 190.729 165.052 189.891 167.406 189.891ZM171.891 197.297C171.776 196.078 171.51 195.104 171.094 194.375C170.323 193.021 169.036 192.344 167.234 192.344C165.943 192.344 164.859 192.812 163.984 193.75C163.109 194.677 162.646 195.859 162.594 197.297H171.891ZM193.609 189.781C195.495 189.781 197.026 190.24 198.203 191.156C199.391 192.073 200.104 193.651 200.344 195.891H197.609C197.443 194.859 197.062 194.005 196.469 193.328C195.875 192.641 194.922 192.297 193.609 192.297C191.818 192.297 190.536 193.172 189.766 194.922C189.266 196.057 189.016 197.458 189.016 199.125C189.016 200.802 189.37 202.214 190.078 203.359C190.786 204.505 191.901 205.078 193.422 205.078C194.589 205.078 195.51 204.724 196.188 204.016C196.875 203.297 197.349 202.318 197.609 201.078H200.344C200.031 203.297 199.25 204.922 198 205.953C196.75 206.974 195.151 207.484 193.203 207.484C191.016 207.484 189.271 206.688 187.969 205.094C186.667 203.49 186.016 201.49 186.016 199.094C186.016 196.156 186.729 193.87 188.156 192.234C189.583 190.599 191.401 189.781 193.609 189.781ZM209.797 205.188C211.661 205.188 212.938 204.484 213.625 203.078C214.323 201.661 214.672 200.089 214.672 198.359C214.672 196.797 214.422 195.526 213.922 194.547C213.13 193.005 211.766 192.234 209.828 192.234C208.109 192.234 206.859 192.891 206.078 194.203C205.297 195.516 204.906 197.099 204.906 198.953C204.906 200.734 205.297 202.219 206.078 203.406C206.859 204.594 208.099 205.188 209.797 205.188ZM209.906 189.781C212.062 189.781 213.885 190.5 215.375 191.938C216.865 193.375 217.609 195.49 217.609 198.281C217.609 200.979 216.953 203.208 215.641 204.969C214.328 206.729 212.292 207.609 209.531 207.609C207.229 207.609 205.401 206.833 204.047 205.281C202.693 203.719 202.016 201.625 202.016 199C202.016 196.188 202.729 193.948 204.156 192.281C205.583 190.615 207.5 189.781 209.906 189.781ZM220.969 190.266H223.75V192.641C224.417 191.818 225.021 191.219 225.562 190.844C226.49 190.208 227.542 189.891 228.719 189.891C230.052 189.891 231.125 190.219 231.938 190.875C232.396 191.25 232.812 191.802 233.188 192.531C233.812 191.635 234.547 190.974 235.391 190.547C236.234 190.109 237.182 189.891 238.234 189.891C240.484 189.891 242.016 190.703 242.828 192.328C243.266 193.203 243.484 194.38 243.484 195.859V207H240.562V195.375C240.562 194.26 240.281 193.495 239.719 193.078C239.167 192.661 238.49 192.453 237.688 192.453C236.583 192.453 235.63 192.823 234.828 193.562C234.036 194.302 233.641 195.536 233.641 197.266V207H230.781V196.078C230.781 194.943 230.646 194.115 230.375 193.594C229.948 192.812 229.151 192.422 227.984 192.422C226.922 192.422 225.953 192.833 225.078 193.656C224.214 194.479 223.781 195.969 223.781 198.125V207H220.969V190.266ZM254.688 205.109C256 205.109 257.089 204.562 257.953 203.469C258.828 202.365 259.266 200.719 259.266 198.531C259.266 197.198 259.073 196.052 258.688 195.094C257.958 193.25 256.625 192.328 254.688 192.328C252.74 192.328 251.406 193.302 250.688 195.25C250.302 196.292 250.109 197.615 250.109 199.219C250.109 200.51 250.302 201.609 250.688 202.516C251.417 204.245 252.75 205.109 254.688 205.109ZM247.406 190.344H250.141V192.562C250.703 191.802 251.318 191.214 251.984 190.797C252.932 190.172 254.047 189.859 255.328 189.859C257.224 189.859 258.833 190.589 260.156 192.047C261.479 193.495 262.141 195.568 262.141 198.266C262.141 201.911 261.188 204.516 259.281 206.078C258.073 207.068 256.667 207.562 255.062 207.562C253.802 207.562 252.745 207.286 251.891 206.734C251.391 206.422 250.833 205.885 250.219 205.125V213.672H247.406V190.344ZM265.516 190.266H268.188V193.156C268.406 192.594 268.943 191.911 269.797 191.109C270.651 190.297 271.635 189.891 272.75 189.891C272.802 189.891 272.891 189.896 273.016 189.906C273.141 189.917 273.354 189.938 273.656 189.969V192.938C273.49 192.906 273.333 192.885 273.188 192.875C273.052 192.865 272.901 192.859 272.734 192.859C271.318 192.859 270.229 193.318 269.469 194.234C268.708 195.141 268.328 196.188 268.328 197.375V207H265.516V190.266ZM283.062 189.891C284.25 189.891 285.401 190.172 286.516 190.734C287.63 191.286 288.479 192.005 289.062 192.891C289.625 193.734 290 194.719 290.188 195.844C290.354 196.615 290.438 197.844 290.438 199.531H278.172C278.224 201.229 278.625 202.594 279.375 203.625C280.125 204.646 281.286 205.156 282.859 205.156C284.328 205.156 285.5 204.672 286.375 203.703C286.875 203.141 287.229 202.49 287.438 201.75H290.203C290.13 202.365 289.885 203.052 289.469 203.812C289.062 204.562 288.604 205.177 288.094 205.656C287.24 206.49 286.182 207.052 284.922 207.344C284.245 207.51 283.479 207.594 282.625 207.594C280.542 207.594 278.776 206.839 277.328 205.328C275.88 203.807 275.156 201.682 275.156 198.953C275.156 196.266 275.885 194.083 277.344 192.406C278.802 190.729 280.708 189.891 283.062 189.891ZM287.547 197.297C287.432 196.078 287.167 195.104 286.75 194.375C285.979 193.021 284.693 192.344 282.891 192.344C281.599 192.344 280.516 192.812 279.641 193.75C278.766 194.677 278.302 195.859 278.25 197.297H287.547ZM293.906 183.969H296.719V192.531C297.385 191.688 297.984 191.094 298.516 190.75C299.422 190.156 300.552 189.859 301.906 189.859C304.333 189.859 305.979 190.708 306.844 192.406C307.312 193.333 307.547 194.62 307.547 196.266V207H304.656V196.453C304.656 195.224 304.5 194.323 304.188 193.75C303.677 192.833 302.719 192.375 301.312 192.375C300.146 192.375 299.089 192.776 298.141 193.578C297.193 194.38 296.719 195.896 296.719 198.125V207H293.906V183.969ZM318.688 189.891C319.875 189.891 321.026 190.172 322.141 190.734C323.255 191.286 324.104 192.005 324.688 192.891C325.25 193.734 325.625 194.719 325.812 195.844C325.979 196.615 326.062 197.844 326.062 199.531H313.797C313.849 201.229 314.25 202.594 315 203.625C315.75 204.646 316.911 205.156 318.484 205.156C319.953 205.156 321.125 204.672 322 203.703C322.5 203.141 322.854 202.49 323.062 201.75H325.828C325.755 202.365 325.51 203.052 325.094 203.812C324.688 204.562 324.229 205.177 323.719 205.656C322.865 206.49 321.807 207.052 320.547 207.344C319.87 207.51 319.104 207.594 318.25 207.594C316.167 207.594 314.401 206.839 312.953 205.328C311.505 203.807 310.781 201.682 310.781 198.953C310.781 196.266 311.51 194.083 312.969 192.406C314.427 190.729 316.333 189.891 318.688 189.891ZM323.172 197.297C323.057 196.078 322.792 195.104 322.375 194.375C321.604 193.021 320.318 192.344 318.516 192.344C317.224 192.344 316.141 192.812 315.266 193.75C314.391 194.677 313.927 195.859 313.875 197.297H323.172ZM329.531 190.266H332.203V192.641C332.995 191.661 333.833 190.958 334.719 190.531C335.604 190.104 336.589 189.891 337.672 189.891C340.047 189.891 341.651 190.719 342.484 192.375C342.943 193.281 343.172 194.578 343.172 196.266V207H340.312V196.453C340.312 195.432 340.161 194.609 339.859 193.984C339.359 192.943 338.453 192.422 337.141 192.422C336.474 192.422 335.927 192.49 335.5 192.625C334.729 192.854 334.052 193.312 333.469 194C333 194.552 332.693 195.125 332.547 195.719C332.411 196.302 332.344 197.141 332.344 198.234V207H329.531V190.266ZM349.016 201.75C349.099 202.688 349.333 203.406 349.719 203.906C350.427 204.812 351.656 205.266 353.406 205.266C354.448 205.266 355.365 205.042 356.156 204.594C356.948 204.135 357.344 203.432 357.344 202.484C357.344 201.766 357.026 201.219 356.391 200.844C355.984 200.615 355.182 200.349 353.984 200.047L351.75 199.484C350.323 199.13 349.271 198.734 348.594 198.297C347.385 197.536 346.781 196.484 346.781 195.141C346.781 193.557 347.349 192.276 348.484 191.297C349.63 190.318 351.167 189.828 353.094 189.828C355.615 189.828 357.432 190.568 358.547 192.047C359.245 192.984 359.583 193.995 359.562 195.078H356.906C356.854 194.443 356.63 193.865 356.234 193.344C355.589 192.604 354.469 192.234 352.875 192.234C351.812 192.234 351.005 192.438 350.453 192.844C349.911 193.25 349.641 193.786 349.641 194.453C349.641 195.182 350 195.766 350.719 196.203C351.135 196.464 351.75 196.693 352.562 196.891L354.422 197.344C356.443 197.833 357.797 198.307 358.484 198.766C359.578 199.484 360.125 200.615 360.125 202.156C360.125 203.646 359.557 204.932 358.422 206.016C357.297 207.099 355.578 207.641 353.266 207.641C350.776 207.641 349.01 207.078 347.969 205.953C346.938 204.818 346.385 203.417 346.312 201.75H349.016ZM363.344 190.344H366.203V207H363.344V190.344ZM363.344 184.047H366.203V187.234H363.344V184.047ZM371.844 190.266L376.312 203.891L380.984 190.266H384.062L377.75 207H374.75L368.578 190.266H371.844ZM393.438 189.891C394.625 189.891 395.776 190.172 396.891 190.734C398.005 191.286 398.854 192.005 399.438 192.891C400 193.734 400.375 194.719 400.562 195.844C400.729 196.615 400.812 197.844 400.812 199.531H388.547C388.599 201.229 389 202.594 389.75 203.625C390.5 204.646 391.661 205.156 393.234 205.156C394.703 205.156 395.875 204.672 396.75 203.703C397.25 203.141 397.604 202.49 397.812 201.75H400.578C400.505 202.365 400.26 203.052 399.844 203.812C399.438 204.562 398.979 205.177 398.469 205.656C397.615 206.49 396.557 207.052 395.297 207.344C394.62 207.51 393.854 207.594 393 207.594C390.917 207.594 389.151 206.839 387.703 205.328C386.255 203.807 385.531 201.682 385.531 198.953C385.531 196.266 386.26 194.083 387.719 192.406C389.177 190.729 391.083 189.891 393.438 189.891ZM397.922 197.297C397.807 196.078 397.542 195.104 397.125 194.375C396.354 193.021 395.068 192.344 393.266 192.344C391.974 192.344 390.891 192.812 390.016 193.75C389.141 194.677 388.677 195.859 388.625 197.297H397.922ZM419.641 189.781C421.526 189.781 423.057 190.24 424.234 191.156C425.422 192.073 426.135 193.651 426.375 195.891H423.641C423.474 194.859 423.094 194.005 422.5 193.328C421.906 192.641 420.953 192.297 419.641 192.297C417.849 192.297 416.568 193.172 415.797 194.922C415.297 196.057 415.047 197.458 415.047 199.125C415.047 200.802 415.401 202.214 416.109 203.359C416.818 204.505 417.932 205.078 419.453 205.078C420.62 205.078 421.542 204.724 422.219 204.016C422.906 203.297 423.38 202.318 423.641 201.078H426.375C426.062 203.297 425.281 204.922 424.031 205.953C422.781 206.974 421.182 207.484 419.234 207.484C417.047 207.484 415.302 206.688 414 205.094C412.698 203.49 412.047 201.49 412.047 199.094C412.047 196.156 412.76 193.87 414.188 192.234C415.615 190.599 417.432 189.781 419.641 189.781ZM435.828 205.188C437.693 205.188 438.969 204.484 439.656 203.078C440.354 201.661 440.703 200.089 440.703 198.359C440.703 196.797 440.453 195.526 439.953 194.547C439.161 193.005 437.797 192.234 435.859 192.234C434.141 192.234 432.891 192.891 432.109 194.203C431.328 195.516 430.938 197.099 430.938 198.953C430.938 200.734 431.328 202.219 432.109 203.406C432.891 204.594 434.13 205.188 435.828 205.188ZM435.938 189.781C438.094 189.781 439.917 190.5 441.406 191.938C442.896 193.375 443.641 195.49 443.641 198.281C443.641 200.979 442.984 203.208 441.672 204.969C440.359 206.729 438.323 207.609 435.562 207.609C433.26 207.609 431.432 206.833 430.078 205.281C428.724 203.719 428.047 201.625 428.047 199C428.047 196.188 428.76 193.948 430.188 192.281C431.615 190.615 433.531 189.781 435.938 189.781ZM447 190.266H449.781V192.641C450.448 191.818 451.052 191.219 451.594 190.844C452.521 190.208 453.573 189.891 454.75 189.891C456.083 189.891 457.156 190.219 457.969 190.875C458.427 191.25 458.844 191.802 459.219 192.531C459.844 191.635 460.578 190.974 461.422 190.547C462.266 190.109 463.214 189.891 464.266 189.891C466.516 189.891 468.047 190.703 468.859 192.328C469.297 193.203 469.516 194.38 469.516 195.859V207H466.594V195.375C466.594 194.26 466.312 193.495 465.75 193.078C465.198 192.661 464.521 192.453 463.719 192.453C462.615 192.453 461.661 192.823 460.859 193.562C460.068 194.302 459.672 195.536 459.672 197.266V207H456.812V196.078C456.812 194.943 456.677 194.115 456.406 193.594C455.979 192.812 455.182 192.422 454.016 192.422C452.953 192.422 451.984 192.833 451.109 193.656C450.245 194.479 449.812 195.969 449.812 198.125V207H447V190.266ZM480.719 205.109C482.031 205.109 483.12 204.562 483.984 203.469C484.859 202.365 485.297 200.719 485.297 198.531C485.297 197.198 485.104 196.052 484.719 195.094C483.99 193.25 482.656 192.328 480.719 192.328C478.771 192.328 477.438 193.302 476.719 195.25C476.333 196.292 476.141 197.615 476.141 199.219C476.141 200.51 476.333 201.609 476.719 202.516C477.448 204.245 478.781 205.109 480.719 205.109ZM473.438 190.344H476.172V192.562C476.734 191.802 477.349 191.214 478.016 190.797C478.964 190.172 480.078 189.859 481.359 189.859C483.255 189.859 484.865 190.589 486.188 192.047C487.51 193.495 488.172 195.568 488.172 198.266C488.172 201.911 487.219 204.516 485.312 206.078C484.104 207.068 482.698 207.562 481.094 207.562C479.833 207.562 478.776 207.286 477.922 206.734C477.422 206.422 476.865 205.885 476.25 205.125V213.672H473.438V190.344ZM498.109 205.188C499.974 205.188 501.25 204.484 501.938 203.078C502.635 201.661 502.984 200.089 502.984 198.359C502.984 196.797 502.734 195.526 502.234 194.547C501.443 193.005 500.078 192.234 498.141 192.234C496.422 192.234 495.172 192.891 494.391 194.203C493.609 195.516 493.219 197.099 493.219 198.953C493.219 200.734 493.609 202.219 494.391 203.406C495.172 204.594 496.411 205.188 498.109 205.188ZM498.219 189.781C500.375 189.781 502.198 190.5 503.688 191.938C505.177 193.375 505.922 195.49 505.922 198.281C505.922 200.979 505.266 203.208 503.953 204.969C502.641 206.729 500.604 207.609 497.844 207.609C495.542 207.609 493.714 206.833 492.359 205.281C491.005 203.719 490.328 201.625 490.328 199C490.328 196.188 491.042 193.948 492.469 192.281C493.896 190.615 495.812 189.781 498.219 189.781ZM509.281 190.266H511.953V192.641C512.745 191.661 513.583 190.958 514.469 190.531C515.354 190.104 516.339 189.891 517.422 189.891C519.797 189.891 521.401 190.719 522.234 192.375C522.693 193.281 522.922 194.578 522.922 196.266V207H520.062V196.453C520.062 195.432 519.911 194.609 519.609 193.984C519.109 192.943 518.203 192.422 516.891 192.422C516.224 192.422 515.677 192.49 515.25 192.625C514.479 192.854 513.802 193.312 513.219 194C512.75 194.552 512.443 195.125 512.297 195.719C512.161 196.302 512.094 197.141 512.094 198.234V207H509.281V190.266ZM534.062 189.891C535.25 189.891 536.401 190.172 537.516 190.734C538.63 191.286 539.479 192.005 540.062 192.891C540.625 193.734 541 194.719 541.188 195.844C541.354 196.615 541.438 197.844 541.438 199.531H529.172C529.224 201.229 529.625 202.594 530.375 203.625C531.125 204.646 532.286 205.156 533.859 205.156C535.328 205.156 536.5 204.672 537.375 203.703C537.875 203.141 538.229 202.49 538.438 201.75H541.203C541.13 202.365 540.885 203.052 540.469 203.812C540.062 204.562 539.604 205.177 539.094 205.656C538.24 206.49 537.182 207.052 535.922 207.344C535.245 207.51 534.479 207.594 533.625 207.594C531.542 207.594 529.776 206.839 528.328 205.328C526.88 203.807 526.156 201.682 526.156 198.953C526.156 196.266 526.885 194.083 528.344 192.406C529.802 190.729 531.708 189.891 534.062 189.891ZM538.547 197.297C538.432 196.078 538.167 195.104 537.75 194.375C536.979 193.021 535.693 192.344 533.891 192.344C532.599 192.344 531.516 192.812 530.641 193.75C529.766 194.677 529.302 195.859 529.25 197.297H538.547ZM544.906 190.266H547.578V192.641C548.37 191.661 549.208 190.958 550.094 190.531C550.979 190.104 551.964 189.891 553.047 189.891C555.422 189.891 557.026 190.719 557.859 192.375C558.318 193.281 558.547 194.578 558.547 196.266V207H555.688V196.453C555.688 195.432 555.536 194.609 555.234 193.984C554.734 192.943 553.828 192.422 552.516 192.422C551.849 192.422 551.302 192.49 550.875 192.625C550.104 192.854 549.427 193.312 548.844 194C548.375 194.552 548.068 195.125 547.922 195.719C547.786 196.302 547.719 197.141 547.719 198.234V207H544.906V190.266ZM563.281 185.594H566.125V190.266H568.797V192.562H566.125V203.484C566.125 204.068 566.323 204.458 566.719 204.656C566.938 204.771 567.302 204.828 567.812 204.828C567.948 204.828 568.094 204.828 568.25 204.828C568.406 204.818 568.589 204.802 568.797 204.781V207C568.474 207.094 568.135 207.161 567.781 207.203C567.438 207.245 567.062 207.266 566.656 207.266C565.344 207.266 564.453 206.932 563.984 206.266C563.516 205.589 563.281 204.714 563.281 203.641V192.562H561.016V190.266H563.281V185.594ZM580.609 184.047H583.422V207H580.609V184.047ZM587.656 190.344H590.516V207H587.656V190.344ZM587.656 184.047H590.516V187.234H587.656V184.047ZM594.562 183.969H597.297V192.297C597.911 191.495 598.646 190.885 599.5 190.469C600.354 190.042 601.281 189.828 602.281 189.828C604.365 189.828 606.052 190.547 607.344 191.984C608.646 193.411 609.297 195.521 609.297 198.312C609.297 200.958 608.656 203.156 607.375 204.906C606.094 206.656 604.318 207.531 602.047 207.531C600.776 207.531 599.703 207.224 598.828 206.609C598.307 206.245 597.75 205.661 597.156 204.859V207H594.562V183.969ZM601.875 205.047C603.396 205.047 604.531 204.443 605.281 203.234C606.042 202.026 606.422 200.432 606.422 198.453C606.422 196.693 606.042 195.234 605.281 194.078C604.531 192.922 603.422 192.344 601.953 192.344C600.672 192.344 599.547 192.818 598.578 193.766C597.62 194.714 597.141 196.276 597.141 198.453C597.141 200.026 597.339 201.302 597.734 202.281C598.474 204.125 599.854 205.047 601.875 205.047ZM612.672 190.266H615.344V193.156C615.562 192.594 616.099 191.911 616.953 191.109C617.807 190.297 618.792 189.891 619.906 189.891C619.958 189.891 620.047 189.896 620.172 189.906C620.297 189.917 620.51 189.938 620.812 189.969V192.938C620.646 192.906 620.49 192.885 620.344 192.875C620.208 192.865 620.057 192.859 619.891 192.859C618.474 192.859 617.385 193.318 616.625 194.234C615.865 195.141 615.484 196.188 615.484 197.375V207H612.672V190.266ZM625.406 202.547C625.406 203.359 625.703 204 626.297 204.469C626.891 204.938 627.594 205.172 628.406 205.172C629.396 205.172 630.354 204.943 631.281 204.484C632.844 203.724 633.625 202.479 633.625 200.75V198.484C633.281 198.703 632.839 198.885 632.297 199.031C631.755 199.177 631.224 199.281 630.703 199.344L629 199.562C627.979 199.698 627.214 199.911 626.703 200.203C625.839 200.693 625.406 201.474 625.406 202.547ZM632.219 196.859C632.865 196.776 633.297 196.505 633.516 196.047C633.641 195.797 633.703 195.438 633.703 194.969C633.703 194.01 633.359 193.318 632.672 192.891C631.995 192.453 631.021 192.234 629.75 192.234C628.281 192.234 627.24 192.63 626.625 193.422C626.281 193.859 626.057 194.51 625.953 195.375H623.328C623.38 193.312 624.047 191.88 625.328 191.078C626.62 190.266 628.115 189.859 629.812 189.859C631.781 189.859 633.38 190.234 634.609 190.984C635.828 191.734 636.438 192.901 636.438 194.484V204.125C636.438 204.417 636.495 204.651 636.609 204.828C636.734 205.005 636.99 205.094 637.375 205.094C637.5 205.094 637.641 205.089 637.797 205.078C637.953 205.057 638.12 205.031 638.297 205V207.078C637.859 207.203 637.526 207.281 637.297 207.312C637.068 207.344 636.755 207.359 636.359 207.359C635.391 207.359 634.688 207.016 634.25 206.328C634.021 205.964 633.859 205.448 633.766 204.781C633.193 205.531 632.37 206.182 631.297 206.734C630.224 207.286 629.042 207.562 627.75 207.562C626.198 207.562 624.927 207.094 623.938 206.156C622.958 205.208 622.469 204.026 622.469 202.609C622.469 201.057 622.953 199.854 623.922 199C624.891 198.146 626.161 197.62 627.734 197.422L632.219 196.859ZM641.141 190.266H643.812V193.156C644.031 192.594 644.568 191.911 645.422 191.109C646.276 190.297 647.26 189.891 648.375 189.891C648.427 189.891 648.516 189.896 648.641 189.906C648.766 189.917 648.979 189.938 649.281 189.969V192.938C649.115 192.906 648.958 192.885 648.812 192.875C648.677 192.865 648.526 192.859 648.359 192.859C646.943 192.859 645.854 193.318 645.094 194.234C644.333 195.141 643.953 196.188 643.953 197.375V207H641.141V190.266ZM662.172 190.266H665.281C664.885 191.339 664.005 193.786 662.641 197.609C661.62 200.484 660.766 202.828 660.078 204.641C658.453 208.911 657.307 211.516 656.641 212.453C655.974 213.391 654.828 213.859 653.203 213.859C652.807 213.859 652.5 213.844 652.281 213.812C652.073 213.781 651.812 213.724 651.5 213.641V211.078C651.99 211.214 652.344 211.297 652.562 211.328C652.781 211.359 652.974 211.375 653.141 211.375C653.661 211.375 654.042 211.286 654.281 211.109C654.531 210.943 654.74 210.734 654.906 210.484C654.958 210.401 655.146 209.974 655.469 209.203C655.792 208.432 656.026 207.859 656.172 207.484L649.984 190.266H653.172L657.656 203.891L662.172 190.266ZM124.359 231.266L127.578 244.453L130.844 231.266H134L137.281 244.375L140.703 231.266H143.516L138.656 248H135.734L132.328 235.047L129.031 248H126.109L121.281 231.266H124.359ZM146.188 231.344H149.047V248H146.188V231.344ZM146.188 225.047H149.047V228.234H146.188V225.047ZM153.875 226.594H156.719V231.266H159.391V233.562H156.719V244.484C156.719 245.068 156.917 245.458 157.312 245.656C157.531 245.771 157.896 245.828 158.406 245.828C158.542 245.828 158.688 245.828 158.844 245.828C159 245.818 159.182 245.802 159.391 245.781V248C159.068 248.094 158.729 248.161 158.375 248.203C158.031 248.245 157.656 248.266 157.25 248.266C155.938 248.266 155.047 247.932 154.578 247.266C154.109 246.589 153.875 245.714 153.875 244.641V233.562H151.609V231.266H153.875V226.594ZM162.219 224.969H165.031V233.531C165.698 232.688 166.297 232.094 166.828 231.75C167.734 231.156 168.865 230.859 170.219 230.859C172.646 230.859 174.292 231.708 175.156 233.406C175.625 234.333 175.859 235.62 175.859 237.266V248H172.969V237.453C172.969 236.224 172.812 235.323 172.5 234.75C171.99 233.833 171.031 233.375 169.625 233.375C168.458 233.375 167.401 233.776 166.453 234.578C165.505 235.38 165.031 236.896 165.031 239.125V248H162.219V224.969ZM188.719 224.969H191.453V233.297C192.068 232.495 192.802 231.885 193.656 231.469C194.51 231.042 195.438 230.828 196.438 230.828C198.521 230.828 200.208 231.547 201.5 232.984C202.802 234.411 203.453 236.521 203.453 239.312C203.453 241.958 202.812 244.156 201.531 245.906C200.25 247.656 198.474 248.531 196.203 248.531C194.932 248.531 193.859 248.224 192.984 247.609C192.464 247.245 191.906 246.661 191.312 245.859V248H188.719V224.969ZM196.031 246.047C197.552 246.047 198.688 245.443 199.438 244.234C200.198 243.026 200.578 241.432 200.578 239.453C200.578 237.693 200.198 236.234 199.438 235.078C198.688 233.922 197.578 233.344 196.109 233.344C194.828 233.344 193.703 233.818 192.734 234.766C191.776 235.714 191.297 237.276 191.297 239.453C191.297 241.026 191.495 242.302 191.891 243.281C192.63 245.125 194.01 246.047 196.031 246.047ZM209.562 231.266V242.375C209.562 243.229 209.698 243.927 209.969 244.469C210.469 245.469 211.401 245.969 212.766 245.969C214.724 245.969 216.057 245.094 216.766 243.344C217.151 242.406 217.344 241.12 217.344 239.484V231.266H220.156V248H217.5L217.531 245.531C217.167 246.167 216.714 246.703 216.172 247.141C215.099 248.016 213.797 248.453 212.266 248.453C209.88 248.453 208.255 247.656 207.391 246.062C206.922 245.208 206.688 244.068 206.688 242.641V231.266H209.562ZM224.562 231.344H227.422V248H224.562V231.344ZM224.562 225.047H227.422V228.234H224.562V225.047ZM231.766 225.047H234.578V248H231.766V225.047ZM239.375 226.594H242.219V231.266H244.891V233.562H242.219V244.484C242.219 245.068 242.417 245.458 242.812 245.656C243.031 245.771 243.396 245.828 243.906 245.828C244.042 245.828 244.188 245.828 244.344 245.828C244.5 245.818 244.682 245.802 244.891 245.781V248C244.568 248.094 244.229 248.161 243.875 248.203C243.531 248.245 243.156 248.266 242.75 248.266C241.438 248.266 240.547 247.932 240.078 247.266C239.609 246.589 239.375 245.714 239.375 244.641V233.562H237.109V231.266H239.375V226.594ZM246.984 237.641H254.828V240.531H246.984V237.641ZM258.375 231.344H261.234V248H258.375V231.344ZM258.375 225.047H261.234V228.234H258.375V225.047ZM265.5 231.266H268.172V233.641C268.964 232.661 269.802 231.958 270.688 231.531C271.573 231.104 272.557 230.891 273.641 230.891C276.016 230.891 277.62 231.719 278.453 233.375C278.911 234.281 279.141 235.578 279.141 237.266V248H276.281V237.453C276.281 236.432 276.13 235.609 275.828 234.984C275.328 233.943 274.422 233.422 273.109 233.422C272.443 233.422 271.896 233.49 271.469 233.625C270.698 233.854 270.021 234.312 269.438 235C268.969 235.552 268.661 236.125 268.516 236.719C268.38 237.302 268.312 238.141 268.312 239.234V248H265.5V231.266ZM301.406 245.344C302.458 245.344 303.323 245.234 304 245.016C305.208 244.609 306.198 243.828 306.969 242.672C307.583 241.745 308.026 240.557 308.297 239.109C308.453 238.245 308.531 237.443 308.531 236.703C308.531 233.859 307.964 231.651 306.828 230.078C305.703 228.505 303.885 227.719 301.375 227.719H295.859V245.344H301.406ZM292.734 225.047H302.031C305.188 225.047 307.635 226.167 309.375 228.406C310.927 230.427 311.703 233.016 311.703 236.172C311.703 238.609 311.245 240.812 310.328 242.781C308.714 246.26 305.938 248 302 248H292.734V225.047ZM322.312 230.891C323.5 230.891 324.651 231.172 325.766 231.734C326.88 232.286 327.729 233.005 328.312 233.891C328.875 234.734 329.25 235.719 329.438 236.844C329.604 237.615 329.688 238.844 329.688 240.531H317.422C317.474 242.229 317.875 243.594 318.625 244.625C319.375 245.646 320.536 246.156 322.109 246.156C323.578 246.156 324.75 245.672 325.625 244.703C326.125 244.141 326.479 243.49 326.688 242.75H329.453C329.38 243.365 329.135 244.052 328.719 244.812C328.312 245.562 327.854 246.177 327.344 246.656C326.49 247.49 325.432 248.052 324.172 248.344C323.495 248.51 322.729 248.594 321.875 248.594C319.792 248.594 318.026 247.839 316.578 246.328C315.13 244.807 314.406 242.682 314.406 239.953C314.406 237.266 315.135 235.083 316.594 233.406C318.052 231.729 319.958 230.891 322.312 230.891ZM326.797 238.297C326.682 237.078 326.417 236.104 326 235.375C325.229 234.021 323.943 233.344 322.141 233.344C320.849 233.344 319.766 233.812 318.891 234.75C318.016 235.677 317.552 236.859 317.5 238.297H326.797ZM334.828 242.75C334.911 243.688 335.146 244.406 335.531 244.906C336.24 245.812 337.469 246.266 339.219 246.266C340.26 246.266 341.177 246.042 341.969 245.594C342.76 245.135 343.156 244.432 343.156 243.484C343.156 242.766 342.839 242.219 342.203 241.844C341.797 241.615 340.995 241.349 339.797 241.047L337.562 240.484C336.135 240.13 335.083 239.734 334.406 239.297C333.198 238.536 332.594 237.484 332.594 236.141C332.594 234.557 333.161 233.276 334.297 232.297C335.443 231.318 336.979 230.828 338.906 230.828C341.427 230.828 343.245 231.568 344.359 233.047C345.057 233.984 345.396 234.995 345.375 236.078H342.719C342.667 235.443 342.443 234.865 342.047 234.344C341.401 233.604 340.281 233.234 338.688 233.234C337.625 233.234 336.818 233.438 336.266 233.844C335.724 234.25 335.453 234.786 335.453 235.453C335.453 236.182 335.812 236.766 336.531 237.203C336.948 237.464 337.562 237.693 338.375 237.891L340.234 238.344C342.255 238.833 343.609 239.307 344.297 239.766C345.391 240.484 345.938 241.615 345.938 243.156C345.938 244.646 345.37 245.932 344.234 247.016C343.109 248.099 341.391 248.641 339.078 248.641C336.589 248.641 334.823 248.078 333.781 246.953C332.75 245.818 332.198 244.417 332.125 242.75H334.828ZM349.156 231.344H352.016V248H349.156V231.344ZM349.156 225.047H352.016V228.234H349.156V225.047ZM362.188 230.969C363.5 230.969 364.646 231.292 365.625 231.938C366.156 232.302 366.698 232.833 367.25 233.531V231.422H369.844V246.641C369.844 248.766 369.531 250.443 368.906 251.672C367.74 253.943 365.536 255.078 362.297 255.078C360.495 255.078 358.979 254.672 357.75 253.859C356.521 253.057 355.833 251.797 355.688 250.078H358.547C358.682 250.828 358.953 251.406 359.359 251.812C359.995 252.438 360.995 252.75 362.359 252.75C364.516 252.75 365.927 251.99 366.594 250.469C366.99 249.573 367.172 247.974 367.141 245.672C366.578 246.526 365.901 247.161 365.109 247.578C364.318 247.995 363.271 248.203 361.969 248.203C360.156 248.203 358.568 247.562 357.203 246.281C355.849 244.99 355.172 242.859 355.172 239.891C355.172 237.089 355.854 234.901 357.219 233.328C358.594 231.755 360.25 230.969 362.188 230.969ZM367.25 239.562C367.25 237.49 366.823 235.953 365.969 234.953C365.115 233.953 364.026 233.453 362.703 233.453C360.724 233.453 359.37 234.38 358.641 236.234C358.255 237.224 358.062 238.521 358.062 240.125C358.062 242.01 358.443 243.448 359.203 244.438C359.974 245.417 361.005 245.906 362.297 245.906C364.318 245.906 365.74 244.995 366.562 243.172C367.021 242.141 367.25 240.938 367.25 239.562ZM374.094 231.266H376.766V233.641C377.557 232.661 378.396 231.958 379.281 231.531C380.167 231.104 381.151 230.891 382.234 230.891C384.609 230.891 386.214 231.719 387.047 233.375C387.505 234.281 387.734 235.578 387.734 237.266V248H384.875V237.453C384.875 236.432 384.724 235.609 384.422 234.984C383.922 233.943 383.016 233.422 381.703 233.422C381.036 233.422 380.49 233.49 380.062 233.625C379.292 233.854 378.615 234.312 378.031 235C377.562 235.552 377.255 236.125 377.109 236.719C376.974 237.302 376.906 238.141 376.906 239.234V248H374.094V231.266ZM403.219 240.594C403.292 241.896 403.599 242.953 404.141 243.766C405.172 245.286 406.99 246.047 409.594 246.047C410.76 246.047 411.823 245.88 412.781 245.547C414.635 244.901 415.562 243.745 415.562 242.078C415.562 240.828 415.172 239.938 414.391 239.406C413.599 238.885 412.359 238.432 410.672 238.047L407.562 237.344C405.531 236.885 404.094 236.38 403.25 235.828C401.792 234.87 401.062 233.438 401.062 231.531C401.062 229.469 401.776 227.776 403.203 226.453C404.63 225.13 406.651 224.469 409.266 224.469C411.672 224.469 413.714 225.052 415.391 226.219C417.078 227.375 417.922 229.229 417.922 231.781H415C414.844 230.552 414.51 229.609 414 228.953C413.052 227.755 411.443 227.156 409.172 227.156C407.339 227.156 406.021 227.542 405.219 228.312C404.417 229.083 404.016 229.979 404.016 231C404.016 232.125 404.484 232.948 405.422 233.469C406.036 233.802 407.427 234.219 409.594 234.719L412.812 235.453C414.365 235.807 415.562 236.292 416.406 236.906C417.865 237.979 418.594 239.536 418.594 241.578C418.594 244.12 417.667 245.938 415.812 247.031C413.969 248.125 411.823 248.672 409.375 248.672C406.521 248.672 404.286 247.943 402.672 246.484C401.057 245.036 400.266 243.073 400.297 240.594H403.219ZM432.609 231.266H435.719C435.323 232.339 434.443 234.786 433.078 238.609C432.057 241.484 431.203 243.828 430.516 245.641C428.891 249.911 427.745 252.516 427.078 253.453C426.411 254.391 425.266 254.859 423.641 254.859C423.245 254.859 422.938 254.844 422.719 254.812C422.51 254.781 422.25 254.724 421.938 254.641V252.078C422.427 252.214 422.781 252.297 423 252.328C423.219 252.359 423.411 252.375 423.578 252.375C424.099 252.375 424.479 252.286 424.719 252.109C424.969 251.943 425.177 251.734 425.344 251.484C425.396 251.401 425.583 250.974 425.906 250.203C426.229 249.432 426.464 248.859 426.609 248.484L420.422 231.266H423.609L428.094 244.891L432.609 231.266ZM439.828 242.75C439.911 243.688 440.146 244.406 440.531 244.906C441.24 245.812 442.469 246.266 444.219 246.266C445.26 246.266 446.177 246.042 446.969 245.594C447.76 245.135 448.156 244.432 448.156 243.484C448.156 242.766 447.839 242.219 447.203 241.844C446.797 241.615 445.995 241.349 444.797 241.047L442.562 240.484C441.135 240.13 440.083 239.734 439.406 239.297C438.198 238.536 437.594 237.484 437.594 236.141C437.594 234.557 438.161 233.276 439.297 232.297C440.443 231.318 441.979 230.828 443.906 230.828C446.427 230.828 448.245 231.568 449.359 233.047C450.057 233.984 450.396 234.995 450.375 236.078H447.719C447.667 235.443 447.443 234.865 447.047 234.344C446.401 233.604 445.281 233.234 443.688 233.234C442.625 233.234 441.818 233.438 441.266 233.844C440.724 234.25 440.453 234.786 440.453 235.453C440.453 236.182 440.812 236.766 441.531 237.203C441.948 237.464 442.562 237.693 443.375 237.891L445.234 238.344C447.255 238.833 448.609 239.307 449.297 239.766C450.391 240.484 450.938 241.615 450.938 243.156C450.938 244.646 450.37 245.932 449.234 247.016C448.109 248.099 446.391 248.641 444.078 248.641C441.589 248.641 439.823 248.078 438.781 246.953C437.75 245.818 437.198 244.417 437.125 242.75H439.828ZM454.719 226.594H457.562V231.266H460.234V233.562H457.562V244.484C457.562 245.068 457.76 245.458 458.156 245.656C458.375 245.771 458.74 245.828 459.25 245.828C459.385 245.828 459.531 245.828 459.688 245.828C459.844 245.818 460.026 245.802 460.234 245.781V248C459.911 248.094 459.573 248.161 459.219 248.203C458.875 248.245 458.5 248.266 458.094 248.266C456.781 248.266 455.891 247.932 455.422 247.266C454.953 246.589 454.719 245.714 454.719 244.641V233.562H452.453V231.266H454.719V226.594ZM470.031 230.891C471.219 230.891 472.37 231.172 473.484 231.734C474.599 232.286 475.448 233.005 476.031 233.891C476.594 234.734 476.969 235.719 477.156 236.844C477.323 237.615 477.406 238.844 477.406 240.531H465.141C465.193 242.229 465.594 243.594 466.344 244.625C467.094 245.646 468.255 246.156 469.828 246.156C471.297 246.156 472.469 245.672 473.344 244.703C473.844 244.141 474.198 243.49 474.406 242.75H477.172C477.099 243.365 476.854 244.052 476.438 244.812C476.031 245.562 475.573 246.177 475.062 246.656C474.208 247.49 473.151 248.052 471.891 248.344C471.214 248.51 470.448 248.594 469.594 248.594C467.51 248.594 465.745 247.839 464.297 246.328C462.849 244.807 462.125 242.682 462.125 239.953C462.125 237.266 462.854 235.083 464.312 233.406C465.771 231.729 467.677 230.891 470.031 230.891ZM474.516 238.297C474.401 237.078 474.135 236.104 473.719 235.375C472.948 234.021 471.661 233.344 469.859 233.344C468.568 233.344 467.484 233.812 466.609 234.75C465.734 235.677 465.271 236.859 465.219 238.297H474.516ZM480.875 231.266H483.656V233.641C484.323 232.818 484.927 232.219 485.469 231.844C486.396 231.208 487.448 230.891 488.625 230.891C489.958 230.891 491.031 231.219 491.844 231.875C492.302 232.25 492.719 232.802 493.094 233.531C493.719 232.635 494.453 231.974 495.297 231.547C496.141 231.109 497.089 230.891 498.141 230.891C500.391 230.891 501.922 231.703 502.734 233.328C503.172 234.203 503.391 235.38 503.391 236.859V248H500.469V236.375C500.469 235.26 500.188 234.495 499.625 234.078C499.073 233.661 498.396 233.453 497.594 233.453C496.49 233.453 495.536 233.823 494.734 234.562C493.943 235.302 493.547 236.536 493.547 238.266V248H490.688V237.078C490.688 235.943 490.552 235.115 490.281 234.594C489.854 233.812 489.057 233.422 487.891 233.422C486.828 233.422 485.859 233.833 484.984 234.656C484.12 235.479 483.688 236.969 483.688 239.125V248H480.875V231.266ZM517 226.594H519.844V231.266H522.516V233.562H519.844V244.484C519.844 245.068 520.042 245.458 520.438 245.656C520.656 245.771 521.021 245.828 521.531 245.828C521.667 245.828 521.812 245.828 521.969 245.828C522.125 245.818 522.307 245.802 522.516 245.781V248C522.193 248.094 521.854 248.161 521.5 248.203C521.156 248.245 520.781 248.266 520.375 248.266C519.062 248.266 518.172 247.932 517.703 247.266C517.234 246.589 517 245.714 517 244.641V233.562H514.734V231.266H517V226.594ZM531.984 246.188C533.849 246.188 535.125 245.484 535.812 244.078C536.51 242.661 536.859 241.089 536.859 239.359C536.859 237.797 536.609 236.526 536.109 235.547C535.318 234.005 533.953 233.234 532.016 233.234C530.297 233.234 529.047 233.891 528.266 235.203C527.484 236.516 527.094 238.099 527.094 239.953C527.094 241.734 527.484 243.219 528.266 244.406C529.047 245.594 530.286 246.188 531.984 246.188ZM532.094 230.781C534.25 230.781 536.073 231.5 537.562 232.938C539.052 234.375 539.797 236.49 539.797 239.281C539.797 241.979 539.141 244.208 537.828 245.969C536.516 247.729 534.479 248.609 531.719 248.609C529.417 248.609 527.589 247.833 526.234 246.281C524.88 244.719 524.203 242.625 524.203 240C524.203 237.188 524.917 234.948 526.344 233.281C527.771 231.615 529.688 230.781 532.094 230.781ZM553.734 242.75C553.818 243.688 554.052 244.406 554.438 244.906C555.146 245.812 556.375 246.266 558.125 246.266C559.167 246.266 560.083 246.042 560.875 245.594C561.667 245.135 562.062 244.432 562.062 243.484C562.062 242.766 561.745 242.219 561.109 241.844C560.703 241.615 559.901 241.349 558.703 241.047L556.469 240.484C555.042 240.13 553.99 239.734 553.312 239.297C552.104 238.536 551.5 237.484 551.5 236.141C551.5 234.557 552.068 233.276 553.203 232.297C554.349 231.318 555.885 230.828 557.812 230.828C560.333 230.828 562.151 231.568 563.266 233.047C563.964 233.984 564.302 234.995 564.281 236.078H561.625C561.573 235.443 561.349 234.865 560.953 234.344C560.307 233.604 559.188 233.234 557.594 233.234C556.531 233.234 555.724 233.438 555.172 233.844C554.63 234.25 554.359 234.786 554.359 235.453C554.359 236.182 554.719 236.766 555.438 237.203C555.854 237.464 556.469 237.693 557.281 237.891L559.141 238.344C561.161 238.833 562.516 239.307 563.203 239.766C564.297 240.484 564.844 241.615 564.844 243.156C564.844 244.646 564.276 245.932 563.141 247.016C562.016 248.099 560.297 248.641 557.984 248.641C555.495 248.641 553.729 248.078 552.688 246.953C551.656 245.818 551.104 244.417 551.031 242.75H553.734ZM575.031 230.891C576.219 230.891 577.37 231.172 578.484 231.734C579.599 232.286 580.448 233.005 581.031 233.891C581.594 234.734 581.969 235.719 582.156 236.844C582.323 237.615 582.406 238.844 582.406 240.531H570.141C570.193 242.229 570.594 243.594 571.344 244.625C572.094 245.646 573.255 246.156 574.828 246.156C576.297 246.156 577.469 245.672 578.344 244.703C578.844 244.141 579.198 243.49 579.406 242.75H582.172C582.099 243.365 581.854 244.052 581.438 244.812C581.031 245.562 580.573 246.177 580.062 246.656C579.208 247.49 578.151 248.052 576.891 248.344C576.214 248.51 575.448 248.594 574.594 248.594C572.51 248.594 570.745 247.839 569.297 246.328C567.849 244.807 567.125 242.682 567.125 239.953C567.125 237.266 567.854 235.083 569.312 233.406C570.771 231.729 572.677 230.891 575.031 230.891ZM579.516 238.297C579.401 237.078 579.135 236.104 578.719 235.375C577.948 234.021 576.661 233.344 574.859 233.344C573.568 233.344 572.484 233.812 571.609 234.75C570.734 235.677 570.271 236.859 570.219 238.297H579.516ZM585.953 231.266H588.625V234.156C588.844 233.594 589.38 232.911 590.234 232.109C591.089 231.297 592.073 230.891 593.188 230.891C593.24 230.891 593.328 230.896 593.453 230.906C593.578 230.917 593.792 230.938 594.094 230.969V233.938C593.927 233.906 593.771 233.885 593.625 233.875C593.49 233.865 593.339 233.859 593.172 233.859C591.755 233.859 590.667 234.318 589.906 235.234C589.146 236.141 588.766 237.188 588.766 238.375V248H585.953V231.266ZM597.906 231.266L602.375 244.891L607.047 231.266H610.125L603.812 248H600.812L594.641 231.266H597.906ZM619.5 230.891C620.688 230.891 621.839 231.172 622.953 231.734C624.068 232.286 624.917 233.005 625.5 233.891C626.062 234.734 626.438 235.719 626.625 236.844C626.792 237.615 626.875 238.844 626.875 240.531H614.609C614.661 242.229 615.062 243.594 615.812 244.625C616.562 245.646 617.724 246.156 619.297 246.156C620.766 246.156 621.938 245.672 622.812 244.703C623.312 244.141 623.667 243.49 623.875 242.75H626.641C626.568 243.365 626.323 244.052 625.906 244.812C625.5 245.562 625.042 246.177 624.531 246.656C623.677 247.49 622.62 248.052 621.359 248.344C620.682 248.51 619.917 248.594 619.062 248.594C616.979 248.594 615.214 247.839 613.766 246.328C612.318 244.807 611.594 242.682 611.594 239.953C611.594 237.266 612.323 235.083 613.781 233.406C615.24 231.729 617.146 230.891 619.5 230.891ZM623.984 238.297C623.87 237.078 623.604 236.104 623.188 235.375C622.417 234.021 621.13 233.344 619.328 233.344C618.036 233.344 616.953 233.812 616.078 234.75C615.203 235.677 614.74 236.859 614.688 238.297H623.984ZM641.406 243.547C641.406 244.359 641.703 245 642.297 245.469C642.891 245.938 643.594 246.172 644.406 246.172C645.396 246.172 646.354 245.943 647.281 245.484C648.844 244.724 649.625 243.479 649.625 241.75V239.484C649.281 239.703 648.839 239.885 648.297 240.031C647.755 240.177 647.224 240.281 646.703 240.344L645 240.562C643.979 240.698 643.214 240.911 642.703 241.203C641.839 241.693 641.406 242.474 641.406 243.547ZM648.219 237.859C648.865 237.776 649.297 237.505 649.516 237.047C649.641 236.797 649.703 236.438 649.703 235.969C649.703 235.01 649.359 234.318 648.672 233.891C647.995 233.453 647.021 233.234 645.75 233.234C644.281 233.234 643.24 233.63 642.625 234.422C642.281 234.859 642.057 235.51 641.953 236.375H639.328C639.38 234.312 640.047 232.88 641.328 232.078C642.62 231.266 644.115 230.859 645.812 230.859C647.781 230.859 649.38 231.234 650.609 231.984C651.828 232.734 652.438 233.901 652.438 235.484V245.125C652.438 245.417 652.495 245.651 652.609 245.828C652.734 246.005 652.99 246.094 653.375 246.094C653.5 246.094 653.641 246.089 653.797 246.078C653.953 246.057 654.12 246.031 654.297 246V248.078C653.859 248.203 653.526 248.281 653.297 248.312C653.068 248.344 652.755 248.359 652.359 248.359C651.391 248.359 650.688 248.016 650.25 247.328C650.021 246.964 649.859 246.448 649.766 245.781C649.193 246.531 648.37 247.182 647.297 247.734C646.224 248.286 645.042 248.562 643.75 248.562C642.198 248.562 640.927 248.094 639.938 247.156C638.958 246.208 638.469 245.026 638.469 243.609C638.469 242.057 638.953 240.854 639.922 240C640.891 239.146 642.161 238.62 643.734 238.422L648.219 237.859ZM657.141 225.047H659.953V248H657.141V225.047ZM664.266 225.047H667.078V248H664.266V225.047ZM133.516 272.266H136.625C136.229 273.339 135.349 275.786 133.984 279.609C132.964 282.484 132.109 284.828 131.422 286.641C129.797 290.911 128.651 293.516 127.984 294.453C127.318 295.391 126.172 295.859 124.547 295.859C124.151 295.859 123.844 295.844 123.625 295.812C123.417 295.781 123.156 295.724 122.844 295.641V293.078C123.333 293.214 123.688 293.297 123.906 293.328C124.125 293.359 124.318 293.375 124.484 293.375C125.005 293.375 125.385 293.286 125.625 293.109C125.875 292.943 126.083 292.734 126.25 292.484C126.302 292.401 126.49 291.974 126.812 291.203C127.135 290.432 127.37 289.859 127.516 289.484L121.328 272.266H124.516L129 285.891L133.516 272.266ZM145.703 287.188C147.568 287.188 148.844 286.484 149.531 285.078C150.229 283.661 150.578 282.089 150.578 280.359C150.578 278.797 150.328 277.526 149.828 276.547C149.036 275.005 147.672 274.234 145.734 274.234C144.016 274.234 142.766 274.891 141.984 276.203C141.203 277.516 140.812 279.099 140.812 280.953C140.812 282.734 141.203 284.219 141.984 285.406C142.766 286.594 144.005 287.188 145.703 287.188ZM145.812 271.781C147.969 271.781 149.792 272.5 151.281 273.938C152.771 275.375 153.516 277.49 153.516 280.281C153.516 282.979 152.859 285.208 151.547 286.969C150.234 288.729 148.198 289.609 145.438 289.609C143.135 289.609 141.307 288.833 139.953 287.281C138.599 285.719 137.922 283.625 137.922 281C137.922 278.188 138.635 275.948 140.062 274.281C141.49 272.615 143.406 271.781 145.812 271.781ZM159.688 272.266V283.375C159.688 284.229 159.823 284.927 160.094 285.469C160.594 286.469 161.526 286.969 162.891 286.969C164.849 286.969 166.182 286.094 166.891 284.344C167.276 283.406 167.469 282.12 167.469 280.484V272.266H170.281V289H167.625L167.656 286.531C167.292 287.167 166.839 287.703 166.297 288.141C165.224 289.016 163.922 289.453 162.391 289.453C160.005 289.453 158.38 288.656 157.516 287.062C157.047 286.208 156.812 285.068 156.812 283.641V272.266H159.688ZM174.766 272.266H177.438V275.156C177.656 274.594 178.193 273.911 179.047 273.109C179.901 272.297 180.885 271.891 182 271.891C182.052 271.891 182.141 271.896 182.266 271.906C182.391 271.917 182.604 271.938 182.906 271.969V274.938C182.74 274.906 182.583 274.885 182.438 274.875C182.302 274.865 182.151 274.859 181.984 274.859C180.568 274.859 179.479 275.318 178.719 276.234C177.958 277.141 177.578 278.188 177.578 279.375V289H174.766V272.266ZM196.031 280.828C196.031 282.62 196.411 284.12 197.172 285.328C197.932 286.536 199.151 287.141 200.828 287.141C202.13 287.141 203.198 286.583 204.031 285.469C204.875 284.344 205.297 282.734 205.297 280.641C205.297 278.526 204.865 276.964 204 275.953C203.135 274.932 202.068 274.422 200.797 274.422C199.38 274.422 198.229 274.964 197.344 276.047C196.469 277.13 196.031 278.724 196.031 280.828ZM200.266 271.969C201.547 271.969 202.62 272.24 203.484 272.781C203.984 273.094 204.552 273.641 205.188 274.422V265.969H207.891V289H205.359V286.672C204.703 287.703 203.927 288.448 203.031 288.906C202.135 289.365 201.109 289.594 199.953 289.594C198.089 289.594 196.474 288.812 195.109 287.25C193.745 285.677 193.062 283.589 193.062 280.984C193.062 278.547 193.682 276.438 194.922 274.656C196.172 272.865 197.953 271.969 200.266 271.969ZM212.062 272.344H214.922V289H212.062V272.344ZM212.062 266.047H214.922V269.234H212.062V266.047ZM225.094 271.969C226.406 271.969 227.552 272.292 228.531 272.938C229.062 273.302 229.604 273.833 230.156 274.531V272.422H232.75V287.641C232.75 289.766 232.438 291.443 231.812 292.672C230.646 294.943 228.443 296.078 225.203 296.078C223.401 296.078 221.885 295.672 220.656 294.859C219.427 294.057 218.74 292.797 218.594 291.078H221.453C221.589 291.828 221.859 292.406 222.266 292.812C222.901 293.438 223.901 293.75 225.266 293.75C227.422 293.75 228.833 292.99 229.5 291.469C229.896 290.573 230.078 288.974 230.047 286.672C229.484 287.526 228.807 288.161 228.016 288.578C227.224 288.995 226.177 289.203 224.875 289.203C223.062 289.203 221.474 288.562 220.109 287.281C218.755 285.99 218.078 283.859 218.078 280.891C218.078 278.089 218.76 275.901 220.125 274.328C221.5 272.755 223.156 271.969 225.094 271.969ZM230.156 280.562C230.156 278.49 229.729 276.953 228.875 275.953C228.021 274.953 226.932 274.453 225.609 274.453C223.63 274.453 222.276 275.38 221.547 277.234C221.161 278.224 220.969 279.521 220.969 281.125C220.969 283.01 221.349 284.448 222.109 285.438C222.88 286.417 223.911 286.906 225.203 286.906C227.224 286.906 228.646 285.995 229.469 284.172C229.927 283.141 230.156 281.938 230.156 280.562ZM237 272.344H239.859V289H237V272.344ZM237 266.047H239.859V269.234H237V266.047ZM244.688 267.594H247.531V272.266H250.203V274.562H247.531V285.484C247.531 286.068 247.729 286.458 248.125 286.656C248.344 286.771 248.708 286.828 249.219 286.828C249.354 286.828 249.5 286.828 249.656 286.828C249.812 286.818 249.995 286.802 250.203 286.781V289C249.88 289.094 249.542 289.161 249.188 289.203C248.844 289.245 248.469 289.266 248.062 289.266C246.75 289.266 245.859 288.932 245.391 288.266C244.922 287.589 244.688 286.714 244.688 285.641V274.562H242.422V272.266H244.688V267.594ZM255.188 284.547C255.188 285.359 255.484 286 256.078 286.469C256.672 286.938 257.375 287.172 258.188 287.172C259.177 287.172 260.135 286.943 261.062 286.484C262.625 285.724 263.406 284.479 263.406 282.75V280.484C263.062 280.703 262.62 280.885 262.078 281.031C261.536 281.177 261.005 281.281 260.484 281.344L258.781 281.562C257.76 281.698 256.995 281.911 256.484 282.203C255.62 282.693 255.188 283.474 255.188 284.547ZM262 278.859C262.646 278.776 263.078 278.505 263.297 278.047C263.422 277.797 263.484 277.438 263.484 276.969C263.484 276.01 263.141 275.318 262.453 274.891C261.776 274.453 260.802 274.234 259.531 274.234C258.062 274.234 257.021 274.63 256.406 275.422C256.062 275.859 255.839 276.51 255.734 277.375H253.109C253.161 275.312 253.828 273.88 255.109 273.078C256.401 272.266 257.896 271.859 259.594 271.859C261.562 271.859 263.161 272.234 264.391 272.984C265.609 273.734 266.219 274.901 266.219 276.484V286.125C266.219 286.417 266.276 286.651 266.391 286.828C266.516 287.005 266.771 287.094 267.156 287.094C267.281 287.094 267.422 287.089 267.578 287.078C267.734 287.057 267.901 287.031 268.078 287V289.078C267.641 289.203 267.307 289.281 267.078 289.312C266.849 289.344 266.536 289.359 266.141 289.359C265.172 289.359 264.469 289.016 264.031 288.328C263.802 287.964 263.641 287.448 263.547 286.781C262.974 287.531 262.151 288.182 261.078 288.734C260.005 289.286 258.823 289.562 257.531 289.562C255.979 289.562 254.708 289.094 253.719 288.156C252.74 287.208 252.25 286.026 252.25 284.609C252.25 283.057 252.734 281.854 253.703 281C254.672 280.146 255.943 279.62 257.516 279.422L262 278.859ZM270.922 266.047H273.734V289H270.922V266.047ZM287.438 267.594H290.281V272.266H292.953V274.562H290.281V285.484C290.281 286.068 290.479 286.458 290.875 286.656C291.094 286.771 291.458 286.828 291.969 286.828C292.104 286.828 292.25 286.828 292.406 286.828C292.562 286.818 292.745 286.802 292.953 286.781V289C292.63 289.094 292.292 289.161 291.938 289.203C291.594 289.245 291.219 289.266 290.812 289.266C289.5 289.266 288.609 288.932 288.141 288.266C287.672 287.589 287.438 286.714 287.438 285.641V274.562H285.172V272.266H287.438V267.594ZM302.422 287.188C304.286 287.188 305.562 286.484 306.25 285.078C306.948 283.661 307.297 282.089 307.297 280.359C307.297 278.797 307.047 277.526 306.547 276.547C305.755 275.005 304.391 274.234 302.453 274.234C300.734 274.234 299.484 274.891 298.703 276.203C297.922 277.516 297.531 279.099 297.531 280.953C297.531 282.734 297.922 284.219 298.703 285.406C299.484 286.594 300.724 287.188 302.422 287.188ZM302.531 271.781C304.688 271.781 306.51 272.5 308 273.938C309.49 275.375 310.234 277.49 310.234 280.281C310.234 282.979 309.578 285.208 308.266 286.969C306.953 288.729 304.917 289.609 302.156 289.609C299.854 289.609 298.026 288.833 296.672 287.281C295.318 285.719 294.641 283.625 294.641 281C294.641 278.188 295.354 275.948 296.781 274.281C298.208 272.615 300.125 271.781 302.531 271.781ZM316.406 272.266V283.375C316.406 284.229 316.542 284.927 316.812 285.469C317.312 286.469 318.245 286.969 319.609 286.969C321.568 286.969 322.901 286.094 323.609 284.344C323.995 283.406 324.188 282.12 324.188 280.484V272.266H327V289H324.344L324.375 286.531C324.01 287.167 323.557 287.703 323.016 288.141C321.943 289.016 320.641 289.453 319.109 289.453C316.724 289.453 315.099 288.656 314.234 287.062C313.766 286.208 313.531 285.068 313.531 283.641V272.266H316.406ZM337.859 271.781C339.745 271.781 341.276 272.24 342.453 273.156C343.641 274.073 344.354 275.651 344.594 277.891H341.859C341.693 276.859 341.312 276.005 340.719 275.328C340.125 274.641 339.172 274.297 337.859 274.297C336.068 274.297 334.786 275.172 334.016 276.922C333.516 278.057 333.266 279.458 333.266 281.125C333.266 282.802 333.62 284.214 334.328 285.359C335.036 286.505 336.151 287.078 337.672 287.078C338.839 287.078 339.76 286.724 340.438 286.016C341.125 285.297 341.599 284.318 341.859 283.078H344.594C344.281 285.297 343.5 286.922 342.25 287.953C341 288.974 339.401 289.484 337.453 289.484C335.266 289.484 333.521 288.688 332.219 287.094C330.917 285.49 330.266 283.49 330.266 281.094C330.266 278.156 330.979 275.87 332.406 274.234C333.833 272.599 335.651 271.781 337.859 271.781ZM347.406 265.969H350.219V274.531C350.885 273.688 351.484 273.094 352.016 272.75C352.922 272.156 354.052 271.859 355.406 271.859C357.833 271.859 359.479 272.708 360.344 274.406C360.812 275.333 361.047 276.62 361.047 278.266V289H358.156V278.453C358.156 277.224 358 276.323 357.688 275.75C357.177 274.833 356.219 274.375 354.812 274.375C353.646 274.375 352.589 274.776 351.641 275.578C350.693 276.38 350.219 277.896 350.219 280.125V289H347.406V265.969ZM381.188 287.109C382.5 287.109 383.589 286.562 384.453 285.469C385.328 284.365 385.766 282.719 385.766 280.531C385.766 279.198 385.573 278.052 385.188 277.094C384.458 275.25 383.125 274.328 381.188 274.328C379.24 274.328 377.906 275.302 377.188 277.25C376.802 278.292 376.609 279.615 376.609 281.219C376.609 282.51 376.802 283.609 377.188 284.516C377.917 286.245 379.25 287.109 381.188 287.109ZM373.906 272.344H376.641V274.562C377.203 273.802 377.818 273.214 378.484 272.797C379.432 272.172 380.547 271.859 381.828 271.859C383.724 271.859 385.333 272.589 386.656 274.047C387.979 275.495 388.641 277.568 388.641 280.266C388.641 283.911 387.688 286.516 385.781 288.078C384.573 289.068 383.167 289.562 381.562 289.562C380.302 289.562 379.245 289.286 378.391 288.734C377.891 288.422 377.333 287.885 376.719 287.125V295.672H373.906V272.344ZM398.578 287.188C400.443 287.188 401.719 286.484 402.406 285.078C403.104 283.661 403.453 282.089 403.453 280.359C403.453 278.797 403.203 277.526 402.703 276.547C401.911 275.005 400.547 274.234 398.609 274.234C396.891 274.234 395.641 274.891 394.859 276.203C394.078 277.516 393.688 279.099 393.688 280.953C393.688 282.734 394.078 284.219 394.859 285.406C395.641 286.594 396.88 287.188 398.578 287.188ZM398.688 271.781C400.844 271.781 402.667 272.5 404.156 273.938C405.646 275.375 406.391 277.49 406.391 280.281C406.391 282.979 405.734 285.208 404.422 286.969C403.109 288.729 401.073 289.609 398.312 289.609C396.01 289.609 394.182 288.833 392.828 287.281C391.474 285.719 390.797 283.625 390.797 281C390.797 278.188 391.51 275.948 392.938 274.281C394.365 272.615 396.281 271.781 398.688 271.781ZM409.75 272.344H412.609V289H409.75V272.344ZM409.75 266.047H412.609V269.234H409.75V266.047ZM416.875 272.266H419.547V274.641C420.339 273.661 421.177 272.958 422.062 272.531C422.948 272.104 423.932 271.891 425.016 271.891C427.391 271.891 428.995 272.719 429.828 274.375C430.286 275.281 430.516 276.578 430.516 278.266V289H427.656V278.453C427.656 277.432 427.505 276.609 427.203 275.984C426.703 274.943 425.797 274.422 424.484 274.422C423.818 274.422 423.271 274.49 422.844 274.625C422.073 274.854 421.396 275.312 420.812 276C420.344 276.552 420.036 277.125 419.891 277.719C419.755 278.302 419.688 279.141 419.688 280.234V289H416.875V272.266ZM435.25 267.594H438.094V272.266H440.766V274.562H438.094V285.484C438.094 286.068 438.292 286.458 438.688 286.656C438.906 286.771 439.271 286.828 439.781 286.828C439.917 286.828 440.062 286.828 440.219 286.828C440.375 286.818 440.557 286.802 440.766 286.781V289C440.443 289.094 440.104 289.161 439.75 289.203C439.406 289.245 439.031 289.266 438.625 289.266C437.312 289.266 436.422 288.932 435.953 288.266C435.484 287.589 435.25 286.714 435.25 285.641V274.562H432.984V272.266H435.25V267.594ZM445.266 283.75C445.349 284.688 445.583 285.406 445.969 285.906C446.677 286.812 447.906 287.266 449.656 287.266C450.698 287.266 451.615 287.042 452.406 286.594C453.198 286.135 453.594 285.432 453.594 284.484C453.594 283.766 453.276 283.219 452.641 282.844C452.234 282.615 451.432 282.349 450.234 282.047L448 281.484C446.573 281.13 445.521 280.734 444.844 280.297C443.635 279.536 443.031 278.484 443.031 277.141C443.031 275.557 443.599 274.276 444.734 273.297C445.88 272.318 447.417 271.828 449.344 271.828C451.865 271.828 453.682 272.568 454.797 274.047C455.495 274.984 455.833 275.995 455.812 277.078H453.156C453.104 276.443 452.88 275.865 452.484 275.344C451.839 274.604 450.719 274.234 449.125 274.234C448.062 274.234 447.255 274.438 446.703 274.844C446.161 275.25 445.891 275.786 445.891 276.453C445.891 277.182 446.25 277.766 446.969 278.203C447.385 278.464 448 278.693 448.812 278.891L450.672 279.344C452.693 279.833 454.047 280.307 454.734 280.766C455.828 281.484 456.375 282.615 456.375 284.156C456.375 285.646 455.807 286.932 454.672 288.016C453.547 289.099 451.828 289.641 449.516 289.641C447.026 289.641 445.26 289.078 444.219 287.953C443.188 286.818 442.635 285.417 442.562 283.75H445.266Z" fill="black"/>
<rect y="456" width="880" height="8" fill="#06566A"/>
<path d="M129.734 386.297H135.578L132.703 377.234L129.734 386.297ZM130.031 371.969H135.469L143.625 395H138.406L136.922 390.266H128.438L126.844 395H121.812L130.031 371.969ZM152.172 381.297V378.125H154.547V373.375H158.953V378.125H161.719V381.297H158.953V390.297C158.953 390.995 159.042 391.432 159.219 391.609C159.396 391.776 159.938 391.859 160.844 391.859C160.979 391.859 161.12 391.859 161.266 391.859C161.422 391.849 161.573 391.839 161.719 391.828V395.156L159.609 395.234C157.505 395.307 156.068 394.943 155.297 394.141C154.797 393.63 154.547 392.844 154.547 391.781V381.297H152.172ZM173.828 377.562C173.911 377.562 173.979 377.568 174.031 377.578C174.094 377.578 174.224 377.583 174.422 377.594V382.156C174.141 382.125 173.891 382.104 173.672 382.094C173.453 382.083 173.276 382.078 173.141 382.078C171.349 382.078 170.146 382.661 169.531 383.828C169.188 384.484 169.016 385.495 169.016 386.859V395H164.531V377.969H168.781V380.938C169.469 379.802 170.068 379.026 170.578 378.609C171.411 377.911 172.495 377.562 173.828 377.562ZM181.484 377.969V388.234C181.484 389.203 181.599 389.932 181.828 390.422C182.234 391.286 183.031 391.719 184.219 391.719C185.74 391.719 186.781 391.104 187.344 389.875C187.635 389.208 187.781 388.328 187.781 387.234V377.969H192.297V395H187.969V392.594C187.927 392.646 187.823 392.802 187.656 393.062C187.49 393.323 187.292 393.552 187.062 393.75C186.365 394.375 185.688 394.802 185.031 395.031C184.385 395.26 183.625 395.375 182.75 395.375C180.229 395.375 178.531 394.469 177.656 392.656C177.167 391.656 176.922 390.182 176.922 388.234V377.969H181.484ZM203.328 381.188C202.297 381.188 201.495 381.51 200.922 382.156C200.359 382.802 200.005 383.677 199.859 384.781H206.781C206.708 383.604 206.349 382.714 205.703 382.109C205.068 381.495 204.276 381.188 203.328 381.188ZM203.328 377.516C204.745 377.516 206.021 377.781 207.156 378.312C208.292 378.844 209.229 379.682 209.969 380.828C210.635 381.839 211.068 383.01 211.266 384.344C211.38 385.125 211.427 386.25 211.406 387.719H199.75C199.812 389.427 200.349 390.625 201.359 391.312C201.974 391.74 202.714 391.953 203.578 391.953C204.495 391.953 205.24 391.693 205.812 391.172C206.125 390.891 206.401 390.5 206.641 390H211.188C211.073 391.01 210.547 392.036 209.609 393.078C208.151 394.734 206.109 395.562 203.484 395.562C201.318 395.562 199.406 394.865 197.75 393.469C196.094 392.073 195.266 389.802 195.266 386.656C195.266 383.708 196.01 381.448 197.5 379.875C199 378.302 200.943 377.516 203.328 377.516ZM229.609 371.734C229.891 371.734 230.146 371.745 230.375 371.766C230.604 371.776 230.917 371.797 231.312 371.828V375.453C231.062 375.422 230.641 375.401 230.047 375.391C229.464 375.37 229.057 375.5 228.828 375.781C228.609 376.052 228.5 376.354 228.5 376.688C228.5 377.021 228.5 377.5 228.5 378.125H231.422V381.266H228.5V395H224.062V381.266H221.578V378.125H224.016V377.031C224.016 375.208 224.323 373.953 224.938 373.266C225.583 372.245 227.141 371.734 229.609 371.734ZM243.234 377.562C243.318 377.562 243.385 377.568 243.438 377.578C243.5 377.578 243.63 377.583 243.828 377.594V382.156C243.547 382.125 243.297 382.104 243.078 382.094C242.859 382.083 242.682 382.078 242.547 382.078C240.755 382.078 239.552 382.661 238.938 383.828C238.594 384.484 238.422 385.495 238.422 386.859V395H233.938V377.969H238.188V380.938C238.875 379.802 239.474 379.026 239.984 378.609C240.818 377.911 241.901 377.562 243.234 377.562ZM254.094 391.859C255.396 391.859 256.396 391.396 257.094 390.469C257.792 389.542 258.141 388.224 258.141 386.516C258.141 384.807 257.792 383.495 257.094 382.578C256.396 381.651 255.396 381.188 254.094 381.188C252.792 381.188 251.786 381.651 251.078 382.578C250.38 383.495 250.031 384.807 250.031 386.516C250.031 388.224 250.38 389.542 251.078 390.469C251.786 391.396 252.792 391.859 254.094 391.859ZM262.812 386.516C262.812 389.016 262.094 391.156 260.656 392.938C259.219 394.708 257.036 395.594 254.109 395.594C251.182 395.594 249 394.708 247.562 392.938C246.125 391.156 245.406 389.016 245.406 386.516C245.406 384.057 246.125 381.927 247.562 380.125C249 378.323 251.182 377.422 254.109 377.422C257.036 377.422 259.219 378.323 260.656 380.125C262.094 381.927 262.812 384.057 262.812 386.516ZM275.453 377.562C277.214 377.562 278.651 378.026 279.766 378.953C280.891 379.87 281.453 381.396 281.453 383.531V395H276.891V384.641C276.891 383.745 276.771 383.057 276.531 382.578C276.094 381.703 275.26 381.266 274.031 381.266C272.521 381.266 271.484 381.906 270.922 383.188C270.63 383.865 270.484 384.729 270.484 385.781V395H266.047V378H270.344V380.484C270.917 379.609 271.458 378.979 271.969 378.594C272.885 377.906 274.047 377.562 275.453 377.562ZM283.828 381.297V378.125H286.203V373.375H290.609V378.125H293.375V381.297H290.609V390.297C290.609 390.995 290.698 391.432 290.875 391.609C291.052 391.776 291.594 391.859 292.5 391.859C292.635 391.859 292.776 391.859 292.922 391.859C293.078 391.849 293.229 391.839 293.375 391.828V395.156L291.266 395.234C289.161 395.307 287.724 394.943 286.953 394.141C286.453 393.63 286.203 392.844 286.203 391.781V381.297H283.828ZM302.953 381.188C301.922 381.188 301.12 381.51 300.547 382.156C299.984 382.802 299.63 383.677 299.484 384.781H306.406C306.333 383.604 305.974 382.714 305.328 382.109C304.693 381.495 303.901 381.188 302.953 381.188ZM302.953 377.516C304.37 377.516 305.646 377.781 306.781 378.312C307.917 378.844 308.854 379.682 309.594 380.828C310.26 381.839 310.693 383.01 310.891 384.344C311.005 385.125 311.052 386.25 311.031 387.719H299.375C299.438 389.427 299.974 390.625 300.984 391.312C301.599 391.74 302.339 391.953 303.203 391.953C304.12 391.953 304.865 391.693 305.438 391.172C305.75 390.891 306.026 390.5 306.266 390H310.812C310.698 391.01 310.172 392.036 309.234 393.078C307.776 394.734 305.734 395.562 303.109 395.562C300.943 395.562 299.031 394.865 297.375 393.469C295.719 392.073 294.891 389.802 294.891 386.656C294.891 383.708 295.635 381.448 297.125 379.875C298.625 378.302 300.568 377.516 302.953 377.516ZM323.484 377.562C325.245 377.562 326.682 378.026 327.797 378.953C328.922 379.87 329.484 381.396 329.484 383.531V395H324.922V384.641C324.922 383.745 324.802 383.057 324.562 382.578C324.125 381.703 323.292 381.266 322.062 381.266C320.552 381.266 319.516 381.906 318.953 383.188C318.661 383.865 318.516 384.729 318.516 385.781V395H314.078V378H318.375V380.484C318.948 379.609 319.49 378.979 320 378.594C320.917 377.906 322.078 377.562 323.484 377.562ZM339.891 377.562C340.922 377.562 341.839 377.792 342.641 378.25C343.443 378.698 344.094 379.323 344.594 380.125V372H349.109V395H344.781V392.641C344.146 393.651 343.422 394.385 342.609 394.844C341.797 395.302 340.786 395.531 339.578 395.531C337.589 395.531 335.911 394.729 334.547 393.125C333.193 391.51 332.516 389.443 332.516 386.922C332.516 384.016 333.182 381.729 334.516 380.062C335.859 378.396 337.651 377.562 339.891 377.562ZM340.859 391.781C342.12 391.781 343.078 391.312 343.734 390.375C344.391 389.438 344.719 388.224 344.719 386.734C344.719 384.651 344.193 383.161 343.141 382.266C342.495 381.724 341.745 381.453 340.891 381.453C339.589 381.453 338.63 381.948 338.016 382.938C337.411 383.917 337.109 385.135 337.109 386.594C337.109 388.167 337.417 389.427 338.031 390.375C338.656 391.312 339.599 391.781 340.859 391.781ZM372.922 371.828H377.281V375.891H372.922V371.828ZM372.922 378.047H377.359V395H372.922V378.047ZM368.469 371.734C368.74 371.734 369.016 371.745 369.297 371.766C369.578 371.786 369.87 371.807 370.172 371.828V375.453C369.964 375.443 369.76 375.438 369.562 375.438C369.365 375.427 369.125 375.422 368.844 375.422C368.146 375.422 367.719 375.615 367.562 376C367.406 376.385 367.339 376.99 367.359 377.812V378.125H370.281V381.266H367.359V395H362.922V381.266H360.438V378.125H362.875V377.031C362.875 375.219 363.276 373.87 364.078 372.984C364.797 372.151 366.26 371.734 368.469 371.734ZM390.891 377.562C390.974 377.562 391.042 377.568 391.094 377.578C391.156 377.578 391.286 377.583 391.484 377.594V382.156C391.203 382.125 390.953 382.104 390.734 382.094C390.516 382.083 390.339 382.078 390.203 382.078C388.411 382.078 387.208 382.661 386.594 383.828C386.25 384.484 386.078 385.495 386.078 386.859V395H381.594V377.969H385.844V380.938C386.531 379.802 387.13 379.026 387.641 378.609C388.474 377.911 389.557 377.562 390.891 377.562ZM397.578 389.562C397.672 390.354 397.875 390.917 398.188 391.25C398.74 391.844 399.76 392.141 401.25 392.141C402.125 392.141 402.818 392.01 403.328 391.75C403.849 391.49 404.109 391.099 404.109 390.578C404.109 390.078 403.901 389.698 403.484 389.438C403.068 389.177 401.521 388.729 398.844 388.094C396.917 387.615 395.557 387.016 394.766 386.297C393.974 385.589 393.578 384.568 393.578 383.234C393.578 381.661 394.193 380.312 395.422 379.188C396.661 378.052 398.401 377.484 400.641 377.484C402.766 377.484 404.495 377.911 405.828 378.766C407.172 379.609 407.943 381.073 408.141 383.156H403.688C403.625 382.583 403.464 382.13 403.203 381.797C402.714 381.193 401.88 380.891 400.703 380.891C399.734 380.891 399.042 381.042 398.625 381.344C398.219 381.646 398.016 382 398.016 382.406C398.016 382.917 398.234 383.286 398.672 383.516C399.109 383.755 400.656 384.167 403.312 384.75C405.083 385.167 406.411 385.797 407.297 386.641C408.172 387.495 408.609 388.562 408.609 389.844C408.609 391.531 407.979 392.911 406.719 393.984C405.469 395.047 403.531 395.578 400.906 395.578C398.229 395.578 396.25 395.016 394.969 393.891C393.698 392.755 393.062 391.312 393.062 389.562H397.578ZM410.172 381.297V378.125H412.547V373.375H416.953V378.125H419.719V381.297H416.953V390.297C416.953 390.995 417.042 391.432 417.219 391.609C417.396 391.776 417.938 391.859 418.844 391.859C418.979 391.859 419.12 391.859 419.266 391.859C419.422 391.849 419.573 391.839 419.719 391.828V395.156L417.609 395.234C415.505 395.307 414.068 394.943 413.297 394.141C412.797 393.63 412.547 392.844 412.547 391.781V381.297H410.172ZM437.766 371.734C438.047 371.734 438.302 371.745 438.531 371.766C438.76 371.776 439.073 371.797 439.469 371.828V375.453C439.219 375.422 438.797 375.401 438.203 375.391C437.62 375.37 437.214 375.5 436.984 375.781C436.766 376.052 436.656 376.354 436.656 376.688C436.656 377.021 436.656 377.5 436.656 378.125H439.578V381.266H436.656V395H432.219V381.266H429.734V378.125H432.172V377.031C432.172 375.208 432.479 373.953 433.094 373.266C433.74 372.245 435.297 371.734 437.766 371.734ZM451.391 377.562C451.474 377.562 451.542 377.568 451.594 377.578C451.656 377.578 451.786 377.583 451.984 377.594V382.156C451.703 382.125 451.453 382.104 451.234 382.094C451.016 382.083 450.839 382.078 450.703 382.078C448.911 382.078 447.708 382.661 447.094 383.828C446.75 384.484 446.578 385.495 446.578 386.859V395H442.094V377.969H446.344V380.938C447.031 379.802 447.63 379.026 448.141 378.609C448.974 377.911 450.057 377.562 451.391 377.562ZM464 386.719C463.719 386.896 463.432 387.042 463.141 387.156C462.859 387.26 462.469 387.359 461.969 387.453L460.969 387.641C460.031 387.807 459.359 388.01 458.953 388.25C458.266 388.656 457.922 389.286 457.922 390.141C457.922 390.901 458.13 391.453 458.547 391.797C458.974 392.13 459.49 392.297 460.094 392.297C461.052 392.297 461.932 392.016 462.734 391.453C463.547 390.891 463.969 389.865 464 388.375V386.719ZM461.297 384.641C462.12 384.536 462.708 384.406 463.062 384.25C463.698 383.979 464.016 383.557 464.016 382.984C464.016 382.286 463.771 381.807 463.281 381.547C462.802 381.276 462.094 381.141 461.156 381.141C460.104 381.141 459.359 381.401 458.922 381.922C458.609 382.307 458.401 382.828 458.297 383.484H454C454.094 381.995 454.51 380.771 455.25 379.812C456.427 378.312 458.448 377.562 461.312 377.562C463.177 377.562 464.833 377.932 466.281 378.672C467.729 379.411 468.453 380.807 468.453 382.859V390.672C468.453 391.214 468.464 391.87 468.484 392.641C468.516 393.224 468.604 393.62 468.75 393.828C468.896 394.036 469.115 394.208 469.406 394.344V395H464.562C464.427 394.656 464.333 394.333 464.281 394.031C464.229 393.729 464.188 393.385 464.156 393C463.542 393.667 462.833 394.234 462.031 394.703C461.073 395.255 459.99 395.531 458.781 395.531C457.24 395.531 455.964 395.094 454.953 394.219C453.953 393.333 453.453 392.083 453.453 390.469C453.453 388.375 454.26 386.859 455.875 385.922C456.76 385.411 458.062 385.047 459.781 384.828L461.297 384.641ZM491.453 377.594C492.203 377.594 492.943 377.74 493.672 378.031C494.401 378.323 495.062 378.833 495.656 379.562C496.135 380.156 496.458 380.885 496.625 381.75C496.729 382.323 496.781 383.161 496.781 384.266L496.75 395H492.188V384.156C492.188 383.51 492.083 382.979 491.875 382.562C491.479 381.771 490.75 381.375 489.688 381.375C488.458 381.375 487.609 381.885 487.141 382.906C486.901 383.448 486.781 384.099 486.781 384.859V395H482.297V384.859C482.297 383.849 482.193 383.115 481.984 382.656C481.609 381.833 480.875 381.422 479.781 381.422C478.51 381.422 477.656 381.833 477.219 382.656C476.979 383.125 476.859 383.823 476.859 384.75V395H472.344V378H476.672V380.484C477.224 379.599 477.745 378.969 478.234 378.594C479.099 377.927 480.219 377.594 481.594 377.594C482.896 377.594 483.948 377.88 484.75 378.453C485.396 378.984 485.885 379.667 486.219 380.5C486.802 379.5 487.526 378.766 488.391 378.297C489.307 377.828 490.328 377.594 491.453 377.594ZM507.609 381.188C506.578 381.188 505.776 381.51 505.203 382.156C504.641 382.802 504.286 383.677 504.141 384.781H511.062C510.99 383.604 510.63 382.714 509.984 382.109C509.349 381.495 508.557 381.188 507.609 381.188ZM507.609 377.516C509.026 377.516 510.302 377.781 511.438 378.312C512.573 378.844 513.51 379.682 514.25 380.828C514.917 381.839 515.349 383.01 515.547 384.344C515.661 385.125 515.708 386.25 515.688 387.719H504.031C504.094 389.427 504.63 390.625 505.641 391.312C506.255 391.74 506.995 391.953 507.859 391.953C508.776 391.953 509.521 391.693 510.094 391.172C510.406 390.891 510.682 390.5 510.922 390H515.469C515.354 391.01 514.828 392.036 513.891 393.078C512.432 394.734 510.391 395.562 507.766 395.562C505.599 395.562 503.688 394.865 502.031 393.469C500.375 392.073 499.547 389.802 499.547 386.656C499.547 383.708 500.292 381.448 501.781 379.875C503.281 378.302 505.224 377.516 507.609 377.516ZM526.734 377.969H531.25L533.844 390.234L536.5 377.969H541.141L536.203 395H531.625L528.953 382.594L526.25 395H521.625L516.844 377.969H521.625L524.281 390.188L526.734 377.969ZM551.25 391.859C552.552 391.859 553.552 391.396 554.25 390.469C554.948 389.542 555.297 388.224 555.297 386.516C555.297 384.807 554.948 383.495 554.25 382.578C553.552 381.651 552.552 381.188 551.25 381.188C549.948 381.188 548.943 381.651 548.234 382.578C547.536 383.495 547.188 384.807 547.188 386.516C547.188 388.224 547.536 389.542 548.234 390.469C548.943 391.396 549.948 391.859 551.25 391.859ZM559.969 386.516C559.969 389.016 559.25 391.156 557.812 392.938C556.375 394.708 554.193 395.594 551.266 395.594C548.339 395.594 546.156 394.708 544.719 392.938C543.281 391.156 542.562 389.016 542.562 386.516C542.562 384.057 543.281 381.927 544.719 380.125C546.156 378.323 548.339 377.422 551.266 377.422C554.193 377.422 556.375 378.323 557.812 380.125C559.25 381.927 559.969 384.057 559.969 386.516ZM572.422 377.562C572.505 377.562 572.573 377.568 572.625 377.578C572.688 377.578 572.818 377.583 573.016 377.594V382.156C572.734 382.125 572.484 382.104 572.266 382.094C572.047 382.083 571.87 382.078 571.734 382.078C569.943 382.078 568.74 382.661 568.125 383.828C567.781 384.484 567.609 385.495 567.609 386.859V395H563.125V377.969H567.375V380.938C568.062 379.802 568.661 379.026 569.172 378.609C570.005 377.911 571.089 377.562 572.422 377.562ZM575.594 372.047H579.969V384.453L585.516 378.047H591.031L585.078 384.562L591.266 395H585.891L581.812 387.719L579.969 389.641V395H575.594V372.047Z" fill="#06566A"/>
<defs>
<radialGradient id="paint0_radial" cx="0" cy="0" r="1" gradientUnits="userSpaceOnUse" gradientTransform="translate(682 240) rotate(90) scale(219 221)">
<stop offset="0.333333" stop-color="#ECFF00"/>
<stop offset="1" stop-color="#C4C4C4" stop-opacity="0"/>
</radialGradient>
</defs>
</svg>
