<svg width="1846" height="650" viewBox="0 0 1846 650" fill="none" xmlns="http://www.w3.org/2000/svg">
<g clip-path="url(#clip0_650_3319)">
<path d="M956.061 648L1170 648L1170 597.287L1096.73 524L927 524L927 618.933L956.061 648Z" fill="#ECFF00" fill-opacity="0.2"/>
<path opacity="0.6" d="M1788.12 648H1362V547.8L1507.94 403H1846V590.569L1788.12 648Z" fill="#06566A" fill-opacity="0.1"/>
<ellipse opacity="0.2" cx="1465" cy="339" rx="337" ry="333" fill="url(#paint0_radial_650_3319)"/>
<path opacity="0.2" d="M42.1347 421.064L81.994 458.192L216.837 458.661L324.603 356.494L324.973 234.443L234.816 234.443L42.1347 421.064Z" fill="#065669" fill-opacity="0.6"/>
<path d="M199.239 519.51L199.239 648.626L12.0698 648.626L-64.9999 546.534L-25.9646 378.382L48.1024 325.334L199.239 519.51Z" fill="#ECFF00" fill-opacity="0.2"/>
<path d="M1119.63 475.003H1481.79L1490.75 608.569L1479.1 630.083H1110.67L1119.63 475.003Z" fill="#387888"/>
<path d="M1119.63 475.003H1481.79L1242.67 492.035H1168.71L1129.72 499.654L1110.67 630.083L1119.63 475.003Z" fill="#1F6779"/>
<path d="M1125.01 513.997H1277.4L1282.78 516.238V525.65H1125.01V513.997Z" fill="#ECFF00"/>
<path d="M1311.47 575.402H1463.86L1469.24 577.643V587.055H1311.47V575.402Z" fill="#ECFF00"/>
<path d="M1469.24 557.473H1316.85L1311.47 555.232V545.82H1469.24V557.473Z" fill="#ECFF00"/>
<path d="M1282.78 587.055H1130.39L1125.01 584.814V575.402H1282.78V587.055Z" fill="#ECFF00"/>
<path d="M1318.64 514.446H1472.37L1473.27 523.41L1466.1 526.099H1307.88V518.031L1318.64 514.446Z" fill="#ECFF00"/>
<path d="M1132.18 556.577H1285.92L1286.82 547.613L1279.64 544.923H1121.43V552.991L1132.18 556.577Z" fill="#ECFF00"/>
<path d="M1126.81 334.266L1132.63 325.301L1457.74 325.301L1476.86 344.675L1471.93 452.592H1128.6L1126.81 334.266Z" fill="#B4CCD2"/>
<path d="M1132.63 334.266V329.204L1454.22 323.061L1461.13 329.204L1144.51 334.266L1137.79 349.505L1128.2 426.597L1128.6 452.593L1132.63 334.266Z" fill="#9BBBC3"/>
<path d="M1110.67 451.248H1501.06L1508.68 471.417L1497.92 479.037H1105.29L1102.38 466.039L1110.67 451.248Z" fill="#387888"/>
<path d="M1105.29 451.248H1495.68L1503.3 471.417L1492.54 479.037H1099.91L1097 466.039L1105.29 451.248Z" fill="#6A9AA6"/>
<path d="M1105.29 451.248H1396.85L1115.38 457.523L1105.29 463.35L1099.91 479.037L1097 466.039L1105.29 451.248Z" fill="#518997"/>
<path fill-rule="evenodd" clip-rule="evenodd" d="M1218.52 336.059L1210.22 336.697L1210.86 344.363H1217.89L1218.52 336.059ZM1149.22 336.648H1159.44V344.314L1151.77 344.952L1149.22 340.481V336.648ZM1149.22 361.511H1159.44V369.177L1151.77 369.816L1149.22 365.344V361.511ZM1159.44 386.375H1149.22V390.207L1151.77 394.679L1159.44 394.04V386.375ZM1149.22 411.238H1159.44V418.903L1151.77 419.542L1149.22 415.07V411.238ZM1159.44 436.101H1149.22V439.934L1151.77 444.406L1159.44 443.767V436.101ZM1294.08 336.648H1304.3V344.314L1296.63 344.952L1294.08 340.481V336.648ZM1304.3 361.511H1294.08V365.344L1296.63 369.816L1304.3 369.177V361.511ZM1294.08 386.375H1304.3V394.04L1296.63 394.679L1294.08 390.207V386.375ZM1304.3 411.238H1294.08V415.07L1296.63 419.542L1304.3 418.903V411.238ZM1294.08 436.101H1304.3V443.767L1296.63 444.406L1294.08 439.934V436.101ZM1186.27 336.648H1181.16V344.314H1187.54L1188.18 337.926L1186.27 336.648ZM1181.16 361.511H1186.27L1188.18 362.789L1187.54 369.177H1181.16V361.511ZM1186.27 386.375H1181.16V394.04H1187.54L1188.18 387.652L1186.27 386.375ZM1181.16 411.238H1186.27L1188.18 412.515L1187.54 418.903H1181.16V411.238ZM1186.27 436.101H1181.16V443.767H1187.54L1188.18 437.379L1186.27 436.101ZM1239.92 336.648H1245.03L1246.95 337.926L1246.31 344.314H1239.92V336.648ZM1245.03 361.511H1239.92V369.177H1246.31L1246.95 362.789L1245.03 361.511ZM1239.92 386.375H1245.03L1246.95 387.652L1246.31 394.04H1239.92V386.375ZM1245.03 411.238H1239.92V418.903H1246.31L1246.95 412.515L1245.03 411.238ZM1239.92 436.101H1245.03L1246.95 437.379L1246.31 443.767H1239.92V436.101ZM1210.22 361.56L1218.52 360.922L1217.89 369.226H1210.86L1210.22 361.56ZM1218.52 385.785L1210.22 386.424L1210.86 394.089H1217.89L1218.52 385.785ZM1210.22 411.287L1218.52 410.649L1217.89 418.953H1210.86L1210.22 411.287ZM1218.52 435.512L1210.22 436.15L1210.86 443.816H1217.89L1218.52 435.512ZM1268.03 336.697L1276.33 336.059L1275.7 344.363H1268.67L1268.03 336.697ZM1276.33 360.922L1268.03 361.56L1268.67 369.226H1275.7L1276.33 360.922ZM1268.03 386.424L1276.33 385.785L1275.7 394.089H1268.67L1268.03 386.424ZM1276.33 410.649L1268.03 411.287L1268.67 418.953H1275.7L1276.33 410.649ZM1268.03 436.15L1276.33 435.512L1275.7 443.816H1268.67L1268.03 436.15ZM1391.82 410.274H1381.6V414.107L1384.16 418.578L1391.82 417.939V410.274ZM1350.91 337.545H1361.13V345.21L1353.46 345.849L1350.91 341.377V337.545ZM1331.55 336.955H1321.33V340.788L1323.88 345.26L1331.55 344.621V336.955ZM1321.33 386.423H1331.55V394.089L1323.88 394.728L1321.33 390.256V386.423ZM1331.55 410.863H1321.33V414.696L1323.88 419.167L1331.55 418.529V410.863ZM1322.22 362.951H1327.33L1329.25 364.228L1328.61 370.616H1322.22V362.951ZM1358.17 362.242H1353.06V369.907H1359.45L1360.09 363.519L1358.17 362.242ZM1353.06 386.939H1358.17L1360.09 388.217L1359.45 394.605H1353.06V386.939ZM1358.17 411.637H1353.06V419.302H1359.45L1360.09 412.914L1358.17 411.637ZM1353.06 436.334H1358.17L1360.09 437.611L1359.45 443.999H1353.06V436.334ZM1418.45 337.545H1413.34V345.21H1419.73L1420.36 338.822L1418.45 337.545ZM1413.34 362.242H1418.45L1420.36 363.519L1419.73 369.907H1413.34V362.242ZM1418.45 386.939H1413.34V394.605H1419.73L1420.36 388.217L1418.45 386.939ZM1413.34 411.637H1418.45L1420.36 412.914L1419.73 419.302H1413.34V411.637ZM1418.45 436.334H1413.34V443.999H1419.73L1420.36 437.611L1418.45 436.334ZM1381.6 337.594L1389.91 336.955L1389.27 345.26H1382.24L1381.6 337.594ZM1389.91 361.395L1381.6 362.033L1382.24 369.699H1389.27L1389.91 361.395ZM1381.6 386.473L1389.91 385.834L1389.27 394.138H1382.24L1381.6 386.473ZM1389.91 434.713L1381.6 435.352L1382.24 443.017H1389.27L1389.91 434.713ZM1323.29 436.199L1331.59 435.561L1330.95 443.865H1323.93L1323.29 436.199ZM1450.18 336.955L1441.88 337.594L1442.52 345.26H1449.54L1450.18 336.955ZM1441.88 362.033L1450.18 361.395L1449.54 369.699H1442.52L1441.88 362.033ZM1450.18 385.834L1441.88 386.473L1442.52 394.138H1449.54L1450.18 385.834ZM1441.88 410.913L1450.18 410.274L1449.54 418.578H1442.52L1441.88 410.913ZM1450.18 434.713L1441.88 435.352L1442.52 443.017H1449.54L1450.18 434.713Z" fill="#9BBBC3"/>
<mask id="mask0_650_3319" style="mask-type:alpha" maskUnits="userSpaceOnUse" x="1156" y="347" width="101" height="94">
<path fill-rule="evenodd" clip-rule="evenodd" d="M1182.06 440.676L1156.97 352.051L1160.56 347.861L1254.77 410.38L1256.1 416.736L1182.06 440.676ZM1233.69 410.38L1170.05 367.882L1190.1 425.54L1233.69 410.38Z" fill="#06566A"/>
</mask>
<g mask="url(#mask0_650_3319)">
<path fill-rule="evenodd" clip-rule="evenodd" d="M1182.06 440.676L1156.97 352.051L1160.56 347.861L1254.77 410.38L1256.1 416.736L1182.06 440.676ZM1233.69 410.38L1170.05 367.882L1190.1 425.54L1233.69 410.38Z" fill="#387888"/>
<path d="M1250.72 414.496L1226.97 397.464C1212.75 387.553 1191.17 373.491 1179.91 365.641C1172.87 360.736 1165.93 357.491 1157.05 351.298L1161.98 339.197L1261.93 405.532L1259.69 418.53L1250.72 414.496Z" fill="#1F6779"/>
<path d="M1179.01 359.814L1176.77 364.296M1184.39 369.675L1187.98 365.641M1193.35 375.95L1196.49 371.916M1201.87 382.224L1205.9 377.294M1209.49 387.603L1214.87 383.121M1167.36 359.814L1171.39 354.884M1218.01 393.43L1222.04 387.603M1229.66 401.946L1233.24 395.222M1240.86 408.669L1245.35 401.946" stroke="#06566A" stroke-width="3"/>
</g>
<path fill-rule="evenodd" clip-rule="evenodd" d="M1410.5 363.432L1400.19 344.575L1388.86 349.343L1385.29 357.091L1391.18 369.404L1388.26 370.526L1378.13 355.303L1363.24 366.03L1368 376.162L1378.13 379.738L1384.21 376.238L1385.88 380.93L1382.9 404.768L1401.97 430.395L1394.23 378.546L1415.68 422.051L1417.47 388.677L1403.76 372.586L1399.63 367.992L1410.5 363.432ZM1399.59 355.899H1393.63V361.859H1399.59V355.899ZM1370.97 369.322L1375.7 363.958L1380.17 367.9L1375.44 373.264L1370.97 369.322Z" fill="#387888"/>
<path d="M1390.08 374.291L1389.46 375.949L1390.8 377.294L1393.46 376.407L1390.08 374.291Z" fill="#6A9AA6"/>
<path d="M1390.57 372.986L1394.69 375.563L1393.49 372.364H1390.8L1390.57 372.986Z" fill="#6A9AA6"/>
<path fill-rule="evenodd" clip-rule="evenodd" d="M1408.28 384.466L1415.68 422.051L1417.47 388.677L1403.76 372.586L1399.63 367.992L1408.28 384.466Z" fill="#1F6779"/>
<path fill-rule="evenodd" clip-rule="evenodd" d="M1378.13 355.303L1363.24 366.03L1368 376.162L1378.13 379.738L1369.29 373.261V365.193L1376.46 360.711L1378.13 355.303Z" fill="#1F6779"/>
<path d="M1316.62 434.863L1316.62 398.36L1330.07 398.36L1330.07 429.544L1329.03 436.123L1325.28 437.242L1322.57 434.863L1320.5 437.802L1317.79 437.802L1316.62 434.863Z" fill="#06566A"/>
<path fill-rule="evenodd" clip-rule="evenodd" d="M1302.59 426.134L1318.03 420.848L1325.48 413.399L1330.07 398.654L1325.48 386.413L1310.04 378.624L1294.21 382.673L1287.98 390.246L1282.56 406.104L1284.09 418.901L1302.59 426.134ZM1321.1 398.36L1318.88 393.366L1309.45 386.707L1301.68 391.007L1297.8 398.36L1300.16 404.325L1309.45 410.013L1314.17 407.239L1321.1 398.36Z" fill="#1F6779"/>
<path fill-rule="evenodd" clip-rule="evenodd" d="M1325.24 385.586L1309 377.743L1293.64 381.945L1287.94 397.912L1289.55 410.798L1309 418.082L1325.24 412.759L1330.07 397.912L1325.24 385.586ZM1318.88 393.366L1309.45 386.707L1301.68 391.008L1297.8 398.36L1300.16 404.326L1309.45 410.014L1314.17 407.239L1321.1 398.36L1318.88 393.366Z" fill="#518997"/>
<path d="M1309.45 386.707L1318.88 393.366L1321.1 398.36L1314.83 406.428L1310.8 397.912L1301.68 391.007L1309.45 386.707Z" fill="#06566A"/>
<path d="M1133.22 328.827V455.991L1472.83 449.576L1478.11 343.166L1452.44 308L1133.22 328.827Z" stroke="black" stroke-width="4"/>
<path d="M1683.68 521.119L1695.71 524.222L1694.45 617.96L1675.38 617.406L1683.68 521.119Z" fill="#B4CCD2"/>
<rect x="1651.61" y="567.909" width="99.4292" height="11.6976" fill="#82AAB5"/>
<path d="M1756.4 635.17L1739.34 525.993H1756.4L1780.77 626.885L1775.4 635.17H1756.4Z" fill="#518997"/>
<path d="M1756.4 635.17L1739.34 525.993H1744.31L1764.31 635.17H1756.4Z" fill="#387888"/>
<path d="M1648.39 520.631H1665.25L1648.39 637.607H1624.31L1648.39 520.631Z" fill="#518997"/>
<path d="M1648.39 520.631H1653.37L1633.75 637.607H1624.31L1648.39 520.631Z" fill="#387888"/>
<path d="M1812.45 255L1577.98 263.183L1559 293.017L1604.61 525.993L1797.89 529.704L1812.45 255Z" fill="#06566A"/>
<path d="M1807.7 261.038L1584.31 267.185L1569.22 291.225L1609.6 520.632H1791.47L1807.7 261.038Z" fill="#ECFF00"/>
<path d="M1802.42 267.452L1588.09 261.038L1567.33 293.112L1614.5 514.233L1792.98 520.648L1802.42 267.452Z" stroke="black" stroke-width="4"/>
<circle cx="1624.69" cy="434.159" r="5.62751" transform="rotate(-10.9799 1624.69 434.159)" fill="white"/>
<circle cx="1741.24" cy="478.425" r="4.68959" transform="rotate(-10.9799 1741.24 478.425)" fill="white"/>
<ellipse cx="1730.76" cy="333.325" rx="3.28272" ry="3.75167" transform="rotate(-10.9799 1730.76 333.325)" fill="white"/>
<circle cx="1657.81" cy="304.485" r="5.62751" transform="rotate(-10.9799 1657.81 304.485)" fill="white"/>
<ellipse cx="1745" cy="416.549" rx="3.28272" ry="3.75167" transform="rotate(-10.9799 1745 416.549)" fill="white"/>
<circle cx="1697.32" cy="375.163" r="3.75167" transform="rotate(-10.9799 1697.32 375.163)" fill="white"/>
<ellipse cx="1752.05" cy="406.105" rx="3.75167" ry="3.28272" transform="rotate(-10.9799 1752.05 406.105)" fill="white"/>
<circle cx="1661.66" cy="403.102" r="3.75167" transform="rotate(-10.9799 1661.66 403.102)" fill="white"/>
<circle cx="1653.88" cy="412.254" r="3.75167" transform="rotate(-10.9799 1653.88 412.254)" fill="white"/>
<circle cx="1628.42" cy="394.264" r="3.75167" transform="rotate(-10.9799 1628.42 394.264)" fill="white"/>
<ellipse cx="1637.21" cy="353.388" rx="10.7861" ry="11.255" transform="rotate(-10.9799 1637.21 353.388)" fill="white"/>
<ellipse cx="1613.47" cy="290.158" rx="3.28272" ry="3.75167" transform="rotate(-10.9799 1613.47 290.158)" fill="white"/>
<ellipse cx="1643.91" cy="466.736" rx="8.91023" ry="9.37919" transform="rotate(-10.9799 1643.91 466.736)" fill="white"/>
<circle cx="1690.46" cy="416.143" r="5.15855" transform="rotate(-10.9799 1690.46 416.143)" fill="white"/>
<ellipse cx="1605.54" cy="325.614" rx="5.62751" ry="5.15855" transform="rotate(-10.9799 1605.54 325.614)" fill="white"/>
<circle cx="1603.35" cy="402.95" r="5.62751" transform="rotate(-10.9799 1603.35 402.95)" fill="white"/>
<ellipse cx="1685.28" cy="470.653" rx="4.68959" ry="4.22063" transform="rotate(-10.9799 1685.28 470.653)" fill="white"/>
<circle cx="1727.5" cy="373.129" r="5.62751" transform="rotate(-10.9799 1727.5 373.129)" fill="white"/>
<circle cx="1728.72" cy="352.352" r="5.15855" transform="rotate(-10.9799 1728.72 352.352)" fill="white"/>
<circle cx="1708.36" cy="343.405" r="7.50335" transform="rotate(-10.9799 1708.36 343.405)" fill="white"/>
<path d="M1487.41 432.806L1580.97 423L1624.25 447.989L1624.28 448.788L1626.11 449.848L1628 514.761L1576.99 556.778L1510.18 550.692L1508.92 548.887L1508.32 548.833L1502.04 539.855L1513.79 519.504L1504.92 495.744L1482.2 490.589L1462.76 495.798L1460.9 493.939L1458 473.153L1487.41 432.806Z" fill="#06566A"/>
<path d="M1580.97 423L1487.41 432.806L1458 473.153L1460.9 493.939L1480.35 488.73L1504.34 494.173L1513.79 519.504L1502.04 539.855L1508.32 548.833L1575.13 554.919L1626.14 512.902L1624.25 447.989L1580.97 423Z" fill="#1F6779"/>
<path opacity="0.5" d="M1580.97 423L1487.41 432.806L1458 473.153L1460.9 493.939L1480.35 488.73L1504.34 494.173L1513.79 519.504L1502.04 539.855L1508.32 548.833L1528.61 537.544L1531.75 506.293L1497.93 477.735L1502.04 443.164L1580.97 423Z" fill="#06566A"/>
<path d="M1508.95 458.22L1517.94 466.471L1511.32 477.936L1499.28 470.986L1503.64 460.126L1508.95 458.22Z" fill="#ECFF00"/>
<path d="M1529.33 438.707L1520.33 446.957L1526.95 458.423L1538.99 451.472L1534.63 440.612L1529.33 438.707Z" fill="#ECFF00"/>
<path d="M1529.33 438.707L1520.33 446.957L1526.95 458.423L1538.99 451.472L1534.63 440.612L1529.33 438.707Z" fill="#06566A" fill-opacity="0.3"/>
<path d="M1566.83 440.35L1565.37 452.469L1552.2 453.778L1550.82 439.946L1562.19 437.153L1566.83 440.35Z" fill="#ECFF00"/>
<path d="M1566.83 440.35L1565.37 452.469L1552.2 453.778L1550.82 439.946L1562.19 437.153L1566.83 440.35Z" fill="#06566A" fill-opacity="0.5"/>
<path d="M1581.71 456.003L1593.55 453.052L1599.46 464.899L1587.02 471.105L1580.37 461.478L1581.71 456.003Z" fill="#ECFF00"/>
<path d="M1581.71 456.003L1593.55 453.052L1599.46 464.899L1587.02 471.105L1580.37 461.478L1581.71 456.003Z" fill="#06566A" fill-opacity="0.6"/>
<path d="M1591.6 499.113L1596.37 487.877L1609.39 490.282L1606.86 503.951L1595.17 503.475L1591.6 499.113Z" fill="#ECFF00"/>
<path d="M1591.6 499.113L1596.37 487.877L1609.39 490.282L1606.86 503.951L1595.17 503.475L1591.6 499.113Z" fill="#06566A" fill-opacity="0.7"/>
<path d="M1516.95 479.339L1518.09 499.494L1563.59 507.563L1566.15 484.895L1549.22 479.075L1536.73 481.572L1528 476.679L1516.95 479.339Z" fill="#ECFF00"/>
<path d="M1524.71 488.518L1523.18 502.023M1536.29 485.431L1533.65 495.878L1535.24 503.385M1549.15 488.348L1548.11 497.512L1544.89 504.474M1558.2 490.348L1557.69 507.874" stroke="#06566A" stroke-opacity="0.2" stroke-width="2"/>
<path d="M1524.72 547.771L1531.38 523.074L1541.42 524.208L1534.75 557.547L1523.76 556.305L1524.72 547.771Z" fill="#82AAB5"/>
<path d="M1533.08 547.523L1538.34 524.208L1541.42 524.208L1534.75 557.547L1530.82 557.103L1533.08 553.535L1533.08 547.523Z" fill="#6A9AA6"/>
<path d="M1561.01 526.42L1541.42 524.207L1531.38 523.074L1513.6 517.704L1515.74 498.739L1567.83 504.622L1561.01 526.42Z" fill="white"/>
<path d="M1561.01 526.421L1541.42 524.208L1531.38 523.075L1513.6 517.705L1515.74 498.74L1518.04 498.74L1518.04 514.831L1561.01 526.421Z" fill="#06566A" fill-opacity="0.1"/>
<path d="M1576 514.966L1588.2 586.8H1592.5L1584.25 514.966H1576Z" fill="#B4CCD2"/>
<path d="M1584.25 514.966L1581.92 520.446L1590.94 584.327L1588.2 586.8H1592.5L1584.25 514.966Z" fill="#9BBBC3"/>
<path d="M1575.03 515.32L1585.37 513.996L1586.26 518.672L1583.76 519.996L1577.94 520.791L1575.51 519.996L1575.03 515.32Z" fill="white"/>
<path d="M1582.67 515.186L1585.37 513.996L1586.26 518.673L1583.76 519.997L1583.76 518.673L1582.67 516.689L1582.67 515.186Z" fill="#E6EEF0"/>
<path d="M1573.09 509.627L1576.48 515.937L1584.25 514.966L1585.71 509.627L1580.85 505.259L1578.91 496.522L1576.48 497.979L1573.09 509.627Z" fill="#ECFF00"/>
</g>
<defs>
<radialGradient id="paint0_radial_650_3319" cx="0" cy="0" r="1" gradientUnits="userSpaceOnUse" gradientTransform="translate(1465 339) rotate(90) scale(333 337)">
<stop offset="0.333333" stop-color="#ECFF00"/>
<stop offset="1" stop-color="#C4C4C4" stop-opacity="0"/>
</radialGradient>
<clipPath id="clip0_650_3319">
<rect width="1846" height="650" fill="white"/>
</clipPath>
</defs>
</svg>
