<svg width="375" height="235" viewBox="0 0 375 235" fill="none" xmlns="http://www.w3.org/2000/svg">
<g clip-path="url(#clip0_645_3003)">
<path d="M52.6005 56L138 56L138 35.9601L108.752 6.99999L41 7L41 44.5137L52.6005 56Z" fill="#ECFF00" fill-opacity="0.2"/>
<path opacity="0.6" d="M341.473 235H183V198.192L237.275 145H363V213.903L341.473 235Z" fill="#06566A" fill-opacity="0.1"/>
<ellipse opacity="0.2" cx="169" cy="90" rx="140" ry="138" fill="url(#paint0_radial_645_3003)"/>
<path opacity="0.2" d="M49.1109 76.9997L59.7111 65.6198L59.845 27.122L30.6762 -3.64534L-4.16948 -3.75085L-4.16949 21.9891L49.1109 76.9997Z" fill="#065669" fill-opacity="0.6"/>
<path d="M19.9153 166.376H178.562L182.489 224.887L177.384 234.311H15.9884L19.9153 166.376Z" fill="#387888"/>
<path d="M19.9153 166.376H178.562L73.8119 173.837H41.415L24.333 177.175L15.9884 234.311L19.9153 166.376Z" fill="#1F6779"/>
<path d="M22.2715 183.458H89.0286L91.3848 184.44V188.563H22.2715V183.458Z" fill="#ECFF00"/>
<path d="M103.951 210.357H170.708L173.064 211.339V215.462H103.951V210.357Z" fill="#ECFF00"/>
<path d="M173.064 202.503H106.307L103.951 201.522V197.398H173.064V202.503Z" fill="#ECFF00"/>
<path d="M91.3848 215.462H24.6276L22.2715 214.481V210.357H91.3848V215.462Z" fill="#ECFF00"/>
<path d="M107.092 183.655H174.438L174.831 187.582L171.69 188.76H102.38V185.226L107.092 183.655Z" fill="#ECFF00"/>
<path d="M25.413 202.111H92.7591L93.1518 198.184L90.0103 197.006H20.7007V200.54L25.413 202.111Z" fill="#ECFF00"/>
<path d="M23.0569 104.724L25.6094 100.797L168.027 100.797L176.402 109.284L174.242 156.559H23.8423L23.0569 104.724Z" fill="#B4CCD2"/>
<path d="M25.6093 104.724V102.507L166.484 99.8154L169.515 102.507L30.8125 104.724L27.8673 111.4L23.6697 145.171L23.8422 156.559L25.6093 104.724Z" fill="#9BBBC3"/>
<path d="M15.9885 155.97H187.005L190.342 164.806L185.63 168.144H13.6323L12.3561 162.45L15.9885 155.97Z" fill="#387888"/>
<path d="M13.6324 155.97H184.648L187.986 164.806L183.274 168.144H11.2762L10 162.45L13.6324 155.97Z" fill="#6A9AA6"/>
<path d="M13.6324 155.97H141.354L18.0501 158.719L13.6324 161.272L11.2762 168.144L10 162.45L13.6324 155.97Z" fill="#518997"/>
<path fill-rule="evenodd" clip-rule="evenodd" d="M63.2357 105.51L59.5979 105.79L59.8777 109.148H62.9558L63.2357 105.51ZM32.8741 105.768H37.3514V109.126L33.9935 109.406L32.8741 107.447V105.768ZM32.8741 116.66H37.3514V120.018L33.9935 120.297L32.8741 118.339V116.66ZM37.3514 127.551H32.8741V129.23L33.9935 131.189L37.3514 130.909V127.551ZM32.8741 138.443H37.3514V141.801L33.9935 142.081L32.8741 140.122V138.443ZM37.3514 149.335H32.8741V151.014L33.9935 152.973L37.3514 152.693V149.335ZM96.3321 105.768H100.809V109.126L97.4514 109.406L96.3321 107.447V105.768ZM100.809 116.66H96.3321V118.339L97.4514 120.297L100.809 120.018V116.66ZM96.3321 127.551H100.809V130.909L97.4514 131.189L96.3321 129.23V127.551ZM100.809 138.443H96.3321V140.122L97.4514 142.081L100.809 141.801V138.443ZM96.3321 149.335H100.809V152.693L97.4514 152.973L96.3321 151.014V149.335ZM49.1043 105.768H46.8656V109.126H49.6639L49.9437 106.328L49.1043 105.768ZM46.8656 116.66H49.1043L49.9437 117.219L49.6639 120.018H46.8656V116.66ZM49.1043 127.551H46.8656V130.909H49.6639L49.9437 128.111L49.1043 127.551ZM46.8656 138.443H49.1043L49.9437 139.003L49.6639 141.801H46.8656V138.443ZM49.1043 149.335H46.8656V152.693H49.6639L49.9437 149.895L49.1043 149.335ZM72.61 105.768H74.8486L75.6881 106.328L75.4083 109.126H72.61V105.768ZM74.8486 116.66H72.61V120.018H75.4083L75.6881 117.219L74.8486 116.66ZM72.61 127.551H74.8486L75.6881 128.111L75.4083 130.909H72.61V127.551ZM74.8486 138.443H72.61V141.801H75.4083L75.6881 139.003L74.8486 138.443ZM72.61 149.335H74.8486L75.6881 149.895L75.4083 152.693H72.61V149.335ZM59.5979 116.681L63.2357 116.402L62.9558 120.039H59.8777L59.5979 116.681ZM63.2357 127.293L59.5979 127.573L59.8777 130.931H62.9558L63.2357 127.293ZM59.5979 138.465L63.2357 138.185L62.9558 141.823H59.8777L59.5979 138.465ZM63.2357 149.077L59.5979 149.357L59.8777 152.715H62.9558L63.2357 149.077ZM84.9225 105.79L88.5603 105.51L88.2804 109.148H85.2023L84.9225 105.79ZM88.5603 116.402L84.9225 116.681L85.2023 120.039H88.2804L88.5603 116.402ZM84.9225 127.573L88.5603 127.293L88.2804 130.931H85.2023L84.9225 127.573ZM88.5603 138.185L84.9225 138.465L85.2023 141.823H88.2804L88.5603 138.185ZM84.9225 149.357L88.5603 149.077L88.2804 152.715H85.2023L84.9225 149.357ZM139.152 138.021H134.675V139.7L135.794 141.659L139.152 141.379V138.021ZM121.229 106.161H125.706V109.519L122.348 109.798L121.229 107.84V106.161ZM112.748 105.903H108.27V107.582L109.39 109.54L112.748 109.261V105.903ZM108.27 127.573H112.748V130.931L109.39 131.211L108.27 129.252V127.573ZM112.748 138.279H108.27V139.958L109.39 141.917L112.748 141.637V138.279ZM108.663 117.29H110.902L111.741 117.85L111.461 120.648H108.663V117.29ZM124.411 116.98H122.172V120.338H124.971L125.25 117.539L124.411 116.98ZM122.172 127.799H124.411L125.25 128.359L124.971 131.157H122.172V127.799ZM124.411 138.618H122.172V141.976H124.971L125.25 139.178L124.411 138.618ZM122.172 149.437H124.411L125.25 149.997L124.971 152.795H122.172V149.437ZM150.815 106.161H148.577V109.519H151.375L151.655 106.72L150.815 106.161ZM148.577 116.98H150.815L151.655 117.539L151.375 120.338H148.577V116.98ZM150.815 127.799H148.577V131.157H151.375L151.655 128.359L150.815 127.799ZM148.577 138.618H150.815L151.655 139.178L151.375 141.976H148.577V138.618ZM150.815 149.437H148.577V152.795H151.375L151.655 149.997L150.815 149.437ZM134.675 106.183L138.313 105.903L138.033 109.54H134.955L134.675 106.183ZM138.313 116.609L134.675 116.888L134.955 120.246H138.033L138.313 116.609ZM134.675 127.595L138.313 127.315L138.033 130.953H134.955L134.675 127.595ZM138.313 148.727L134.675 149.007L134.955 152.365H138.033L138.313 148.727ZM109.129 149.378L112.767 149.098L112.487 152.736H109.409L109.129 149.378ZM164.717 105.903L161.079 106.183L161.359 109.54H164.437L164.717 105.903ZM161.079 116.888L164.717 116.609L164.437 120.246H161.359L161.079 116.888ZM164.717 127.315L161.079 127.595L161.359 130.953H164.437L164.717 127.315ZM161.079 138.301L164.717 138.021L164.437 141.659H161.359L161.079 138.301ZM164.717 148.727L161.079 149.007L161.359 152.365H164.437L164.717 148.727Z" fill="#9BBBC3"/>
<mask id="mask0_645_3003" style="mask-type:alpha" maskUnits="userSpaceOnUse" x="36" y="110" width="44" height="42">
<path fill-rule="evenodd" clip-rule="evenodd" d="M47.2613 151.338L36.2711 112.515L37.8418 110.679L79.1129 138.067L79.6975 140.851L47.2613 151.338ZM69.8803 138.067L41.9993 119.45L50.7851 144.708L69.8803 138.067Z" fill="#06566A"/>
</mask>
<g mask="url(#mask0_645_3003)">
<path fill-rule="evenodd" clip-rule="evenodd" d="M47.2613 151.338L36.2711 112.515L37.8418 110.679L79.1129 138.067L79.6975 140.851L47.2613 151.338ZM69.8803 138.067L41.9993 119.45L50.7851 144.708L69.8803 138.067Z" fill="#387888"/>
<path d="M77.3414 139.87L66.9352 132.409C60.7061 128.067 51.2527 121.907 46.319 118.468C43.2361 116.319 40.1978 114.898 36.3054 112.185L38.4652 106.884L82.25 135.943L81.2683 141.637L77.3414 139.87Z" fill="#1F6779"/>
<path d="M45.9262 115.916L44.9445 117.879M48.2824 120.235L49.8531 118.468M52.2093 122.984L53.5837 121.217M55.9398 125.733L57.7069 123.573M59.2777 128.089L61.6338 126.126M40.8213 115.916L42.5884 113.756M63.0082 130.641L64.7753 128.089M68.1132 134.372L69.6839 131.427M73.0218 137.317L74.9852 134.372" stroke="#06566A" stroke-width="3"/>
</g>
<path fill-rule="evenodd" clip-rule="evenodd" d="M147.334 117.501L142.815 109.24L137.855 111.329L136.289 114.723L138.869 120.117L137.591 120.608L133.156 113.94L126.629 118.639L128.717 123.077L133.156 124.644L135.816 123.111L136.55 125.166L135.244 135.609L143.599 146.835L140.205 124.122L149.603 143.18L150.386 128.56L144.382 121.511L142.571 119.498L147.334 117.501ZM142.554 114.201H139.944V116.811H142.554V114.201ZM130.017 120.081L132.089 117.731L134.047 119.458L131.975 121.808L130.017 120.081Z" fill="#387888"/>
<path d="M138.387 122.258L138.115 122.984L138.704 123.573L139.87 123.185L138.387 122.258Z" fill="#6A9AA6"/>
<path d="M138.602 121.686L140.407 122.815L139.882 121.414H138.704L138.602 121.686Z" fill="#6A9AA6"/>
<path fill-rule="evenodd" clip-rule="evenodd" d="M146.361 126.715L149.603 143.18L150.386 128.56L144.382 121.511L142.571 119.499L146.361 126.715Z" fill="#1F6779"/>
<path fill-rule="evenodd" clip-rule="evenodd" d="M133.156 113.94L126.629 118.639L128.717 123.078L133.156 124.644L129.279 121.807V118.272L132.421 116.309L133.156 113.94Z" fill="#1F6779"/>
<path d="M106.209 148.792L106.209 132.801L112.099 132.801L112.099 146.462L111.646 149.344L110.004 149.834L108.814 148.792L107.908 150.08L106.719 150.08L106.209 148.792Z" fill="#06566A"/>
<path fill-rule="evenodd" clip-rule="evenodd" d="M100.061 144.968L106.825 142.653L110.088 139.389L112.099 132.93L110.088 127.568L103.325 124.156L96.3916 125.93L93.6631 129.247L91.2866 136.194L91.9569 141.8L100.061 144.968ZM107.2 130.614L103.067 127.697L99.664 129.581L97.9623 132.802L98.9955 135.415L103.067 137.907L105.134 136.691L108.172 132.802L107.2 130.614Z" fill="#1F6779"/>
<path fill-rule="evenodd" clip-rule="evenodd" d="M109.984 127.205L102.871 123.769L96.1421 125.61L93.6428 132.605L94.3478 138.25L102.871 141.44L109.984 139.109L112.099 132.605L109.984 127.205ZM107.2 130.613L103.067 127.696L99.6641 129.58L97.9624 132.801L98.9955 135.414L103.067 137.906L105.134 136.691L108.172 132.801L107.2 130.613Z" fill="#518997"/>
<path d="M103.067 127.696L107.2 130.613L108.172 132.801L105.423 136.335L103.656 132.605L99.6641 129.58L103.067 127.696Z" fill="#06566A"/>
<path d="M25.8688 102.341V158.048L174.639 155.237L176.953 108.623L165.708 93.2178L25.8688 102.341Z" stroke="black" stroke-width="2"/>
<path d="M267.005 184.578L272.272 185.937L271.724 227L263.369 226.758L267.005 184.578Z" fill="#B4CCD2"/>
<rect x="252.954" y="205.075" width="43.5565" height="5.1243" fill="#82AAB5"/>
<path d="M298.859 234.54L291.386 186.713H298.859L309.535 230.91L307.186 234.54H298.859Z" fill="#518997"/>
<path d="M298.859 234.54L291.386 186.713H293.563L302.323 234.54H298.859Z" fill="#387888"/>
<path d="M251.547 184.364H258.932L251.547 235.607H240.997L251.547 184.364Z" fill="#518997"/>
<path d="M251.547 184.364H253.725L245.13 235.607H240.997L251.547 184.364Z" fill="#387888"/>
<path d="M323.413 68L220.699 71.5846L212.386 84.654L232.367 186.713L317.035 188.339L323.413 68Z" fill="#06566A"/>
<path d="M321.333 70.645L223.475 73.3381L216.863 83.869L234.55 184.365H314.225L321.333 70.645Z" fill="#ECFF00"/>
<path d="M319.019 73.4546L225.128 70.6445L216.037 84.695L236.699 181.561L314.886 184.371L319.019 73.4546Z" stroke="black" stroke-width="2"/>
<circle cx="241.164" cy="146.483" r="2.46522" transform="rotate(-10.9799 241.164 146.483)" fill="white"/>
<circle cx="292.22" cy="165.874" r="2.05435" transform="rotate(-10.9799 292.22 165.874)" fill="white"/>
<ellipse cx="287.631" cy="102.311" rx="1.43805" ry="1.64348" transform="rotate(-10.9799 287.631 102.311)" fill="white"/>
<circle cx="255.673" cy="89.6771" r="2.46522" transform="rotate(-10.9799 255.673 89.6771)" fill="white"/>
<ellipse cx="293.867" cy="138.769" rx="1.43805" ry="1.64348" transform="rotate(-10.9799 293.867 138.769)" fill="white"/>
<circle cx="272.981" cy="120.639" r="1.64348" transform="rotate(-10.9799 272.981 120.639)" fill="white"/>
<ellipse cx="296.956" cy="134.193" rx="1.64348" ry="1.43805" transform="rotate(-10.9799 296.956 134.193)" fill="white"/>
<circle cx="257.358" cy="132.878" r="1.64348" transform="rotate(-10.9799 257.358 132.878)" fill="white"/>
<circle cx="253.951" cy="136.887" r="1.64348" transform="rotate(-10.9799 253.951 136.887)" fill="white"/>
<circle cx="242.796" cy="129.006" r="1.64348" transform="rotate(-10.9799 242.796 129.006)" fill="white"/>
<ellipse cx="246.646" cy="111.1" rx="4.72501" ry="4.93044" transform="rotate(-10.9799 246.646 111.1)" fill="white"/>
<ellipse cx="236.249" cy="83.401" rx="1.43805" ry="1.64348" transform="rotate(-10.9799 236.249 83.401)" fill="white"/>
<ellipse cx="249.583" cy="160.754" rx="3.90327" ry="4.1087" transform="rotate(-10.9799 249.583 160.754)" fill="white"/>
<circle cx="269.976" cy="138.591" r="2.25979" transform="rotate(-10.9799 269.976 138.591)" fill="white"/>
<ellipse cx="232.775" cy="98.933" rx="2.46522" ry="2.25979" transform="rotate(-10.9799 232.775 98.933)" fill="white"/>
<circle cx="231.815" cy="132.811" r="2.46522" transform="rotate(-10.9799 231.815 132.811)" fill="white"/>
<ellipse cx="267.703" cy="162.47" rx="2.05435" ry="1.84892" transform="rotate(-10.9799 267.703 162.47)" fill="white"/>
<circle cx="286.201" cy="119.748" r="2.46522" transform="rotate(-10.9799 286.201 119.748)" fill="white"/>
<circle cx="286.737" cy="110.646" r="2.25979" transform="rotate(-10.9799 286.737 110.646)" fill="white"/>
<circle cx="277.815" cy="106.727" r="3.28696" transform="rotate(-10.9799 277.815 106.727)" fill="white"/>
<path d="M141.883 145.89L182.87 141.595L201.83 152.541L201.84 152.892L202.645 153.356L203.471 181.792L181.125 200.198L151.859 197.532L151.306 196.742L151.045 196.718L148.293 192.785L153.44 183.87L149.556 173.461L139.603 171.203L131.087 173.485L130.272 172.671L129 163.565L141.883 145.89Z" fill="#06566A"/>
<path d="M182.87 141.595L141.883 145.89L129 163.565L130.272 172.671L138.789 170.389L149.299 172.773L153.44 183.87L148.293 192.785L151.045 196.718L180.311 199.384L202.657 180.978L201.83 152.541L182.87 141.595Z" fill="#1F6779"/>
<path opacity="0.5" d="M182.87 141.595L141.883 145.89L129 163.565L130.272 172.671L138.789 170.389L149.299 172.773L153.44 183.87L148.293 192.785L151.045 196.718L159.931 191.773L161.308 178.083L146.493 165.572L148.293 150.428L182.87 141.595Z" fill="#06566A"/>
<path d="M151.318 157.024L155.259 160.638L152.359 165.66L147.085 162.616L148.995 157.858L151.318 157.024Z" fill="#ECFF00"/>
<path d="M160.245 148.475L156.305 152.09L159.205 157.112L164.478 154.067L162.569 149.31L160.245 148.475Z" fill="#ECFF00"/>
<path d="M160.245 148.475L156.305 152.09L159.205 157.112L164.478 154.067L162.569 149.31L160.245 148.475Z" fill="#06566A" fill-opacity="0.3"/>
<path d="M176.675 149.195L176.037 154.504L170.266 155.078L169.663 149.018L174.641 147.794L176.675 149.195Z" fill="#ECFF00"/>
<path d="M176.675 149.195L176.037 154.504L170.266 155.078L169.663 149.018L174.641 147.794L176.675 149.195Z" fill="#06566A" fill-opacity="0.5"/>
<path d="M183.192 156.052L188.38 154.759L190.969 159.949L185.52 162.668L182.606 158.45L183.192 156.052Z" fill="#ECFF00"/>
<path d="M183.192 156.052L188.38 154.759L190.969 159.949L185.52 162.668L182.606 158.45L183.192 156.052Z" fill="#06566A" fill-opacity="0.6"/>
<path d="M187.526 174.937L189.614 170.015L195.317 171.068L194.211 177.056L189.089 176.848L187.526 174.937Z" fill="#ECFF00"/>
<path d="M187.526 174.937L189.614 170.015L195.317 171.068L194.211 177.056L189.089 176.848L187.526 174.937Z" fill="#06566A" fill-opacity="0.7"/>
<path d="M154.825 166.275L155.325 175.105L175.254 178.639L176.375 168.709L168.96 166.16L163.487 167.254L159.664 165.11L154.825 166.275Z" fill="#ECFF00"/>
<path d="M158.222 170.297L157.554 176.212M163.296 168.944L162.138 173.52L162.836 176.809M168.929 170.222L168.476 174.236L167.062 177.286M172.896 171.098L172.671 178.775" stroke="#06566A" stroke-opacity="0.2" stroke-width="2"/>
<path d="M158.228 196.253L161.146 185.434L165.542 185.931L162.62 200.535L157.805 199.992L158.228 196.253Z" fill="#82AAB5"/>
<path d="M161.888 196.144L164.193 185.931L165.542 185.931L162.62 200.535L160.9 200.341L161.888 198.778L161.888 196.144Z" fill="#6A9AA6"/>
<path d="M174.125 186.9L165.542 185.931L161.145 185.434L153.355 183.082L154.293 174.774L177.111 177.351L174.125 186.9Z" fill="white"/>
<path d="M174.125 186.9L165.542 185.931L161.146 185.434L153.355 183.082L154.293 174.774L155.304 174.774L155.304 181.823L174.125 186.9Z" fill="#06566A" fill-opacity="0.1"/>
<path d="M180.691 181.882L186.034 213.35H187.92L184.306 181.882H180.691Z" fill="#B4CCD2"/>
<path d="M184.306 181.882L183.284 184.283L187.234 212.267L186.034 213.35H187.92L184.306 181.882Z" fill="#9BBBC3"/>
<path d="M180.266 182.037L184.797 181.457L185.186 183.506L184.093 184.086L181.541 184.434L180.478 184.086L180.266 182.037Z" fill="white"/>
<path d="M183.613 181.978L184.797 181.457L185.186 183.506L184.093 184.086L184.093 183.506L183.613 182.637L183.613 181.978Z" fill="#E6EEF0"/>
<path d="M179.415 179.544L180.904 182.308L184.306 181.882L184.944 179.544L182.817 177.63L181.967 173.803L180.904 174.441L179.415 179.544Z" fill="#ECFF00"/>
</g>
<defs>
<radialGradient id="paint0_radial_645_3003" cx="0" cy="0" r="1" gradientUnits="userSpaceOnUse" gradientTransform="translate(169 90) rotate(90) scale(138 140)">
<stop offset="0.333333" stop-color="#ECFF00"/>
<stop offset="1" stop-color="#C4C4C4" stop-opacity="0"/>
</radialGradient>
<clipPath id="clip0_645_3003">
<rect width="375" height="235" fill="white"/>
</clipPath>
</defs>
</svg>
