<svg width="1139" height="668" viewBox="0 0 1139 668" fill="none" xmlns="http://www.w3.org/2000/svg">
<g clip-path="url(#clip0_645_3004)">
<rect width="1139" height="668" fill="white"/>
<path d="M499.809 667L653 667L653 630.192L600.534 577L479 577L479 645.903L499.809 667Z" fill="#ECFF00" fill-opacity="0.2"/>
<path opacity="0.6" d="M1098.38 667H792V595.02L896.931 491H1140V625.743L1098.38 667Z" fill="#06566A" fill-opacity="0.1"/>
<ellipse opacity="0.2" cx="866" cy="444" rx="242" ry="240" fill="url(#paint0_radial_645_3004)"/>
<path d="M617.53 542.301H878.023L884.471 638.374L876.089 653.849H611.082L617.53 542.301Z" fill="#387888"/>
<path d="M617.53 542.301H878.023L706.027 554.552H652.832L624.784 560.033L611.082 653.849L617.53 542.301Z" fill="#1F6779"/>
<path d="M621.399 570.35H731.013L734.881 571.962V578.732H621.399V570.35Z" fill="#ECFF00"/>
<path d="M755.514 614.518H865.128L868.996 616.13V622.9H755.514V614.518Z" fill="#ECFF00"/>
<path d="M868.997 601.622H759.383L755.514 600.01V593.24H868.997V601.622Z" fill="#ECFF00"/>
<path d="M734.881 622.9H625.268L621.399 621.288V614.518H734.881V622.9Z" fill="#ECFF00"/>
<path d="M760.672 570.672H871.253L871.898 577.12L866.74 579.055H752.935V573.252L760.672 570.672Z" fill="#ECFF00"/>
<path d="M626.557 600.977H737.138L737.783 594.529L732.625 592.594H618.82V598.397L626.557 600.977Z" fill="#ECFF00"/>
<path d="M622.688 441.07L626.879 434.622L860.725 434.622L874.477 448.557L870.931 526.181H623.978L622.688 441.07Z" fill="#B4CCD2"/>
<path d="M626.879 441.07V437.429L858.191 433.01L863.168 437.429L635.422 441.07L630.586 452.031L623.694 507.483L623.977 526.182L626.879 441.07Z" fill="#9BBBC3"/>
<path d="M611.082 525.214H891.886L897.367 539.722L889.629 545.203H607.213L605.117 535.853L611.082 525.214Z" fill="#387888"/>
<path d="M607.213 525.214H888.017L893.498 539.722L885.76 545.203H603.344L601.249 535.853L607.213 525.214Z" fill="#6A9AA6"/>
<path d="M607.213 525.214H816.93L614.467 529.728L607.213 533.919L603.344 545.203L601.249 535.853L607.213 525.214Z" fill="#518997"/>
<path fill-rule="evenodd" clip-rule="evenodd" d="M688.66 442.36L682.687 442.819L683.147 448.333H688.201L688.66 442.36ZM638.807 442.784H646.159V448.297L640.645 448.757L638.807 445.541V442.784ZM638.807 460.668H646.159V466.181L640.645 466.641L638.807 463.424V460.668ZM646.159 478.551H638.807V481.308L640.645 484.525L646.159 484.065V478.551ZM638.807 496.436H646.159V501.949L640.645 502.409L638.807 499.193V496.436ZM646.159 514.32H638.807V517.077L640.645 520.293L646.159 519.834V514.32ZM743.004 442.784H750.355V448.297L744.841 448.757L743.004 445.541V442.784ZM750.355 460.668H743.004V463.424L744.841 466.641L750.355 466.181V460.668ZM743.004 478.551H750.355V484.065L744.841 484.525L743.004 481.308V478.551ZM750.355 496.436H743.004V499.193L744.841 502.409L750.355 501.949V496.436ZM743.004 514.32H750.355V519.834L744.841 520.293L743.004 517.077V514.32ZM665.457 442.784H661.781V448.297H666.376L666.835 443.703L665.457 442.784ZM661.781 460.668H665.457L666.835 461.587L666.376 466.181H661.781V460.668ZM665.457 478.551H661.781V484.065H666.376L666.835 479.47L665.457 478.551ZM661.781 496.436H665.457L666.835 497.355L666.376 501.949H661.781V496.436ZM665.457 514.32H661.781V519.834H666.376L666.835 515.239L665.457 514.32ZM704.053 442.784H707.729L709.107 443.703L708.647 448.297H704.053V442.784ZM707.729 460.668H704.053V466.181H708.647L709.107 461.587L707.729 460.668ZM704.053 478.551H707.729L709.107 479.47L708.647 484.065H704.053V478.551ZM707.729 496.436H704.053V501.949H708.647L709.107 497.355L707.729 496.436ZM704.053 514.32H707.729L709.107 515.239L708.647 519.834H704.053V514.32ZM682.687 460.703L688.66 460.244L688.201 466.217H683.147L682.687 460.703ZM688.66 478.127L682.687 478.587L683.147 484.101H688.201L688.66 478.127ZM682.687 496.471L688.66 496.012L688.201 501.985H683.147L682.687 496.471ZM688.66 513.896L682.687 514.355L683.147 519.869H688.201L688.66 513.896ZM724.269 442.819L730.243 442.36L729.783 448.333H724.729L724.269 442.819ZM730.243 460.244L724.269 460.703L724.729 466.217H729.783L730.243 460.244ZM724.269 478.587L730.243 478.127L729.783 484.101H724.729L724.269 478.587ZM730.243 496.012L724.269 496.471L724.729 501.985H729.783L730.243 496.012ZM724.269 514.355L730.243 513.896L729.783 519.869H724.729L724.269 514.355ZM813.313 495.742H805.962V498.499L807.8 501.716L813.313 501.256V495.742ZM783.884 443.429H791.236V448.942L785.722 449.402L783.884 446.186V443.429ZM769.958 443.005H762.606V445.762L764.444 448.978L769.958 448.518V443.005ZM762.606 478.587H769.958V484.1L764.444 484.56L762.606 481.344V478.587ZM769.958 496.166H762.606V498.923L764.444 502.14L769.958 501.68V496.166ZM763.251 461.703H766.927L768.305 462.622L767.846 467.217H763.251V461.703ZM789.109 461.193H785.433V466.706H790.028L790.487 462.112L789.109 461.193ZM785.433 478.958H789.109L790.487 479.877L790.028 484.472H785.433V478.958ZM789.109 496.723H785.433V502.236H790.028L790.487 497.642L789.109 496.723ZM785.433 514.487H789.109L790.487 515.406L790.028 520.001H785.433V514.487ZM832.464 443.429H828.788V448.942H833.383L833.842 444.348L832.464 443.429ZM828.788 461.193H832.464L833.842 462.112L833.383 466.706H828.788V461.193ZM832.464 478.958H828.788V484.472H833.383L833.842 479.877L832.464 478.958ZM828.788 496.723H832.464L833.842 497.642L833.383 502.236H828.788V496.723ZM832.464 514.487H828.788V520.001H833.383L833.842 515.406L832.464 514.487ZM805.962 443.464L811.935 443.005L811.476 448.978H806.421L805.962 443.464ZM811.935 460.584L805.962 461.043L806.421 466.557H811.476L811.935 460.584ZM805.962 478.623L811.935 478.163L811.476 484.137H806.421L805.962 478.623ZM811.935 513.322L805.962 513.781L806.421 519.295H811.476L811.935 513.322ZM764.017 514.39L769.99 513.931L769.53 519.904H764.476L764.017 514.39ZM855.291 443.005L849.317 443.464L849.777 448.978H854.831L855.291 443.005ZM849.317 461.043L855.291 460.584L854.831 466.557H849.777L849.317 461.043ZM855.291 478.163L849.317 478.623L849.777 484.137H854.831L855.291 478.163ZM849.317 496.202L855.291 495.742L854.831 501.716H849.777L849.317 496.202ZM855.291 513.322L849.317 513.781L849.777 519.295H854.831L855.291 513.322Z" fill="#9BBBC3"/>
<mask id="mask0_645_3004" style="mask-type:alpha" maskUnits="userSpaceOnUse" x="644" y="450" width="72" height="68">
<path fill-rule="evenodd" clip-rule="evenodd" d="M662.431 517.609L644.385 453.862L646.964 450.849L714.731 495.818L715.69 500.39L662.431 517.609ZM699.571 495.818L653.791 465.249L668.217 506.722L699.571 495.818Z" fill="#06566A"/>
</mask>
<g mask="url(#mask0_645_3004)">
<path fill-rule="evenodd" clip-rule="evenodd" d="M662.431 517.609L644.385 453.862L646.964 450.849L714.731 495.818L715.69 500.39L662.431 517.609ZM699.571 495.818L653.791 465.249L668.217 506.722L699.571 495.818Z" fill="#387888"/>
<path d="M711.822 498.779L694.735 486.528C684.507 479.399 668.985 469.284 660.884 463.638C655.822 460.11 650.833 457.776 644.442 453.321L647.988 444.617L719.882 492.331L718.27 501.68L711.822 498.779Z" fill="#1F6779"/>
<path d="M660.239 459.447L658.627 462.671M664.107 466.539L666.687 463.638M670.555 471.053L672.812 468.151M676.681 475.566L679.582 472.02M682.161 479.435L686.03 476.211M651.856 459.447L654.758 455.9M688.287 483.626L691.188 479.435M696.669 489.752L699.248 484.916M704.729 494.588L707.953 489.752" stroke="#06566A" stroke-width="3"/>
</g>
<path fill-rule="evenodd" clip-rule="evenodd" d="M826.748 462.05L819.328 448.486L811.183 451.915L808.611 457.488L812.848 466.345L810.749 467.152L803.467 456.202L792.75 463.918L796.18 471.206L803.467 473.778L807.835 471.261L809.04 474.635L806.896 491.782L820.614 510.215L815.041 472.921L830.474 504.214L831.76 480.208L821.9 468.634L818.926 465.33L826.748 462.05ZM818.899 456.631H814.613V460.918H818.899V456.631ZM798.313 466.286L801.716 462.428L804.931 465.263L801.528 469.121L798.313 466.286Z" fill="#387888"/>
<path d="M812.057 469.86L811.61 471.053L812.577 472.02L814.492 471.382L812.057 469.86Z" fill="#6A9AA6"/>
<path d="M812.409 468.921L815.375 470.775L814.512 468.474H812.577L812.409 468.921Z" fill="#6A9AA6"/>
<path fill-rule="evenodd" clip-rule="evenodd" d="M825.15 477.179L830.474 504.214L831.76 480.208L821.9 468.634L818.926 465.33L825.15 477.179Z" fill="#1F6779"/>
<path fill-rule="evenodd" clip-rule="evenodd" d="M803.467 456.202L792.75 463.918L796.18 471.206L803.467 473.778L797.102 469.119V463.316L802.261 460.092L803.467 456.202Z" fill="#1F6779"/>
<path d="M759.221 513.43L759.221 487.173L768.893 487.173L768.893 509.604L768.149 514.336L765.452 515.141L763.499 513.43L762.011 515.544L760.058 515.544L759.221 513.43Z" fill="#06566A"/>
<path fill-rule="evenodd" clip-rule="evenodd" d="M749.127 507.151L760.233 503.349L765.591 497.99L768.893 487.385L765.591 478.58L754.485 472.977L743.102 475.89L738.622 481.337L734.719 492.743L735.82 501.948L749.127 507.151ZM762.445 487.173L760.848 483.581L754.063 478.791L748.475 481.885L745.681 487.173L747.377 491.464L754.063 495.556L757.456 493.56L762.445 487.173Z" fill="#1F6779"/>
<path fill-rule="evenodd" clip-rule="evenodd" d="M765.42 477.985L753.74 472.344L742.692 475.366L738.588 486.851L739.745 496.12L753.74 501.359L765.42 497.53L768.893 486.851L765.42 477.985ZM760.849 483.581L754.063 478.791L748.475 481.885L745.681 487.174L747.377 491.465L754.063 495.556L757.456 493.56L762.445 487.174L760.849 483.581Z" fill="#518997"/>
<path d="M754.063 478.791L760.849 483.581L762.445 487.174L757.932 492.977L755.03 486.851L748.475 481.885L754.063 478.791Z" fill="#06566A"/>
<path d="M627.305 437.159V528.627L871.582 524.013L875.382 447.472L856.918 422.178L627.305 437.159Z" stroke="black" stroke-width="4"/>
<path d="M1023.24 575.474L1031.89 577.705L1030.99 645.131L1017.27 644.732L1023.24 575.474Z" fill="#B4CCD2"/>
<rect x="1000.17" y="609.128" width="71.5188" height="8.41397" fill="#82AAB5"/>
<path d="M1075.55 657.509L1063.28 578.979H1075.55L1093.08 651.549L1089.22 657.509H1075.55Z" fill="#518997"/>
<path d="M1075.55 657.509L1063.28 578.979H1066.85L1081.24 657.509H1075.55Z" fill="#387888"/>
<path d="M997.863 575.122H1009.99L997.863 659.262H980.541L997.863 575.122Z" fill="#518997"/>
<path d="M997.863 575.122H1001.44L987.326 659.262H980.541L997.863 575.122Z" fill="#387888"/>
<path d="M1115.87 384.055L947.213 389.941L933.563 411.401L966.37 578.979L1105.39 581.648L1115.87 384.055Z" fill="#06566A"/>
<path d="M1112.45 388.397L951.77 392.819L940.914 410.111L969.955 575.122H1100.78L1112.45 388.397Z" fill="#ECFF00"/>
<path d="M1108.65 393.012L954.484 388.398L939.556 411.469L973.484 570.52L1101.86 575.134L1108.65 393.012Z" stroke="black" stroke-width="4"/>
<circle cx="980.814" cy="512.922" r="4.04783" transform="rotate(-10.9799 980.814 512.922)" fill="white"/>
<circle cx="1064.65" cy="544.763" r="3.37319" transform="rotate(-10.9799 1064.65 544.763)" fill="white"/>
<ellipse cx="1057.11" cy="440.393" rx="2.36123" ry="2.69855" transform="rotate(-10.9799 1057.11 440.393)" fill="white"/>
<circle cx="1004.64" cy="419.649" r="4.04783" transform="rotate(-10.9799 1004.64 419.649)" fill="white"/>
<ellipse cx="1067.35" cy="500.256" rx="2.36123" ry="2.69855" transform="rotate(-10.9799 1067.35 500.256)" fill="white"/>
<circle cx="1033.06" cy="470.488" r="2.69855" transform="rotate(-10.9799 1033.06 470.488)" fill="white"/>
<ellipse cx="1072.42" cy="492.744" rx="2.69855" ry="2.36123" transform="rotate(-10.9799 1072.42 492.744)" fill="white"/>
<circle cx="1007.41" cy="490.583" r="2.69855" transform="rotate(-10.9799 1007.41 490.583)" fill="white"/>
<circle cx="1001.81" cy="497.166" r="2.69855" transform="rotate(-10.9799 1001.81 497.166)" fill="white"/>
<circle cx="983.494" cy="484.227" r="2.69855" transform="rotate(-10.9799 983.494 484.227)" fill="white"/>
<ellipse cx="989.815" cy="454.825" rx="7.75834" ry="8.09566" transform="rotate(-10.9799 989.815 454.825)" fill="white"/>
<ellipse cx="972.745" cy="409.344" rx="2.36123" ry="2.69855" transform="rotate(-10.9799 972.745 409.344)" fill="white"/>
<ellipse cx="994.638" cy="536.355" rx="6.40907" ry="6.74639" transform="rotate(-10.9799 994.638 536.355)" fill="white"/>
<circle cx="1028.12" cy="499.964" r="3.71051" transform="rotate(-10.9799 1028.12 499.964)" fill="white"/>
<ellipse cx="967.041" cy="434.847" rx="4.04783" ry="3.71051" transform="rotate(-10.9799 967.041 434.847)" fill="white"/>
<circle cx="965.463" cy="490.474" r="4.04783" transform="rotate(-10.9799 965.463 490.474)" fill="white"/>
<ellipse cx="1024.39" cy="539.173" rx="3.37319" ry="3.03587" transform="rotate(-10.9799 1024.39 539.173)" fill="white"/>
<circle cx="1054.76" cy="469.025" r="4.04783" transform="rotate(-10.9799 1054.76 469.025)" fill="white"/>
<circle cx="1055.64" cy="454.079" r="3.71051" transform="rotate(-10.9799 1055.64 454.079)" fill="white"/>
<circle cx="1040.99" cy="447.644" r="5.39711" transform="rotate(-10.9799 1040.99 447.644)" fill="white"/>
<path d="M882.068 511.95L949.367 504.896L980.499 522.871L980.516 523.446L981.837 524.208L983.194 570.9L946.502 601.122L898.448 596.744L897.54 595.446L897.111 595.407L892.592 588.95L901.043 574.311L894.666 557.221L878.325 553.513L864.341 557.26L863.003 555.922L860.914 540.971L882.068 511.95Z" fill="#06566A"/>
<path d="M949.367 504.896L882.068 511.95L860.914 540.971L863.003 555.922L876.987 552.175L894.244 556.091L901.043 574.311L892.592 588.95L897.111 595.407L945.165 599.785L981.856 569.562L980.499 522.871L949.367 504.896Z" fill="#1F6779"/>
<path opacity="0.5" d="M949.367 504.896L882.068 511.95L860.914 540.971L863.003 555.922L876.987 552.175L894.244 556.091L901.043 574.311L892.592 588.95L897.111 595.407L911.702 587.287L913.963 564.809L889.638 544.267L892.592 519.4L949.367 504.896Z" fill="#06566A"/>
<path d="M897.561 530.23L904.031 536.165L899.269 544.412L890.61 539.412L893.745 531.601L897.561 530.23Z" fill="#ECFF00"/>
<path d="M912.218 516.195L905.748 522.13L910.51 530.377L919.169 525.377L916.034 517.566L912.218 516.195Z" fill="#ECFF00"/>
<path d="M912.218 516.195L905.748 522.13L910.51 530.377L919.169 525.377L916.034 517.566L912.218 516.195Z" fill="#06566A" fill-opacity="0.3"/>
<path d="M939.195 517.376L938.148 526.093L928.672 527.035L927.683 517.086L935.857 515.077L939.195 517.376Z" fill="#ECFF00"/>
<path d="M939.195 517.376L938.148 526.093L928.672 527.035L927.683 517.086L935.857 515.077L939.195 517.376Z" fill="#06566A" fill-opacity="0.5"/>
<path d="M949.896 528.636L958.415 526.514L962.666 535.035L953.719 539.499L948.934 532.575L949.896 528.636Z" fill="#ECFF00"/>
<path d="M949.896 528.636L958.415 526.514L962.666 535.035L953.719 539.499L948.934 532.575L949.896 528.636Z" fill="#06566A" fill-opacity="0.6"/>
<path d="M957.012 559.644L960.441 551.562L969.805 553.291L967.989 563.124L959.579 562.781L957.012 559.644Z" fill="#ECFF00"/>
<path d="M957.012 559.644L960.441 551.562L969.805 553.291L967.989 563.124L959.579 562.781L957.012 559.644Z" fill="#06566A" fill-opacity="0.7"/>
<path d="M903.318 545.421L904.14 559.919L936.862 565.722L938.703 549.417L926.528 545.231L917.541 547.027L911.263 543.507L903.318 545.421Z" fill="#ECFF00"/>
<path d="M908.896 552.024L907.799 561.737M917.228 549.803L915.325 557.317L916.472 562.717M926.477 551.901L925.733 558.492L923.41 563.5M932.99 553.339L932.62 565.946" stroke="#06566A" stroke-opacity="0.2" stroke-width="2"/>
<path d="M908.905 594.644L913.696 576.879L920.915 577.695L916.117 601.675L908.212 600.782L908.905 594.644Z" fill="#82AAB5"/>
<path d="M914.915 594.465L918.699 577.694L920.914 577.694L916.117 601.675L913.294 601.356L914.915 598.79L914.915 594.465Z" fill="#6A9AA6"/>
<path d="M935.007 579.286L920.915 577.695L913.696 576.879L900.904 573.017L902.445 559.375L939.911 563.607L935.007 579.286Z" fill="white"/>
<path d="M935.008 579.287L920.915 577.695L913.696 576.88L900.904 573.017L902.445 559.376L904.104 559.376L904.104 570.95L935.008 579.287Z" fill="#06566A" fill-opacity="0.1"/>
<path d="M945.79 571.047L954.563 622.717H957.66L951.725 571.047H945.79Z" fill="#B4CCD2"/>
<path d="M951.725 571.047L950.047 574.989L956.534 620.937L954.563 622.717H957.66L951.725 571.047Z" fill="#9BBBC3"/>
<path d="M945.091 571.301L952.531 570.349L953.17 573.713L951.375 574.665L947.186 575.236L945.44 574.665L945.091 571.301Z" fill="white"/>
<path d="M950.587 571.205L952.531 570.349L953.169 573.713L951.375 574.665L951.375 573.713L950.587 572.286L950.587 571.205Z" fill="#E6EEF0"/>
<path d="M943.695 567.207L946.139 571.745L951.725 571.047L952.772 567.207L949.281 564.064L947.884 557.78L946.139 558.828L943.695 567.207Z" fill="#ECFF00"/>
<path opacity="0.2" d="M0.0858768 -45L-33.448 -8.99961L-33.8715 112.789L58.4044 210.122L168.639 210.455L168.639 129.027L0.0858768 -45Z" fill="#065669" fill-opacity="0.6"/>
<path d="M195.752 295.468L89 295.468L89 140.72L173.408 77L312.433 109.274L356.293 170.511L195.752 295.468Z" fill="#ECFF00" fill-opacity="0.2"/>
</g>
<defs>
<radialGradient id="paint0_radial_645_3004" cx="0" cy="0" r="1" gradientUnits="userSpaceOnUse" gradientTransform="translate(866 444) rotate(90) scale(240 242)">
<stop offset="0.333333" stop-color="#ECFF00"/>
<stop offset="1" stop-color="#C4C4C4" stop-opacity="0"/>
</radialGradient>
<clipPath id="clip0_645_3004">
<rect width="1139" height="668" fill="white"/>
</clipPath>
</defs>
</svg>
