<svg width="375" height="235" viewBox="0 0 375 235" fill="none" xmlns="http://www.w3.org/2000/svg">
<g clip-path="url(#clip0_1833_4495)">
<g style="mix-blend-mode:multiply" opacity="0.7">
<path d="M175.848 36.1555L154.988 29.3213L156.005 28.3756L176.923 35.1974L175.848 36.1555Z" fill="#06566A" fill-opacity="0.3"/>
<path d="M164.362 43.3985L167.104 44.2775L168.179 43.3194L165.437 42.4404L164.362 43.3985ZM172.198 47.6394L170.499 47.087L169.424 48.045L171.124 48.5975L172.198 47.6394ZM173.077 44.8973L169.409 43.6671L168.334 44.6252L172.003 45.8554L173.077 44.8973ZM181.598 47.7761L174.249 45.2574L173.174 46.2155L180.524 48.7341L181.598 47.7761ZM171.776 50.528L165.823 48.5653L164.748 49.5234L170.702 51.4861L171.776 50.528ZM164.709 48.1929L161.041 46.9627L159.966 47.9208L163.635 49.151L164.709 48.1929ZM160.729 45.2034L168.382 47.7185L169.456 46.7604L161.803 44.2453L160.729 45.2034ZM167.428 52.1193L159.776 49.6042L158.701 50.5622L166.354 53.0774L167.428 52.1193ZM179.311 49.904L173.428 47.9871L172.354 48.9452L178.236 50.862L179.311 49.904ZM176.006 51.8218L172.936 50.8298L171.861 51.7879L174.931 52.7799L176.006 51.8218ZM164.428 41.9851L161.744 41.0937L160.669 42.0518L163.353 42.9432L164.428 41.9851ZM158.592 49.1859L154.279 47.788L153.204 48.7461L157.517 50.1439L158.592 49.1859ZM159.857 46.5444L156.787 45.5524L155.712 46.5105L158.782 47.5025L159.857 46.5444ZM160.607 43.7688L159.236 43.3293L158.161 44.2873L159.532 44.7269L160.607 43.7688Z" fill="#06566A" fill-opacity="0.3"/>
<path d="M157.819 38.9436L142.394 52.8632L122.659 46.4597L138.085 32.5402L157.819 38.9436ZM159.159 38.6597L137.982 31.7708L121.378 46.7313L142.554 53.6202L159.159 38.6597V38.6597Z" fill="#06566A" fill-opacity="0.3"/>
<path d="M198.123 35.0226L146.419 18.1773C143.02 17.0724 138.07 18.1219 135.471 20.4986L70.3709 79.088L70.8279 79.2345L135.928 20.6451C138.39 18.4801 142.874 17.5294 146.002 18.509L197.707 35.3543C200.847 36.3921 201.403 39.0126 198.941 41.1775L133.425 100.099L133.882 100.245L199.398 41.324C202.056 38.935 201.451 36.0816 198.052 34.9767L198.123 35.0226Z" fill="#06566A" fill-opacity="0.3"/>
<path d="M50.4779 104.185L102.162 121.092C105.559 122.201 110.51 121.158 113.113 118.784L178.283 60.2728L177.826 60.1258L112.656 118.637C110.191 120.799 105.706 121.745 102.579 120.761L50.8948 103.854C47.7552 102.812 47.2027 100.191 49.667 98.0292L115.254 39.1866L114.797 39.0396L49.2102 97.8822C46.5497 100.268 47.1513 103.122 50.5484 104.231L50.4779 104.185Z" fill="#06566A" fill-opacity="0.3"/>
</g>
<g style="mix-blend-mode:multiply" opacity="0.5">
<path d="M144.984 56.6384L141.159 60.0771L146.051 61.6675L149.876 58.2288L144.984 56.6384ZM85.8339 104.828L295.824 173.201L210.247 121.54L85.8339 104.828ZM335.607 137.351L125.617 68.9782L211.194 120.639L335.607 137.351ZM298.786 173.537L337.621 138.588L213.208 121.876L298.786 173.537ZM122.655 68.6427L83.8199 103.591L208.233 120.303L122.655 68.6427ZM287.44 181.986L172.855 144.709L210.73 180.822L287.44 181.986ZM132.069 179.545L208.779 180.71L170.905 144.597L132.069 179.545ZM132.971 180.493L247.555 217.77L209.681 181.657L132.971 180.493ZM249.59 217.864L288.425 182.916L211.715 181.751L249.59 217.864ZM136.977 42.8334L15.381 152.174L250.488 228.71L372.084 119.369L136.977 42.8334ZM350.135 138.125L116.918 62.2392L116.336 62.8004L349.554 138.686L250.328 227.955L16.7882 151.788L137.119 43.504L370.624 119.504L350.1 137.957L350.135 138.125ZM69.4532 116.797L85.0731 121.894L87.6513 119.595L72.0313 114.499L69.4532 116.797ZM149.88 137.143L152.458 134.845L148.039 133.417L145.461 135.716L149.88 137.143ZM96.8607 122.547L90.2825 120.439L87.7044 122.737L94.2825 124.846L96.8607 122.547ZM87.1309 116.728L105.28 122.601L107.859 120.303L89.709 114.429L87.1309 116.728ZM74.2437 112.541L84.4157 115.902L86.9939 113.604L76.8219 110.242L74.2437 112.541ZM108.485 129.454L125.134 134.858L127.712 132.56L111.063 127.156L108.485 129.454ZM117.271 123.387L114.693 125.686L128.627 130.264L131.205 127.965L117.271 123.387ZM130.343 133.403L127.765 135.701L132.101 137.147L134.679 134.849L130.343 133.403ZM114.538 122.478L110.49 121.146L107.912 123.445L111.96 124.776L114.538 122.478ZM96.9976 125.671L105.752 128.545L108.331 126.246L99.5758 123.373L96.9976 125.671ZM145.306 132.508L133.836 128.809L131.258 131.107L142.728 134.806L145.306 132.508ZM152.595 137.969L167.27 142.74L169.848 140.442L155.173 135.671L152.595 137.969ZM134.816 137.973L146.758 141.834L149.336 139.536L137.394 135.674L134.816 137.973ZM338.801 118.544L328.444 115.134L323.587 119.492L333.945 122.902L338.801 118.544ZM306.347 107.995L294.59 104.182L289.734 108.54L301.491 112.353L306.347 107.995ZM325.729 114.309L309.08 108.905L304.224 113.263L320.872 118.667L325.729 114.309ZM276.71 98.3388L261.09 93.2425L256.234 97.6006L271.853 102.697L276.71 98.3388ZM353.476 123.315L341.534 119.453L336.678 123.811L348.62 127.673L353.476 123.315ZM291.959 103.339L279.359 99.2661L274.502 103.624L287.103 107.697L291.959 103.339ZM75.3034 137.366L72.5706 136.456L70.8078 138.056L73.5406 138.966L75.3034 137.366ZM56.4124 128.409L60.7479 129.854L62.5107 128.254L58.1752 126.809L56.4124 128.409ZM60.4537 124.749L67.6058 127.086L69.3687 125.486L62.2165 123.149L60.4537 124.749ZM52.3534 131.985L54.6138 132.731L56.3766 131.131L54.1162 130.385L52.3534 131.985ZM89.9713 137.146L78.5853 133.429L76.8225 135.029L88.2085 138.746L89.9713 137.146ZM76.7134 132.863L70.6915 130.899L68.9287 132.499L74.9506 134.463L76.7134 132.863ZM96.2916 156.214L98.0544 154.614L95.0346 153.59L93.2718 155.19L96.2916 156.214ZM85.4788 130.829L83.716 132.429L86.4488 133.339L88.2116 131.739L85.4788 130.829ZM110.767 153.845L96.3608 149.104L94.5979 150.704L109.004 155.445L110.767 153.845ZM62.6197 130.421L67.1406 131.915L68.9035 130.315L64.3826 128.821L62.6197 130.421ZM56.5034 133.382L68.9181 137.406L70.6809 135.806L58.2663 131.782L56.5034 133.382ZM69.3939 127.671L81.8086 131.695L83.5714 130.095L71.1567 126.071L69.3939 127.671ZM114.836 142.472L124.434 145.604L126.197 144.004L116.599 140.872L114.836 142.472ZM59.1208 149.03L65.1428 150.994L66.9056 149.394L60.8836 147.43L59.1208 149.03ZM84.4185 145.243L76.3215 142.58L74.5587 144.18L82.6557 146.843L84.4185 145.243ZM67.4138 146.834L70.1466 147.744L71.9094 146.144L69.1766 145.234L67.4138 146.834ZM66.9486 151.662L78.3346 155.379L80.0974 153.779L68.7114 150.062L66.9486 151.662ZM52.7458 147.054L57.2667 148.548L59.0296 146.948L54.5087 145.454L52.7458 147.054ZM134.403 151.724L114.938 145.428L113.175 147.028L132.64 153.324L134.403 151.724ZM92.9951 153.059L85.1851 150.511L83.4223 152.111L91.2323 154.659L92.9951 153.059ZM40.2296 142.964L50.9578 146.469L52.7206 144.869L41.9924 141.364L40.2296 142.964ZM110.977 156.078L124.809 160.59L126.572 158.99L112.74 154.478L110.977 156.078ZM120.4 154.255L128.868 157.014L130.631 155.414L122.163 152.655L120.4 154.255ZM120.662 152.185L113.325 149.799L111.562 151.399L118.899 153.785L120.662 152.185ZM80.2065 155.946L83.2086 156.886L84.9714 155.286L81.9693 154.346L80.2065 155.946ZM126.223 146.189L136.951 149.694L138.714 148.094L127.985 144.589L126.223 146.189ZM85.0804 157.452L93.2612 160.097L95.024 158.497L86.8432 155.852L85.0804 157.452ZM110.004 160.576L120.732 164.082L122.495 162.482L111.767 158.976L110.004 160.576ZM98.0619 156.714L108.132 160.009L109.895 158.409L99.8247 155.114L98.0619 156.714ZM48.2943 135.56L53.2876 137.217L55.0504 135.617L50.0571 133.96L48.2943 135.56ZM99.5621 135.288L89.9641 132.155L88.2013 133.755L97.7993 136.888L99.5621 135.288ZM86.6717 140.999L77.0737 137.866L75.3109 139.466L84.9089 142.599L86.6717 140.999ZM98.0683 139.809L91.7594 137.73L89.9966 139.33L96.3055 141.409L98.0683 139.809ZM74.4497 142.014L64.7678 138.899L63.005 140.499L72.6868 143.614L74.4497 142.014ZM108.139 143.104L99.958 140.459L98.1951 142.059L106.376 144.704L108.139 143.104ZM44.2708 139.304L51.2376 141.593L53.0004 139.993L46.0336 137.704L44.2708 139.304ZM62.896 138.333L56.874 136.369L55.1112 137.969L61.1331 139.933L62.896 138.333ZM67.3047 144.667L54.89 140.643L53.1272 142.243L65.5419 146.267L67.3047 144.667ZM109.28 138.57L101.47 136.022L99.7067 137.622L107.517 140.17L109.28 138.57ZM96.3891 144.281L88.5791 141.733L86.8163 143.333L94.6263 145.881L96.3891 144.281ZM94.4051 148.556L86.2243 145.911L84.4615 147.511L92.6423 150.156L94.4051 148.556ZM72.0185 148.31L81.6165 151.443L83.3793 149.843L73.7813 146.71L72.0185 148.31ZM111.519 149.131L103.709 146.583L101.946 148.183L109.756 150.731L111.519 149.131ZM101.837 146.016L98.261 144.848L96.4981 146.448L100.074 147.616L101.837 146.016ZM108.266 145.354L111.758 146.54L113.521 144.94L110.028 143.754L108.266 145.354ZM109.406 140.82L112.982 141.989L114.745 140.389L111.169 139.22L109.406 140.82Z" fill="#06566A" fill-opacity="0.3"/>
</g>
<path d="M137.577 159.525L263.514 46.2864C269.618 40.788 280.09 38.1296 286.854 40.2865L354.883 62.4729C361.665 64.7136 362.19 70.9084 356.086 76.4068L230.149 189.646C224.045 195.144 213.573 197.802 206.809 195.645L138.78 173.459C131.999 171.218 131.474 165.024 137.577 159.525V159.525Z" fill="#E9E9E9"/>
<g style="mix-blend-mode:multiply">
<path d="M252.018 115.991L241.391 112.551L239.478 114.27L250.105 117.71L252.018 115.991ZM248.472 120.334L235.77 116.195L233.857 117.914L246.559 122.053L248.472 120.334ZM262.83 119.479L254.075 116.605L252.162 118.325L260.917 121.198L262.83 119.479ZM268.278 121.214L264.887 120.094L262.974 121.813L266.365 122.933L268.278 121.214ZM218.314 104.919L210.504 102.371L208.591 104.09L216.401 106.638L218.314 104.919ZM217.956 110.25L206.097 106.371L204.184 108.09L216.043 111.97L217.956 110.25ZM250.511 120.865L248.598 122.584L251.887 123.638L253.8 121.919L250.511 120.865ZM234.203 110.046L220.371 105.534L218.459 107.253L232.291 111.765L234.203 110.046ZM239.364 111.667L236.261 110.661L234.348 112.38L237.452 113.386L239.364 111.667ZM233.743 115.311L227.063 113.136L225.151 114.856L231.83 117.03L233.743 115.311ZM220.013 110.865L218.1 112.585L223.093 114.241L225.006 112.522L220.013 110.865ZM253.963 124.337L263.088 127.307L265.001 125.587L255.875 122.618L253.963 124.337ZM281.518 125.414L270.317 121.745L268.404 123.464L279.605 127.133L281.518 125.414ZM288.754 127.733L283.575 126.028L281.662 127.748L286.841 129.452L288.754 127.733ZM230.986 131.223L224.492 129.097L223.011 130.374L229.505 132.501L230.986 131.223ZM232.528 129.407L242.126 132.54L243.607 131.262L234.009 128.13L232.528 129.407ZM249.197 130.778L257.378 133.422L258.859 132.145L250.678 129.5L249.197 130.778ZM242.966 136.916L254.639 140.747L256.12 139.47L244.447 135.639L242.966 136.916ZM243.627 133.01L256.346 137.232L257.827 135.955L245.108 131.732L243.627 133.01V133.01ZM202.974 119.733L206.736 120.95L208.217 119.673L204.455 118.456L202.974 119.733ZM213.476 125.477L211.216 124.73L209.735 126.007L211.996 126.754L213.476 125.477ZM214.61 121.733L209.634 120.16L208.153 121.438L213.129 123.01L214.61 121.733ZM225.607 125.269L216.194 122.185L214.714 123.463L224.126 126.547L225.607 125.269ZM236.784 137.088L222.564 132.396L221.083 133.673L235.303 138.366L236.784 137.088ZM208.611 117.399L218.95 120.725L220.431 119.447L210.092 116.122L208.611 117.399ZM233.727 125.562L247.661 130.14L249.141 128.863L235.208 124.285L233.727 125.562ZM238.303 143.423L239.783 142.146L229.797 138.833L228.316 140.11L238.303 143.423ZM255.508 143.191L238.369 137.541L236.888 138.818L254.027 144.468L255.508 143.191ZM233.689 123.731L225.778 121.117L224.297 122.394L232.208 125.008L233.689 123.731ZM212.864 129.198L204.869 126.601L203.388 127.879L211.383 130.475L212.864 129.198ZM232.454 127.408L227.192 125.722L225.711 126.999L230.974 128.686L232.454 127.408ZM203.368 126.131L198.392 124.559L196.911 125.836L201.887 127.409L203.368 126.131ZM198.044 122.092L208.384 125.418L209.865 124.14L199.525 120.815L198.044 122.092ZM207.025 131.399L196.685 128.074L195.204 129.351L205.544 132.677L207.025 131.399ZM223.039 128.441L215.127 125.827L213.647 127.105L221.558 129.719L223.039 128.441ZM228.296 138.363L221.801 136.236L220.321 137.514L226.815 139.64L228.296 138.363ZM217.686 140.787L220.132 141.583L221.613 140.305L219.167 139.51L217.686 140.787ZM221.735 142.119L228.516 144.359L229.997 143.082L223.216 140.841L221.735 142.119V142.119ZM210.926 134.513L218.837 137.128L220.318 135.85L212.407 133.236L210.926 134.513ZM200.278 135.107L205.254 136.679L206.735 135.402L201.759 133.829L200.278 135.107ZM221.164 131.992L214.484 129.817L213.004 131.095L219.683 133.27L221.164 131.992ZM207.164 133.296L209.425 134.043L210.906 132.766L208.645 132.019L207.164 133.296ZM269.94 135.664L268.459 136.941L276.251 139.405L277.732 138.128L269.94 135.664ZM263.646 143.567L269.65 145.447L271.131 144.17L265.126 142.29L263.646 143.567ZM255.833 145.136L266.256 148.444L267.737 147.167L257.314 143.859L255.833 145.136ZM255.07 148.977L262.863 151.441L264.344 150.163L256.551 147.699L255.07 148.977ZM240.007 144.025L253.569 148.507L255.05 147.229L241.488 142.748L240.007 144.025ZM206.874 137.299L216.287 140.384L217.768 139.106L208.355 136.022L206.874 137.299ZM208.776 115.7L198.604 112.339L197.123 113.617L207.295 116.978L208.776 115.7ZM259.148 133.923L267.06 136.537L268.541 135.26L260.629 132.645L259.148 133.923V133.923ZM220.738 121.309L222.999 122.056L224.48 120.779L222.219 120.032L220.738 121.309ZM274.423 141.107L259.377 136.239L257.896 137.517L272.942 142.384L274.423 141.107ZM264.08 141.899L257.974 139.953L256.493 141.23L262.599 143.176L264.08 141.899ZM243.281 135.098L232.84 131.706L231.359 132.983L241.801 136.375L243.281 135.098ZM203.29 117.915L195.378 115.3L193.897 116.578L201.809 119.192L203.29 117.915ZM180.592 128.596L193.766 132.897L195.247 131.619L182.073 127.318L180.592 128.596ZM195.453 127.634L185.383 124.339L183.902 125.616L193.972 128.912L195.453 127.634ZM197.16 124.119L188.693 121.36L187.212 122.637L195.679 125.396L197.16 124.119ZM198.21 120.393L192.002 118.381L190.521 119.658L196.729 121.671L198.21 120.393ZM195.285 133.45L199.047 134.667L200.527 133.39L196.766 132.173L195.285 133.45Z" fill="#06708A"/>
</g>
<g style="mix-blend-mode:multiply">
<path d="M330.237 74.7052L339.734 77.7717C340.105 77.8682 340.691 77.7438 340.991 77.5051C341.291 77.2663 341.22 76.9311 340.831 76.7507L331.335 73.6843C330.964 73.5877 330.377 73.7121 330.077 73.9509C329.778 74.1896 329.849 74.5249 330.237 74.7052ZM339.002 78.4523L329.506 75.3859C329.135 75.2893 328.548 75.4137 328.249 75.6525C327.949 75.8912 328.02 76.2264 328.409 76.4068L337.905 79.4732C338.276 79.5698 338.862 79.4454 339.162 79.2066C339.462 78.9679 339.391 78.6326 339.002 78.4523ZM337.173 80.1539L327.677 77.0875C327.306 76.9909 326.719 77.1153 326.42 77.354C326.12 77.5928 326.191 77.928 326.58 78.1084L336.076 81.1748C336.447 81.2714 337.034 81.147 337.333 80.9082C337.633 80.6695 337.562 80.3342 337.173 80.1539Z" fill="#06566A"/>
</g>
<path d="M274.986 93.7783L294.424 123.903L333.259 88.9547L274.986 93.7783Z" fill="#9BBBC3"/>
<path d="M293.047 124.02L273.609 93.8956L215.336 98.7192L293.047 124.02Z" fill="#9BBBC3"/>
<path d="M274.574 93.0774L332.764 88.2715L255.136 62.9526L274.574 93.0774Z" fill="#9BBBC3"/>
<path d="M214.925 98.0176L273.198 93.194L253.76 63.0692L214.925 98.0176Z" fill="#9BBBC3"/>
<g style="mix-blend-mode:multiply">
<path d="M179.194 152.978L146.235 159.878L183.312 171.987L179.194 152.978Z" fill="#C8C8C8"/>
<path d="M176.107 133.05L180.309 152.041L213.165 145.074L176.107 133.05Z" fill="#C8C8C8"/>
<path d="M179.051 152.308L174.933 133.299L146.093 159.208L179.051 152.308Z" fill="#C8C8C8"/>
<path d="M213.325 145.829L180.45 152.712L184.569 171.721L213.325 145.829Z" fill="#C8C8C8"/>
</g>
<g style="mix-blend-mode:multiply">
<path d="M220.521 166.549L187.563 173.45L224.64 185.558L220.521 166.549Z" fill="#B4CCD2"/>
<path d="M217.435 146.621L221.535 165.546L254.493 158.645L217.435 146.621Z" fill="#B4CCD2"/>
<path d="M220.361 165.796L216.177 146.888L187.421 172.78L220.361 165.796Z" fill="#B4CCD2"/>
<path d="M254.635 159.317L221.694 166.301L225.813 185.31L254.635 159.317Z" fill="#B4CCD2"/>
</g>
<path d="M291.49 85.2865L293.403 83.5672L282.776 80.1273L280.864 81.8466L291.49 85.2865ZM277.155 83.7716L275.243 85.4909L287.944 89.6295L289.857 87.9101L277.155 83.7716ZM302.32 88.8585L304.233 87.1391L295.478 84.2658L293.565 85.9851L302.32 88.8585ZM306.29 87.7539L304.377 89.4733L314.819 92.8649L316.731 91.1455L306.29 87.7539ZM291.932 88.6087L290.019 90.3281L293.308 91.3824L295.221 89.6631L291.932 88.6087ZM274.865 77.5131L256.53 71.5911L254.617 73.3105L272.952 79.2325L274.865 77.5131ZM278.806 81.2318L280.719 79.5125L276.856 78.2295L274.943 79.9489L278.806 81.2318ZM268.418 80.9821L266.506 82.7014L273.185 84.8761L275.098 83.1568L268.418 80.9821ZM259.125 78.0478L257.212 79.7671L264.448 82.0866L266.361 80.3673L259.125 78.0478ZM295.317 92.1826L304.443 95.1525L306.356 93.4332L297.23 90.4633L295.317 92.1826Z" fill="#06566A"/>
<g opacity="0.7">
<path opacity="0.1" d="M244.339 97.1226C245.952 95.6419 248.258 94.5398 250.605 94.0422C252.365 93.669 254.029 93.6666 255.428 94.0705C255.596 94.035 255.984 94.2153 256.086 94.2814L270.187 98.8238L271.401 99.1795L284.288 103.366C285.131 103.625 286.602 104.365 287.062 104.88C287.521 105.396 287.981 105.912 288.207 106.564C288.849 108.355 288.151 110.43 286.172 112.251C284.559 113.732 282.253 114.834 279.906 115.331C278.146 115.705 276.482 115.707 275.083 115.303C274.915 115.339 274.526 115.158 274.425 115.092L260.324 110.55L259.11 110.194L246.223 106.007C245.379 105.748 243.909 105.009 243.449 104.493C242.989 103.978 242.53 103.462 242.304 102.809C241.661 101.019 242.36 98.9435 244.339 97.1226V97.1226Z" fill="black"/>
<path opacity="0.1" d="M244.961 97.1651C246.508 95.7861 248.73 94.7018 250.993 94.2219C252.67 93.8664 254.333 93.864 255.733 94.268C255.9 94.2324 256.289 94.4128 256.391 94.4789L270.037 98.9426L271.167 99.316L283.684 103.406C284.341 103.617 285.997 104.405 286.439 104.836C286.983 105.334 287.425 105.766 287.633 106.335C288.341 108.024 287.727 110.081 285.73 111.819C284.183 113.198 281.961 114.282 279.698 114.762C278.021 115.117 276.358 115.12 274.958 114.716C274.791 114.751 274.402 114.571 274.3 114.505L260.654 110.041L259.524 109.668L247.007 105.577C246.35 105.367 244.694 104.579 244.252 104.147C243.708 103.649 243.266 103.218 243.058 102.649C242.35 100.96 242.964 98.9023 244.961 97.1651V97.1651Z" fill="black"/>
<path opacity="0.2" d="M245.499 97.2261C247.046 95.8471 249.202 94.8643 251.382 94.4022C253.058 94.0468 254.638 94.0621 255.936 94.4001C256.019 94.3823 256.492 94.5449 256.593 94.6109L269.851 98.8942L270.982 99.2677L283.109 103.178C283.683 103.406 285.423 104.176 285.847 104.524C286.391 105.022 286.815 105.37 287.107 105.921C287.881 107.508 287.333 109.464 285.336 111.201C283.789 112.58 281.633 113.563 279.453 114.025C277.777 114.381 276.197 114.365 274.899 114.027C274.816 114.045 274.343 113.883 274.242 113.816L260.984 109.533L259.853 109.16L247.726 105.25C247.152 105.021 245.412 104.251 244.988 103.903C244.444 103.406 244.02 103.058 243.728 102.506C242.954 100.919 243.502 98.9632 245.499 97.2261Z" fill="black"/>
<path opacity="0.2" d="M246.038 97.2872C247.501 95.926 249.658 94.9432 251.753 94.4989C253.346 94.1612 254.842 94.1944 256.14 94.5323C256.223 94.5145 256.696 94.6771 256.714 94.7609L269.601 98.9477L270.731 99.3211L282.488 103.134C282.96 103.297 284.801 104.133 285.106 104.331C285.632 104.745 286.056 105.093 286.348 105.644C287.189 107.13 286.64 109.086 284.727 110.805C283.264 112.166 281.108 113.149 279.012 113.593C277.42 113.931 275.924 113.898 274.626 113.56C274.542 113.578 274.07 113.415 274.052 113.331L261.165 109.145L260.035 108.771L248.278 104.958C247.805 104.795 245.964 103.96 245.659 103.761C245.133 103.347 244.709 102.999 244.417 102.448C243.577 100.962 244.125 99.0066 246.038 97.2872Z" fill="black"/>
<path opacity="0.2" d="M246.66 97.33C248.141 96.0525 250.13 95.1053 252.141 94.6787C253.65 94.3588 255.146 94.392 256.444 94.7299C256.444 94.7299 256.916 94.8925 257 94.8747L269.415 98.8989L270.443 99.2063L281.829 102.923C282.2 103.02 284.209 103.82 284.43 104.036C285.022 104.348 285.464 104.78 285.738 105.247C286.645 106.632 286.18 108.57 284.333 110.187C282.852 111.465 280.863 112.412 278.852 112.839C277.343 113.159 275.847 113.125 274.549 112.787C274.549 112.787 274.077 112.625 273.993 112.643L261.578 108.618L260.55 108.311L249.164 104.594C248.793 104.498 246.784 103.697 246.563 103.482C245.971 103.169 245.529 102.737 245.255 102.27C244.348 100.886 244.813 98.9477 246.66 97.33V97.33Z" fill="black"/>
<path opacity="0.2" d="M247.199 97.3918C248.596 96.1322 250.585 95.1849 252.53 94.86C254.039 94.5401 255.451 94.591 256.665 94.9467C256.665 94.9467 257.138 95.1093 257.221 95.0915L269.265 99.0191L270.294 99.3266L281.291 102.863C281.477 102.911 283.755 103.742 283.874 103.892C284.466 104.204 284.89 104.552 285.231 104.918C286.203 106.201 285.804 108.037 283.958 109.655C282.561 110.915 280.572 111.862 278.626 112.187C277.118 112.507 275.705 112.456 274.491 112.1C274.491 112.1 274.019 111.937 273.935 111.955L261.891 108.028L260.863 107.72L249.865 104.184C249.68 104.135 247.402 103.305 247.282 103.155C246.69 102.842 246.266 102.494 245.926 102.129C244.953 100.846 245.352 99.0096 247.199 97.3918V97.3918Z" fill="black"/>
<path opacity="0.3" d="M247.737 97.4533C249.05 96.2114 250.973 95.3658 252.901 94.957C254.326 94.6549 255.738 94.7058 256.868 95.0793C256.868 95.0793 257.341 95.2418 257.424 95.2241L269.08 98.9713L270.024 99.2965L280.651 102.736C280.735 102.719 283.097 103.532 283.115 103.615C283.689 103.844 284.197 104.174 284.537 104.54C285.576 105.721 285.177 107.557 283.414 109.157C282.101 110.399 280.178 111.245 278.25 111.654C276.825 111.956 275.413 111.905 274.283 111.532C274.283 111.532 273.81 111.369 273.727 111.387L262.071 107.639L261.127 107.314L250.5 103.874C250.416 103.892 248.054 103.079 248.036 102.995C247.462 102.767 246.954 102.437 246.614 102.071C245.575 100.89 245.974 99.0533 247.737 97.4533Z" fill="black"/>
<path opacity="0.3" d="M274.093 111.046L261.391 106.908L248.689 102.769C246.142 101.908 245.913 99.5916 248.276 97.5142C250.554 95.4545 254.542 94.4338 257.089 95.295L269.791 99.4336L282.493 103.572C285.04 104.433 285.268 106.75 282.906 108.827C280.628 110.887 276.64 111.908 274.093 111.046V111.046Z" fill="black"/>
</g>
<path d="M274.105 107.803L242.68 97.5619C239.492 96.5736 239.205 93.5689 242.083 91.0318C244.961 88.4947 249.853 87.1947 253.058 88.2667L284.484 98.5076C287.671 99.4959 287.958 102.501 285.08 105.038C282.202 107.575 277.31 108.875 274.105 107.803V107.803Z" fill="#ECFF00"/>
<path d="M271.914 99.9466L270.728 97.658L269.613 98.5952L261.145 95.8361L260.114 96.7555L268.582 99.5145L267.55 100.434L271.914 99.9466Z" fill="#06566A"/>
<path d="M280.933 102.414L281.88 101.512C282.462 100.951 282.32 100.28 281.56 100.003L280.532 99.6959C279.772 99.419 278.599 99.6679 277.933 100.247L276.986 101.148C276.597 100.968 276.094 101.075 275.812 101.397L273.384 103.576C273.084 103.815 273.155 104.15 273.526 104.247L277.473 105.512C277.844 105.609 278.347 105.502 278.647 105.263L281.075 103.084C281.375 102.845 281.303 102.51 280.933 102.414V102.414ZM277.166 103.65L276.566 104.128L276.094 103.965L276.693 103.488C276.574 103.338 276.622 103.152 276.772 103.033C276.988 102.812 277.491 102.705 277.778 102.82C278.065 102.934 278.118 103.186 277.902 103.407C277.753 103.526 277.435 103.681 277.166 103.65V103.65ZM280.006 102.172L277.829 101.408L278.644 100.709C279.01 100.369 279.681 100.227 280.069 100.407L280.626 100.552C281.098 100.714 281.169 101.05 280.803 101.39L279.988 102.088L280.006 102.172Z" fill="#06566A"/>
<path d="M249.22 158.975C248.275 158.65 247.066 158.731 246.03 159.214C246.241 158.556 245.763 157.957 244.902 157.614C243.587 157.192 241.659 157.601 240.544 158.538C238.631 160.257 240.891 163.895 240.891 163.895C240.891 163.895 247.858 163.293 249.771 161.574C250.802 160.654 250.553 159.481 249.238 159.059L249.22 158.975Z" fill="#E10098"/>
<path opacity="0.1" d="M168.482 217.87L109.256 198.372C105.022 196.992 103.766 191.478 107.057 188.415L164.451 133.591C166.064 132.11 168.327 131.631 170.318 132.347L232.176 152.689C236.511 154.134 237.684 159.666 234.308 162.747L174.266 216.644C172.719 218.023 170.456 218.503 168.482 217.87Z" fill="#979797"/>
<path opacity="0.1" d="M168.623 216.878L110.814 197.867C106.496 196.505 105.323 190.973 108.597 187.827L164.598 134.699C166.211 133.219 168.474 132.739 170.549 133.437L230.703 153.177C235.038 154.623 236.211 160.155 232.835 163.235L174.574 215.616C172.943 217.013 170.781 217.559 168.706 216.86L168.623 216.878Z" fill="#979797"/>
<path opacity="0.2" d="M168.78 215.968L112.388 197.445C108.053 196 106.796 190.485 110.171 187.405L164.781 135.974C166.394 134.493 168.657 134.013 170.732 134.712L229.097 153.867C233.433 155.313 234.707 160.911 231.248 164.009L174.749 214.79C173.136 216.271 170.956 216.733 168.881 216.034L168.78 215.968Z" fill="#979797"/>
<path opacity="0.2" d="M168.937 215.059L113.861 196.958C109.526 195.512 108.251 189.914 111.711 186.816L164.928 137.081C166.541 135.601 168.804 135.121 170.879 135.819L227.474 154.474C231.893 155.902 233.084 161.518 229.624 164.616L174.804 213.815C173.192 215.295 170.928 215.775 168.937 215.059V215.059Z" fill="#979797"/>
<path opacity="0.2" d="M169.179 214.132L115.52 196.519C111.101 195.091 109.91 189.475 113.352 186.293L165.279 138.321C166.892 136.84 169.155 136.36 171.23 137.059L226.037 155.13C230.456 156.558 231.665 162.257 228.205 165.356L175.148 212.954C173.535 214.435 171.272 214.915 169.197 214.216L169.179 214.132Z" fill="#979797"/>
<path opacity="0.2" d="M169.336 213.223L117.077 196.014C112.658 194.586 111.449 188.886 114.909 185.788L165.444 139.512C167.056 138.032 169.32 137.552 171.395 138.251L224.413 155.737C228.833 157.165 230.041 162.864 226.599 166.046L175.323 212.129C173.71 213.609 171.447 214.089 169.372 213.391L169.336 213.223Z" fill="#979797"/>
<path opacity="0.3" d="M169.494 212.314L118.651 195.592C114.232 194.164 113.023 188.465 116.465 185.283L165.608 140.704C167.221 139.223 169.484 138.743 171.643 139.424L222.874 156.326C227.293 157.754 228.52 163.537 225.06 166.636L175.546 211.118C173.933 212.599 171.67 213.079 169.595 212.38L169.494 212.314Z" fill="#979797"/>
<path opacity="0.3" d="M169.718 211.303L120.191 195.003C115.688 193.593 114.462 187.809 117.987 184.609L165.738 141.727C167.351 140.246 169.698 139.749 171.773 140.447L221.3 156.747C225.803 158.157 227.029 163.941 223.503 167.141L175.753 210.023C174.14 211.504 171.793 212.001 169.718 211.303V211.303Z" fill="#979797"/>
<path d="M170.18 210.592L91.5722 184.78L162.725 120.907L241.333 146.719L170.18 210.592Z" fill="#065669"/>
<g style="mix-blend-mode:color-dodge">
<path d="M170.002 209.753L92.6697 183.759L91.5724 184.78L170.18 210.591L241.249 146.736L240.04 146.818L170.002 209.753Z" fill="#231F20"/>
</g>
<path opacity="0.5" d="M152.845 185.013L146.35 182.886L144.869 184.164L151.364 186.29L152.845 185.013ZM154.386 183.197L161.15 185.354L162.631 184.076L155.867 181.919L154.386 183.197ZM163.617 182.115L166.535 183.073L168.016 181.796L165.097 180.838L163.617 182.115ZM157.47 188.236L163.964 190.363L165.445 189.085L158.95 186.959L157.47 188.236ZM162.669 185.907L165.587 186.865L167.068 185.588L164.15 184.63L162.669 185.907ZM125.036 173.654L128.714 174.889L130.195 173.612L126.517 172.377L125.036 173.654ZM135.538 179.398L133.278 178.651L131.797 179.929L134.057 180.676L135.538 179.398ZM136.689 175.738L131.714 174.166L130.233 175.443L135.208 177.016L136.689 175.738ZM147.603 179.292L138.19 176.208L136.709 177.486L146.122 180.57L147.603 179.292ZM151.341 188.66L144.577 186.503L143.096 187.78L149.86 189.937L151.341 188.66ZM130.708 171.488L140.964 174.832L142.445 173.554L132.189 170.211L130.708 171.488ZM155.723 179.585L162.217 181.711L163.698 180.434L157.204 178.308L155.723 179.585ZM152.841 194.911L154.322 193.633L151.792 192.856L150.312 194.133L152.841 194.911ZM164.784 192.991L152.926 189.112L151.445 190.389L163.303 194.269L164.784 192.991ZM155.619 177.855L147.725 175.325L146.244 176.602L154.138 179.133L155.619 177.855ZM134.878 183.304L126.882 180.708L125.401 181.985L133.397 184.582L134.878 183.304ZM154.384 181.533L149.122 179.846L147.641 181.124L152.903 182.811L154.384 181.533ZM125.381 180.238L120.406 178.665L118.925 179.943L123.9 181.515L125.381 180.238ZM120.058 176.199L130.314 179.542L131.795 178.265L121.539 174.922L120.058 176.199ZM129.038 185.506L118.782 182.163L117.301 183.44L127.557 186.783L129.038 185.506ZM144.969 182.566L137.075 180.036L135.594 181.313L143.488 183.844L144.969 182.566ZM150.208 192.403L143.713 190.277L142.232 191.555L148.727 193.681L150.208 192.403ZM132.921 188.536L140.815 191.067L142.296 189.789L134.402 187.259L132.921 188.536ZM143.076 186.033L136.396 183.858L134.915 185.136L141.595 187.31L143.076 186.033ZM129.076 187.337L131.337 188.084L132.817 186.807L130.557 186.06L129.076 187.337ZM178.965 185.518L177.484 186.795L185.665 189.44L187.146 188.162L178.965 185.518ZM172.754 193.403L179.147 195.464L180.628 194.186L174.235 192.126L172.754 193.403ZM164.941 194.973L175.753 198.461L177.234 197.183L166.422 193.695L164.941 194.973ZM130.622 169.843L121.042 166.794L119.561 168.071L129.141 171.12L130.622 169.843V169.843ZM168.173 183.777L176.067 186.307L177.548 185.03L169.654 182.499L168.173 183.777ZM142.5 175.469L144.761 176.216L146.242 174.939L143.981 174.192L142.5 175.469ZM183.752 191.159L168.318 186.111L166.837 187.389L182.271 192.437L183.752 191.159ZM173.021 191.77L166.915 189.824L165.434 191.102L171.54 193.048L173.021 191.77ZM157.401 186.674L154.483 185.716L153.002 186.994L155.92 187.952L157.401 186.674ZM124.968 172.092L117.732 169.773L116.251 171.05L123.487 173.37L124.968 172.092V172.092ZM117.215 181.794L107.737 178.812L106.256 180.089L115.734 183.072L117.215 181.794ZM118.922 178.279L111.13 175.815L109.649 177.092L117.441 179.557L118.922 178.279ZM119.972 174.553L114.44 172.836L112.959 174.113L118.491 175.831L119.972 174.553Z" fill="#E9E9E9"/>
<path opacity="0.7" d="M229.058 150.373L221.164 147.842L219.683 149.12L227.577 151.65L229.058 150.373Z" fill="#ECFF00"/>
<path opacity="0.7" d="M207.787 143.409L202.052 141.56L200.571 142.837L206.323 144.77L207.787 143.409Z" fill="#ECFF00"/>
<path opacity="0.7" d="M207.497 147.412L198.742 144.539L197.261 145.817L206.1 148.672L207.497 147.412Z" fill="#ECFF00"/>
<path opacity="0.7" d="M219.561 147.306L209.305 143.963L207.908 145.222L218.164 148.566L219.561 147.306Z" fill="#ECFF00"/>
<path opacity="0.7" d="M219.17 151.243L214.261 149.569L212.798 150.93L217.773 152.503L219.17 151.243Z" fill="#ECFF00"/>
<path opacity="0.7" d="M208.998 147.881L207.618 149.225L211.278 150.375L212.759 149.098L208.998 147.881Z" fill="#ECFF00"/>
<g opacity="0.7">
<path opacity="0.7" d="M193.458 155.556L197.118 156.707L198.599 155.43L194.837 154.213L193.458 155.556Z" fill="#E9E9E9"/>
<path opacity="0.7" d="M203.858 161.234L201.597 160.487L200.218 161.831L202.479 162.577L203.858 161.234Z" fill="#E9E9E9"/>
<path opacity="0.7" d="M205.009 157.573L200.1 155.899L198.637 157.26L203.612 158.833L205.009 157.573Z" fill="#E9E9E9"/>
<path opacity="0.7" d="M199.028 153.325L209.284 156.668L210.747 155.307L200.492 151.963L199.028 153.325Z" fill="#E9E9E9"/>
<path opacity="0.7" d="M188.36 157.951L198.616 161.295L200.097 160.017L189.841 156.674L188.36 157.951Z" fill="#E9E9E9"/>
<path opacity="0.7" d="M198.99 151.493L193.07 149.595L191.673 150.855L197.509 152.77L198.99 151.493Z" fill="#E9E9E9"/>
<path opacity="0.7" d="M210.785 157.137L213.129 157.866L214.526 156.607L212.266 155.86L210.785 157.137Z" fill="#E9E9E9"/>
<path opacity="0.7" d="M193.337 153.743L189.761 152.574L188.363 153.834L191.94 155.003L193.337 153.743Z" fill="#E9E9E9"/>
<path opacity="0.7" d="M188.34 156.204L186.45 155.553L184.969 156.831L186.859 157.481L188.34 156.204Z" fill="#E9E9E9"/>
</g>
<path d="M166.761 147.378L135.814 153.852L170.63 165.213L166.761 147.378Z" fill="#AEB833"/>
<path d="M163.923 128.624L167.793 146.459L198.722 139.901L163.923 128.624Z" fill="#AEB833"/>
<path d="M166.62 146.707L162.75 128.872L135.673 153.182L166.62 146.707Z" fill="#9CA34C"/>
<path d="M198.864 140.572L167.935 147.13L171.805 164.965L198.864 140.572Z" fill="#AEB833"/>
<path d="M189.548 161.903C188.603 161.578 187.394 161.659 186.358 162.142C186.569 161.484 186.091 160.884 185.23 160.541C183.915 160.12 181.987 160.529 180.872 161.466C178.959 163.185 181.219 166.822 181.219 166.822C181.219 166.822 188.186 166.221 190.099 164.502C191.13 163.582 190.881 162.409 189.566 161.987L189.548 161.903Z" fill="#E10098"/>
<path opacity="0.1" d="M201.807 149.495L145.553 131.206C140.087 129.387 138.612 122.43 142.869 118.549L195.507 71.0398C197.486 69.2189 200.252 68.6324 202.883 69.4758L259.138 87.765C264.603 89.584 266.078 96.5409 261.821 100.422L209.183 147.931C207.204 149.752 204.438 150.339 201.807 149.495V149.495Z" fill="#21313C"/>
<path opacity="0.1" d="M202.066 148.652L146.368 130.507C141.004 128.755 139.564 121.965 143.755 118.186L195.362 71.596C197.275 69.8767 200.041 69.2902 202.487 70.0853L258.185 88.2298C263.549 89.9827 264.989 96.772 260.798 100.551L209.191 147.141C207.278 148.861 204.512 149.447 202.066 148.652V148.652Z" fill="#21313C"/>
<path opacity="0.2" d="M202.242 147.826L147.201 129.893C142.022 128.188 140.618 121.566 144.66 117.907L195.235 72.2357C197.148 70.5164 199.746 69.9654 202.192 70.7606L257.233 88.6942C262.411 90.3989 263.815 97.0205 259.774 100.68L209.199 146.351C207.286 148.07 204.688 148.621 202.242 147.826V147.826Z" fill="#21313C"/>
<path opacity="0.2" d="M202.399 146.917L147.933 129.212C142.939 127.556 141.571 121.102 145.48 117.645L195.042 72.9777C196.889 71.3599 199.403 70.8267 201.748 71.5559L256.214 89.2608C261.208 90.9172 262.576 97.3711 258.667 100.828L209.105 145.495C207.258 147.113 204.744 147.646 202.399 146.917Z" fill="#21313C"/>
<path opacity="0.2" d="M202.659 146.074L148.85 128.58C143.958 126.989 142.643 120.787 146.468 117.348L194.915 73.6174C196.678 72.0174 199.193 71.4843 201.453 72.2312L255.262 89.7252C260.154 91.3156 261.469 97.5181 257.643 100.957L209.196 144.687C207.434 146.287 204.919 146.821 202.659 146.074V146.074Z" fill="#21313C"/>
<path opacity="0.2" d="M202.816 145.164L149.563 127.815C144.857 126.273 143.577 120.238 147.253 116.918L194.668 74.1073C196.347 72.525 198.778 72.0096 200.955 72.7743L254.207 90.1235C258.914 91.6656 260.193 97.7005 256.518 101.02L209.102 143.831C207.423 145.413 204.992 145.929 202.816 145.164Z" fill="#21313C"/>
<path opacity="0.3" d="M202.991 144.338L150.396 127.2C145.875 125.706 144.631 119.839 148.157 116.639L194.541 74.7471C196.154 73.2665 198.501 72.7689 200.66 73.4497L253.255 90.5881C257.776 92.0819 259.02 97.9492 255.494 101.149L209.11 143.041C207.497 144.522 205.15 145.019 202.991 144.338Z" fill="#21313C"/>
<path opacity="0.3" d="M203.233 143.412L151.212 126.502C146.792 125.074 145.602 119.458 149.061 116.36L194.348 75.489C195.961 74.0083 198.224 73.5285 200.216 74.2449L252.236 91.1546C256.656 92.5824 257.846 98.1982 254.387 101.297L209.1 142.167C207.487 143.648 205.224 144.128 203.233 143.412Z" fill="#21313C"/>
<path d="M204.101 142.965L129.781 118.784L193.547 61.3822L267.867 85.5629L204.101 142.965Z" fill="#9BBBC3"/>
<path d="M258.604 93.9206L184.283 69.7399L196.209 59.0657L270.529 83.2464L258.604 93.9206Z" fill="#06708A"/>
<path d="M232.897 104.452L178.143 86.6327L187.16 78.7649L241.914 96.5841L232.897 104.452Z" fill="#E9E9E9"/>
<path d="M220.275 115.973L165.521 98.1542L174.539 90.2863L229.292 108.106L220.275 115.973Z" fill="#E9E9E9"/>
<path d="M198.682 133.515L170.276 124.298C167.543 123.389 167.279 120.905 169.774 118.624C172.268 116.343 176.507 115.269 179.24 116.179L207.646 125.396C210.378 126.305 210.642 128.79 208.148 131.07C205.654 133.351 201.415 134.425 198.682 133.515Z" fill="#06566A"/>
<g style="mix-blend-mode:multiply">
<path d="M220.579 124.844L151.067 102.271L151.6 101.895L221.131 124.551L220.579 124.844Z" fill="#9BBBC3"/>
</g>
<path opacity="0.5" d="M256.713 85.8262L260.149 85.0975C260.484 85.0264 260.616 84.8232 260.581 84.6556C260.545 84.488 260.258 84.3736 260.007 84.427L256.57 85.1556L256.162 83.2278C256.126 83.0602 255.839 82.9458 255.588 82.9992C255.252 83.0703 255.12 83.2734 255.156 83.4411L255.564 85.3689L252.212 86.0798C251.877 86.1509 251.744 86.3541 251.78 86.5217C251.798 86.6055 251.816 86.6893 252.001 86.7376C252.186 86.7859 252.27 86.7681 252.438 86.7326L255.874 86.0039L256.283 87.9317C256.301 88.0155 256.319 88.0993 256.504 88.1476C256.689 88.1959 256.773 88.1781 256.941 88.1426C257.276 88.0715 257.408 87.8683 257.373 87.7007L256.964 85.7728L256.713 85.8262Z" fill="#E9E9E9"/>
<g style="mix-blend-mode:color-dodge">
<path d="M203.959 142.293L130.662 117.983L129.781 118.783L204.101 142.964L270.362 83.2817L269.32 83.3274L203.959 142.293Z" fill="#231F20"/>
</g>
<path opacity="0.8" d="M196.015 126.724L194.746 124.453L193.714 125.372L185.247 122.613L184.215 123.533L192.683 126.292L191.652 127.211L196.015 126.724Z" fill="#ECFF00"/>
<path d="M189.986 86.3108C189.681 86.1127 189.443 85.813 189.389 85.5615C189.354 85.3939 189.57 85.1729 189.905 85.1018C190.324 85.013 190.743 84.9241 191.043 84.6854C191.294 84.6321 191.647 84.6448 191.797 84.5254C191.947 84.4061 191.995 84.2207 191.876 84.0708C192.608 83.3902 192.801 82.6485 191.485 82.2268C190.169 81.8051 189.133 82.2876 188.384 82.8844C188.216 82.9199 187.965 82.9733 187.731 83.1104C187.581 83.2298 187.634 83.4812 187.82 83.5295C187.706 83.8165 187.675 84.0857 187.711 84.2533C187.746 84.421 187.53 84.6419 187.195 84.713C186.692 84.8197 186.171 84.8425 185.633 84.7815C184.993 84.6544 184.172 84.916 183.741 85.3579L182.925 86.0563C182.775 86.1756 182.811 86.3433 182.996 86.3916L188.444 88.1267C188.63 88.175 188.881 88.1217 189.115 87.9846L189.93 87.2861C190.362 86.8442 190.357 86.4074 189.951 86.1432L189.986 86.3108Z" fill="#E10098"/>
<path d="M179.128 96.233L180.075 95.3314C180.657 94.7701 180.515 94.0996 179.755 93.8227L178.727 93.5153C177.967 93.2384 176.794 93.4872 176.128 94.0662L175.181 94.9678C174.792 94.7875 174.289 94.8941 174.007 95.2166L171.579 97.3957C171.279 97.6344 171.35 97.9697 171.721 98.0662L175.668 99.3314C176.039 99.4279 176.542 99.3213 176.842 99.0826L179.27 96.9035C179.57 96.6648 179.499 96.3295 179.128 96.233V96.233ZM175.361 97.4696L174.762 97.9471L174.289 97.7845L174.889 97.307C174.769 97.1572 174.817 96.9718 174.967 96.8524C175.183 96.6314 175.686 96.5248 175.973 96.6391C176.26 96.7534 176.313 97.0049 176.098 97.2259C175.948 97.3452 175.63 97.5001 175.361 97.4696V97.4696ZM178.201 95.9916L176.024 95.227L176.839 94.5285C177.205 94.1882 177.876 94.046 178.264 94.2264L178.821 94.3712C179.293 94.5338 179.364 94.8691 178.998 95.2094L178.183 95.9078L178.201 95.9916Z" fill="#E10098"/>
<path opacity="0.1" d="M284.685 96.9763L216.178 74.1905C212.602 73.0219 211.541 68.4297 214.335 65.9103L224.732 53.8086C226.045 52.5667 227.973 52.1579 229.677 52.76L300.444 76.2927C304.02 77.4614 305.016 82.1552 302.221 84.6745L289.564 96.0294C288.233 97.1874 286.389 97.5784 284.703 97.0602L284.685 96.9763Z" fill="#21313C"/>
<path opacity="0.1" d="M284.86 96.1508L217.483 73.7384C213.907 72.5698 212.846 67.9776 215.622 65.3744L224.909 54.6466C226.222 53.4047 228.15 52.996 229.854 53.5981L299.12 76.6608C302.78 77.8116 303.775 82.5055 300.898 85.0426L289.721 95.12C288.39 96.2781 286.546 96.6691 284.86 96.1508Z" fill="#21313C"/>
<path opacity="0.2" d="M284.97 95.4274L218.825 73.4545C215.165 72.3036 214.17 67.6098 217.03 64.9889L225.14 55.7367C226.454 54.4948 228.381 54.086 230.086 54.6881L297.833 77.197C301.493 78.3479 302.488 83.0417 299.628 85.6627L289.915 94.3788C288.602 95.6207 286.758 96.0117 285.053 95.4096L284.97 95.4274Z" fill="#21313C"/>
<path opacity="0.2" d="M285.144 94.6025L220.13 73.003C216.47 71.8522 215.475 67.1584 218.335 64.5374L225.335 56.6592C226.648 55.4173 228.576 55.0086 230.28 55.6107L296.527 77.6496C300.204 78.8843 301.2 83.5781 298.322 86.1152L290.089 93.5539C288.776 94.7958 286.848 95.2045 285.144 94.6025V94.6025Z" fill="#21313C"/>
<path opacity="0.2" d="M285.338 93.8601L221.454 72.6341C217.776 71.3994 216.781 66.7056 219.641 64.0847L225.465 57.6821C226.779 56.4402 228.706 56.0314 230.494 56.6157L295.323 78.1669C299.001 79.4016 299.996 84.0954 297.136 86.7163L290.367 92.7937C289.054 94.0356 287.126 94.4444 285.422 93.8423L285.338 93.8601Z" fill="#21313C"/>
<path opacity="0.2" d="M285.429 93.0531L222.759 72.1828C219.081 70.9481 218.002 66.2721 220.946 63.6334L225.66 58.6048C226.974 57.3629 228.901 56.9541 230.689 57.5384L294.018 78.6195C297.695 79.8542 298.708 84.6319 295.83 87.169L290.542 91.969C289.229 93.2109 287.301 93.6196 285.597 93.0176L285.429 93.0531Z" fill="#21313C"/>
<path opacity="0.3" d="M285.622 92.3104L224.082 71.8136C220.321 70.5967 219.308 65.8191 222.251 63.1803L225.79 59.6273C227.103 58.3854 229.031 57.9766 230.819 58.561L292.646 79.1721C296.407 80.389 297.42 85.1666 294.477 87.8053L290.567 91.2618C289.254 92.5037 287.326 92.9125 285.538 92.3282L285.622 92.3104Z" fill="#21313C"/>
<path opacity="0.3" d="M285.714 91.5033L225.388 71.3621C221.626 70.1452 220.613 65.3676 223.557 62.7289L225.986 60.5499C227.383 59.2902 229.227 58.8992 231.015 59.4835L291.341 79.6246C295.102 80.8415 296.115 85.6192 293.171 88.2579L290.743 90.4369C289.346 91.6966 287.502 92.0876 285.714 91.5033V91.5033Z" fill="#21313C"/>
<path d="M287.83 92.8062L209.222 66.9945L230.429 48.0461L308.953 73.8755L287.83 92.8062Z" fill="#06708A"/>
<g style="mix-blend-mode:color-dodge">
<path d="M287.652 91.9681L210.319 65.9736L209.222 66.9946L287.83 92.8062L308.953 73.8756L307.66 73.9745L287.652 91.9681Z" fill="#231F20"/>
</g>
<path d="M287.327 84.2414L223.717 63.4828L232.735 55.615L296.345 76.3735L287.327 84.2414Z" fill="#E9E9E9"/>
<path d="M287.955 81.8318L287.546 79.904C287.511 79.7364 287.224 79.6221 286.871 79.6093L286.746 79.0226C288.387 78.4995 289.484 77.4786 289.271 76.4727C289.04 75.3831 287.252 74.7988 285.408 75.1898C283.564 75.5808 282.167 76.8405 282.398 77.9301C282.611 78.9359 284.13 79.4897 285.842 79.3019L285.966 79.8886C285.631 79.9597 285.433 80.2645 285.469 80.4321L285.877 82.3599C285.931 82.6114 286.301 82.7079 286.721 82.6191L287.307 82.4947C287.726 82.4058 288.026 82.1671 287.973 81.9156L287.955 81.8318ZM286.119 78.5425C284.862 78.8091 283.731 78.4356 283.571 77.6813C283.411 76.9269 284.293 76.1269 285.55 75.8603C286.807 75.5937 287.938 75.9672 288.098 76.7216C288.258 77.4759 287.376 78.2759 286.119 78.5425Z" fill="#E10098"/>
<path d="M165.245 155.761L155.832 152.677L154.351 153.955L163.764 157.039L165.245 155.761Z" fill="#ECFF00"/>
<path d="M142.657 148.376L130.159 144.37L128.678 145.647L141.177 149.654L142.657 148.376Z" fill="#ECFF00"/>
<path d="M166.745 156.231L165.348 157.491L167.794 158.286L169.191 157.026L166.745 156.231Z" fill="#ECFF00"/>
<path d="M154.313 152.124L149.337 150.551L147.94 151.811L152.85 153.485L154.313 152.124Z" fill="#ECFF00"/>
<path d="M144.159 148.846L142.678 150.124L146.439 151.341L147.836 150.081L144.159 148.846Z" fill="#ECFF00"/>
<path d="M169.313 158.84L176.077 160.997L177.474 159.738L170.776 157.479L169.313 158.84Z" fill="#ECFF00"/>
<g opacity="0.1">
<path d="M172.129 162.621L162.735 159.621L161.338 160.88L170.75 163.965L172.129 162.621Z" fill="black"/>
<path d="M149.56 155.32L137.062 151.313L135.665 152.573L148.079 156.597L149.56 155.32Z" fill="black"/>
<path d="M173.732 163.157L172.251 164.434L174.697 165.229L176.178 163.952L173.732 163.157Z" fill="black"/>
<path d="M161.216 159.066L156.324 157.476L154.843 158.754L159.836 160.41L161.216 159.066Z" fill="black"/>
<path d="M151.061 155.79L149.664 157.049L153.342 158.284L154.823 157.007L151.061 155.79Z" fill="black"/>
<path d="M176.216 165.784L182.979 167.941L184.46 166.664L177.679 164.423L176.216 165.784Z" fill="black"/>
</g>
</g>
<defs>
<clipPath id="clip0_1833_4495">
<rect width="375" height="235" fill="white"/>
</clipPath>
</defs>
</svg>
