<svg width="1846" height="820" viewBox="0 0 1846 820" fill="none" xmlns="http://www.w3.org/2000/svg">
<g clip-path="url(#clip0_1833_4326)">
<g style="mix-blend-mode:multiply" opacity="0.7">
<path d="M1292.76 289.674L1235.57 270.938L1238.36 268.345L1295.71 287.047L1292.76 289.674Z" fill="#06566A" fill-opacity="0.3"/>
<path d="M1261.27 309.531L1268.79 311.94L1271.74 309.314L1264.22 306.904L1261.27 309.531ZM1282.76 321.157L1278.1 319.643L1275.15 322.269L1279.81 323.784L1282.76 321.157ZM1285.17 313.64L1275.11 310.267L1272.16 312.894L1282.22 316.266L1285.17 313.64ZM1308.53 321.532L1288.38 314.627L1285.43 317.253L1305.58 324.158L1308.53 321.532ZM1281.6 329.076L1265.28 323.695L1262.33 326.322L1278.65 331.703L1281.6 329.076ZM1262.23 322.674L1252.17 319.302L1249.22 321.928L1259.28 325.301L1262.23 322.674ZM1251.31 314.479L1272.29 321.374L1275.24 318.747L1254.26 311.852L1251.31 314.479ZM1269.68 333.439L1248.7 326.543L1245.75 329.17L1266.73 336.065L1269.68 333.439ZM1302.26 327.365L1286.13 322.11L1283.18 324.737L1299.31 329.992L1302.26 327.365ZM1293.19 332.623L1284.78 329.904L1281.83 332.53L1290.25 335.249L1293.19 332.623ZM1261.45 305.656L1254.09 303.212L1251.15 305.839L1258.51 308.282L1261.45 305.656ZM1245.45 325.397L1233.63 321.564L1230.68 324.191L1242.51 328.023L1245.45 325.397ZM1248.92 318.155L1240.51 315.436L1237.56 318.062L1245.98 320.782L1248.92 318.155ZM1250.98 310.546L1247.22 309.341L1244.27 311.967L1248.03 313.172L1250.98 310.546Z" fill="#06566A" fill-opacity="0.3"/>
<path d="M1243.34 297.318L1201.05 335.478L1146.95 317.923L1189.23 279.763L1243.34 297.318ZM1247.01 296.539L1188.95 277.654L1143.43 318.667L1201.49 337.553L1247.01 296.539V296.539Z" fill="#06566A" fill-opacity="0.3"/>
<path d="M1353.83 286.569L1212.08 240.388C1202.76 237.359 1189.2 240.236 1182.07 246.752L1003.6 407.373L1004.85 407.775L1183.32 247.153C1190.07 241.218 1202.36 238.612 1210.94 241.297L1352.69 287.478C1361.3 290.323 1362.82 297.507 1356.07 303.442L1176.46 464.973L1177.71 465.375L1357.32 303.844C1364.61 297.295 1362.95 289.472 1353.63 286.443L1353.83 286.569Z" fill="#06566A" fill-opacity="0.3"/>
<path d="M949.063 476.176L1090.75 522.526C1100.07 525.567 1113.64 522.706 1120.77 516.199L1299.44 355.791L1298.18 355.388L1119.52 515.795C1112.77 521.722 1100.47 524.314 1091.9 521.618L950.206 475.268C941.598 472.412 940.084 465.226 946.84 459.299L1126.65 297.984L1125.39 297.581L945.587 458.896C938.294 465.437 939.943 473.261 949.256 476.302L949.063 476.176Z" fill="#06566A" fill-opacity="0.3"/>
</g>
<g style="mix-blend-mode:multiply" opacity="0.5">
<path d="M1208.15 345.827L1197.66 355.254L1211.07 359.614L1221.56 350.187L1208.15 345.827ZM1045.99 477.938L1621.67 665.381L1387.07 523.754L1045.99 477.938ZM1730.74 567.099L1155.05 379.656L1389.66 521.283L1730.74 567.099ZM1629.79 666.301L1736.26 570.491L1395.18 524.674L1629.79 666.301ZM1146.93 378.736L1040.47 474.547L1381.54 520.363L1146.93 378.736ZM1598.69 689.464L1284.56 587.27L1388.39 686.272L1598.69 689.464ZM1172.74 682.774L1383.04 685.966L1279.21 586.963L1172.74 682.774ZM1175.21 685.371L1489.35 787.565L1385.51 688.563L1175.21 685.371ZM1494.92 787.823L1601.39 692.013L1391.09 688.821L1494.92 787.823ZM1186.2 307.981L852.845 607.735L1497.39 817.556L1830.74 517.802L1186.2 307.981ZM1770.57 569.219L1131.21 361.181L1129.61 362.72L1768.97 570.758L1496.95 815.488L856.703 606.677L1186.59 309.819L1826.73 518.171L1770.47 568.76L1770.57 569.219ZM1001.08 510.751L1043.9 524.723L1050.97 518.422L1008.15 504.45L1001.08 510.751ZM1221.57 566.529L1228.64 560.228L1216.52 556.314L1209.46 562.615L1221.57 566.529ZM1076.22 526.515L1058.19 520.734L1051.12 527.035L1069.15 532.816L1076.22 526.515ZM1049.55 510.56L1099.3 526.663L1106.37 520.362L1056.61 504.259L1049.55 510.56ZM1014.22 499.082L1042.1 508.297L1049.17 501.996L1021.28 492.781L1014.22 499.082ZM1108.09 545.45L1153.73 560.264L1160.8 553.963L1115.16 539.149L1108.09 545.45ZM1132.17 528.817L1125.11 535.118L1163.31 547.669L1170.37 541.368L1132.17 528.817ZM1168.01 556.275L1160.94 562.576L1172.83 566.539L1179.9 560.238L1168.01 556.275ZM1124.68 526.324L1113.58 522.674L1106.52 528.975L1117.61 532.625L1124.68 526.324ZM1076.6 535.079L1100.6 542.956L1107.66 536.655L1083.66 528.778L1076.6 535.079ZM1209.03 553.821L1177.59 543.68L1170.52 549.981L1201.96 560.122L1209.03 553.821ZM1229.01 568.793L1269.25 581.873L1276.31 575.572L1236.08 562.492L1229.01 568.793ZM1180.27 568.803L1213.01 579.389L1220.08 573.088L1187.34 562.502L1180.27 568.803ZM1739.49 515.538L1711.1 506.192L1697.79 518.139L1726.18 527.486L1739.49 515.538ZM1650.52 486.621L1618.29 476.167L1604.98 488.114L1637.21 498.568L1650.52 486.621ZM1703.66 503.928L1658.01 489.114L1644.7 501.062L1690.34 515.876L1703.66 503.928ZM1569.27 460.148L1526.45 446.176L1513.14 458.124L1555.96 472.095L1569.27 460.148ZM1779.73 528.618L1746.99 518.032L1733.67 529.979L1766.41 540.566L1779.73 528.618ZM1611.08 473.854L1576.53 462.69L1563.22 474.637L1597.76 485.802L1611.08 473.854ZM1017.12 567.139L1009.63 564.646L1004.8 569.032L1012.29 571.526L1017.12 567.139ZM965.332 542.583L977.218 546.546L982.05 542.16L970.165 538.197L965.332 542.583ZM976.411 532.551L996.018 538.958L1000.85 534.572L981.244 528.164L976.411 532.551ZM954.204 552.387L960.401 554.434L965.234 550.048L959.037 548L954.204 552.387ZM1057.33 566.537L1026.12 556.347L1021.29 560.734L1052.5 570.923L1057.33 566.537ZM1020.99 554.794L1004.48 549.41L999.645 553.797L1016.15 559.181L1020.99 554.794ZM1074.66 618.81L1079.49 614.424L1071.21 611.617L1066.38 616.003L1074.66 618.81ZM1045.02 549.219L1040.18 553.605L1047.68 556.098L1052.51 551.712L1045.02 549.219ZM1114.34 612.317L1074.85 599.32L1070.02 603.707L1109.51 616.703L1114.34 612.317ZM982.349 548.1L994.743 552.195L999.576 547.809L987.182 543.713L982.349 548.1ZM965.582 556.217L999.616 567.249L1004.45 562.863L970.414 551.831L965.582 556.217ZM1000.92 540.56L1034.95 551.592L1039.79 547.206L1005.75 536.174L1000.92 540.56ZM1125.5 581.137L1151.81 589.724L1156.65 585.338L1130.33 576.751L1125.5 581.137ZM972.757 599.117L989.266 604.501L994.099 600.115L977.59 594.731L972.757 599.117ZM1042.11 588.734L1019.91 581.435L1015.08 585.821L1037.28 593.12L1042.11 588.734ZM995.492 593.096L1002.98 595.589L1007.82 591.203L1000.32 588.71L995.492 593.096ZM994.217 606.333L1025.43 616.522L1030.26 612.136L999.049 601.946L994.217 606.333ZM955.28 593.698L967.674 597.794L972.507 593.407L960.113 589.312L955.28 593.698ZM1179.14 606.501L1125.78 589.242L1120.95 593.628L1174.31 610.887L1179.14 606.501ZM1065.62 610.161L1044.21 603.175L1039.38 607.562L1060.79 614.547L1065.62 610.161ZM920.967 582.485L950.378 592.097L955.211 587.71L925.8 578.099L920.967 582.485ZM1114.92 618.437L1152.84 630.807L1157.67 626.42L1119.75 614.051L1114.92 618.437ZM1140.75 613.44L1163.97 621.004L1168.8 616.617L1145.59 609.053L1140.75 613.44ZM1141.47 607.765L1121.36 601.225L1116.52 605.611L1136.64 612.151L1141.47 607.765ZM1030.56 618.075L1038.79 620.652L1043.63 616.266L1035.4 613.689L1030.56 618.075ZM1156.71 591.326L1186.13 600.938L1190.96 596.551L1161.55 586.94L1156.71 591.326ZM1043.92 622.205L1066.35 629.456L1071.18 625.069L1048.76 617.819L1043.92 622.205ZM1112.25 630.769L1141.66 640.38L1146.5 635.994L1117.09 626.382L1112.25 630.769ZM1079.51 620.182L1107.12 629.215L1111.95 624.829L1084.35 615.796L1079.51 620.182ZM943.076 562.19L956.765 566.731L961.598 562.344L947.909 557.803L943.076 562.19ZM1083.63 561.442L1057.31 552.854L1052.48 557.241L1078.79 565.828L1083.63 561.442ZM1048.29 577.099L1021.97 568.512L1017.14 572.898L1043.45 581.485L1048.29 577.099ZM1079.53 573.836L1062.23 568.139L1057.4 572.525L1074.7 578.222L1079.53 573.836ZM1014.78 579.882L988.238 571.343L983.405 575.729L1009.95 584.268L1014.78 579.882ZM1107.14 582.869L1084.71 575.619L1079.88 580.005L1102.31 587.256L1107.14 582.869ZM932.046 572.452L951.145 578.728L955.978 574.341L936.879 568.066L932.046 572.452ZM983.106 569.79L966.597 564.406L961.765 568.792L978.274 574.176L983.106 569.79ZM995.193 587.156L961.158 576.124L956.326 580.511L990.36 591.543L995.193 587.156ZM1110.27 570.44L1088.85 563.455L1084.02 567.841L1105.43 574.827L1110.27 570.44ZM1074.93 586.097L1053.52 579.112L1048.68 583.498L1070.09 590.484L1074.93 586.097ZM1069.49 597.816L1047.06 590.566L1042.23 594.952L1064.66 602.202L1069.49 597.816ZM1008.12 597.142L1034.43 605.73L1039.26 601.344L1012.95 592.756L1008.12 597.142ZM1116.4 599.393L1094.99 592.408L1090.16 596.794L1111.57 603.78L1116.4 599.393ZM1089.86 590.854L1080.06 587.651L1075.23 592.037L1085.03 595.241L1089.86 590.854ZM1107.49 589.038L1117.06 592.291L1121.89 587.905L1112.32 584.652L1107.49 589.038ZM1110.61 576.61L1120.42 579.814L1125.25 575.427L1115.45 572.223L1110.61 576.61Z" fill="#06566A" fill-opacity="0.3"/>
</g>
<path d="M1187.84 627.889L1533.1 317.447C1549.83 302.374 1578.54 295.086 1597.08 300.999L1783.58 361.822C1802.17 367.965 1803.61 384.948 1786.88 400.022L1441.63 710.463C1424.89 725.537 1396.18 732.825 1377.64 726.912L1191.14 666.088C1172.55 659.945 1171.11 642.962 1187.84 627.889V627.889Z" fill="#E9E9E9"/>
<g style="mix-blend-mode:multiply">
<path d="M1501.58 508.54L1472.45 499.11L1467.2 503.824L1496.34 513.254L1501.58 508.54ZM1491.86 520.446L1457.04 509.101L1451.79 513.814L1486.61 525.16L1491.86 520.446ZM1531.22 518.103L1507.22 510.226L1501.98 514.939L1525.98 522.817L1531.22 518.103ZM1546.16 522.86L1536.86 519.789L1531.62 524.502L1540.91 527.574L1546.16 522.86ZM1409.18 478.188L1387.77 471.202L1382.53 475.916L1403.94 482.901L1409.18 478.188ZM1408.2 492.803L1375.69 482.168L1370.45 486.882L1402.96 497.517L1408.2 492.803ZM1497.45 521.902L1492.21 526.616L1501.22 529.506L1506.47 524.793L1497.45 521.902ZM1452.74 492.243L1414.82 479.873L1409.58 484.587L1447.5 496.956L1452.74 492.243ZM1466.89 496.686L1458.38 493.928L1453.14 498.642L1461.65 501.4L1466.89 496.686ZM1451.48 506.677L1433.17 500.715L1427.92 505.429L1446.24 511.391L1451.48 506.677ZM1413.84 494.489L1408.6 499.202L1422.28 503.743L1427.53 499.03L1413.84 494.489ZM1506.91 531.421L1531.93 539.563L1537.17 534.85L1512.15 526.708L1506.91 531.421ZM1582.45 534.373L1551.75 524.316L1546.5 529.029L1577.21 539.086L1582.45 534.373ZM1602.29 540.732L1588.09 536.058L1582.85 540.772L1597.05 545.445L1602.29 540.732ZM1443.92 550.3L1426.12 544.471L1422.06 547.973L1439.86 553.802L1443.92 550.3ZM1448.15 545.322L1474.46 553.909L1478.52 550.407L1452.21 541.82L1448.15 545.322ZM1493.85 549.079L1516.27 556.329L1520.33 552.827L1497.91 545.577L1493.85 549.079ZM1476.77 565.907L1508.77 576.41L1512.83 572.908L1480.82 562.405L1476.77 565.907ZM1478.58 555.198L1513.45 566.773L1517.51 563.271L1482.64 551.696L1478.58 555.198V555.198ZM1367.13 518.8L1377.44 522.136L1381.5 518.634L1371.19 515.298L1367.13 518.8ZM1395.92 534.546L1389.72 532.498L1385.66 536L1391.86 538.048L1395.92 534.546ZM1399.03 524.283L1385.39 519.971L1381.33 523.473L1394.97 527.785L1399.03 524.283ZM1429.18 533.978L1403.37 525.522L1399.31 529.024L1425.12 537.48L1429.18 533.978ZM1459.82 566.379L1420.83 553.515L1416.77 557.017L1455.76 569.881L1459.82 566.379ZM1382.58 512.402L1410.93 521.519L1414.99 518.017L1386.64 508.9L1382.58 512.402ZM1451.44 534.78L1489.63 547.331L1493.69 543.828L1455.5 531.278L1451.44 534.78ZM1463.98 583.745L1468.04 580.243L1440.66 571.161L1436.6 574.663L1463.98 583.745ZM1511.15 583.109L1464.16 567.619L1460.1 571.121L1507.09 586.611L1511.15 583.109ZM1451.33 529.76L1429.64 522.593L1425.58 526.095L1447.27 533.262L1451.33 529.76ZM1394.24 544.747L1372.32 537.629L1368.26 541.131L1390.18 548.249L1394.24 544.747ZM1447.95 539.842L1433.52 535.217L1429.46 538.719L1443.89 543.344L1447.95 539.842ZM1368.21 536.34L1354.57 532.029L1350.51 535.531L1364.15 539.842L1368.21 536.34ZM1353.61 525.268L1381.96 534.385L1386.02 530.882L1357.67 521.766L1353.61 525.268ZM1378.23 550.782L1349.89 541.665L1345.83 545.167L1374.17 554.284L1378.23 550.782ZM1422.13 542.674L1400.45 535.507L1396.39 539.009L1418.08 546.176L1422.13 542.674ZM1436.55 569.873L1418.74 564.043L1414.68 567.545L1432.49 573.375L1436.55 569.873ZM1407.46 576.52L1414.17 578.7L1418.23 575.198L1411.52 573.018L1407.46 576.52ZM1418.56 580.17L1437.15 586.313L1441.21 582.81L1422.62 576.668L1418.56 580.17V580.17ZM1388.93 559.32L1410.62 566.487L1414.68 562.984L1392.99 555.818L1388.93 559.32ZM1359.74 560.947L1373.38 565.258L1377.44 561.756L1363.8 557.445L1359.74 560.947ZM1417 552.408L1398.68 546.446L1394.62 549.948L1412.94 555.91L1417 552.408ZM1378.61 555.984L1384.81 558.031L1388.87 554.529L1382.67 552.482L1378.61 555.984ZM1550.71 562.473L1546.65 565.975L1568.02 572.731L1572.08 569.229L1550.71 562.473ZM1533.46 584.141L1549.92 589.295L1553.98 585.793L1537.52 580.639L1533.46 584.141ZM1512.04 588.442L1540.61 597.511L1544.67 594.008L1516.1 584.94L1512.04 588.442ZM1509.95 598.97L1531.31 605.726L1535.37 602.224L1514.01 595.468L1509.95 598.97ZM1468.65 585.396L1505.83 597.682L1509.89 594.18L1472.71 581.894L1468.65 585.396ZM1377.82 566.957L1403.62 575.413L1407.68 571.911L1381.88 563.455L1377.82 566.957ZM1383.03 507.744L1355.15 498.53L1351.09 502.032L1378.97 511.246L1383.03 507.744ZM1521.13 557.701L1542.82 564.868L1546.88 561.366L1525.19 554.199L1521.13 557.701V557.701ZM1415.83 523.121L1422.02 525.169L1426.08 521.667L1419.89 519.619L1415.83 523.121ZM1563 577.396L1521.75 564.051L1517.69 567.554L1558.94 580.898L1563 577.396ZM1534.65 579.566L1517.91 574.231L1513.85 577.733L1530.59 583.068L1534.65 579.566ZM1477.63 560.921L1449 551.624L1444.94 555.126L1473.57 564.424L1477.63 560.921ZM1367.99 513.815L1346.3 506.648L1342.24 510.15L1363.93 517.317L1367.99 513.815ZM1305.77 543.096L1341.88 554.888L1345.94 551.385L1309.83 539.594L1305.77 543.096ZM1346.51 540.46L1318.9 531.427L1314.84 534.929L1342.45 543.963L1346.51 540.46ZM1351.19 530.824L1327.97 523.26L1323.92 526.762L1347.13 534.326L1351.19 530.824ZM1354.07 520.609L1337.05 515.093L1332.99 518.595L1350.01 524.112L1354.07 520.609ZM1346.05 556.406L1356.36 559.742L1360.42 556.24L1350.11 552.904L1346.05 556.406Z" fill="#06708A"/>
</g>
<g style="mix-blend-mode:multiply">
<path d="M1716.02 395.358L1742.05 403.764C1743.07 404.029 1744.68 403.688 1745.5 403.033C1746.32 402.379 1746.12 401.46 1745.06 400.965L1719.02 392.559C1718.01 392.294 1716.4 392.635 1715.58 393.29C1714.76 393.944 1714.95 394.863 1716.02 395.358ZM1740.04 405.63L1714.01 397.224C1712.99 396.959 1711.39 397.3 1710.56 397.955C1709.74 398.609 1709.94 399.528 1711 400.023L1737.04 408.429C1738.05 408.694 1739.66 408.353 1740.48 407.698C1741.3 407.044 1741.11 406.125 1740.04 405.63ZM1735.03 410.295L1709 401.889C1707.98 401.624 1706.37 401.965 1705.55 402.619C1704.73 403.274 1704.92 404.193 1705.99 404.687L1732.02 413.094C1733.04 413.359 1734.65 413.018 1735.47 412.363C1736.29 411.709 1736.1 410.79 1735.03 410.295Z" fill="#06566A"/>
</g>
<path d="M1564.55 447.646L1617.84 530.232L1724.3 434.422L1564.55 447.646Z" fill="#9BBBC3"/>
<path d="M1614.06 530.553L1560.77 447.966L1401.02 461.19L1614.06 530.553Z" fill="#9BBBC3"/>
<path d="M1563.42 445.723L1722.94 432.548L1510.13 363.137L1563.42 445.723Z" fill="#9BBBC3"/>
<path d="M1399.89 459.267L1559.64 446.043L1506.36 363.457L1399.89 459.267Z" fill="#9BBBC3"/>
<g style="mix-blend-mode:multiply">
<path d="M1301.93 609.939L1211.58 628.857L1313.22 662.051L1301.93 609.939Z" fill="#C8C8C8"/>
<path d="M1293.47 555.307L1304.99 607.371L1395.07 588.271L1293.47 555.307Z" fill="#C8C8C8"/>
<path d="M1301.54 608.102L1290.25 555.989L1211.19 627.02L1301.54 608.102Z" fill="#C8C8C8"/>
<path d="M1395.5 590.341L1305.38 609.21L1316.67 661.323L1395.5 590.341Z" fill="#C8C8C8"/>
</g>
<g style="mix-blend-mode:multiply">
<path d="M1415.23 647.147L1324.88 666.065L1426.52 699.259L1415.23 647.147Z" fill="#B4CCD2"/>
<path d="M1406.77 592.513L1418.01 644.395L1508.37 625.477L1406.77 592.513Z" fill="#B4CCD2"/>
<path d="M1414.79 645.08L1403.32 593.246L1324.49 664.228L1414.79 645.08Z" fill="#B4CCD2"/>
<path d="M1508.75 627.318L1418.45 646.466L1429.74 698.578L1508.75 627.318Z" fill="#B4CCD2"/>
</g>
<path d="M1609.79 424.365L1615.04 419.652L1585.9 410.221L1580.66 414.935L1609.79 424.365ZM1570.49 420.212L1565.25 424.926L1600.07 436.271L1605.31 431.558L1570.49 420.212ZM1639.48 434.158L1644.73 429.444L1620.72 421.567L1615.48 426.28L1639.48 434.158ZM1650.37 431.13L1645.12 435.843L1673.75 445.141L1678.99 440.428L1650.37 431.13ZM1611 433.473L1605.76 438.187L1614.78 441.077L1620.02 436.363L1611 433.473ZM1564.21 403.055L1513.95 386.82L1508.7 391.533L1558.97 407.768L1564.21 403.055ZM1575.02 413.249L1580.26 408.536L1569.67 405.019L1564.43 409.732L1575.02 413.249ZM1546.54 412.565L1541.3 417.278L1559.61 423.24L1564.85 418.527L1546.54 412.565ZM1521.06 404.52L1515.82 409.234L1535.66 415.593L1540.9 410.879L1521.06 404.52ZM1620.28 443.271L1645.3 451.413L1650.55 446.699L1625.53 438.557L1620.28 443.271Z" fill="#06566A"/>
<g opacity="0.7">
<path opacity="0.1" d="M1480.53 456.814C1484.95 452.755 1491.27 449.734 1497.71 448.369C1502.53 447.346 1507.09 447.34 1510.93 448.447C1511.39 448.35 1512.45 448.844 1512.73 449.025L1551.39 461.478L1554.72 462.453L1590.05 473.931C1592.36 474.642 1596.39 476.668 1597.65 478.082C1598.91 479.496 1600.17 480.909 1600.79 482.699C1602.55 487.608 1600.64 493.296 1595.21 498.289C1590.79 502.348 1584.47 505.369 1578.03 506.733C1573.21 507.756 1568.65 507.763 1564.81 506.656C1564.35 506.753 1563.29 506.259 1563.01 506.078L1524.35 493.625L1521.02 492.649L1485.69 481.171C1483.38 480.461 1479.35 478.434 1478.09 477.021C1476.83 475.607 1475.57 474.194 1474.95 472.404C1473.19 467.495 1475.1 461.806 1480.53 456.814V456.814Z" fill="black"/>
<path opacity="0.1" d="M1482.23 456.931C1486.47 453.15 1492.57 450.177 1498.77 448.862C1503.37 447.887 1507.93 447.881 1511.76 448.988C1512.22 448.891 1513.29 449.385 1513.57 449.566L1550.98 461.803L1554.08 462.827L1588.39 474.04C1590.19 474.618 1594.73 476.777 1595.95 477.961C1597.44 479.326 1598.65 480.51 1599.22 482.07C1601.16 486.7 1599.47 492.34 1594 497.103C1589.76 500.883 1583.67 503.856 1577.46 505.171C1572.87 506.146 1568.31 506.152 1564.47 505.045C1564.01 505.142 1562.95 504.648 1562.67 504.467L1525.26 492.23L1522.16 491.206L1487.84 479.993C1486.04 479.415 1481.5 477.256 1480.29 476.072C1478.8 474.707 1477.59 473.523 1477.02 471.963C1475.07 467.333 1476.76 461.693 1482.23 456.931V456.931Z" fill="black"/>
<path opacity="0.2" d="M1483.71 457.098C1487.95 453.318 1493.86 450.623 1499.83 449.356C1504.43 448.382 1508.76 448.424 1512.32 449.351C1512.55 449.302 1513.84 449.748 1514.12 449.929L1550.47 461.671L1553.57 462.695L1586.81 473.414C1588.39 474.041 1593.16 476.151 1594.32 477.105C1595.81 478.47 1596.97 479.424 1597.77 480.935C1599.9 485.287 1598.39 490.648 1592.92 495.411C1588.68 499.191 1582.77 501.886 1576.79 503.152C1572.2 504.127 1567.87 504.085 1564.31 503.158C1564.08 503.207 1562.78 502.761 1562.5 502.58L1526.16 490.838L1523.06 489.814L1489.81 479.095C1488.24 478.468 1483.47 476.358 1482.31 475.404C1480.82 474.039 1479.65 473.085 1478.85 471.574C1476.73 467.222 1478.23 461.86 1483.71 457.098Z" fill="black"/>
<path opacity="0.2" d="M1485.19 457.266C1489.2 453.534 1495.11 450.84 1500.85 449.622C1505.22 448.696 1509.32 448.787 1512.88 449.713C1513.11 449.665 1514.4 450.11 1514.45 450.34L1549.78 461.818L1552.88 462.842L1585.11 473.296C1586.41 473.742 1591.45 476.033 1592.29 476.576C1593.73 477.711 1594.89 478.665 1595.7 480.176C1598 484.25 1596.5 489.611 1591.25 494.325C1587.24 498.057 1581.33 500.751 1575.58 501.969C1571.22 502.895 1567.12 502.804 1563.56 501.878C1563.33 501.926 1562.03 501.481 1561.99 501.251L1526.66 489.773L1523.56 488.749L1491.33 478.295C1490.03 477.849 1484.98 475.558 1484.15 475.015C1482.71 473.88 1481.54 472.926 1480.74 471.415C1478.44 467.341 1479.94 461.98 1485.19 457.266Z" fill="black"/>
<path opacity="0.2" d="M1486.89 457.382C1490.95 453.88 1496.4 451.283 1501.92 450.114C1506.05 449.237 1510.15 449.328 1513.71 450.254C1513.71 450.254 1515.01 450.7 1515.24 450.651L1549.27 461.683L1552.09 462.526L1583.31 472.716C1584.32 472.98 1589.83 475.174 1590.44 475.766C1592.06 476.623 1593.27 477.806 1594.02 479.088C1596.51 482.883 1595.23 488.195 1590.17 492.631C1586.11 496.133 1580.66 498.729 1575.14 499.899C1571.01 500.776 1566.91 500.685 1563.35 499.759C1563.35 499.759 1562.05 499.313 1561.82 499.362L1527.79 488.329L1524.97 487.487L1493.75 477.297C1492.74 477.032 1487.23 474.839 1486.62 474.247C1485 473.39 1483.79 472.206 1483.04 470.925C1480.55 467.13 1481.83 461.817 1486.89 457.382V457.382Z" fill="black"/>
<path opacity="0.2" d="M1488.37 457.552C1492.2 454.099 1497.65 451.502 1502.98 450.611C1507.12 449.734 1510.99 449.874 1514.32 450.849C1514.32 450.849 1515.62 451.295 1515.84 451.246L1548.86 462.013L1551.68 462.856L1581.83 472.551C1582.34 472.684 1588.59 474.961 1588.91 475.372C1590.54 476.228 1591.7 477.182 1592.63 478.185C1595.3 481.702 1594.2 486.736 1589.14 491.171C1585.31 494.624 1579.86 497.221 1574.53 498.112C1570.39 498.989 1566.52 498.849 1563.19 497.874C1563.19 497.874 1561.89 497.429 1561.67 497.477L1528.65 486.71L1525.83 485.867L1495.68 476.172C1495.17 476.04 1488.92 473.762 1488.6 473.351C1486.97 472.495 1485.81 471.541 1484.88 470.538C1482.21 467.021 1483.31 461.987 1488.37 457.552V457.552Z" fill="black"/>
<path opacity="0.3" d="M1489.84 457.721C1493.44 454.316 1498.71 451.998 1504 450.877C1507.91 450.049 1511.78 450.189 1514.88 451.212C1514.88 451.212 1516.17 451.658 1516.4 451.609L1548.35 461.882L1550.94 462.774L1580.08 472.204C1580.31 472.156 1586.78 474.384 1586.83 474.614C1588.4 475.241 1589.8 476.146 1590.73 477.149C1593.58 480.387 1592.48 485.421 1587.65 489.807C1584.05 493.212 1578.78 495.53 1573.49 496.651C1569.59 497.479 1565.72 497.34 1562.62 496.316C1562.62 496.316 1561.32 495.87 1561.09 495.919L1529.14 485.646L1526.55 484.754L1497.42 475.324C1497.19 475.373 1490.71 473.144 1490.66 472.914C1489.09 472.287 1487.7 471.382 1486.76 470.379C1483.92 467.141 1485.01 462.107 1489.84 457.721Z" fill="black"/>
<path opacity="0.3" d="M1562.1 494.985L1527.27 483.639L1492.45 472.293C1485.47 469.932 1484.84 463.582 1491.32 457.887C1497.57 452.24 1508.5 449.442 1515.48 451.803L1550.3 463.149L1585.12 474.494C1592.11 476.855 1592.73 483.206 1586.26 488.901C1580.01 494.547 1569.08 497.346 1562.1 494.985V494.985Z" fill="black"/>
</g>
<path d="M1562.13 486.092L1475.98 458.017C1467.24 455.308 1466.45 447.071 1474.34 440.115C1482.23 433.16 1495.64 429.596 1504.43 432.535L1590.58 460.61C1599.32 463.319 1600.11 471.557 1592.22 478.512C1584.33 485.468 1570.92 489.032 1562.13 486.092V486.092Z" fill="#ECFF00"/>
<path d="M1556.12 464.555L1552.87 458.281L1549.82 460.85L1526.6 453.286L1523.77 455.807L1546.99 463.37L1544.16 465.891L1556.12 464.555Z" fill="#06566A"/>
<path d="M1580.85 471.319L1583.45 468.848C1585.04 467.309 1584.65 465.471 1582.57 464.711L1579.75 463.869C1577.67 463.11 1574.45 463.792 1572.63 465.379L1570.03 467.851C1568.96 467.356 1567.58 467.649 1566.81 468.533L1560.15 474.507C1559.33 475.161 1559.53 476.08 1560.54 476.345L1571.36 479.813C1572.38 480.078 1573.76 479.786 1574.58 479.131L1581.24 473.157C1582.06 472.503 1581.86 471.584 1580.85 471.319V471.319ZM1570.52 474.709L1568.88 476.018L1567.58 475.573L1569.23 474.264C1568.9 473.853 1569.03 473.344 1569.44 473.017C1570.03 472.412 1571.41 472.119 1572.2 472.433C1572.99 472.746 1573.13 473.435 1572.54 474.041C1572.13 474.368 1571.26 474.793 1570.52 474.709V474.709ZM1578.31 470.658L1572.34 468.561L1574.57 466.646C1575.58 465.714 1577.42 465.324 1578.48 465.818L1580.01 466.215C1581.3 466.661 1581.5 467.58 1580.49 468.513L1578.26 470.428L1578.31 470.658Z" fill="#06566A"/>
<path d="M1493.91 626.382C1491.32 625.491 1488 625.713 1485.16 627.036C1485.74 625.233 1484.43 623.589 1482.07 622.649C1478.47 621.493 1473.18 622.613 1470.12 625.183C1464.88 629.896 1471.08 639.868 1471.08 639.868C1471.08 639.868 1490.18 638.219 1495.42 633.505C1498.25 630.985 1497.56 627.768 1493.96 626.612L1493.91 626.382Z" fill="#E10098"/>
<path opacity="0.1" d="M1272.57 787.84L1110.2 734.386C1098.59 730.604 1095.15 715.487 1104.17 707.09L1261.52 556.791C1265.94 552.732 1272.14 551.417 1277.6 553.381L1447.18 609.148C1459.07 613.111 1462.28 628.276 1453.03 636.722L1288.42 784.479C1284.18 788.259 1277.98 789.575 1272.57 787.84Z" fill="#979797"/>
<path opacity="0.1" d="M1272.95 785.119L1114.47 733.002C1102.63 729.269 1099.42 714.103 1108.39 705.476L1261.92 559.828C1266.34 555.769 1272.55 554.454 1278.23 556.369L1443.14 610.485C1455.03 614.448 1458.25 629.614 1448.99 638.059L1289.27 781.66C1284.8 785.489 1278.87 786.986 1273.18 785.07L1272.95 785.119Z" fill="#979797"/>
<path opacity="0.2" d="M1273.38 782.625L1118.79 731.845C1106.9 727.882 1103.46 712.765 1112.71 704.32L1262.42 563.323C1266.84 559.264 1273.05 557.948 1278.74 559.864L1438.74 612.378C1450.63 616.341 1454.12 631.688 1444.64 640.182L1289.75 779.396C1285.33 783.455 1279.35 784.722 1273.66 782.806L1273.38 782.625Z" fill="#979797"/>
<path opacity="0.2" d="M1273.82 780.133L1122.83 730.509C1110.94 726.546 1107.45 711.199 1116.93 702.705L1262.82 566.359C1267.25 562.3 1273.45 560.984 1279.14 562.9L1434.29 614.042C1446.41 617.956 1449.67 633.352 1440.19 641.846L1289.9 776.722C1285.48 780.781 1279.27 782.097 1273.82 780.133V780.133Z" fill="#979797"/>
<path opacity="0.2" d="M1274.48 777.592L1127.37 729.306C1115.26 725.391 1111.99 709.996 1121.43 701.272L1263.79 569.758C1268.21 565.699 1274.41 564.383 1280.1 566.299L1430.35 615.839C1442.47 619.753 1445.78 635.379 1436.3 643.873L1290.84 774.363C1286.42 778.422 1280.22 779.737 1274.53 777.822L1274.48 777.592Z" fill="#979797"/>
<path opacity="0.2" d="M1274.91 775.099L1131.64 727.92C1119.53 724.006 1116.21 708.381 1125.7 699.886L1264.24 573.024C1268.66 568.964 1274.86 567.649 1280.55 569.564L1425.9 617.503C1438.02 621.417 1441.33 637.042 1431.9 645.766L1291.32 772.1C1286.9 776.159 1280.7 777.474 1275.01 775.559L1274.91 775.099Z" fill="#979797"/>
<path opacity="0.3" d="M1275.34 772.607L1135.96 726.765C1123.84 722.851 1120.53 707.226 1129.97 698.502L1264.69 576.29C1269.11 572.231 1275.32 570.915 1281.23 572.782L1421.68 619.119C1433.8 623.033 1437.16 638.888 1427.67 647.382L1291.93 769.329C1287.51 773.388 1281.31 774.704 1275.62 772.788L1275.34 772.607Z" fill="#979797"/>
<path opacity="0.3" d="M1275.96 769.835L1140.18 725.149C1127.83 721.284 1124.47 705.429 1134.14 696.656L1265.05 579.095C1269.47 575.036 1275.9 573.672 1281.59 575.587L1417.37 620.273C1429.71 624.138 1433.07 639.994 1423.41 648.766L1292.5 766.327C1288.08 770.386 1281.64 771.75 1275.96 769.835V769.835Z" fill="#979797"/>
<path d="M1277.22 767.886L1061.72 697.124L1256.78 522.019L1472.29 592.781L1277.22 767.886Z" fill="#065669"/>
<g style="mix-blend-mode:color-dodge">
<path d="M1276.74 765.587L1064.73 694.324L1061.72 697.123L1277.22 767.885L1472.06 592.829L1468.74 593.051L1276.74 765.587Z" fill="#231F20"/>
</g>
<path opacity="0.5" d="M1229.7 697.762L1211.89 691.932L1207.83 695.434L1225.64 701.264L1229.7 697.762ZM1233.93 692.783L1252.47 698.696L1256.53 695.194L1237.98 689.281L1233.93 692.783ZM1259.23 689.819L1267.23 692.445L1271.29 688.943L1263.29 686.317L1259.23 689.819ZM1242.38 706.599L1260.18 712.428L1264.24 708.926L1246.44 703.097L1242.38 706.599ZM1256.63 700.215L1264.63 702.841L1268.69 699.338L1260.69 696.713L1256.63 700.215ZM1153.46 666.624L1163.54 670.009L1167.6 666.506L1157.52 663.122L1153.46 666.624ZM1182.25 682.369L1176.06 680.322L1172 683.824L1178.19 685.872L1182.25 682.369ZM1185.41 672.336L1171.77 668.025L1167.71 671.527L1181.35 675.838L1185.41 672.336ZM1215.33 682.08L1189.52 673.624L1185.46 677.127L1211.27 685.582L1215.33 682.08ZM1225.58 707.76L1207.03 701.847L1202.97 705.349L1221.52 711.262L1225.58 707.76ZM1169.01 660.685L1197.13 669.851L1201.19 666.349L1173.07 657.183L1169.01 660.685ZM1237.59 682.882L1255.39 688.712L1259.45 685.21L1241.65 679.38L1237.59 682.882ZM1229.69 724.897L1233.75 721.395L1226.81 719.263L1222.75 722.765L1229.69 724.897ZM1262.43 719.635L1229.92 709L1225.86 712.502L1258.37 723.137L1262.43 719.635ZM1237.3 678.14L1215.66 671.203L1211.6 674.705L1233.24 681.642L1237.3 678.14ZM1180.44 693.079L1158.52 685.96L1154.46 689.463L1176.38 696.581L1180.44 693.079ZM1233.92 688.223L1219.49 683.598L1215.43 687.1L1229.86 691.725L1233.92 688.223ZM1154.41 684.672L1140.77 680.361L1136.71 683.863L1150.35 688.174L1154.41 684.672ZM1139.81 673.6L1167.93 682.765L1171.99 679.263L1143.87 670.097L1139.81 673.6ZM1164.43 699.114L1136.32 689.949L1132.26 693.451L1160.37 702.616L1164.43 699.114ZM1208.11 691.054L1186.47 684.118L1182.41 687.62L1204.05 694.557L1208.11 691.054ZM1222.47 718.024L1204.66 712.194L1200.61 715.696L1218.41 721.526L1222.47 718.024ZM1175.08 707.422L1196.72 714.359L1200.78 710.857L1179.14 703.92L1175.08 707.422ZM1202.92 700.559L1184.61 694.597L1180.55 698.099L1198.86 704.061L1202.92 700.559ZM1164.54 704.135L1170.73 706.182L1174.79 702.68L1168.6 700.632L1164.54 704.135ZM1301.31 699.146L1297.25 702.648L1319.67 709.899L1323.73 706.396L1301.31 699.146ZM1284.28 720.765L1301.81 726.413L1305.87 722.911L1288.34 717.263L1284.28 720.765ZM1262.86 725.066L1292.5 734.629L1296.56 731.127L1266.92 721.564L1262.86 725.066ZM1168.77 656.173L1142.51 647.816L1138.45 651.318L1164.71 659.675L1168.77 656.173V656.173ZM1271.72 694.374L1293.36 701.311L1297.42 697.809L1275.78 690.872L1271.72 694.374ZM1201.34 671.599L1207.54 673.647L1211.6 670.145L1205.4 668.097L1201.34 671.599ZM1314.43 714.612L1272.12 700.773L1268.06 704.275L1310.37 718.114L1314.43 714.612ZM1285.01 716.288L1268.27 710.953L1264.21 714.455L1280.95 719.79L1285.01 716.288ZM1242.19 702.316L1234.19 699.691L1230.13 703.193L1238.13 705.819L1242.19 702.316ZM1153.27 662.341L1133.44 655.983L1129.38 659.485L1149.21 665.843L1153.27 662.341V662.341ZM1132.02 688.939L1106.04 680.762L1101.98 684.264L1127.96 692.441L1132.02 688.939ZM1136.7 679.302L1115.34 672.546L1111.28 676.048L1132.64 682.804L1136.7 679.302ZM1139.58 669.087L1124.41 664.379L1120.35 667.881L1135.52 672.59L1139.58 669.087Z" fill="#E9E9E9"/>
<path opacity="0.7" d="M1438.63 602.797L1416.99 595.86L1412.93 599.362L1434.57 606.299L1438.63 602.797Z" fill="#ECFF00"/>
<path opacity="0.7" d="M1380.32 583.707L1364.6 578.636L1360.54 582.138L1376.31 587.439L1380.32 583.707Z" fill="#ECFF00"/>
<path opacity="0.7" d="M1379.53 594.682L1355.52 586.805L1351.46 590.307L1375.7 598.136L1379.53 594.682Z" fill="#ECFF00"/>
<path opacity="0.7" d="M1412.6 594.39L1384.48 585.224L1380.65 588.678L1408.77 597.843L1412.6 594.39Z" fill="#ECFF00"/>
<path opacity="0.7" d="M1411.53 605.183L1398.07 600.593L1394.06 604.325L1407.7 608.636L1411.53 605.183Z" fill="#ECFF00"/>
<path opacity="0.7" d="M1383.64 595.966L1379.86 599.65L1389.89 602.805L1393.95 599.302L1383.64 595.966Z" fill="#ECFF00"/>
<g opacity="0.7">
<path opacity="0.7" d="M1341.04 617.008L1351.07 620.163L1355.13 616.661L1344.82 613.325L1341.04 617.008Z" fill="#E9E9E9"/>
<path opacity="0.7" d="M1369.55 632.574L1363.35 630.526L1359.57 634.209L1365.77 636.257L1369.55 632.574Z" fill="#E9E9E9"/>
<path opacity="0.7" d="M1372.71 622.537L1359.25 617.947L1355.24 621.679L1368.88 625.99L1372.71 622.537Z" fill="#E9E9E9"/>
<path opacity="0.7" d="M1356.31 610.89L1384.43 620.056L1388.44 616.324L1360.32 607.158L1356.31 610.89Z" fill="#E9E9E9"/>
<path opacity="0.7" d="M1327.06 623.574L1355.18 632.74L1359.24 629.238L1331.12 620.072L1327.06 623.574Z" fill="#E9E9E9"/>
<path opacity="0.7" d="M1356.21 605.868L1339.97 600.665L1336.14 604.118L1352.15 609.37L1356.21 605.868Z" fill="#E9E9E9"/>
<path opacity="0.7" d="M1388.54 621.343L1394.97 623.341L1398.8 619.888L1392.6 617.84L1388.54 621.343Z" fill="#E9E9E9"/>
<path opacity="0.7" d="M1340.71 612.037L1330.9 608.834L1327.07 612.287L1336.88 615.491L1340.71 612.037Z" fill="#E9E9E9"/>
<path opacity="0.7" d="M1327.01 618.783L1321.83 617L1317.77 620.502L1322.95 622.285L1327.01 618.783Z" fill="#E9E9E9"/>
</g>
<path d="M1267.85 594.587L1183.01 612.336L1278.46 643.483L1267.85 594.587Z" fill="#AEB833"/>
<path d="M1260.07 543.173L1270.68 592.068L1355.47 574.09L1260.07 543.173Z" fill="#AEB833"/>
<path d="M1267.46 592.749L1256.85 543.854L1182.62 610.498L1267.46 592.749Z" fill="#9CA34C"/>
<path d="M1355.86 575.929L1271.07 593.908L1281.68 642.803L1355.86 575.929Z" fill="#AEB833"/>
<path d="M1330.32 634.407C1327.73 633.516 1324.41 633.739 1321.57 635.061C1322.15 633.258 1320.84 631.615 1318.48 630.674C1314.88 629.518 1309.59 630.639 1306.53 633.208C1301.29 637.921 1307.49 647.893 1307.49 647.893C1307.49 647.893 1326.59 646.244 1331.83 641.531C1334.66 639.01 1333.97 635.793 1330.37 634.637L1330.32 634.407Z" fill="#E10098"/>
<path opacity="0.1" d="M1363.93 600.392L1209.71 550.252C1194.72 545.266 1190.68 526.193 1202.35 515.555L1346.66 385.308C1352.08 380.316 1359.66 378.709 1366.88 381.021L1521.1 431.16C1536.08 436.147 1540.13 455.219 1528.45 465.858L1384.15 596.104C1378.72 601.096 1371.14 602.704 1363.93 600.392V600.392Z" fill="#21313C"/>
<path opacity="0.1" d="M1364.64 598.08L1211.94 548.338C1197.24 543.532 1193.29 524.919 1204.78 514.559L1346.26 386.833C1351.5 382.12 1359.09 380.512 1365.79 382.692L1518.49 432.434C1533.19 437.24 1537.14 455.853 1525.65 466.213L1384.17 593.939C1378.93 598.652 1371.34 600.26 1364.64 598.08V598.08Z" fill="#21313C"/>
<path opacity="0.2" d="M1365.12 595.816L1214.23 546.652C1200.03 541.978 1196.18 523.825 1207.26 513.793L1345.91 388.587C1351.15 383.873 1358.28 382.363 1364.98 384.543L1515.88 433.707C1530.07 438.381 1533.92 456.534 1522.84 466.567L1384.19 591.772C1378.95 596.486 1371.82 597.996 1365.12 595.816V595.816Z" fill="#21313C"/>
<path opacity="0.2" d="M1365.55 593.324L1216.23 544.787C1202.54 540.246 1198.79 522.552 1209.51 513.076L1345.38 390.621C1350.44 386.186 1357.34 384.724 1363.77 386.723L1513.08 435.261C1526.77 439.802 1530.52 457.495 1519.81 466.971L1383.93 589.427C1378.87 593.862 1371.98 595.323 1365.55 593.324Z" fill="#21313C"/>
<path opacity="0.2" d="M1366.26 591.012L1218.75 543.052C1205.34 538.692 1201.73 521.688 1212.22 512.261L1345.03 392.375C1349.87 387.988 1356.76 386.527 1362.96 388.574L1510.47 436.534C1523.88 440.894 1527.49 457.898 1517 467.325L1384.19 587.211C1379.35 591.598 1372.46 593.059 1366.26 591.012V591.012Z" fill="#21313C"/>
<path opacity="0.2" d="M1366.69 588.518L1220.7 540.955C1207.8 536.728 1204.29 520.183 1214.37 511.083L1344.36 393.717C1348.96 389.38 1355.62 387.967 1361.59 390.063L1507.58 437.626C1520.48 441.853 1523.99 458.398 1513.92 467.498L1383.93 584.864C1379.32 589.201 1372.66 590.614 1366.69 588.518Z" fill="#21313C"/>
<path opacity="0.3" d="M1367.17 586.254L1222.99 539.27C1210.59 535.174 1207.18 519.089 1216.85 510.317L1344.01 395.471C1348.43 391.412 1354.87 390.048 1360.78 391.914L1504.97 438.899C1517.36 442.994 1520.78 459.079 1511.11 467.852L1383.95 582.697C1379.53 586.756 1373.09 588.12 1367.17 586.254Z" fill="#21313C"/>
<path opacity="0.3" d="M1367.84 583.714L1225.22 537.356C1213.11 533.442 1209.84 518.046 1219.33 509.552L1343.48 397.506C1347.9 393.447 1354.11 392.131 1359.57 394.095L1502.18 440.453C1514.29 444.367 1517.56 459.762 1508.07 468.257L1383.92 580.303C1379.5 584.362 1373.29 585.678 1367.84 583.714Z" fill="#21313C"/>
<path d="M1370.22 582.489L1166.47 516.198L1341.28 358.833L1545.03 425.124L1370.22 582.489Z" fill="#9BBBC3"/>
<path d="M1519.63 448.036L1315.89 381.745L1348.58 352.482L1552.33 418.773L1519.63 448.036Z" fill="#06708A"/>
<path d="M1449.16 476.907L1299.05 428.056L1323.77 406.486L1473.88 455.337L1449.16 476.907Z" fill="#E9E9E9"/>
<path d="M1414.56 508.492L1264.45 459.641L1289.17 438.072L1439.28 486.923L1414.56 508.492Z" fill="#E9E9E9"/>
<path d="M1355.36 556.583L1277.49 531.315C1269.99 528.821 1269.27 522.012 1276.11 515.759C1282.95 509.507 1294.57 506.563 1302.06 509.056L1379.93 534.324C1387.43 536.817 1388.15 543.627 1381.31 549.88C1374.47 556.132 1362.85 559.076 1355.36 556.583Z" fill="#06566A"/>
<g style="mix-blend-mode:multiply">
<path d="M1415.39 532.811L1224.82 470.929L1226.29 469.898L1416.9 532.01L1415.39 532.811Z" fill="#9BBBC3"/>
</g>
<path opacity="0.5" d="M1514.45 425.845L1523.87 423.848C1524.79 423.653 1525.15 423.096 1525.05 422.636C1524.96 422.177 1524.17 421.863 1523.48 422.01L1514.06 424.007L1512.94 418.722C1512.84 418.263 1512.05 417.949 1511.37 418.095C1510.45 418.29 1510.08 418.847 1510.18 419.307L1511.3 424.592L1502.11 426.541C1501.19 426.736 1500.83 427.293 1500.93 427.752C1500.98 427.982 1501.02 428.212 1501.53 428.344C1502.04 428.477 1502.27 428.428 1502.73 428.33L1512.15 426.333L1513.27 431.618C1513.32 431.848 1513.37 432.077 1513.88 432.21C1514.39 432.342 1514.62 432.293 1515.08 432.196C1515.99 432.001 1516.36 431.444 1516.26 430.984L1515.14 425.699L1514.45 425.845Z" fill="#E9E9E9"/>
<g style="mix-blend-mode:color-dodge">
<path d="M1369.83 580.649L1168.89 514.003L1166.47 516.196L1370.22 582.487L1551.87 418.87L1549.01 418.995L1369.83 580.649Z" fill="#231F20"/>
</g>
<path opacity="0.8" d="M1348.05 537.965L1344.57 531.74L1341.74 534.26L1318.53 526.696L1315.7 529.217L1338.91 536.78L1336.09 539.301L1348.05 537.965Z" fill="#ECFF00"/>
<path d="M1331.52 427.173C1330.69 426.63 1330.03 425.809 1329.88 425.119C1329.79 424.66 1330.38 424.054 1331.3 423.859C1332.45 423.615 1333.6 423.372 1334.42 422.717C1335.11 422.571 1336.07 422.606 1336.49 422.279C1336.9 421.952 1337.03 421.443 1336.7 421.032C1338.71 419.167 1339.24 417.133 1335.63 415.977C1332.02 414.821 1329.18 416.144 1327.13 417.78C1326.67 417.877 1325.98 418.024 1325.34 418.4C1324.93 418.727 1325.07 419.416 1325.58 419.548C1325.27 420.335 1325.18 421.073 1325.28 421.533C1325.38 421.992 1324.79 422.598 1323.87 422.793C1322.49 423.085 1321.06 423.148 1319.59 422.981C1317.83 422.632 1315.58 423.349 1314.4 424.561L1312.16 426.476C1311.75 426.803 1311.85 427.262 1312.36 427.395L1327.29 432.152C1327.8 432.284 1328.49 432.138 1329.13 431.762L1331.37 429.847C1332.55 428.636 1332.54 427.438 1331.42 426.714L1331.52 427.173Z" fill="#E10098"/>
<path d="M1301.75 454.375L1304.35 451.904C1305.95 450.365 1305.56 448.527 1303.47 447.768L1300.65 446.925C1298.57 446.166 1295.35 446.848 1293.53 448.435L1290.93 450.907C1289.87 450.412 1288.49 450.705 1287.72 451.589L1281.06 457.563C1280.24 458.217 1280.43 459.136 1281.45 459.401L1292.27 462.87C1293.29 463.134 1294.66 462.842 1295.49 462.187L1302.14 456.214C1302.96 455.559 1302.77 454.64 1301.75 454.375V454.375ZM1291.43 457.766L1289.78 459.074L1288.49 458.629L1290.13 457.32C1289.8 456.909 1289.94 456.401 1290.35 456.073C1290.94 455.468 1292.32 455.175 1293.1 455.489C1293.89 455.802 1294.04 456.492 1293.45 457.097C1293.04 457.424 1292.16 457.849 1291.43 457.766V457.766ZM1299.21 453.714L1293.24 451.617L1295.48 449.703C1296.48 448.77 1298.32 448.38 1299.39 448.874L1300.91 449.271C1302.21 449.717 1302.4 450.636 1301.4 451.569L1299.16 453.484L1299.21 453.714Z" fill="#E10098"/>
<path opacity="0.1" d="M1591.14 456.413L1403.33 393.946C1393.52 390.743 1390.61 378.153 1398.27 371.246L1426.78 338.07C1430.38 334.665 1435.66 333.544 1440.33 335.195L1634.34 399.71C1644.14 402.913 1646.87 415.781 1639.21 422.688L1604.51 453.817C1600.86 456.992 1595.81 458.064 1591.18 456.643L1591.14 456.413Z" fill="#21313C"/>
<path opacity="0.1" d="M1591.61 454.15L1406.9 392.707C1397.1 389.503 1394.19 376.914 1401.8 369.777L1427.26 340.367C1430.86 336.963 1436.15 335.842 1440.82 337.493L1630.71 400.719C1640.74 403.874 1643.47 416.742 1635.58 423.697L1604.94 451.324C1601.29 454.499 1596.24 455.571 1591.61 454.15Z" fill="#21313C"/>
<path opacity="0.2" d="M1591.92 452.166L1410.58 391.928C1400.55 388.773 1397.82 375.905 1405.66 368.72L1427.9 343.355C1431.5 339.951 1436.78 338.83 1441.45 340.481L1627.18 402.188C1637.21 405.343 1639.94 418.211 1632.1 425.396L1605.47 449.292C1601.87 452.696 1596.82 453.768 1592.15 452.117L1591.92 452.166Z" fill="#21313C"/>
<path opacity="0.2" d="M1592.39 449.905L1414.16 390.69C1404.12 387.535 1401.4 374.667 1409.24 367.482L1428.43 345.884C1432.03 342.48 1437.31 341.359 1441.99 343.01L1623.6 403.429C1633.68 406.814 1636.41 419.682 1628.52 426.637L1605.95 447.03C1602.35 450.435 1597.07 451.555 1592.39 449.905V449.905Z" fill="#21313C"/>
<path opacity="0.2" d="M1592.92 447.87L1417.79 389.679C1407.71 386.294 1404.98 373.427 1412.82 366.241L1428.79 348.689C1432.39 345.284 1437.67 344.163 1442.57 345.765L1620.3 404.847C1630.38 408.232 1633.11 421.1 1625.27 428.285L1606.71 444.946C1603.11 448.351 1597.83 449.472 1593.15 447.821L1592.92 447.87Z" fill="#21313C"/>
<path opacity="0.2" d="M1593.17 445.657L1421.37 388.442C1411.28 385.057 1408.32 372.238 1416.4 365.004L1429.32 351.218C1432.92 347.813 1438.21 346.693 1443.11 348.295L1616.72 406.088C1626.8 409.473 1629.58 422.571 1621.69 429.526L1607.19 442.685C1603.59 446.09 1598.31 447.21 1593.63 445.56L1593.17 445.657Z" fill="#21313C"/>
<path opacity="0.3" d="M1593.7 443.621L1424.99 387.43C1414.68 384.093 1411.9 370.996 1419.97 363.762L1429.68 354.021C1433.28 350.617 1438.56 349.496 1443.46 351.098L1612.96 407.603C1623.27 410.939 1626.05 424.037 1617.98 431.271L1607.26 440.746C1603.66 444.151 1598.38 445.272 1593.47 443.67L1593.7 443.621Z" fill="#21313C"/>
<path opacity="0.3" d="M1593.96 441.408L1428.57 386.192C1418.26 382.856 1415.48 369.758 1423.55 362.524L1430.21 356.55C1434.04 353.097 1439.1 352.025 1444 353.627L1609.38 408.843C1619.69 412.179 1622.47 425.277 1614.4 432.511L1607.74 438.485C1603.91 441.938 1598.86 443.01 1593.96 441.408V441.408Z" fill="#21313C"/>
<path d="M1599.76 444.981L1384.26 374.219L1442.39 322.272L1657.67 393.083L1599.76 444.981Z" fill="#06708A"/>
<g style="mix-blend-mode:color-dodge">
<path d="M1599.27 442.683L1387.26 371.42L1384.26 374.219L1599.76 444.981L1657.67 393.083L1654.12 393.354L1599.27 442.683Z" fill="#231F20"/>
</g>
<path d="M1598.38 421.5L1423.99 364.591L1448.71 343.022L1623.1 399.931L1598.38 421.5Z" fill="#E9E9E9"/>
<path d="M1600.1 414.894L1598.98 409.609C1598.88 409.15 1598.09 408.836 1597.13 408.802L1596.79 407.193C1601.28 405.759 1604.29 402.96 1603.71 400.203C1603.07 397.215 1598.17 395.614 1593.12 396.685C1588.06 397.757 1584.23 401.211 1584.87 404.198C1585.45 406.955 1589.61 408.474 1594.31 407.959L1594.65 409.567C1593.73 409.762 1593.19 410.598 1593.28 411.057L1594.4 416.342C1594.55 417.032 1595.57 417.296 1596.72 417.053L1598.32 416.712C1599.47 416.468 1600.29 415.814 1600.15 415.124L1600.1 414.894ZM1595.07 405.877C1591.62 406.608 1588.52 405.584 1588.08 403.516C1587.64 401.448 1590.06 399.255 1593.51 398.524C1596.95 397.793 1600.05 398.817 1600.49 400.885C1600.93 402.953 1598.51 405.146 1595.07 405.877Z" fill="#E10098"/>
<path d="M1263.69 617.571L1237.89 609.115L1233.83 612.617L1259.63 621.073L1263.69 617.571Z" fill="#ECFF00"/>
<path d="M1201.77 597.324L1167.51 586.34L1163.45 589.843L1197.71 600.826L1201.77 597.324Z" fill="#ECFF00"/>
<path d="M1267.81 618.858L1263.98 622.311L1270.68 624.491L1274.51 621.038L1267.81 618.858Z" fill="#ECFF00"/>
<path d="M1233.72 607.597L1220.08 603.286L1216.25 606.74L1229.71 611.329L1233.72 607.597Z" fill="#ECFF00"/>
<path d="M1205.89 598.613L1201.83 602.115L1212.14 605.451L1215.97 601.998L1205.89 598.613Z" fill="#ECFF00"/>
<path d="M1274.85 626.011L1293.39 631.924L1297.22 628.471L1278.86 622.279L1274.85 626.011Z" fill="#ECFF00"/>
<g opacity="0.1">
<path d="M1282.57 636.376L1256.81 628.151L1252.98 631.604L1278.79 640.06L1282.57 636.376Z" fill="black"/>
<path d="M1220.69 616.359L1186.43 605.375L1182.6 608.828L1216.63 619.861L1220.69 616.359Z" fill="black"/>
<path d="M1286.96 637.844L1282.9 641.346L1289.61 643.526L1293.66 640.024L1286.96 637.844Z" fill="black"/>
<path d="M1252.65 626.631L1239.24 622.271L1235.18 625.773L1248.87 630.314L1252.65 626.631Z" fill="black"/>
<path d="M1224.81 617.648L1220.98 621.101L1231.06 624.486L1235.12 620.984L1224.81 617.648Z" fill="black"/>
<path d="M1293.77 645.047L1312.31 650.96L1316.37 647.458L1297.78 641.315L1293.77 645.047Z" fill="black"/>
</g>
</g>
<defs>
<clipPath id="clip0_1833_4326">
<rect width="1846" height="820" fill="white"/>
</clipPath>
</defs>
</svg>
