<svg width="1139" height="668" viewBox="0 0 1139 668" fill="none" xmlns="http://www.w3.org/2000/svg">
<g clip-path="url(#clip0_1833_4662)">
<g style="mix-blend-mode:multiply" opacity="0.7">
<path d="M768.001 240.594L730.354 228.26L732.188 226.553L769.941 238.865L768.001 240.594Z" fill="#06566A" fill-opacity="0.3"/>
<path d="M747.271 253.666L752.22 255.252L754.16 253.523L749.211 251.937L747.271 253.666ZM761.414 261.32L758.347 260.323L756.407 262.052L759.474 263.049L761.414 261.32ZM763 256.371L756.379 254.151L754.44 255.88L761.06 258.1L763 256.371ZM778.378 261.567L765.115 257.021L763.175 258.75L776.439 263.296L778.378 261.567ZM760.652 266.533L749.907 262.991L747.968 264.72L758.713 268.262L760.652 266.533ZM747.898 262.319L741.277 260.099L739.338 261.828L745.958 264.048L747.898 262.319ZM740.714 256.923L754.525 261.463L756.465 259.734L742.654 255.194L740.714 256.923ZM752.805 269.405L738.994 264.866L737.054 266.595L750.865 271.134L752.805 269.405ZM774.251 265.407L763.633 261.947L761.694 263.677L772.311 267.136L774.251 265.407ZM768.286 268.868L762.744 267.078L760.805 268.807L766.346 270.597L768.286 268.868ZM747.389 251.115L742.546 249.507L740.606 251.236L745.45 252.844L747.389 251.115ZM736.857 264.111L729.074 261.588L727.134 263.317L734.917 265.84L736.857 264.111ZM739.141 259.344L733.599 257.553L731.66 259.283L737.201 261.073L739.141 259.344ZM740.494 254.334L738.02 253.541L736.08 255.27L738.555 256.063L740.494 254.334Z" fill="#06566A" fill-opacity="0.3"/>
<path d="M735.463 245.626L707.624 270.748L672.008 259.191L699.847 234.07L735.463 245.626ZM737.88 245.114L699.663 232.681L669.696 259.681L707.914 272.114L737.88 245.114V245.114Z" fill="#06566A" fill-opacity="0.3"/>
<path d="M808.201 238.55L714.888 208.148C708.754 206.154 699.821 208.048 695.13 212.338L577.64 318.077L578.465 318.342L695.955 212.602C700.398 208.695 708.49 206.979 714.136 208.747L807.45 239.149C813.118 241.022 814.121 245.751 809.678 249.658L691.437 355.996L692.262 356.261L810.503 249.922C815.299 245.611 814.207 240.461 808.074 238.467L808.201 238.55Z" fill="#06566A" fill-opacity="0.3"/>
<path d="M541.738 363.371L635.016 393.884C641.147 395.886 650.082 394.002 654.779 389.719L772.395 284.12L771.57 283.855L653.954 389.453C649.506 393.355 641.412 395.061 635.768 393.287L542.491 362.773C536.825 360.893 535.827 356.163 540.275 352.261L658.644 246.065L657.819 245.799L539.451 351.996C534.649 356.301 535.735 361.452 541.866 363.454L541.738 363.371Z" fill="#06566A" fill-opacity="0.3"/>
</g>
<g style="mix-blend-mode:multiply" opacity="0.5">
<path d="M712.299 277.561L705.396 283.767L714.224 286.637L721.128 280.431L712.299 277.561ZM605.547 364.532L984.529 487.928L830.082 394.693L605.547 364.532ZM1056.33 423.228L677.345 299.831L831.792 393.066L1056.33 423.228ZM989.873 488.534L1059.96 425.461L835.427 395.299L989.873 488.534ZM672.001 299.226L601.913 362.299L826.447 392.461L672.001 299.226ZM969.396 503.783L762.599 436.507L830.954 501.681L969.396 503.783ZM688.991 499.378L827.433 501.479L759.079 436.305L688.991 499.378ZM690.618 501.088L897.415 568.364L829.06 503.189L690.618 501.088ZM901.086 568.534L971.174 505.46L832.732 503.359L901.086 568.534ZM697.848 252.646L478.397 449.979L902.707 588.107L1122.16 390.775L697.848 252.646ZM1082.55 424.623L661.647 287.669L660.597 288.682L1081.5 425.636L902.419 586.746L480.937 449.282L698.105 253.857L1119.52 391.017L1082.48 424.321L1082.55 424.623ZM575.984 386.133L604.174 395.331L608.827 391.183L580.637 381.985L575.984 386.133ZM721.135 422.853L725.788 418.705L717.812 416.128L713.159 420.276L721.135 422.853ZM625.448 396.51L613.576 392.705L608.923 396.853L620.795 400.659L625.448 396.51ZM607.888 386.007L640.644 396.608L645.297 392.46L612.541 381.859L607.888 386.007ZM584.63 378.451L602.988 384.517L607.641 380.369L589.283 374.303L584.63 378.451ZM646.428 408.976L676.474 418.728L681.127 414.58L651.081 404.828L646.428 408.976ZM662.284 398.026L657.631 402.174L682.778 410.436L687.431 406.288L662.284 398.026ZM685.876 416.102L681.223 420.25L689.047 422.859L693.7 418.711L685.876 416.102ZM657.352 396.385L650.045 393.982L645.392 398.13L652.699 400.533L657.352 396.385ZM625.695 402.149L641.495 407.334L646.148 403.186L630.348 398.001L625.695 402.149ZM712.88 414.486L692.179 407.811L687.526 411.959L708.227 418.634L712.88 414.486ZM726.035 424.343L752.52 432.953L757.173 428.805L730.688 420.195L726.035 424.343ZM693.947 424.349L715.5 431.319L720.153 427.171L698.6 420.201L693.947 424.349ZM1062.09 389.285L1043.4 383.132L1034.63 390.997L1053.33 397.15L1062.09 389.285ZM1003.52 370.248L982.302 363.366L973.537 371.231L994.755 378.113L1003.52 370.248ZM1038.5 381.641L1008.45 371.889L999.687 379.754L1029.73 389.507L1038.5 381.641ZM950.032 352.82L921.842 343.622L913.077 351.488L941.267 360.685L950.032 352.82ZM1088.58 397.895L1067.02 390.926L1058.26 398.791L1079.81 405.761L1088.58 397.895ZM977.553 361.843L954.813 354.494L946.048 362.359L968.788 369.709L977.553 361.843ZM586.542 423.254L581.61 421.613L578.429 424.5L583.361 426.142L586.542 423.254ZM552.449 407.089L560.273 409.698L563.455 406.81L555.63 404.201L552.449 407.089ZM559.742 400.484L572.65 404.702L575.832 401.815L562.924 397.596L559.742 400.484ZM545.123 413.542L549.203 414.89L552.384 412.003L548.305 410.655L545.123 413.542ZM613.014 422.858L592.465 416.15L589.284 419.037L609.833 425.745L613.014 422.858ZM589.087 415.127L578.219 411.583L575.038 414.471L585.906 418.015L589.087 415.127ZM624.421 457.27L627.602 454.382L622.152 452.534L618.971 455.422L624.421 457.27ZM604.906 411.457L601.725 414.344L606.657 415.986L609.839 413.098L604.906 411.457ZM650.545 452.995L624.546 444.439L621.364 447.327L647.363 455.883L650.545 452.995ZM563.652 410.72L571.811 413.416L574.992 410.529L566.833 407.833L563.652 410.72ZM552.613 416.064L575.019 423.327L578.2 420.439L555.795 413.176L552.613 416.064ZM575.877 405.757L598.283 413.019L601.464 410.132L579.059 402.869L575.877 405.757ZM657.89 432.469L675.212 438.122L678.393 435.235L661.071 429.581L657.89 432.469ZM557.337 444.306L568.205 447.85L571.386 444.962L560.518 441.418L557.337 444.306ZM602.993 437.47L588.38 432.665L585.198 435.553L599.811 440.358L602.993 437.47ZM572.304 440.342L577.236 441.983L580.417 439.096L575.485 437.454L572.304 440.342ZM571.464 449.056L592.013 455.764L595.195 452.876L574.645 446.168L571.464 449.056ZM545.832 440.739L553.991 443.435L557.172 440.547L549.013 437.851L545.832 440.739ZM693.203 449.166L658.073 437.805L654.891 440.692L690.021 452.054L693.203 449.166ZM618.472 451.576L604.376 446.977L601.195 449.865L615.29 454.464L618.472 451.576ZM523.243 433.357L542.605 439.684L545.786 436.796L526.424 430.469L523.243 433.357ZM650.925 457.024L675.888 465.167L679.07 462.28L654.106 454.137L650.925 457.024ZM667.932 453.735L683.214 458.714L686.395 455.826L671.113 450.847L667.932 453.735ZM668.404 449.999L655.161 445.693L651.98 448.581L665.223 452.886L668.404 449.999ZM595.391 456.786L600.809 458.483L603.991 455.595L598.573 453.899L595.391 456.786ZM678.439 439.177L697.801 445.504L700.982 442.617L681.62 436.289L678.439 439.177ZM604.188 459.505L618.952 464.278L622.133 461.391L607.369 456.618L604.188 459.505ZM649.169 465.142L668.531 471.47L671.712 468.582L652.35 462.255L649.169 465.142ZM627.616 458.173L645.791 464.12L648.972 461.232L630.797 455.285L627.616 458.173ZM537.798 419.996L546.809 422.985L549.991 420.098L540.979 417.108L537.798 419.996ZM630.323 419.504L613.001 413.85L609.82 416.738L627.142 422.391L630.323 419.504ZM607.059 429.811L589.737 424.158L586.556 427.045L603.878 432.699L607.059 429.811ZM627.628 427.663L616.241 423.912L613.06 426.8L624.446 430.55L627.628 427.663ZM585.002 431.643L567.528 426.021L564.347 428.909L581.82 434.53L585.002 431.643ZM645.802 433.609L631.038 428.836L627.856 431.724L642.621 436.497L645.802 433.609ZM530.536 426.752L543.11 430.883L546.291 427.995L533.718 423.864L530.536 426.752ZM564.15 424.999L553.282 421.455L550.101 424.342L560.969 427.887L564.15 424.999ZM572.107 436.432L549.701 429.169L546.52 432.057L568.925 439.319L572.107 436.432ZM647.861 425.427L633.766 420.829L630.584 423.716L644.679 428.315L647.861 425.427ZM624.597 435.735L610.502 431.136L607.32 434.024L621.415 438.622L624.597 435.735ZM621.016 443.449L606.252 438.676L603.071 441.564L617.835 446.337L621.016 443.449ZM580.614 443.006L597.936 448.659L601.117 445.772L583.795 440.118L580.614 443.006ZM651.902 444.488L637.807 439.889L634.626 442.776L648.721 447.375L651.902 444.488ZM634.429 438.866L627.975 436.757L624.794 439.645L631.248 441.754L634.429 438.866ZM646.031 437.671L652.334 439.812L655.515 436.924L649.212 434.783L646.031 437.671ZM648.09 429.489L654.544 431.598L657.725 428.71L651.271 426.601L648.09 429.489Z" fill="#06566A" fill-opacity="0.3"/>
</g>
<path d="M698.931 463.246L926.217 258.878C937.233 248.955 956.132 244.157 968.339 248.05L1091.12 288.091C1103.35 292.135 1104.3 303.315 1093.29 313.238L866.001 517.606C854.985 527.529 836.085 532.327 823.878 528.434L701.102 488.394C688.864 484.35 687.916 473.169 698.931 463.246V463.246Z" fill="#E9E9E9"/>
<g style="mix-blend-mode:multiply">
<path d="M905.468 384.677L886.29 378.469L882.838 381.572L902.016 387.78L905.468 384.677ZM899.068 392.515L876.145 385.046L872.693 388.149L895.616 395.618L899.068 392.515ZM924.981 390.972L909.181 385.787L905.729 388.89L921.529 394.075L924.981 390.972ZM934.813 394.104L928.694 392.082L925.242 395.185L931.361 397.207L934.813 394.104ZM844.641 364.696L830.546 360.097L827.094 363.2L841.19 367.799L844.641 364.696ZM843.994 374.317L822.593 367.316L819.141 370.419L840.542 377.42L843.994 374.317ZM902.749 393.473L899.297 396.576L905.233 398.479L908.685 395.376L902.749 393.473ZM873.317 373.948L848.354 365.805L844.902 368.908L869.866 377.051L873.317 373.948ZM882.632 376.874L877.03 375.058L873.578 378.161L879.18 379.977L882.632 376.874ZM872.487 383.451L860.432 379.526L856.98 382.629L869.035 386.554L872.487 383.451ZM847.707 375.427L844.255 378.53L853.267 381.519L856.719 378.416L847.707 375.427ZM908.978 399.74L925.448 405.1L928.899 401.997L912.43 396.637L908.978 399.74ZM958.708 401.683L938.494 395.062L935.042 398.165L955.257 404.786L958.708 401.683ZM971.768 405.869L962.421 402.793L958.969 405.896L968.316 408.972L971.768 405.869ZM867.511 412.168L855.791 408.331L853.118 410.636L864.839 414.474L867.511 412.168ZM870.294 408.891L887.616 414.544L890.289 412.239L872.967 406.586L870.294 408.891ZM900.378 411.364L915.142 416.137L917.815 413.832L903.05 409.059L900.378 411.364ZM889.133 422.443L910.2 429.357L912.872 427.051L891.805 420.137L889.133 422.443ZM890.325 415.393L913.28 423.013L915.953 420.707L892.998 413.087L890.325 415.393V415.393ZM816.957 391.431L823.746 393.628L826.418 391.322L819.63 389.126L816.957 391.431ZM835.911 401.797L831.831 400.449L829.159 402.755L833.238 404.103L835.911 401.797ZM837.956 395.041L828.976 392.202L826.304 394.508L835.283 397.346L837.956 395.041ZM857.803 401.423L840.816 395.857L838.143 398.162L855.131 403.728L857.803 401.423ZM877.975 422.753L852.311 414.285L849.638 416.59L875.303 425.059L877.975 422.753ZM827.129 387.22L845.79 393.221L848.462 390.916L829.802 384.914L827.129 387.22ZM872.458 401.951L897.605 410.213L900.277 407.908L875.131 399.646L872.458 401.951ZM880.716 434.186L883.388 431.88L865.365 425.901L862.692 428.207L880.716 434.186ZM911.767 433.767L880.836 423.57L878.163 425.875L909.094 436.072L911.767 433.767ZM872.39 398.646L858.111 393.928L855.439 396.234L869.717 400.952L872.39 398.646ZM834.806 408.512L820.376 403.826L817.703 406.132L832.133 410.818L834.806 408.512ZM870.161 405.284L860.664 402.239L857.991 404.545L867.489 407.589L870.161 405.284ZM817.667 402.978L808.687 400.14L806.015 402.446L814.994 405.284L817.667 402.978ZM808.06 395.689L826.72 401.691L829.393 399.385L810.732 393.384L808.06 395.689ZM824.267 412.486L805.606 406.484L802.934 408.789L821.594 414.791L824.267 412.486ZM853.169 407.148L838.89 402.43L836.218 404.735L850.496 409.453L853.169 407.148ZM862.656 425.053L850.935 421.216L848.263 423.521L859.983 427.359L862.656 425.053ZM843.509 429.429L847.923 430.864L850.595 428.559L846.181 427.124L843.509 429.429ZM850.815 431.832L863.054 435.876L865.726 433.57L853.488 429.526L850.815 431.832V431.832ZM831.307 418.106L845.586 422.824L848.258 420.519L833.98 415.801L831.307 418.106ZM812.092 419.177L821.071 422.015L823.744 419.71L814.764 416.872L812.092 419.177ZM849.785 413.556L837.73 409.631L835.057 411.937L847.113 415.861L849.785 413.556ZM824.519 415.91L828.598 417.258L831.271 414.952L827.191 413.604L824.519 415.91ZM937.814 420.182L935.141 422.488L949.204 426.935L951.877 424.63L937.814 420.182ZM926.454 434.446L937.29 437.839L939.962 435.534L929.126 432.141L926.454 434.446ZM912.353 437.278L931.165 443.248L933.838 440.942L915.026 434.972L912.353 437.278ZM910.978 444.209L925.041 448.656L927.713 446.351L913.65 441.903L910.978 444.209ZM883.791 435.272L908.269 443.36L910.941 441.055L886.464 432.967L883.791 435.272ZM823.996 423.134L840.983 428.7L843.656 426.395L826.668 420.829L823.996 423.134ZM827.427 384.153L809.069 378.087L806.397 380.392L824.755 386.458L827.427 384.153ZM918.337 417.04L932.615 421.758L935.288 419.453L921.01 414.735L918.337 417.04V417.04ZM849.017 394.276L853.096 395.624L855.769 393.318L851.689 391.97L849.017 394.276ZM945.903 430.006L918.749 421.221L916.077 423.527L943.231 432.311L945.903 430.006ZM927.238 431.435L916.218 427.922L913.546 430.228L924.565 433.74L927.238 431.435ZM889.701 419.161L870.857 413.04L868.185 415.345L887.029 421.466L889.701 419.161ZM817.526 388.149L803.248 383.431L800.575 385.737L814.853 390.455L817.526 388.149ZM776.563 407.426L800.339 415.188L803.011 412.883L779.235 405.12L776.563 407.426ZM803.383 405.691L785.209 399.744L782.536 402.049L800.711 407.996L803.383 405.691ZM806.464 399.347L791.182 394.368L788.509 396.673L803.792 401.652L806.464 399.347ZM808.358 392.622L797.155 388.991L794.482 391.297L805.685 394.928L808.358 392.622ZM803.08 416.188L809.868 418.384L812.541 416.079L805.752 413.882L803.08 416.188Z" fill="#06708A"/>
</g>
<g style="mix-blend-mode:multiply">
<path d="M1046.64 310.167L1063.77 315.701C1064.44 315.876 1065.5 315.651 1066.04 315.22C1066.58 314.789 1066.46 314.184 1065.75 313.859L1048.62 308.325C1047.95 308.15 1046.89 308.375 1046.35 308.806C1045.81 309.237 1045.93 309.842 1046.64 310.167ZM1062.45 316.93L1045.32 311.396C1044.65 311.221 1043.59 311.446 1043.05 311.877C1042.51 312.308 1042.63 312.913 1043.33 313.238L1060.47 318.772C1061.14 318.946 1062.2 318.722 1062.74 318.291C1063.28 317.86 1063.16 317.255 1062.45 316.93ZM1059.15 320.001L1042.01 314.466C1041.35 314.292 1040.29 314.517 1039.75 314.948C1039.2 315.378 1039.33 315.984 1040.03 316.309L1057.17 321.843C1057.84 322.017 1058.9 321.793 1059.44 321.362C1059.98 320.931 1059.85 320.326 1059.15 320.001Z" fill="#06566A"/>
</g>
<path d="M946.92 344.589L982.001 398.957L1052.09 335.884L946.92 344.589Z" fill="#9BBBC3"/>
<path d="M979.516 399.169L944.435 344.801L839.266 353.506L979.516 399.169Z" fill="#9BBBC3"/>
<path d="M946.177 343.324L1051.19 334.651L911.097 288.957L946.177 343.324Z" fill="#9BBBC3"/>
<path d="M838.524 352.24L943.693 343.535L908.612 289.167L838.524 352.24Z" fill="#9BBBC3"/>
<g style="mix-blend-mode:multiply">
<path d="M774.038 451.43L714.557 463.884L781.471 485.736L774.038 451.43Z" fill="#C8C8C8"/>
<path d="M768.467 415.465L776.051 449.739L835.349 437.166L768.467 415.465Z" fill="#C8C8C8"/>
<path d="M773.781 450.22L766.349 415.914L714.299 462.674L773.781 450.22Z" fill="#C8C8C8"/>
<path d="M835.637 438.528L776.306 450.95L783.739 485.256L835.637 438.528Z" fill="#C8C8C8"/>
</g>
<g style="mix-blend-mode:multiply">
<path d="M848.625 475.924L789.144 488.378L856.058 510.23L848.625 475.924Z" fill="#B4CCD2"/>
<path d="M843.054 439.958L850.455 474.113L909.936 461.658L843.054 439.958Z" fill="#B4CCD2"/>
<path d="M848.337 474.563L840.785 440.44L788.887 487.169L848.337 474.563Z" fill="#B4CCD2"/>
<path d="M910.192 462.87L850.742 475.476L858.175 509.782L910.192 462.87Z" fill="#B4CCD2"/>
</g>
<path d="M976.706 329.264L980.158 326.161L960.98 319.953L957.528 323.056L976.706 329.264ZM950.835 326.53L947.383 329.633L970.307 337.102L973.759 333.999L950.835 326.53ZM996.252 335.71L999.704 332.607L983.903 327.422L980.451 330.525L996.252 335.71ZM1003.42 333.717L999.965 336.82L1018.81 342.941L1022.26 339.838L1003.42 333.717ZM977.504 335.259L974.052 338.363L979.988 340.265L983.44 337.162L977.504 335.259ZM946.701 315.235L913.611 304.547L910.159 307.65L943.25 318.338L946.701 315.235ZM953.815 321.946L957.267 318.843L950.295 316.528L946.843 319.631L953.815 321.946ZM935.067 321.495L931.615 324.598L943.67 328.523L947.122 325.42L935.067 321.495ZM918.295 316.2L914.843 319.303L927.902 323.489L931.354 320.386L918.295 316.2ZM983.613 341.709L1000.08 347.069L1003.53 343.966L987.065 338.606L983.613 341.709Z" fill="#06566A"/>
<g opacity="0.7">
<path opacity="0.1" d="M891.609 350.625C894.52 347.953 898.683 345.964 902.918 345.066C906.095 344.392 909.097 344.388 911.623 345.117C911.925 345.052 912.627 345.378 912.81 345.497L938.259 353.695L940.45 354.337L963.708 361.893C965.23 362.361 967.884 363.695 968.714 364.626C969.543 365.556 970.373 366.487 970.781 367.665C971.94 370.897 970.679 374.642 967.108 377.928C964.197 380.6 960.035 382.589 955.799 383.487C952.623 384.161 949.62 384.165 947.095 383.436C946.792 383.5 946.091 383.175 945.907 383.056L920.458 374.858L918.267 374.216L895.009 366.66C893.487 366.192 890.833 364.858 890.004 363.927C889.174 362.997 888.345 362.066 887.937 360.888C886.777 357.656 888.038 353.911 891.609 350.625V350.625Z" fill="black"/>
<path opacity="0.1" d="M892.732 350.702C895.524 348.213 899.535 346.256 903.619 345.39C906.645 344.749 909.647 344.744 912.173 345.473C912.475 345.409 913.177 345.735 913.36 345.854L937.989 353.91L940.028 354.584L962.617 361.966C963.804 362.346 966.793 363.767 967.591 364.547C968.571 365.445 969.369 366.225 969.745 367.251C971.023 370.3 969.914 374.013 966.311 377.148C963.519 379.637 959.508 381.594 955.423 382.46C952.398 383.101 949.396 383.105 946.87 382.376C946.567 382.441 945.866 382.115 945.683 381.996L921.054 373.94L919.014 373.266L896.426 365.884C895.238 365.504 892.25 364.082 891.452 363.303C890.471 362.404 889.674 361.625 889.298 360.598C888.019 357.55 889.129 353.837 892.732 350.702V350.702Z" fill="black"/>
<path opacity="0.2" d="M893.703 350.812C896.495 348.323 900.387 346.549 904.32 345.715C907.345 345.074 910.196 345.102 912.539 345.712C912.69 345.679 913.543 345.973 913.726 346.092L937.653 353.822L939.693 354.496L961.58 361.553C962.616 361.965 965.756 363.355 966.522 363.983C967.502 364.881 968.268 365.509 968.795 366.504C970.193 369.369 969.203 372.899 965.599 376.034C962.808 378.522 958.916 380.296 954.983 381.13C951.957 381.772 949.106 381.744 946.764 381.134C946.612 381.166 945.76 380.873 945.577 380.753L921.649 373.023L919.609 372.349L897.722 365.293C896.686 364.88 893.546 363.491 892.781 362.863C891.8 361.964 891.034 361.336 890.507 360.342C889.11 357.476 890.1 353.947 893.703 350.812Z" fill="black"/>
<path opacity="0.2" d="M894.676 350.922C897.317 348.466 901.209 346.692 904.991 345.89C907.865 345.281 910.565 345.34 912.907 345.95C913.058 345.918 913.911 346.212 913.943 346.363L937.201 353.919L939.241 354.593L960.459 361.475C961.311 361.769 964.635 363.277 965.185 363.635C966.134 364.382 966.899 365.01 967.426 366.005C968.943 368.686 967.953 372.216 964.501 375.319C961.86 377.776 957.968 379.549 954.187 380.351C951.313 380.961 948.613 380.901 946.27 380.291C946.119 380.323 945.266 380.03 945.234 379.878L921.976 372.322L919.937 371.648L898.718 364.766C897.866 364.473 894.543 362.964 893.992 362.607C893.044 361.859 892.278 361.231 891.751 360.237C890.234 357.555 891.225 354.025 894.676 350.922Z" fill="black"/>
<path opacity="0.2" d="M895.799 350.999C898.471 348.694 902.06 346.984 905.691 346.214C908.414 345.637 911.114 345.697 913.456 346.307C913.456 346.307 914.309 346.6 914.46 346.568L936.865 353.831L938.722 354.385L959.271 361.093C959.94 361.268 963.566 362.712 963.965 363.101C965.033 363.665 965.83 364.445 966.325 365.288C967.961 367.787 967.122 371.284 963.789 374.204C961.117 376.509 957.528 378.219 953.897 378.988C951.174 379.566 948.474 379.506 946.132 378.896C946.132 378.896 945.279 378.603 945.128 378.635L922.723 371.372L920.866 370.817L900.317 364.109C899.648 363.935 896.022 362.491 895.623 362.101C894.555 361.537 893.758 360.758 893.263 359.915C891.627 357.416 892.466 353.919 895.799 350.999V350.999Z" fill="black"/>
<path opacity="0.2" d="M896.771 351.111C899.292 348.837 902.882 347.128 906.393 346.541C909.116 345.964 911.665 346.056 913.856 346.698C913.856 346.698 914.708 346.991 914.859 346.959L936.596 354.048L938.452 354.603L958.3 360.985C958.634 361.072 962.746 362.571 962.961 362.842C964.029 363.406 964.795 364.034 965.409 364.694C967.165 367.009 966.445 370.323 963.112 373.243C960.591 375.516 957.001 377.225 953.49 377.812C950.767 378.389 948.218 378.297 946.027 377.655C946.027 377.655 945.175 377.362 945.024 377.394L923.287 370.306L921.431 369.751L901.583 363.369C901.249 363.281 897.137 361.782 896.922 361.512C895.854 360.948 895.088 360.32 894.474 359.66C892.718 357.345 893.438 354.031 896.771 351.111V351.111Z" fill="black"/>
<path opacity="0.3" d="M897.742 351.222C900.112 348.981 903.583 347.454 907.062 346.717C909.633 346.171 912.182 346.263 914.222 346.937C914.222 346.937 915.074 347.231 915.226 347.199L936.261 353.962L937.966 354.548L957.144 360.757C957.295 360.724 961.558 362.192 961.59 362.343C962.626 362.756 963.543 363.352 964.157 364.012C966.032 366.143 965.312 369.457 962.131 372.345C959.76 374.586 956.29 376.113 952.811 376.85C950.24 377.396 947.691 377.304 945.651 376.63C945.651 376.63 944.799 376.336 944.647 376.368L923.612 369.605L921.907 369.018L902.729 362.81C902.577 362.842 898.315 361.375 898.282 361.224C897.247 360.811 896.33 360.215 895.716 359.555C893.841 357.424 894.561 354.109 897.742 351.222Z" fill="black"/>
<path opacity="0.3" d="M945.308 375.753L922.384 368.284L899.461 360.815C894.863 359.261 894.451 355.081 898.714 351.331C902.826 347.614 910.023 345.772 914.621 347.326L937.544 354.795L960.468 362.264C965.065 363.819 965.477 367.999 961.214 371.748C957.102 375.466 949.905 377.308 945.308 375.753V375.753Z" fill="black"/>
</g>
<path d="M945.33 369.9L888.615 351.418C882.863 349.634 882.345 344.211 887.539 339.632C892.733 335.053 901.562 332.707 907.346 334.642L964.061 353.124C969.814 354.908 970.331 360.331 965.137 364.909C959.944 369.488 951.115 371.835 945.33 369.9V369.9Z" fill="#ECFF00"/>
<path d="M941.376 355.721L939.235 351.591L937.223 353.282L921.941 348.303L920.079 349.962L935.362 354.941L933.5 356.601L941.376 355.721Z" fill="#06566A"/>
<path d="M957.652 360.174L959.362 358.547C960.412 357.534 960.156 356.324 958.785 355.824L956.929 355.269C955.558 354.77 953.44 355.219 952.239 356.264L950.529 357.891C949.828 357.565 948.92 357.758 948.411 358.34L944.029 362.273C943.488 362.703 943.616 363.309 944.286 363.483L951.409 365.766C952.078 365.94 952.986 365.748 953.527 365.317L957.909 361.384C958.45 360.954 958.322 360.349 957.652 360.174V360.174ZM950.854 362.406L949.773 363.268L948.92 362.974L950.002 362.113C949.786 361.842 949.874 361.508 950.144 361.292C950.534 360.893 951.441 360.701 951.959 360.907C952.477 361.114 952.573 361.567 952.184 361.966C951.913 362.182 951.34 362.461 950.854 362.406V362.406ZM955.979 359.739L952.051 358.359L953.523 357.098C954.183 356.484 955.393 356.227 956.094 356.553L957.098 356.814C957.951 357.108 958.079 357.713 957.419 358.327L955.947 359.587L955.979 359.739Z" fill="#06566A"/>
<path d="M900.419 462.254C898.714 461.667 896.532 461.814 894.662 462.684C895.042 461.497 894.181 460.415 892.627 459.796C890.252 459.035 886.773 459.773 884.761 461.464C881.309 464.567 885.388 471.132 885.388 471.132C885.388 471.132 897.961 470.046 901.413 466.943C903.275 465.284 902.826 463.166 900.451 462.405L900.419 462.254Z" fill="#E10098"/>
<path opacity="0.1" d="M754.707 568.545L647.819 533.355C640.177 530.865 637.909 520.913 643.85 515.386L747.431 416.442C750.342 413.77 754.426 412.904 758.02 414.196L869.658 450.909C877.482 453.517 879.599 463.501 873.507 469.061L765.145 566.332C762.353 568.82 758.269 569.686 754.707 568.545Z" fill="#979797"/>
<path opacity="0.1" d="M754.96 566.754L650.629 532.444C642.837 529.986 640.72 520.003 646.629 514.324L747.697 418.441C750.608 415.769 754.693 414.903 758.438 416.164L867 451.79C874.824 454.398 876.941 464.382 870.849 469.942L765.7 564.476C762.757 566.997 758.856 567.982 755.111 566.722L754.96 566.754Z" fill="#979797"/>
<path opacity="0.2" d="M755.244 565.112L653.471 531.682C645.646 529.074 643.378 519.122 649.47 513.562L748.027 420.742C750.938 418.07 755.022 417.203 758.767 418.464L864.102 453.035C871.926 455.644 874.227 465.747 867.983 471.339L766.016 562.986C763.105 565.658 759.172 566.492 755.427 565.231L755.244 565.112Z" fill="#979797"/>
<path opacity="0.2" d="M755.528 563.471L656.129 530.803C648.305 528.194 646.004 518.091 652.248 512.499L748.292 422.74C751.203 420.068 755.287 419.202 759.032 420.463L861.172 454.131C869.148 456.708 871.297 466.843 865.053 472.435L766.117 561.226C763.206 563.898 759.122 564.764 755.528 563.471V563.471Z" fill="#979797"/>
<path opacity="0.2" d="M755.965 561.798L659.123 530.011C651.148 527.434 648.999 517.299 655.21 511.556L748.926 424.978C751.837 422.306 755.921 421.44 759.666 422.701L858.579 455.314C866.555 457.891 868.736 468.177 862.492 473.769L766.737 559.672C763.826 562.345 759.742 563.211 755.997 561.95L755.965 561.798Z" fill="#979797"/>
<path opacity="0.2" d="M756.248 560.157L661.933 529.098C653.957 526.522 651.776 516.235 658.02 510.643L749.223 427.128C752.134 424.456 756.218 423.59 759.963 424.851L855.649 456.409C863.625 458.986 865.806 469.272 859.594 475.015L767.053 558.183C764.142 560.855 760.058 561.721 756.313 560.46L756.248 560.157Z" fill="#979797"/>
<path opacity="0.3" d="M756.532 558.517L664.775 528.338C656.799 525.761 654.618 515.475 660.829 509.732L749.52 429.278C752.431 426.606 756.516 425.74 760.412 426.969L852.871 457.473C860.847 460.05 863.06 470.487 856.816 476.079L767.456 556.359C764.545 559.031 760.461 559.897 756.716 558.636L756.532 558.517Z" fill="#979797"/>
<path opacity="0.3" d="M756.937 556.692L667.553 527.275C659.426 524.73 657.213 514.292 663.576 508.517L749.755 431.125C752.666 428.453 756.901 427.555 760.646 428.816L850.03 458.233C858.157 460.778 860.37 471.215 854.007 476.991L767.828 554.383C764.917 557.055 760.682 557.953 756.937 556.692V556.692Z" fill="#979797"/>
<path d="M757.771 555.408L615.903 508.825L744.316 393.55L886.184 440.134L757.771 555.408Z" fill="#065669"/>
<g style="mix-blend-mode:color-dodge">
<path d="M757.451 553.895L617.884 506.982L615.904 508.824L757.771 555.408L886.033 440.166L883.851 440.312L757.451 553.895Z" fill="#231F20"/>
</g>
<path opacity="0.5" d="M726.485 509.245L714.764 505.407L712.092 507.712L723.812 511.55L726.485 509.245ZM729.268 505.967L741.474 509.86L744.147 507.555L731.94 503.662L729.268 505.967ZM745.926 504.016L751.192 505.745L753.865 503.439L748.598 501.711L745.926 504.016ZM734.832 515.062L746.553 518.9L749.225 516.594L737.504 512.757L734.832 515.062ZM744.215 510.86L749.482 512.588L752.155 510.283L746.888 508.554L744.215 510.86ZM676.298 488.746L682.935 490.974L685.608 488.669L678.97 486.441L676.298 488.746ZM695.251 499.112L691.172 497.764L688.499 500.069L692.579 501.417L695.251 499.112ZM697.328 492.507L688.349 489.668L685.676 491.974L694.656 494.812L697.328 492.507ZM717.025 498.921L700.037 493.355L697.365 495.66L714.352 501.226L717.025 498.921ZM723.771 515.827L711.564 511.934L708.892 514.24L721.098 518.132L723.771 515.827ZM686.534 484.837L705.043 490.871L707.716 488.565L689.206 482.531L686.534 484.837ZM731.679 499.449L743.4 503.287L746.073 500.981L734.352 497.144L731.679 499.449ZM726.479 527.108L729.152 524.803L724.586 523.4L721.914 525.705L726.479 527.108ZM748.033 523.644L726.631 516.643L723.959 518.949L745.36 525.95L748.033 523.644ZM731.492 496.328L717.245 491.761L714.573 494.066L728.819 498.633L731.492 496.328ZM694.059 506.162L679.629 501.476L676.957 503.781L691.386 508.467L694.059 506.162ZM729.263 502.965L719.766 499.921L717.093 502.226L726.591 505.27L729.263 502.965ZM676.92 500.628L667.941 497.789L665.268 500.095L674.248 502.933L676.92 500.628ZM667.313 493.338L685.822 499.372L688.495 497.067L669.986 491.033L667.313 493.338ZM683.52 510.135L665.011 504.101L662.338 506.407L680.848 512.441L683.52 510.135ZM712.271 504.829L698.024 500.263L695.352 502.568L709.598 507.135L712.271 504.829ZM721.726 522.583L710.005 518.746L707.333 521.051L719.053 524.889L721.726 522.583ZM690.529 515.604L704.775 520.171L707.447 517.865L693.201 513.299L690.529 515.604ZM708.855 511.086L696.8 507.161L694.127 509.467L706.183 513.391L708.855 511.086ZM683.589 513.44L687.668 514.788L690.341 512.483L686.261 511.135L683.589 513.44ZM773.626 510.156L770.953 512.462L785.717 517.235L788.39 514.929L773.626 510.156ZM762.417 524.388L773.954 528.107L776.627 525.801L765.089 522.083L762.417 524.388ZM748.317 527.22L767.83 533.515L770.502 531.21L750.989 524.914L748.317 527.22ZM686.378 481.866L669.088 476.364L666.416 478.67L683.706 484.172L686.378 481.866V481.866ZM754.149 507.015L768.395 511.581L771.068 509.276L756.822 504.709L754.149 507.015ZM707.816 492.022L711.896 493.37L714.568 491.064L710.489 489.716L707.816 492.022ZM782.265 520.338L754.41 511.227L751.737 513.533L779.593 522.643L782.265 520.338ZM762.898 521.441L751.879 517.929L749.206 520.234L760.226 523.746L762.898 521.441ZM734.708 512.243L729.442 510.515L726.769 512.82L732.036 514.549L734.708 512.243ZM676.174 485.927L663.115 481.741L660.442 484.046L673.502 488.232L676.174 485.927V485.927ZM662.183 503.436L645.076 498.053L642.404 500.359L659.51 505.742L662.183 503.436ZM665.264 497.092L651.201 492.645L648.528 494.95L662.591 499.398L665.264 497.092ZM667.157 490.368L657.174 487.269L654.501 489.574L664.485 492.674L667.157 490.368Z" fill="#E9E9E9"/>
<path opacity="0.7" d="M864.031 446.728L849.784 442.162L847.112 444.467L861.358 449.034L864.031 446.728Z" fill="#ECFF00"/>
<path opacity="0.7" d="M825.642 434.161L815.292 430.823L812.619 433.128L823.001 436.617L825.642 434.161Z" fill="#ECFF00"/>
<path opacity="0.7" d="M825.119 441.386L809.318 436.2L806.646 438.506L822.597 443.659L825.119 441.386Z" fill="#ECFF00"/>
<path opacity="0.7" d="M846.892 441.194L828.383 435.16L825.862 437.433L844.371 443.467L846.892 441.194Z" fill="#ECFF00"/>
<path opacity="0.7" d="M846.186 448.299L837.326 445.277L834.685 447.734L843.665 450.572L846.186 448.299Z" fill="#ECFF00"/>
<path opacity="0.7" d="M827.828 442.231L825.338 444.656L831.944 446.733L834.616 444.428L827.828 442.231Z" fill="#ECFF00"/>
<g opacity="0.7">
<path opacity="0.7" d="M799.782 456.083L806.387 458.16L809.06 455.855L802.271 453.659L799.782 456.083Z" fill="#E9E9E9"/>
<path opacity="0.7" d="M818.551 466.33L814.472 464.982L811.983 467.407L816.062 468.755L818.551 466.33Z" fill="#E9E9E9"/>
<path opacity="0.7" d="M820.629 459.723L811.769 456.702L809.129 459.158L818.108 461.997L820.629 459.723Z" fill="#E9E9E9"/>
<path opacity="0.7" d="M809.836 452.056L828.345 458.09L830.985 455.633L812.476 449.599L809.836 452.056Z" fill="#E9E9E9"/>
<path opacity="0.7" d="M790.581 460.406L809.091 466.44L811.763 464.134L793.254 458.1L790.581 460.406Z" fill="#E9E9E9"/>
<path opacity="0.7" d="M809.766 448.75L799.082 445.325L796.56 447.598L807.094 451.055L809.766 448.75Z" fill="#E9E9E9"/>
<path opacity="0.7" d="M831.053 458.937L835.284 460.253L837.805 457.979L833.726 456.631L831.053 458.937Z" fill="#E9E9E9"/>
<path opacity="0.7" d="M799.563 452.811L793.109 450.702L790.588 452.976L797.042 455.085L799.563 452.811Z" fill="#E9E9E9"/>
<path opacity="0.7" d="M790.545 457.252L787.135 456.078L784.462 458.384L787.873 459.557L790.545 457.252Z" fill="#E9E9E9"/>
</g>
<path d="M751.601 441.323L695.75 453.008L758.584 473.512L751.601 441.323Z" fill="#AEB833"/>
<path d="M746.479 407.477L753.463 439.665L809.281 427.829L746.479 407.477Z" fill="#AEB833"/>
<path d="M751.345 440.114L744.362 407.925L695.494 451.798L751.345 440.114Z" fill="#9CA34C"/>
<path d="M809.539 429.04L753.72 440.876L760.703 473.065L809.539 429.04Z" fill="#AEB833"/>
<path d="M792.725 467.538C791.02 466.951 788.838 467.097 786.968 467.968C787.349 466.781 786.487 465.699 784.933 465.08C782.559 464.319 779.079 465.057 777.067 466.748C773.615 469.851 777.694 476.416 777.694 476.416C777.694 476.416 790.268 475.33 793.72 472.227C795.581 470.568 795.132 468.45 792.758 467.689L792.725 467.538Z" fill="#E10098"/>
<path opacity="0.1" d="M814.851 445.144L713.325 412.137C703.46 408.854 700.798 396.299 708.481 389.295L803.48 303.552C807.051 300.266 812.043 299.207 816.792 300.729L918.318 333.737C928.182 337.02 930.844 349.575 923.161 356.579L828.162 442.322C824.591 445.608 819.599 446.667 814.851 445.144V445.144Z" fill="#21313C"/>
<path opacity="0.1" d="M815.318 443.622L714.796 410.876C705.116 407.713 702.517 395.46 710.081 388.639L803.219 304.556C806.671 301.453 811.663 300.394 816.077 301.829L916.599 334.575C926.28 337.739 928.878 349.992 921.314 356.812L828.176 440.896C824.725 443.999 819.733 445.058 815.318 443.622V443.622Z" fill="#21313C"/>
<path opacity="0.2" d="M815.635 442.132L716.3 409.767C706.954 406.69 704.42 394.74 711.713 388.135L802.99 305.71C806.441 302.607 811.131 301.613 815.545 303.048L914.88 335.414C924.226 338.49 926.76 350.441 919.467 357.046L828.19 439.47C824.738 442.573 820.049 443.568 815.635 442.132V442.132Z" fill="#21313C"/>
<path opacity="0.2" d="M815.919 440.492L717.62 408.539C708.609 405.549 706.139 393.902 713.194 387.663L802.641 307.049C805.974 304.13 810.512 303.167 814.743 304.483L913.042 336.436C922.053 339.426 924.523 351.074 917.468 357.312L828.021 437.926C824.688 440.845 820.15 441.808 815.919 440.492Z" fill="#21313C"/>
<path opacity="0.2" d="M816.387 438.969L719.275 407.397C710.447 404.527 708.073 393.333 714.977 387.127L802.412 308.204C805.594 305.316 810.132 304.354 814.211 305.702L911.323 337.274C920.151 340.145 922.525 351.339 915.621 357.545L828.186 436.468C825.005 439.355 820.467 440.317 816.387 438.969V438.969Z" fill="#21313C"/>
<path opacity="0.2" d="M816.671 437.328L720.563 406.017C712.069 403.234 709.76 392.342 716.393 386.351L801.967 309.088C804.997 306.232 809.384 305.302 813.312 306.682L909.42 337.993C917.914 340.776 920.223 351.668 913.59 357.658L828.016 434.922C824.986 437.778 820.599 438.708 816.671 437.328Z" fill="#21313C"/>
<path opacity="0.3" d="M816.987 435.838L722.067 404.907C713.907 402.211 711.662 391.622 718.025 385.847L801.737 310.242C804.648 307.57 808.884 306.672 812.78 307.901L907.701 338.831C915.86 341.527 918.105 352.116 911.742 357.892L828.03 433.496C825.119 436.168 820.883 437.066 816.987 435.838Z" fill="#21313C"/>
<path opacity="0.3" d="M817.423 434.165L723.538 403.647C715.562 401.07 713.413 390.935 719.657 385.344L801.389 311.582C804.3 308.909 808.384 308.043 811.978 309.336L905.863 339.854C913.838 342.431 915.988 352.566 909.744 358.158L828.012 431.92C825.101 434.592 821.017 435.458 817.423 434.165Z" fill="#21313C"/>
<path d="M818.991 433.358L684.86 389.718L799.943 286.122L934.073 329.762L818.991 433.358Z" fill="#9BBBC3"/>
<path d="M917.354 344.846L783.224 301.206L804.747 281.942L938.877 325.582L917.354 344.846Z" fill="#06708A"/>
<path d="M870.959 363.852L772.142 331.693L788.416 317.494L887.233 349.653L870.959 363.852Z" fill="#E9E9E9"/>
<path d="M848.18 384.646L749.363 352.487L765.637 338.287L864.454 370.446L848.18 384.646Z" fill="#E9E9E9"/>
<path d="M809.21 416.305L757.945 399.67C753.013 398.029 752.536 393.546 757.038 389.43C761.54 385.314 769.19 383.375 774.122 385.017L825.387 401.651C830.319 403.293 830.796 407.776 826.294 411.892C821.792 416.008 814.142 417.946 809.21 416.305Z" fill="#06566A"/>
<g style="mix-blend-mode:multiply">
<path d="M848.73 400.655L723.277 359.917L724.239 359.238L849.724 400.128L848.73 400.655Z" fill="#9BBBC3"/>
</g>
<path opacity="0.5" d="M913.941 330.238L920.143 328.923C920.748 328.794 920.987 328.428 920.922 328.125C920.858 327.823 920.34 327.616 919.887 327.713L913.684 329.028L912.947 325.548C912.883 325.246 912.365 325.04 911.911 325.136C911.306 325.264 911.067 325.631 911.131 325.933L911.869 329.413L905.818 330.696C905.213 330.824 904.975 331.191 905.039 331.493C905.071 331.644 905.103 331.796 905.438 331.883C905.772 331.97 905.924 331.938 906.226 331.874L912.428 330.559L913.166 334.038C913.198 334.189 913.23 334.34 913.565 334.427C913.899 334.515 914.051 334.483 914.353 334.418C914.958 334.29 915.197 333.923 915.133 333.621L914.395 330.142L913.941 330.238Z" fill="#E9E9E9"/>
<g style="mix-blend-mode:color-dodge">
<path d="M818.734 432.147L686.451 388.273L684.861 389.717L818.991 433.357L938.575 325.646L936.695 325.728L818.734 432.147Z" fill="#231F20"/>
</g>
<path opacity="0.8" d="M804.398 404.048L802.106 399.95L800.245 401.609L784.963 396.63L783.102 398.289L798.384 403.268L796.523 404.927L804.398 404.048Z" fill="#ECFF00"/>
<path d="M793.516 331.112C792.966 330.755 792.535 330.214 792.439 329.76C792.375 329.457 792.765 329.058 793.37 328.93C794.126 328.77 794.883 328.609 795.423 328.179C795.877 328.082 796.514 328.105 796.785 327.89C797.055 327.675 797.143 327.34 796.927 327.069C798.247 325.841 798.596 324.503 796.221 323.741C793.847 322.98 791.977 323.851 790.624 324.928C790.322 324.992 789.868 325.089 789.446 325.336C789.176 325.552 789.272 326.005 789.607 326.092C789.4 326.61 789.345 327.096 789.409 327.399C789.474 327.701 789.084 328.1 788.479 328.228C787.571 328.421 786.632 328.462 785.66 328.352C784.505 328.123 783.024 328.595 782.245 329.392L780.773 330.653C780.503 330.868 780.567 331.171 780.901 331.258L790.734 334.389C791.068 334.477 791.522 334.38 791.944 334.133L793.415 332.872C794.195 332.075 794.186 331.286 793.452 330.81L793.516 331.112Z" fill="#E10098"/>
<path d="M773.92 349.02L775.63 347.392C776.679 346.379 776.423 345.169 775.052 344.67L773.196 344.115C771.825 343.615 769.708 344.064 768.507 345.109L766.797 346.736C766.095 346.411 765.188 346.603 764.679 347.185L760.296 351.118C759.755 351.549 759.884 352.154 760.553 352.328L767.676 354.611C768.345 354.786 769.253 354.593 769.794 354.162L774.176 350.23C774.717 349.799 774.589 349.194 773.92 349.02V349.02ZM767.122 351.251L766.04 352.113L765.187 351.82L766.269 350.958C766.054 350.687 766.141 350.353 766.411 350.137C766.801 349.739 767.709 349.546 768.227 349.752C768.744 349.959 768.841 350.413 768.451 350.811C768.181 351.027 767.608 351.306 767.122 351.251V351.251ZM772.247 348.584L768.318 347.204L769.79 345.943C770.45 345.329 771.66 345.073 772.362 345.398L773.365 345.659C774.218 345.953 774.346 346.558 773.686 347.172L772.215 348.433L772.247 348.584Z" fill="#E10098"/>
<path opacity="0.1" d="M964.425 350.361L840.787 309.238C834.333 307.129 832.417 298.841 837.46 294.294L856.224 272.454C858.594 270.212 862.073 269.475 865.149 270.561L992.866 313.032C999.32 315.141 1001.12 323.612 996.074 328.159L973.231 348.652C970.828 350.742 967.5 351.448 964.457 350.512L964.425 350.361Z" fill="#21313C"/>
<path opacity="0.1" d="M964.74 348.871L843.142 308.422C836.688 306.313 834.772 298.025 839.783 293.327L856.543 273.966C858.913 271.725 862.392 270.987 865.468 272.074L990.476 313.697C997.082 315.774 998.878 324.245 993.684 328.824L973.513 347.011C971.111 349.101 967.783 349.807 964.74 348.871Z" fill="#21313C"/>
<path opacity="0.2" d="M964.938 347.566L845.563 307.91C838.958 305.833 837.162 297.362 842.323 292.632L856.961 275.934C859.331 273.692 862.81 272.955 865.886 274.041L988.153 314.664C994.759 316.741 996.555 325.212 991.393 329.943L973.863 345.673C971.493 347.914 968.165 348.62 965.089 347.533L964.938 347.566Z" fill="#21313C"/>
<path opacity="0.2" d="M965.253 346.076L847.918 307.095C841.313 305.018 839.517 296.547 844.678 291.816L857.313 277.598C859.683 275.357 863.162 274.619 866.238 275.706L985.796 315.481C992.433 317.709 994.23 326.18 989.036 330.759L974.178 344.184C971.808 346.425 968.329 347.163 965.253 346.076V346.076Z" fill="#21313C"/>
<path opacity="0.2" d="M965.603 344.737L850.307 306.429C843.67 304.201 841.874 295.73 847.036 290.999L857.547 279.444C859.917 277.203 863.397 276.465 866.624 277.52L983.624 316.414C990.261 318.643 992.058 327.114 986.896 331.844L974.679 342.812C972.309 345.053 968.83 345.791 965.754 344.705L965.603 344.737Z" fill="#21313C"/>
<path opacity="0.2" d="M965.767 343.281L852.663 305.615C846.025 303.387 844.078 294.948 849.391 290.185L857.9 281.11C860.27 278.869 863.749 278.131 866.976 279.185L981.267 317.232C987.905 319.46 989.733 328.082 984.539 332.661L974.995 341.324C972.625 343.565 969.145 344.303 966.07 343.217L965.767 343.281Z" fill="#21313C"/>
<path opacity="0.3" d="M966.116 341.94L855.051 304.948C848.263 302.752 846.434 294.13 851.747 289.368L858.133 282.955C860.503 280.714 863.982 279.976 867.209 281.031L978.792 318.229C985.581 320.425 987.409 329.047 982.096 333.81L975.041 340.048C972.671 342.289 969.191 343.027 965.964 341.972L966.116 341.94Z" fill="#21313C"/>
<path opacity="0.3" d="M966.281 340.483L857.408 304.133C850.619 301.937 848.791 293.315 854.104 288.552L858.487 284.62C861.008 282.346 864.336 281.641 867.563 282.695L976.436 319.045C983.225 321.241 985.053 329.864 979.74 334.626L975.358 338.559C972.836 340.832 969.508 341.538 966.281 340.483V340.483Z" fill="#21313C"/>
<path d="M970.1 342.835L828.232 296.251L866.506 262.054L1008.22 308.67L970.1 342.835Z" fill="#06708A"/>
<g style="mix-blend-mode:color-dodge">
<path d="M969.779 341.323L830.213 294.409L828.233 296.252L970.1 342.835L1008.22 308.67L1005.89 308.849L969.779 341.323Z" fill="#231F20"/>
</g>
<path d="M969.193 327.377L854.393 289.913L870.667 275.714L985.467 313.178L969.193 327.377Z" fill="#E9E9E9"/>
<path d="M970.326 323.029L969.588 319.549C969.524 319.247 969.006 319.041 968.369 319.018L968.144 317.959C971.106 317.015 973.086 315.172 972.701 313.357C972.284 311.39 969.057 310.336 965.729 311.041C962.401 311.747 959.88 314.02 960.297 315.987C960.682 317.802 963.423 318.802 966.513 318.463L966.737 319.522C966.132 319.65 965.774 320.2 965.838 320.503L966.576 323.982C966.672 324.436 967.342 324.61 968.098 324.449L969.157 324.225C969.913 324.065 970.454 323.634 970.358 323.18L970.326 323.029ZM967.012 317.092C964.743 317.573 962.703 316.899 962.415 315.538C962.126 314.176 963.717 312.733 965.986 312.252C968.255 311.77 970.295 312.444 970.583 313.806C970.872 315.167 969.281 316.611 967.012 317.092Z" fill="#E10098"/>
<path d="M748.864 456.454L731.876 450.887L729.204 453.193L746.191 458.759L748.864 456.454Z" fill="#ECFF00"/>
<path d="M708.1 443.125L685.543 435.894L682.87 438.2L705.427 445.43L708.1 443.125Z" fill="#ECFF00"/>
<path d="M751.572 457.301L749.051 459.575L753.465 461.01L755.986 458.736L751.572 457.301Z" fill="#ECFF00"/>
<path d="M729.135 449.888L720.156 447.05L717.634 449.323L726.495 452.345L729.135 449.888Z" fill="#ECFF00"/>
<path d="M710.809 443.973L708.137 446.279L714.925 448.475L717.446 446.202L710.809 443.973Z" fill="#ECFF00"/>
<path d="M756.207 462.01L768.414 465.903L770.935 463.629L758.847 459.553L756.207 462.01Z" fill="#ECFF00"/>
<g opacity="0.1">
<path d="M761.29 468.834L744.334 463.419L741.813 465.692L758.8 471.258L761.29 468.834Z" fill="black"/>
<path d="M720.558 455.656L698.001 448.425L695.48 450.699L717.885 457.961L720.558 455.656Z" fill="black"/>
<path d="M764.181 469.8L761.509 472.106L765.923 473.541L768.596 471.236L764.181 469.8Z" fill="black"/>
<path d="M741.593 462.418L732.765 459.548L730.092 461.853L739.104 464.843L741.593 462.418Z" fill="black"/>
<path d="M723.267 456.505L720.746 458.778L727.383 461.007L730.056 458.701L723.267 456.505Z" fill="black"/>
<path d="M768.664 474.542L780.87 478.434L783.543 476.129L771.304 472.085L768.664 474.542Z" fill="black"/>
</g>
</g>
<defs>
<clipPath id="clip0_1833_4662">
<rect width="1139" height="668" fill="white"/>
</clipPath>
</defs>
</svg>
