<svg width="200" height="60" viewBox="0 0 200 60" fill="none" xmlns="http://www.w3.org/2000/svg">
<g clip-path="url(#clip0_717_3654)">
<mask id="mask0_717_3654" style="mask-type:alpha" maskUnits="userSpaceOnUse" x="105" y="18" width="26" height="26">
<ellipse cx="117.945" cy="31.0442" rx="12.7215" ry="12.888" fill="#C4C4C4"/>
</mask>
<g mask="url(#mask0_717_3654)">
<path d="M117.636 30.9758L123.698 43.2325L126.772 41.273L128.932 38.0721L117.636 30.9758Z" fill="#335E8B"/>
<path d="M117.636 30.9758L103.609 23.3851L109.764 16.2888L117.636 30.9758Z" fill="#ED6D20"/>
<path d="M117.636 30.9758L103.232 32.1988L104.93 37.8354L117.636 30.9758Z" fill="#F9B000" fill-opacity="0.7"/>
<path d="M117.636 30.9758L122.494 15.6444L115.069 15L117.636 30.9758Z" fill="#F07E48"/>
<path d="M117.636 30.9758L128.437 19.7291L118.368 17.2935L117.636 30.9758Z" fill="#BE1622" fill-opacity="0.7"/>
<path d="M117.636 30.9758L132.256 27.4671L125.89 16.7201L117.636 30.9758Z" fill="#714982" fill-opacity="0.5"/>
<path d="M117.636 30.9758L107.664 41.273L113.9 44.7028L117.636 30.9758Z" fill="#009FE3" fill-opacity="0.2"/>
<path d="M117.636 30.9758L111.909 44.5213L119.454 45L117.636 30.9758Z" fill="#009FE3" fill-opacity="0.5"/>
<path d="M117.636 30.9758L115.988 44.5581L125.254 43.2325L117.636 30.9758Z" fill="#0062AE" fill-opacity="0.7"/>
<path d="M117.636 30.9758L130.534 33.2009L132.681 23.8138L117.636 30.9758Z" fill="#5F73B6" fill-opacity="0.7"/>
<path d="M117.639 21.2835C115.746 21.2835 113.896 21.8522 112.322 22.9177C110.749 23.9832 109.523 25.4975 108.799 27.2692C108.075 29.0408 107.886 30.9901 108.256 32.8705C108.626 34.7509 109.538 36.4779 110.877 37.833C112.217 39.1881 113.922 40.1103 115.779 40.4831C117.635 40.8559 119.559 40.6625 121.307 39.9273C123.055 39.1921 124.549 37.9482 125.599 36.3529C126.649 34.7576 127.208 32.8827 127.206 30.9653C127.203 28.3966 126.194 25.934 124.4 24.1186C122.606 22.3032 120.174 21.2835 117.639 21.2835ZM117.639 37.3119C116.401 37.313 115.191 36.9423 114.162 36.2468C113.133 35.5512 112.33 34.5621 111.855 33.4044C111.381 32.2467 111.255 30.9724 111.496 29.7427C111.736 28.5129 112.331 27.383 113.205 26.4956C114.079 25.6083 115.193 25.0035 116.406 24.7576C117.62 24.5117 118.878 24.6357 120.021 25.1142C121.165 25.5926 122.143 26.4038 122.832 27.4453C123.521 28.4867 123.889 29.7117 123.891 30.9653C123.892 31.798 123.731 32.6229 123.418 33.3926C123.104 34.1624 122.644 34.862 122.063 35.4515C121.483 36.0409 120.793 36.5086 120.034 36.8279C119.275 37.1471 118.461 37.3116 117.639 37.3119Z" fill="white"/>
<path d="M117.636 30.9758L108.124 20.1946L104.588 27.7433L117.636 30.9758Z" fill="#F39200" fill-opacity="0.7"/>
<path d="M117.636 30.9758L127.68 39.9273L130.804 35.0526L117.636 30.9758Z" fill="#164194" fill-opacity="0.7"/>
<path d="M117.636 30.9758L123.698 43.2325L126.772 41.273L128.932 38.0721L117.636 30.9758Z" fill="#335E8B"/>
<path d="M117.636 30.9758L103.609 23.3851L109.764 16.2888L117.636 30.9758Z" fill="#ED6D20"/>
<path d="M117.636 30.9758L103.232 32.1988L104.93 37.8354L117.636 30.9758Z" fill="#F9B000" fill-opacity="0.7"/>
<path d="M117.636 30.9758L122.494 15.6444L115.069 15L117.636 30.9758Z" fill="#F07E48"/>
<path d="M117.636 30.9758L128.437 19.7291L118.368 17.2935L117.636 30.9758Z" fill="#BE1622" fill-opacity="0.7"/>
<path d="M117.636 30.9758L132.256 27.4671L125.89 16.7201L117.636 30.9758Z" fill="#714982" fill-opacity="0.5"/>
<path d="M117.636 30.9758L107.664 41.273L113.9 44.7028L117.636 30.9758Z" fill="#009FE3" fill-opacity="0.2"/>
<path d="M117.636 30.9758L111.909 44.5213L119.454 45L117.636 30.9758Z" fill="#009FE3" fill-opacity="0.5"/>
<path d="M117.636 30.9758L115.988 44.5581L125.254 43.2325L117.636 30.9758Z" fill="#0062AE" fill-opacity="0.7"/>
<path d="M117.636 30.9758L130.534 33.2009L132.681 23.8138L117.636 30.9758Z" fill="#5F73B6" fill-opacity="0.7"/>
<path d="M117.639 21.2835C115.746 21.2835 113.896 21.8522 112.322 22.9177C110.749 23.9832 109.523 25.4975 108.799 27.2692C108.075 29.0408 107.886 30.9901 108.256 32.8705C108.626 34.7509 109.538 36.4779 110.877 37.833C112.217 39.1881 113.922 40.1103 115.779 40.4831C117.635 40.8559 119.559 40.6625 121.307 39.9273C123.055 39.1921 124.549 37.9482 125.599 36.3529C126.649 34.7576 127.208 32.8827 127.206 30.9653C127.203 28.3966 126.194 25.934 124.4 24.1186C122.606 22.3032 120.174 21.2835 117.639 21.2835ZM117.639 37.3119C116.401 37.313 115.191 36.9423 114.162 36.2468C113.133 35.5512 112.33 34.5621 111.855 33.4044C111.381 32.2467 111.255 30.9724 111.496 29.7427C111.736 28.5129 112.331 27.383 113.205 26.4956C114.079 25.6083 115.193 25.0035 116.406 24.7576C117.62 24.5117 118.878 24.6357 120.021 25.1142C121.165 25.5926 122.143 26.4038 122.832 27.4453C123.521 28.4867 123.889 29.7117 123.891 30.9653C123.892 31.798 123.731 32.6229 123.418 33.3926C123.104 34.1624 122.644 34.862 122.063 35.4515C121.483 36.0409 120.793 36.5086 120.034 36.8279C119.275 37.1471 118.461 37.3116 117.639 37.3119Z" fill="white"/>
<path d="M117.636 30.9758L108.124 20.1946L104.588 27.7433L117.636 30.9758Z" fill="#F39200" fill-opacity="0.7"/>
<path d="M117.636 30.9758L127.68 39.9273L130.804 35.0526L117.636 30.9758Z" fill="#164194" fill-opacity="0.7"/>
</g>
<path d="M65.6466 39.4528V30.284C65.6487 29.6416 65.5975 29.0002 65.4935 28.3666C65.4035 27.8102 65.2134 27.2752 64.9327 26.7884C64.6607 26.3332 64.277 25.9572 63.8189 25.6969C63.258 25.4042 62.632 25.2629 62.0015 25.2866C61.4062 25.2713 60.8154 25.3953 60.2751 25.649C59.7348 25.9026 59.2594 26.279 58.886 26.749C58.0838 27.7222 57.6762 29.0451 57.6762 30.6785V39.4607H54.2414V26.4544C54.2414 26.0204 54.2414 25.4576 54.2076 24.7369C54.1739 24.0162 54.1479 23.4218 54.1038 22.88V22.7827H57.3672V22.8616C57.414 23.285 57.4477 23.7637 57.4711 24.2898C57.4919 24.7474 57.5022 25.1262 57.5048 25.4418C57.7189 25.0263 57.9889 24.643 58.3071 24.3029C58.6781 23.9057 59.0977 23.5584 59.5559 23.2692C60.5492 22.6488 61.6939 22.3218 62.8609 22.325C63.8158 22.3011 64.7643 22.4906 65.6388 22.88C66.3815 23.2253 67.0414 23.7296 67.573 24.3581C68.0993 24.995 68.4892 25.7357 68.718 26.5333C68.9678 27.3977 69.092 28.2944 69.0866 29.1951V39.4528H65.6466Z" fill="#6A8C9D"/>
<path d="M138.307 39.4527V26.4543C138.307 26.0203 138.307 25.4574 138.274 24.7368C138.24 24.0161 138.214 23.4217 138.17 22.8799V22.7825H141.433V22.8614C141.48 23.2849 141.514 23.7767 141.537 24.3265C141.558 24.8025 141.568 25.1944 141.571 25.5127C142.027 24.589 142.716 23.8035 143.567 23.2349C144.472 22.6317 145.533 22.3149 146.615 22.3249C147.052 22.3179 147.488 22.3665 147.913 22.4695L147.981 22.488L147.836 25.7257L147.729 25.6994C147.248 25.5807 146.755 25.5224 146.26 25.5258C145.568 25.514 144.884 25.6653 144.261 25.9677C143.711 26.2365 143.227 26.6254 142.843 27.1066C142.461 27.6043 142.178 28.1724 142.01 28.7794C141.825 29.4283 141.733 30.1004 141.734 30.7757V39.4553L138.307 39.4527Z" fill="#6A8C9D"/>
<path d="M38.703 33.9399C37.6956 35.405 36.2833 36.5701 33.8428 36.5701C32.6441 36.57 31.478 36.1744 30.521 35.4431C29.564 34.7118 28.8682 33.6846 28.5387 32.517H42.5584C42.6482 32.0083 42.6934 31.4925 42.6934 30.9757C42.6939 29.2031 42.1753 27.4702 41.2033 25.9963C40.2312 24.5224 38.8495 23.3738 37.2328 22.6958C35.6161 22.0178 33.8373 21.841 32.1213 22.1876C30.4054 22.5343 28.8296 23.3888 27.5932 24.6432C26.3569 25.8975 25.5157 27.4952 25.1761 29.2341C24.8364 30.973 25.0136 32.7749 25.6852 34.4117C26.3568 36.0485 27.4926 37.4467 28.9489 38.4293C30.4052 39.4118 32.1165 39.9346 33.8662 39.9315C35.3659 39.9413 36.8447 39.5748 38.1707 38.8649C39.4966 38.1549 40.6285 37.1235 41.4654 35.8626L38.703 33.9399ZM33.8428 25.3865C35.0327 25.3862 36.1907 25.7755 37.1443 26.4965C38.0978 27.2174 38.7958 28.2314 39.1339 29.3871H28.5491C28.8878 28.2312 29.5862 27.2172 30.5402 26.4962C31.4942 25.7753 32.6527 25.386 33.8428 25.3865Z" fill="#6A8C9D"/>
<path d="M171.023 33.9399C170.015 35.4049 168.603 36.5701 166.16 36.5701C164.961 36.5694 163.796 36.1735 162.84 35.4423C161.883 34.711 161.188 33.6842 160.858 32.5169H174.878C175.187 30.7102 174.941 28.8509 174.172 27.1908C173.403 25.5307 172.149 24.1501 170.58 23.2362C169.011 22.3222 167.203 21.919 165.4 22.0812C163.597 22.2434 161.887 22.9632 160.501 24.143C159.115 25.3228 158.121 26.9057 157.653 28.677C157.186 30.4484 157.266 32.3226 157.885 34.0459C158.504 35.7691 159.631 37.2579 161.113 38.3107C162.595 39.3635 164.36 39.9293 166.17 39.9315C167.67 39.9426 169.149 39.5768 170.476 38.8667C171.802 38.1566 172.933 37.1244 173.769 35.8626L171.023 33.9399ZM166.16 25.3865C167.35 25.3864 168.508 25.7758 169.462 26.4967C170.416 27.2176 171.114 28.2313 171.453 29.387H160.869C161.207 28.2313 161.905 27.2174 162.858 26.4964C163.812 25.7755 164.97 25.3861 166.16 25.3865V25.3865Z" fill="#6A8C9D"/>
<path d="M94.1377 34.0451C93.6632 34.7764 93.0258 35.3846 92.2769 35.8207C91.528 36.2569 90.6884 36.5088 89.8259 36.5561C88.9633 36.6034 88.1018 36.4449 87.3108 36.0933C86.5197 35.7417 85.8212 35.2068 85.2715 34.5317C85.1573 34.3923 85.0535 34.2502 84.9522 34.1003C84.7497 33.8013 84.5758 33.4833 84.433 33.1508C84.1468 32.4623 83.9993 31.7227 83.9993 30.9756C83.9993 30.2286 84.1468 29.489 84.433 28.8005C84.5758 28.468 84.7497 28.15 84.9522 27.851C85.0535 27.7011 85.1573 27.559 85.2715 27.4196C85.8212 26.7445 86.5197 26.2096 87.3108 25.858C88.1018 25.5064 88.9633 25.3479 89.8259 25.3952C90.6884 25.4425 91.528 25.6944 92.2769 26.1306C93.0258 26.5667 93.6632 27.1749 94.1377 27.9062C94.1377 27.9062 94.187 27.9825 94.2571 28.1061L96.9909 26.1782C96.2283 24.9562 95.1846 23.9398 93.9493 23.2161C92.7139 22.4923 91.3238 22.0827 89.898 22.0225C89.7812 22.0225 89.6592 22.0225 89.5294 22.0225C89.3995 22.0225 89.223 22.0225 89.0724 22.0225C88.7713 22.0382 88.4753 22.0698 88.1819 22.1145C87.0355 22.2934 85.9358 22.7021 84.947 23.3165C84.703 23.4638 84.4693 23.6269 84.2408 23.7978C83.103 24.6635 82.1876 25.7939 81.5719 27.0935C81.5096 27.2224 81.4499 27.3565 81.3954 27.488C81.0539 28.308 80.8351 29.175 80.7463 30.0603C80.6833 30.6724 80.6833 31.2894 80.7463 31.9015C80.8351 32.786 81.0538 33.6522 81.3954 34.4712C81.4499 34.6053 81.5096 34.7342 81.5719 34.8683C82.1913 36.1686 83.1102 37.299 84.2512 38.164C84.4797 38.3349 84.7134 38.4954 84.9574 38.6453C85.4469 38.9471 85.9643 39.1999 86.5022 39.4002C87.0509 39.6022 87.6179 39.7493 88.1949 39.8394C88.4883 39.8841 88.7842 39.9157 89.0854 39.9315C89.236 39.9315 89.3892 39.9315 89.5423 39.9315C89.6955 39.9315 89.802 39.9315 89.911 39.9315C91.3361 39.8721 92.7258 39.4637 93.961 38.7413C95.1963 38.019 96.2404 37.0041 97.0039 35.7836L94.2701 33.8531C94.187 33.9662 94.1377 34.0451 94.1377 34.0451Z" fill="#6A8C9D"/>
</g>
<defs>
<clipPath id="clip0_717_3654">
<rect width="150" height="30" fill="white" transform="translate(25 15)"/>
</clipPath>
</defs>
</svg>
