<svg width="200" height="60" viewBox="0 0 200 60" fill="none" xmlns="http://www.w3.org/2000/svg">
<path d="M64.599 14V35.9071C64.599 36.846 64.599 37.7848 64.6773 38.6455C64.7555 39.5061 64.912 40.2885 65.1467 40.9144C65.4597 41.5403 65.8509 42.0098 66.4768 42.401C67.0244 42.7922 67.8851 42.9487 68.9804 42.9487C70.7017 42.9487 71.9535 42.401 72.5795 41.3839C73.2054 40.3667 73.5966 38.5672 73.5966 36.1418V14H77.0391V35.9071C77.0391 36.4548 77.0391 37.0807 76.9609 37.8631C76.9609 38.5672 76.8044 39.3496 76.7262 40.0538C76.5697 40.7579 76.335 41.5403 76.022 42.2445C75.709 42.9487 75.2396 43.5746 74.6137 44.1222C73.9878 44.6699 73.2836 45.1394 72.3447 45.4523C71.4059 45.7653 70.3105 46 68.9022 46C66.9462 46 65.4597 45.687 64.3643 45.0611C63.2689 44.4352 62.4866 43.6528 62.0171 42.7139C61.5477 41.7751 61.2347 40.6797 61.1565 39.5061C61.0782 38.3325 61 37.1589 61 35.9853V14.0782H64.599V14Z" fill="black"/>
<path d="M80.2469 14H84.0806L88.3055 25.2665L92.687 14H96.2077L90.0268 28.3961L96.9901 45.2958H92.9217L87.9143 32.3081L82.907 45.3741H79.3862L86.2713 29.022L80.2469 14Z" fill="black"/>
<path d="M100.042 14H106.144C107.787 14 109.196 14.1565 110.369 14.4694C111.464 14.7824 112.482 15.4866 113.342 16.5037C113.577 16.8166 113.812 17.1296 114.046 17.5208C114.281 17.912 114.516 18.3814 114.751 18.9291C114.985 19.4768 115.142 20.1027 115.22 20.8068C115.376 21.511 115.376 22.3716 115.376 23.3105C115.376 24.5623 115.22 25.7359 114.907 26.8313C114.594 27.9267 114.125 28.9438 113.42 29.8044C112.716 30.665 111.856 31.291 110.76 31.8386C109.665 32.3081 108.335 32.5428 106.692 32.5428H103.641V45.2958H100.042V14ZM103.641 29.5697H106.614C107.318 29.5697 108.022 29.4914 108.648 29.335C109.274 29.1785 109.821 28.8655 110.291 28.4743C110.76 28.0049 111.152 27.379 111.386 26.5966C111.621 25.8142 111.777 24.7188 111.777 23.467C111.777 21.9022 111.543 20.6504 111.152 19.7897C110.76 18.9291 110.213 18.3032 109.665 17.912C109.117 17.5208 108.491 17.2861 107.865 17.2078C107.24 17.1296 106.77 17.1296 106.301 17.1296H103.562V29.5697H103.641Z" fill="black"/>
<path d="M121.636 14V17.9902H118.115V14H121.636ZM118.271 22.1369H121.479V45.2958H118.271V22.1369Z" fill="black"/>
<path d="M125.157 22.1368H128.13V25.6576C128.208 25.4228 128.365 25.0317 128.599 24.5622C128.834 24.0928 129.147 23.6233 129.538 23.2321C129.929 22.7627 130.477 22.3715 131.025 22.0585C131.651 21.7456 132.355 21.5891 133.215 21.5891C134.233 21.5891 135.093 21.8238 135.797 22.215C136.501 22.6845 137.127 23.2321 137.44 23.9363C137.832 24.6405 138.066 25.5793 138.145 26.8312C138.223 28.0048 138.223 29.2566 138.223 30.5867V45.2957H135.093V30.6649C135.093 29.9607 135.093 29.2566 135.015 28.4742C135.015 27.77 134.858 27.1441 134.702 26.5182C134.545 25.9705 134.233 25.5011 133.841 25.1099C133.45 24.7187 132.902 24.5622 132.198 24.5622C131.338 24.5622 130.712 24.7969 130.164 25.3446C129.695 25.8923 129.303 26.5182 129.069 27.2224C128.834 28.0048 128.678 28.7872 128.599 29.6478C128.521 30.5084 128.521 31.2908 128.521 31.9167V45.2957H125.313V22.1368H125.157Z" fill="black"/>
</svg>
