<svg width="200" height="60" viewBox="0 0 200 60" fill="none" xmlns="http://www.w3.org/2000/svg">
<path d="M161.899 2H161.697L37.1119 19.5379L36 19.6895V58L37.4152 57.7978L161.848 40.2599L161.899 2Z" fill="white"/>
<path d="M161.899 7.05396L37.2635 24.5413V56.5341L161.899 38.9962V7.05396Z" fill="#009881"/>
<path d="M44.3899 34.0938L48.7365 33.4873L49.8989 45.1623H49.9495L51.3141 33.1335L56.0144 32.4764L57.3285 44.101H57.3791L58.5921 32.0721L62.8375 31.4656L59.9567 47.6894L54.852 48.397L53.6895 36.7724H53.639L52.426 48.8013L47.3213 49.5089L44.3899 34.0938ZM67.8412 42.2309C67.8412 43.1912 68.0939 43.545 68.8014 43.4439C69.509 43.3428 69.8123 42.888 69.8123 41.9277V34.8519C69.8123 33.8916 69.5596 33.5378 68.8014 33.6389C68.0433 33.74 67.8412 34.1948 67.8412 35.1046V42.2309ZM63.5957 35.7111C63.5957 32.3248 65.8195 30.6569 68.852 30.2021C71.8845 29.7472 74.1083 30.8086 74.1083 34.2454V41.4223C74.1083 44.8085 71.8845 46.4764 68.852 46.9313C65.8195 47.3862 63.5957 46.3248 63.5957 42.9385V35.7111ZM80.0722 22.9746V44.8591L75.8267 45.4656V23.5811L80.0722 22.9746ZM86.8448 31.6678V43.9493L82.5993 44.5558V32.2237L81.1336 32.4259V28.888L82.5993 28.6858V26.6641C82.5993 23.6822 83.9639 22.4187 86.5921 22.0143L89.1191 21.6605V25.1984L88.1083 25.3501C87.2491 25.4511 86.8448 25.8049 86.8448 26.7147V28.0793L89.0686 27.7761V31.314L86.8448 31.6678ZM100.188 35.7111V38.0865C100.188 41.1696 98.3177 42.7364 95.083 43.1912C91.7473 43.6461 90.0289 42.332 90.0289 39.5017V31.6172C90.0289 28.8374 91.7473 26.9674 95.083 26.5125C98.3177 26.0576 100.188 27.119 100.188 30.1515V32.2237L96.296 32.7797V30.9602C96.296 30.2021 95.8917 29.7977 95.2852 29.8483C94.6282 29.9493 94.1733 30.5558 94.2744 31.2129V38.5919C94.2744 39.3501 94.6787 39.7544 95.2852 39.7039C95.9422 39.6028 96.3971 38.9963 96.296 38.3392V36.267L100.188 35.7111ZM101.704 26.0071L105.798 25.4511V28.5847H105.848C107.011 25.8049 107.718 25.1984 109.386 24.693V29.9999H109.336C109.083 29.9493 108.78 29.9493 108.527 29.9999C107.112 30.2021 105.949 31.3645 105.949 33.2851V41.2706L101.704 41.8771V26.0071ZM116.361 32.1732C115.097 33.2851 114.339 33.5378 114.339 35.3067V35.7111C114.339 36.6714 114.794 36.9746 115.552 36.8735C116.058 36.7219 116.412 36.267 116.361 35.7616V32.1732ZM110.599 29.7977V28.2815C110.599 25.7544 112.419 24.036 115.603 23.5811C118.787 23.1262 120.606 24.3392 120.606 26.8663V36.1154C120.606 37.1262 120.758 38.0865 121.112 39.0468L117.018 39.6028C116.816 39.0468 116.715 38.4909 116.765 37.9349H116.715C116.31 39.2995 115.097 40.3104 113.682 40.5125C111.307 40.8663 110.144 39.7544 110.144 36.4692V35.5595C110.144 29.0901 116.614 31.0613 116.614 27.7761C116.614 27.1696 116.361 26.6136 115.653 26.6641C114.592 26.8158 114.39 27.4728 114.39 29.1912L110.599 29.7977ZM127.531 25.906V38.1876L123.285 38.7941V26.5125L121.819 26.7147V23.1768L123.285 22.9746V20.953C123.285 17.971 124.65 16.7075 127.278 16.3031L129.805 15.9493V19.4872L128.794 19.6389C127.935 19.74 127.531 20.0937 127.531 21.0035V22.3681L129.755 22.0649V25.6028L127.531 25.906ZM132.433 17.4656L136.679 16.8591V21.054L139.004 20.7002V24.2382L136.679 24.5414V31.0107C136.679 32.7291 136.881 32.9313 137.791 32.8302L138.953 32.6786V36.5197L134.758 37.1262C133.191 37.3284 132.383 36.4187 132.383 34.7508V25.1479L131.018 25.3501V21.8122L132.383 21.61L132.433 17.4656ZM142.137 18.9818H142.693V17.6678H143.148C143.35 17.6678 143.603 17.6678 143.805 17.7688C144.058 17.9205 144.159 18.2237 144.108 18.527V18.9818H144.664V18.9313C144.664 18.8808 144.614 18.8302 144.614 18.7797V18.2743C144.614 18.0721 144.563 17.9205 144.412 17.7688C144.26 17.5667 144.058 17.4656 143.856 17.4656C144.058 17.4656 144.209 17.415 144.361 17.314C144.563 17.1623 144.664 16.9096 144.614 16.6569C144.664 16.3031 144.462 15.9493 144.108 15.8483C143.805 15.7472 143.502 15.6966 143.199 15.7472H142.137V18.9818ZM143.805 17.2129C143.603 17.2634 143.451 17.314 143.249 17.2634H142.744V16.0504H143.249C143.502 16.0504 143.755 16.101 143.957 16.1515C144.209 16.3537 144.26 16.7075 144.058 17.0107C144.007 17.1118 143.906 17.1623 143.805 17.2129ZM145.473 15.1912C144.31 14.0288 142.39 14.0793 141.227 15.2418C140.065 16.4042 140.065 18.2743 141.227 19.4367C142.39 20.5992 144.26 20.6497 145.473 19.4872C146.635 18.3248 146.686 16.4548 145.473 15.1912C145.473 15.2418 145.523 15.2418 145.473 15.1912ZM145.17 15.4945C145.675 15.9493 145.928 16.6569 145.928 17.314C145.928 18.0215 145.675 18.6786 145.17 19.1335C144.159 20.1443 142.542 20.1443 141.531 19.1335C141.025 18.628 140.773 17.971 140.773 17.314C140.773 15.8988 141.884 14.7363 143.3 14.7363C144.007 14.7363 144.664 14.9891 145.17 15.4945Z" fill="white"/>
<path d="M161.899 3.26367L37.2635 20.751V24.5417L161.899 7.05429V3.26367Z" fill="#FFDD00"/>
</svg>
