<svg width="200" height="60" viewBox="0 0 200 60" fill="none" xmlns="http://www.w3.org/2000/svg">
<g clip-path="url(#clip0)">
<path d="M41.9909 29.2915H35.5698V32.3715H41.8365C42.207 32.3715 42.5465 32.2177 42.8241 31.9712C43.0712 31.7247 43.2256 31.3552 43.2256 30.8931C43.2345 30.4966 43.1154 30.1077 42.8859 29.7842C42.6388 29.4765 42.3612 29.2915 41.9909 29.2915V29.2915ZM42.207 25.565C42.4847 25.38 42.6082 24.9797 42.6082 24.4561C42.6082 23.994 42.4847 23.6554 42.2685 23.4398C42.0524 23.2548 41.7744 23.1318 41.4659 23.1318H35.5698V25.9036H41.3424C41.6512 25.9036 41.96 25.7497 42.207 25.565V25.565Z" fill="#09B3AF"/>
<path d="M51.6219 14.1998H27.3891C26.6176 14.1998 26 14.8158 26 15.555V39.7633C26 40.5025 26.6176 40.9646 27.3582 40.9646H30.939V45.8001L35.3843 40.9955H51.6219C52.3628 40.9955 52.8257 40.5334 52.8257 39.7633V15.5858C52.8257 14.8467 52.3625 14.2307 51.591 14.2307L51.6219 14.1998ZM47.547 33.819C47.2382 34.3734 46.7752 34.8353 46.2196 35.1744C45.6329 35.5438 44.9847 35.8827 44.2438 36.0365C43.5029 36.2215 42.7006 36.3754 41.8671 36.3754H30.939V19.1276H43.3488C43.9662 19.1276 44.4909 19.2512 44.9847 19.5283C45.4479 19.7745 45.8802 20.1133 46.2196 20.5136C46.911 21.3545 47.2827 22.4128 47.269 23.5013C47.269 24.3019 47.0529 25.072 46.6517 25.8112C46.2352 26.5551 45.5839 27.1399 44.7997 27.4743C45.7873 27.7517 46.5591 28.2443 47.1458 28.9527C47.7014 29.6918 47.979 30.6466 47.979 31.8479C47.979 32.618 47.8246 33.2648 47.5161 33.819H47.547Z" fill="#09B3AF"/>
<path d="M69.557 36.2521C68.4767 36.2521 67.427 36.0983 66.3776 35.7594C65.393 35.4413 64.4878 34.9162 63.7227 34.2196L65.1118 31.8788C65.8838 32.4023 66.6244 32.8027 67.3652 33.1107C68.0278 33.3977 68.7426 33.5446 69.4646 33.5419C69.9584 33.5419 70.3596 33.4495 70.6375 33.2648C70.9155 33.1107 71.039 32.8336 71.039 32.4947C71.039 32.1867 70.8846 31.8788 70.514 31.694C69.9338 31.4165 69.3224 31.2096 68.6929 31.0778L66.532 30.3695C65.9453 30.123 65.482 29.8768 65.1118 29.5995C64.7412 29.3532 64.4635 29.0144 64.3094 28.6758C64.1413 28.2869 64.0571 27.867 64.0623 27.4434C64.0536 26.8445 64.1794 26.2514 64.4305 25.7077C64.6816 25.1639 65.0516 24.6835 65.5132 24.3019C65.9455 23.9325 66.5011 23.6554 67.1185 23.4398C67.7358 23.2242 68.4149 23.1318 69.1249 23.1318C70.0819 23.1318 70.9772 23.2548 71.8105 23.5012C72.6443 23.7783 73.4466 24.2404 74.2184 24.9181L72.7057 27.2281C72.1081 26.8014 71.4665 26.44 70.7919 26.15C70.2052 25.9035 69.6805 25.8112 69.1249 25.8112C68.7235 25.8112 68.3532 25.8729 68.0752 26.0577C67.7664 26.2115 67.6432 26.4889 67.6432 26.8583C67.6432 27.2281 67.7976 27.4743 68.1064 27.6593C68.4149 27.844 69.0323 28.0287 69.8658 28.2443C70.6395 28.4387 71.4021 28.6752 72.1502 28.9526C72.7678 29.1991 73.2613 29.4765 73.6628 29.7536C74.0359 30.0275 74.3335 30.3915 74.5278 30.8116C74.7222 31.2317 74.8068 31.6942 74.7739 32.1559C74.7739 33.4186 74.311 34.4043 73.354 35.1435C72.4281 35.8827 71.1931 36.2524 69.557 36.2524V36.2521ZM84.8376 35.3591C84.2436 35.6016 83.6353 35.8073 83.0161 35.975C82.337 36.1598 81.6579 36.283 80.9479 36.283C80.4538 36.283 80.0218 36.2212 79.5897 36.0983C79.1697 35.9761 78.7805 35.7662 78.4477 35.4823C78.1389 35.2358 77.8918 34.8664 77.7065 34.4661C77.5212 34.0346 77.3977 33.511 77.3977 32.895V26.2733H75.7927V23.378H77.4289V19.3432H81.2568V23.3471H83.8497V26.2733H81.2568V31.5708C81.2568 31.9711 81.3494 32.2791 81.5656 32.4947C81.7815 32.6488 82.0594 32.7412 82.3679 32.7412C82.6767 32.7412 82.9855 32.7103 83.2632 32.5871C83.572 32.4947 83.8499 32.4023 84.0658 32.2791L84.8067 35.3588H84.8376V35.3591ZM92.061 36.2521C91.0788 36.2692 90.103 36.0913 89.1902 35.7285C88.3965 35.4156 87.6782 34.9383 87.0823 34.3278C86.4864 33.7174 86.0265 32.9877 85.7329 32.1867C85.1264 30.5788 85.1264 28.8051 85.7329 27.1972C86.0265 26.3962 86.4864 25.6665 87.0823 25.0561C87.6782 24.4456 88.3965 23.9683 89.1902 23.6554C90.0237 23.3165 90.9807 23.1318 92.061 23.1318C92.9893 23.088 93.9161 23.244 94.7788 23.5893C95.6416 23.9347 96.4201 24.4613 97.0618 25.1335C97.6485 25.7188 98.0809 26.4271 98.3894 27.1972C99.0213 28.811 99.0213 30.6038 98.3894 32.2176C98.0938 33.009 97.6363 33.7299 97.0463 34.3345C96.4563 34.939 95.7466 35.4138 94.9627 35.7285C94.0402 36.0953 93.0535 36.2734 92.061 36.2521V36.2521ZM89.2828 29.7227C89.2828 30.7081 89.5298 31.509 90.0545 32.0944C90.6104 32.7103 91.2892 33.0183 92.0919 33.0183C92.4744 33.0258 92.8536 32.9465 93.2011 32.7865C93.5486 32.6265 93.8553 32.3899 94.0983 32.0944C94.354 31.7826 94.5526 31.4281 94.6851 31.0472C94.8395 30.6466 94.9012 30.1848 94.9012 29.7227C94.9012 28.7064 94.6233 27.9055 94.0983 27.3204C93.5736 26.7045 92.8945 26.3965 92.0919 26.3965C91.7104 26.3955 91.3333 26.4776 90.9868 26.6371C90.6403 26.7966 90.3327 27.0297 90.0854 27.3201C89.8384 27.6284 89.6222 27.9364 89.4678 28.3676C89.3286 28.8053 89.2659 29.2637 89.2825 29.7227H89.2828ZM108.823 26.6736C107.897 26.6736 107.033 26.8277 106.261 27.1357C105.582 27.3639 105.004 27.8211 104.625 28.4291V36.0365H100.766V23.378H104.316V25.9035C104.749 25.0411 105.304 24.3637 106.014 23.9019C106.693 23.4089 107.403 23.1624 108.175 23.1318H108.576L108.823 23.1627V26.6736ZM110.521 37.9155C111.058 38.1017 111.62 38.2055 112.188 38.2235C112.651 38.2235 113.022 38.0693 113.299 37.7614C113.546 37.4534 113.762 36.8375 113.979 36.0365L109.163 23.378H113.145L116.078 32.7103L118.64 23.378H122.252L117.405 38.0693C116.645 40.5648 114.096 42.0637 111.54 41.5191C111.231 41.4573 110.86 41.3649 110.521 41.2111V37.9152V37.9155ZM131.389 36.2521C130.432 36.2521 129.568 36.0674 128.858 35.6362C128.137 35.2412 127.538 34.6551 127.129 33.9422V36.0365H123.765V18.4193H127.654V25.4417C128.069 24.7178 128.673 24.1204 129.402 23.7135C130.131 23.3066 130.956 23.1055 131.791 23.1318C132.593 23.1318 133.334 23.2856 134.013 23.6554C134.692 23.9633 135.248 24.456 135.773 25.0411C136.522 26.0775 137.013 27.2773 137.206 28.5413C137.4 29.8053 137.289 31.0971 136.884 32.31C136.575 33.1107 136.143 33.819 135.618 34.4043C135.082 34.9908 134.428 35.4583 133.7 35.7766C132.971 36.0949 132.184 36.2569 131.389 36.2521H131.389ZM130.309 33.0183C131.561 33.0211 132.678 32.2289 133.087 31.0472C133.539 29.8064 133.318 28.4195 132.5 27.3819C132.262 27.0692 131.953 26.817 131.599 26.6458C131.245 26.4746 130.856 26.3892 130.463 26.3965C129.876 26.3965 129.321 26.6121 128.796 27.0124C128.302 27.4437 127.901 27.967 127.623 28.6141V31.2628C127.868 31.7767 128.252 32.2111 128.733 32.5162C129.213 32.8213 129.77 32.9846 130.339 32.9874L130.309 33.0183ZM139.199 18.4193H143.058V31.509C143.058 32.4947 143.459 32.9568 144.292 32.9568C144.733 32.9581 145.167 32.8524 145.558 32.6488L146.083 35.5129C145.002 35.9855 143.836 36.2368 142.656 36.2521C141.545 36.2521 140.681 35.9441 140.094 35.39C139.477 34.7737 139.168 33.9731 139.168 32.8642V18.4193H139.199H139.199ZM153.368 36.2521C152.386 36.2692 151.41 36.0912 150.497 35.7285C149.699 35.4176 148.975 34.9413 148.374 34.3309C147.773 33.7205 147.308 32.9897 147.009 32.1867C146.571 30.9981 146.46 29.7135 146.688 28.4674C146.916 27.2212 147.475 26.0592 148.306 25.1029C148.923 24.4869 149.602 24.0248 150.466 23.6554C151.3 23.3165 152.257 23.1318 153.337 23.1318C154.266 23.088 155.192 23.244 156.055 23.5893C156.918 23.9347 157.696 24.4613 158.338 25.1335C158.956 25.7188 159.357 26.4271 159.665 27.1972C160.121 28.3831 160.24 29.6716 160.012 30.9211C159.783 32.1707 159.215 33.3331 158.369 34.2811C157.765 34.9176 157.027 35.412 156.208 35.7285C155.295 36.0913 154.319 36.2692 153.337 36.2521H153.368H153.368ZM150.559 29.7227C150.559 30.7081 150.806 31.509 151.331 32.0944C151.886 32.7103 152.566 33.0183 153.368 33.0183C153.75 33.0235 154.129 32.9433 154.476 32.7834C154.823 32.6236 155.13 32.3882 155.375 32.0944C155.63 31.7826 155.829 31.4281 155.961 31.0472C156.116 30.6466 156.177 30.1848 156.177 29.7227C156.177 28.7064 155.899 27.9055 155.375 27.3204C154.85 26.7045 154.171 26.3965 153.368 26.3965C152.987 26.3955 152.61 26.4776 152.263 26.6371C151.916 26.7966 151.609 27.0297 151.361 27.3201C151.114 27.6284 150.899 27.9364 150.744 28.3676C150.59 28.7988 150.559 29.23 150.559 29.7227H150.559ZM170.593 36.0365L167.29 30.924L165.932 32.3406V36.0365H162.073V18.4193H165.932V28.6141L170.223 23.3783H174.329L169.76 28.8297L174.699 36.0365H170.593Z" fill="black"/>
</g>
<defs>
<clipPath id="clip0">
<rect width="148.699" height="32" fill="white" transform="translate(26 14)"/>
</clipPath>
</defs>
</svg>
