<svg width="200" height="60" viewBox="0 0 200 60" fill="none" xmlns="http://www.w3.org/2000/svg">
<path fill-rule="evenodd" clip-rule="evenodd" d="M82.1967 22.998L82.308 24.9878C83.5781 23.4489 85.2456 22.6794 87.3096 22.6794C90.8862 22.6794 92.7067 24.7325 92.7701 28.8387V40.216H88.9137V29.0614C88.9137 27.9688 88.6783 27.1604 88.2076 26.6344C87.7368 26.1094 86.9665 25.8469 85.8974 25.8469C84.3412 25.8469 83.1816 26.553 82.4212 27.9634V40.216H78.563V22.998H82.1985H82.1967ZM104.265 40.5346C101.821 40.5346 99.8383 39.7634 98.3202 38.2199C96.8012 36.6764 96.0416 34.6206 96.0416 32.0533V31.5762C96.0416 29.8581 96.3721 28.3218 97.0338 26.9694C97.6946 25.6169 98.6243 24.5641 99.8202 23.81C101.016 23.0578 102.349 22.6812 103.821 22.6812C106.16 22.6812 107.967 23.4289 109.242 24.9244C110.518 26.4208 111.156 28.5364 111.156 31.2739V32.8336H99.9306C100.048 34.2549 100.521 35.3792 101.352 36.2066C102.183 37.034 103.228 37.4477 104.488 37.4477C106.255 37.4477 107.694 36.7326 108.806 35.2995L110.885 37.2893C110.197 38.3177 109.279 39.1161 108.131 39.6837C106.983 40.2513 105.694 40.5346 104.266 40.5346H104.265ZM103.805 25.7844C102.746 25.7844 101.892 26.1556 101.241 26.8979C100.59 27.6402 100.175 28.6749 99.9949 30.0011H107.346V29.7141C107.26 28.4196 106.916 27.4419 106.314 26.7784C105.71 26.1157 104.874 25.7844 103.805 25.7844V25.7844ZM118.982 18.8139V22.9989H122.014V25.8632H118.982V35.4743C118.982 36.1315 119.112 36.6058 119.371 36.8982C119.63 37.1897 120.093 37.3355 120.761 37.3355C121.215 37.3342 121.667 37.2807 122.109 37.1761V40.168C121.231 40.4124 120.385 40.5337 119.569 40.5337C116.606 40.5337 115.124 38.8952 115.124 35.6173V25.8623H112.296V22.998H115.123V18.813H118.98L118.982 18.8139ZM129.064 40.2169H125.205V15.775H129.064V40.2169ZM137.367 40.2169H133.508V22.9989H137.367V40.2169ZM133.27 18.527C133.27 17.934 133.458 17.4407 133.833 17.0478C134.21 16.6558 134.747 16.4594 135.445 16.4594C136.144 16.4594 136.683 16.6558 137.065 17.0478C137.445 17.4407 137.635 17.934 137.635 18.5279C137.635 19.1109 137.445 19.5961 137.065 19.9835C136.683 20.371 136.144 20.5647 135.445 20.5647C134.747 20.5647 134.21 20.371 133.833 19.9835C133.458 19.597 133.27 19.1109 133.27 18.5279V18.527ZM142.923 40.2169V25.8623H140.303V22.998H142.923V21.4229C142.923 19.5128 143.452 18.039 144.51 16.9989C145.569 15.9597 147.05 15.4401 148.955 15.4401C149.633 15.4401 150.352 15.5351 151.115 15.7261L151.02 18.7497C150.533 18.6593 150.038 18.6169 149.543 18.6229C147.701 18.6229 146.78 19.5716 146.78 21.4709V22.998H150.273V25.8623H146.78V40.216H142.923V40.2169ZM159.1 34.6794L162.592 22.9989H166.704L159.878 42.8267C158.83 45.7226 157.052 47.1711 154.544 47.1711C153.982 47.1711 153.363 47.0751 152.686 46.8841V43.8922L153.417 43.9402C154.39 43.9402 155.123 43.7628 155.616 43.407C156.107 43.0521 156.496 42.4556 156.782 41.6173L157.337 40.1372L151.305 22.9989H155.464L159.1 34.6794Z" fill="#0E1E25"/>
<path d="M59.1281 24.0454L59.1154 24.0399C59.1081 24.0372 59.1009 24.0345 59.0946 24.0282C59.0842 24.017 59.0765 24.0036 59.0721 23.989C59.0677 23.9744 59.0667 23.959 59.0692 23.944L59.769 19.6658L63.0505 22.9482L59.6377 24.4002C59.6282 24.4041 59.6181 24.4059 59.6078 24.4057H59.5943C59.5897 24.403 59.5852 24.3993 59.5762 24.3903C59.4492 24.2489 59.2973 24.132 59.1281 24.0454V24.0454ZM63.8879 23.7847L67.3967 27.2934C68.1254 28.0231 68.4902 28.387 68.6233 28.8088C68.6432 28.8713 68.6595 28.9338 68.6722 28.998L60.2868 25.4467C60.2823 25.4449 60.2778 25.443 60.2732 25.4413C60.2397 25.4277 60.2008 25.4123 60.2008 25.3779C60.2008 25.3435 60.2406 25.3272 60.2741 25.3136L60.285 25.3091L63.8879 23.7847ZM68.5291 30.1242C68.3481 30.4645 67.995 30.8176 67.3976 31.416L63.4416 35.371L58.3251 34.3055L58.2979 34.3001C58.2527 34.2929 58.2047 34.2847 58.2047 34.244C58.1853 34.0329 58.1226 33.8281 58.0206 33.6423C57.9186 33.4565 57.7794 33.2937 57.6118 33.164C57.5909 33.1432 57.5964 33.1106 57.6027 33.0807C57.6027 33.0762 57.6027 33.0717 57.6045 33.0681L58.5668 27.1604L58.5704 27.1404C58.5759 27.0952 58.584 27.0427 58.6247 27.0427C58.831 27.017 59.03 26.9506 59.2103 26.8472C59.3906 26.7439 59.5485 26.6057 59.6748 26.4407C59.683 26.4316 59.6884 26.4217 59.6993 26.4162C59.7282 26.4027 59.7626 26.4162 59.7925 26.4289L68.5282 30.1242H68.5291ZM62.5318 36.2808L56.0267 42.786L57.1401 35.9422L57.1419 35.9332C57.1428 35.9241 57.1447 35.9151 57.1474 35.9069C57.1564 35.8852 57.18 35.8762 57.2026 35.8671L57.2135 35.8626C57.4573 35.7586 57.6729 35.5982 57.8426 35.3946C57.8643 35.3692 57.8906 35.3448 57.9241 35.3402C57.9328 35.3388 57.9416 35.3388 57.9503 35.3402L62.5309 36.2817L62.5318 36.2808ZM54.6498 44.1629L53.9165 44.8961L45.81 33.1803C45.807 33.176 45.804 33.1718 45.8009 33.1676C45.7882 33.1504 45.7746 33.1332 45.7774 33.1133C45.7774 33.0988 45.7873 33.0862 45.7973 33.0753L45.8063 33.0635C45.8308 33.0273 45.8516 32.9911 45.8742 32.9522L45.8923 32.9205L45.895 32.9178C45.9077 32.8961 45.9195 32.8752 45.9412 32.8635C45.9602 32.8544 45.9865 32.858 46.0073 32.8626L54.9883 34.7147C55.0134 34.7186 55.0371 34.7289 55.0571 34.7446C55.0689 34.7564 55.0716 34.769 55.0743 34.7835C55.137 35.0205 55.2536 35.2399 55.415 35.4244C55.5764 35.6089 55.7783 35.7536 56.0049 35.8472C56.0303 35.8599 56.0194 35.8879 56.0077 35.9178C56.0018 35.9309 55.9972 35.9445 55.9941 35.9585C55.8809 36.6465 54.9105 42.5651 54.6498 44.1629ZM53.1181 45.6936C52.5776 46.2286 52.259 46.512 51.8987 46.6261C51.5435 46.7384 51.1622 46.7384 50.807 46.6261C50.3851 46.4921 50.0203 46.1282 49.2916 45.3985L41.1506 37.2576L43.2771 33.9597C43.287 33.9434 43.297 33.929 43.3133 33.9172C43.3359 33.9009 43.3685 33.9081 43.3956 33.9172C43.8837 34.0644 44.4078 34.0379 44.8784 33.842C44.9029 33.833 44.9273 33.8267 44.9463 33.8439C44.9558 33.8525 44.9644 33.8623 44.9717 33.8728L53.1181 45.6945V45.6936ZM40.3658 36.4727L38.4982 34.6052L42.1862 33.0318C42.1956 33.0277 42.2058 33.0256 42.2161 33.0255C42.2469 33.0255 42.265 33.0563 42.2813 33.0844C42.3183 33.1414 42.3576 33.1969 42.399 33.2509L42.4107 33.2654C42.4216 33.2808 42.4143 33.2962 42.4035 33.3107L40.3667 36.4727H40.3658ZM37.6717 33.7787L35.309 31.416C34.9071 31.014 34.6156 30.7225 34.4128 30.4718L41.5969 31.9618C41.6059 31.9635 41.615 31.965 41.6241 31.9664C41.6684 31.9736 41.7173 31.9818 41.7173 32.0234C41.7173 32.0687 41.6639 32.0895 41.6186 32.1067L41.5978 32.1157L37.6717 33.7787ZM34 29.2569C34.0082 29.1047 34.0356 28.9542 34.0815 28.8088C34.2155 28.387 34.5794 28.0231 35.309 27.2934L38.3325 24.2699C39.7247 26.2903 41.1206 28.3081 42.5203 30.3233C42.5447 30.3559 42.5719 30.3921 42.5438 30.4193C42.4116 30.565 42.2795 30.7244 42.1862 30.8973C42.1761 30.9195 42.1605 30.9388 42.141 30.9534C42.1292 30.9606 42.1165 30.9579 42.1029 30.9552H42.1011L34 29.256V29.2569ZM39.1418 23.4606L43.2055 19.3951C43.5885 19.5626 44.9798 20.1501 46.2228 20.6751C47.1642 21.0734 48.0224 21.4355 48.2922 21.5532C48.3193 21.5641 48.3438 21.5749 48.3555 21.6021C48.3628 21.6184 48.3592 21.6392 48.3555 21.6564C48.2912 21.9499 48.3007 22.2547 48.3834 22.5436C48.466 22.8324 48.6191 23.0962 48.829 23.3112C48.8561 23.3384 48.829 23.3773 48.8054 23.4108L48.7928 23.4298L44.6648 29.8236C44.6539 29.8417 44.644 29.8571 44.6259 29.8689C44.6042 29.8825 44.5734 29.8761 44.548 29.8698C44.3875 29.8277 44.2224 29.8052 44.0565 29.8028C43.908 29.8028 43.7469 29.83 43.5839 29.8598H43.583C43.5649 29.8625 43.5486 29.8662 43.5341 29.8553C43.5181 29.8422 43.5044 29.8266 43.4934 29.8091L39.1409 23.4606H39.1418ZM44.0284 18.574L49.2916 13.3109C50.0203 12.5821 50.3851 12.2173 50.807 12.0842C51.1622 11.9719 51.5435 11.9719 51.8987 12.0842C52.3205 12.2173 52.6854 12.5821 53.4141 13.3109L54.5547 14.4515L50.8115 20.2487C50.8022 20.2656 50.7896 20.2804 50.7744 20.2922C50.7517 20.3076 50.7201 20.3012 50.6929 20.2922C50.3978 20.2026 50.0853 20.1863 49.7824 20.2447C49.4796 20.303 49.1955 20.4343 48.9548 20.6271C48.9304 20.6525 48.8942 20.638 48.8634 20.6244C48.3745 20.4117 44.5725 18.8049 44.0284 18.574V18.574ZM55.3495 15.2463L58.8058 18.7026L57.973 23.8607V23.8743C57.9722 23.886 57.9698 23.8976 57.9657 23.9087C57.9567 23.9268 57.9386 23.9304 57.9205 23.9358C57.7424 23.9898 57.5747 24.0733 57.4244 24.183C57.4179 24.1876 57.4119 24.1927 57.4063 24.1984C57.3963 24.2092 57.3864 24.2192 57.3701 24.221C57.3568 24.2214 57.3436 24.2193 57.3311 24.2147L52.0644 21.9769L52.0544 21.9723C52.0209 21.9588 51.9811 21.9425 51.9811 21.9081C51.9501 21.6146 51.8543 21.3316 51.7004 21.0798C51.6751 21.0381 51.647 20.9947 51.6688 20.9521L55.3495 15.2463ZM51.7901 23.0369L56.7273 25.1281C56.7545 25.1407 56.7844 25.1525 56.7961 25.1806C56.8008 25.1974 56.8008 25.2153 56.7961 25.2322C56.7816 25.3046 56.769 25.387 56.769 25.4703V25.6088C56.769 25.6432 56.7337 25.6576 56.7011 25.6712L56.6911 25.6748C55.909 26.0089 45.7104 30.3577 45.695 30.3577C45.6796 30.3577 45.6633 30.3577 45.6479 30.3423C45.6208 30.3152 45.6479 30.2772 45.6724 30.2428C45.6767 30.2368 45.6809 30.2308 45.685 30.2247L49.7424 23.9422L49.7496 23.9313C49.7732 23.8933 49.8003 23.8508 49.8438 23.8508L49.8845 23.8571C49.9768 23.8698 50.0583 23.8815 50.1407 23.8815C50.7563 23.8815 51.3266 23.5819 51.6706 23.0695C51.6788 23.0558 51.6892 23.0436 51.7014 23.0333C51.7258 23.0152 51.762 23.0243 51.7901 23.0369V23.0369ZM46.1358 31.3517L57.2524 26.6109C57.2524 26.6109 57.2687 26.6109 57.2841 26.6263C57.3447 26.6869 57.3963 26.7277 57.4461 26.7657L57.4705 26.7811C57.4932 26.7937 57.5158 26.8082 57.5176 26.8318C57.5176 26.8408 57.5176 26.8462 57.5158 26.8544L56.5635 32.7041L56.5599 32.7277C56.5535 32.7729 56.5472 32.8245 56.5046 32.8245C56.2507 32.8417 56.0049 32.9205 55.7883 33.0541C55.5717 33.1877 55.391 33.3721 55.2617 33.5913L55.2572 33.5985C55.2445 33.6194 55.2328 33.6393 55.2119 33.6501C55.1929 33.6592 55.1685 33.6556 55.1486 33.651L46.2834 31.8224C46.2743 31.8206 46.1458 31.3526 46.1358 31.3517V31.3517Z" fill="url(#paint0_radial)"/>
<defs>
<radialGradient id="paint0_radial" cx="0" cy="0" r="1" gradientUnits="userSpaceOnUse" gradientTransform="translate(32.8359 28.8654) rotate(90) scale(34.6721 40.0303)">
<stop stop-color="#20C6B7"/>
<stop offset="1" stop-color="#4D9ABF"/>
</radialGradient>
</defs>
</svg>
