<svg width="200" height="60" viewBox="0 0 200 60" fill="none" xmlns="http://www.w3.org/2000/svg">
<path d="M27.0294 36.9975C25.277 35.3529 24.2255 33.0882 24.2255 30.4999C24.2255 27.9117 25.25 25.647 26.9216 24.0024C28.3774 22.5465 28.3774 20.2818 26.9216 18.8259C25.4657 17.37 23.201 17.37 21.7451 18.8259C18.8603 21.8186 17 25.9436 17 30.4999C17 35.0563 18.8603 39.1813 21.8529 42.1739C23.3088 43.6298 25.5735 43.6298 27.0294 42.1739C28.3505 40.7181 28.3505 38.4534 27.0294 36.9975Z" fill="#FFD85F"/>
<path d="M27.0296 24.0025C28.6742 22.25 30.9659 21.2255 33.5272 21.2255C36.0884 21.2255 38.3801 22.25 40.0247 23.9216C41.4806 25.3775 43.7453 25.3775 45.2012 23.9216C46.6571 22.4657 46.6571 20.201 45.2012 18.7451C42.2085 15.8603 38.0835 14 33.5272 14C28.9708 14 24.8458 15.8603 21.8531 18.8529C20.3973 20.3088 20.3973 22.5735 21.8531 24.0294C23.309 25.3235 25.5737 25.3235 27.0296 24.0025Z" fill="#3BB4E7"/>
<path d="M40.0247 36.9975C38.3801 38.7499 36.0884 39.7744 33.5272 39.7744C30.9659 39.7744 28.6742 38.7499 27.0296 37.0784C25.5737 35.6225 23.309 35.6225 21.8531 37.0784C20.3973 38.5342 20.3973 40.799 21.8531 42.2548C24.8458 45.1396 28.9708 46.9999 33.5272 46.9999C38.0835 46.9999 42.2085 45.1396 45.2012 42.147C46.6571 40.6911 46.6571 38.4264 45.2012 36.9705C43.7453 35.6764 41.4806 35.6764 40.0247 36.9975Z" fill="#ED5C68"/>
<path d="M24.4414 25.0269C26.4366 25.0269 28.0541 23.4094 28.0541 21.4141C28.0541 19.4189 26.4366 17.8014 24.4414 17.8014C22.4461 17.8014 20.8286 19.4189 20.8286 21.4141C20.8286 23.4094 22.4461 25.0269 24.4414 25.0269Z" fill="#308BC5"/>
<path d="M24.4414 43.1985C26.4366 43.1985 28.0541 41.581 28.0541 39.5858C28.0541 37.5905 26.4366 35.973 24.4414 35.973C22.4461 35.973 20.8286 37.5905 20.8286 39.5858C20.8286 41.581 22.4461 43.1985 24.4414 43.1985Z" fill="#D5465F"/>
<path d="M61.4312 33.897C62.4557 33.0612 62.6714 33.6004 63.5072 34.4093C63.9116 34.8137 65.1518 35.6495 64.343 36.2695C62.6984 37.6176 61.2425 38.2377 59.0856 38.2377C54.3405 38.2377 50.9165 34.6249 51.1322 29.9607C51.24 27.8039 52.0489 25.8357 53.7204 24.4877C55.2572 23.2475 57.1175 22.6274 59.0856 22.7352C60.1101 22.7352 60.9459 22.9509 61.8626 23.2475C62.4827 23.4632 63.1028 23.7597 63.615 24.1642C64.6396 24.9999 64.1273 25.4044 63.3994 26.2401C63.1837 26.4558 63.1028 26.6446 62.8871 26.7524C62.4827 27.1568 62.1592 27.4803 61.6469 27.049C60.6224 26.321 59.1665 25.9166 57.9263 26.2132C53.8013 27.2377 53.9901 34.571 59.0587 34.571C59.8675 34.7328 60.8111 34.4362 61.4312 33.897ZM176.176 37.9411C175.448 37.9411 174.936 37.4289 174.936 36.7009V20.4705C174.936 19.7426 175.448 19.2303 176.176 19.2303H177.524C178.252 19.2303 178.765 19.7426 178.765 20.4705V36.7009C178.765 37.4289 178.252 37.9411 177.524 37.9411H176.176ZM169.059 36.0808C167.603 37.4289 166.174 38.1568 164.098 38.1568C159.865 38.1568 157.897 34.6519 157.897 30.8235V24.2181C157.897 23.4901 158.409 22.9779 159.137 22.9779H160.485C161.213 22.9779 161.725 23.4901 161.725 24.2181V30.8235C161.725 32.9803 162.858 34.6519 165.23 34.6519C167.495 34.6519 168.951 32.6838 168.951 30.6347V24.2181C168.951 23.4901 169.463 22.9779 170.191 22.9779H171.539C172.267 22.9779 172.779 23.4901 172.779 24.2181V36.7009C172.779 37.4289 172.267 37.9411 171.539 37.9411H170.407C169.679 37.9411 169.274 37.321 169.167 36.7009L169.059 36.0808ZM152.936 23.0588H155.524C156.252 23.0588 156.765 23.6789 156.765 24.299V25.1348C156.765 25.8627 156.252 26.3749 155.524 26.3749H152.936V36.7009C152.936 37.4289 152.424 37.9411 151.696 37.9411H150.348C149.62 37.9411 149.108 37.4289 149.108 36.7009V22.5465C149.108 19.446 150.86 16.9656 154.068 16.6691H156.037C156.765 16.6691 157.277 17.2892 157.277 17.9093V18.745C157.277 19.473 156.765 19.9852 156.037 19.9852H155.012C153.475 19.9852 152.855 21.1176 152.855 22.5735V23.0857H152.936V23.0588ZM143.527 23.0588H146.412C147.14 23.0588 147.652 23.571 147.652 24.299V25.1348C147.652 25.8627 147.14 26.3749 146.412 26.3749H143.527V32.6568C143.527 33.897 144.147 34.5171 145.387 34.5171H146.007C146.735 34.5171 147.247 35.0294 147.247 35.7573V36.674C147.247 37.4019 146.735 37.9142 146.007 37.9142H144.255C141.154 37.6985 139.806 35.7573 139.806 32.6568V20.4705C139.806 19.7426 140.318 19.2303 141.046 19.2303H142.394C143.122 19.2303 143.635 19.7426 143.635 20.4705V23.0588H143.527V23.0588ZM102.115 23.0588H105C105.728 23.0588 106.24 23.571 106.24 24.299V25.1348C106.24 25.8627 105.728 26.3749 105 26.3749H102.115V32.6568C102.115 33.897 102.735 34.6249 103.975 34.6249H104.595C105.323 34.6249 105.836 35.1372 105.836 35.8651V36.7009C105.836 37.4289 105.323 37.9411 104.595 37.9411H103.76C100.363 37.9411 98.3945 36.4852 98.3945 32.6838V20.4975C98.3945 19.7696 98.9067 19.2573 99.6346 19.2573H100.983C101.711 19.2573 102.223 19.7696 102.223 20.4975V23.0857C102.223 23.0588 102.115 23.0588 102.115 23.0588ZM85.2915 24.8112C86.6396 23.4632 88.1763 22.7352 90.0366 22.7352C94.2695 22.7352 96.4533 26.1323 96.4533 30.0686V36.7009C96.4533 37.4289 95.941 37.9411 95.2131 37.9411H93.865C93.1371 37.9411 92.6248 37.4289 92.6248 36.7009V30.0955C92.6248 27.9387 91.4925 26.2671 89.1199 26.2671C86.8552 26.2671 85.3994 28.1274 85.3994 30.2843V36.7009C85.3994 37.4289 84.8871 37.9411 84.1592 37.9411H82.8111C82.0832 37.9411 81.5709 37.4289 81.5709 36.7009V24.1911C81.5709 23.4632 82.0832 22.9509 82.8111 22.9509H83.9435C84.6714 22.9509 85.0758 23.571 85.1837 24.1911L85.2915 24.8112ZM126.811 24.8112C128.159 23.4632 129.696 22.7352 131.556 22.7352C135.789 22.7352 137.973 26.1323 137.973 30.0686V36.7009C137.973 37.4289 137.461 37.9411 136.733 37.9411H135.385C134.657 37.9411 134.144 37.4289 134.144 36.7009V30.0955C134.144 27.9387 133.012 26.2671 130.64 26.2671C128.375 26.2671 126.919 28.1274 126.919 30.2843V36.7009C126.919 37.4289 126.407 37.9411 125.679 37.9411H124.331C123.603 37.9411 123.091 37.4289 123.091 36.7009V24.1911C123.091 23.4632 123.603 22.9509 124.331 22.9509H125.463C126.191 22.9509 126.595 23.571 126.703 24.1911L126.811 24.8112ZM72.566 22.6544C68.0097 22.6544 64.8283 25.9705 64.8283 30.4999C64.8283 35.0294 68.0366 38.3455 72.566 38.3455C77.2033 38.3455 80.4116 35.1372 80.4116 30.4999C80.4116 25.9436 77.1224 22.6544 72.566 22.6544ZM110.392 31.848C110.689 33.924 112.765 34.8406 114.733 34.8406C115.649 34.8406 116.701 34.6249 117.51 34.2205C117.617 34.1127 117.806 34.1127 117.914 34.0048C118.426 33.7083 118.831 33.6004 119.262 34.0048L119.99 34.7328L120.61 35.3529C121.23 36.1887 120.826 36.3774 120.098 36.8088C118.561 37.8333 116.593 38.3455 114.733 38.3455C109.772 38.3455 106.456 35.3529 106.456 30.3921C106.456 25.647 109.772 22.5465 114.409 22.5465C119.262 22.5465 121.958 25.3235 122.066 30.2034C122.066 31.5514 122.174 31.9558 120.826 31.9558H110.392C110.392 31.9558 110.392 31.848 110.392 31.848ZM72.566 26.1593C74.9386 26.1593 76.5023 28.2352 76.5023 30.4999C76.5023 32.8725 75.0464 34.7328 72.566 34.7328C70.0856 34.7328 68.6298 32.8725 68.6298 30.4999C68.6298 28.1274 70.1935 26.1593 72.566 26.1593ZM110.473 28.6397H118.211C117.914 26.6715 116.35 25.9436 114.49 25.9436C112.549 25.9436 111.012 26.8872 110.473 28.6397Z" fill="#2A3039"/>
</svg>
