<svg width="200" height="60" viewBox="0 0 200 60" fill="none" xmlns="http://www.w3.org/2000/svg">
<path d="M133.112 34.3188L135.582 25.753H137.446C138.737 25.753 141.032 25.753 139.892 29.9841C138.729 34.3267 136.291 34.3267 135 34.3267L133.112 34.3188ZM147.454 30.0399C150.044 21.004 142.928 20.7172 139.04 20.725H129.359L124.012 39.3785H133.645C137.558 39.3706 144.865 39.0678 147.454 30.0399Z" fill="#004F9F"/>
<path d="M110.163 20.717L104.817 39.3704H122.538L123.996 34.3186H113.972L114.586 32.2071H123.223L124.426 27.9999H115.797L116.426 25.7529H126.434L127.884 20.717" fill="#004F9F"/>
<path d="M91.9323 32.2071L87.7729 39.3704H81.749L80.8884 20.717H88.1793L88.5139 27.9999L92.8167 20.717H97.3506L97.6932 27.9999L101.996 20.717H109.454L98.3386 39.3704H92.0279" fill="#004F9F"/>
<path d="M64.6574 29.9761C65.8925 25.761 68.3785 25.753 69.6694 25.753C70.9682 25.753 73.263 25.753 72.0678 29.9761C70.8407 34.3187 68.4263 34.3267 67.1355 34.3267C65.8367 34.3187 63.3666 34.3187 64.6574 29.9761ZM57.4303 30C54.6574 39.6813 61.3267 40 65.502 40C69.6773 40 76.5299 39.6892 79.3028 30C82.0917 20.3187 75.4144 20 71.2391 20C67.0638 20 60.2112 20.3187 57.4303 30Z" fill="#004F9F"/>
<path d="M49.9004 27.9999L47 20.725L40.3386 20.717L35 39.3704H42.3625L44.4183 32.2071L47.2948 39.3704H53.4223L58.7689 20.717H51.988" fill="#004F9F"/>
<path d="M159.382 25.8246L155.614 32.2071H159.382V25.8246ZM165.781 20.717L166.753 39.3704H159.502L159.446 37.1951H152.705L151.422 39.3704H143.908L155.016 20.717H165.781Z" fill="#004F9F"/>
</svg>
