<svg width="200" height="60" viewBox="0 0 200 60" fill="none" xmlns="http://www.w3.org/2000/svg">
<path d="M51.0272 21H21V41H51.0272V21Z" fill="white"/>
<path d="M21 37.5122V40.9999H33.0981L32.2806 37.5122H21Z" fill="#FF6600"/>
<path d="M51.0272 40.9999V37.5122H39.5286C39.2016 39.1471 38.9836 40.455 38.8746 40.9999H51.0272Z" fill="#FF6600"/>
<path d="M27.049 29.1744L26.1771 25.5777H33.534L35.9319 36.0409H36.0409L37.5667 29.3379C38.3297 26.2861 38.6022 25.5777 42.8528 25.5777H45.9046C45.9046 25.5777 45.3051 28.3569 44.5422 31.4087C44.2697 32.5531 41.7084 32.4441 41.8174 31.3542C41.8174 31.2452 41.9264 30.4278 42.0354 29.8283C42.1989 29.0109 41.218 28.9019 41.0545 29.7193C40.9455 30.3188 40.346 33.2616 39.8556 35.9864H51.0817V21H21V35.9864H31.9537L30.4278 29.1744H27.049Z" fill="#0066B3"/>
<path d="M62.5803 29.7195C62.7983 30.4279 62.9618 30.9184 63.1798 31.6268C63.3978 32.3353 63.5067 32.8257 63.7247 33.4797C64.1607 32.1173 64.4332 31.1908 64.8691 29.8284L67.3215 22.1445H70.0463L65.3051 35.9865H61.8719L57.1307 22.1445H60.0735L62.5803 29.7195Z" fill="#0066B3"/>
<path d="M82.0899 35.9865H78.9836L77.6212 32.4987C77.1852 31.5178 76.9673 30.9184 76.4768 30.5369C76.2588 30.3734 76.0953 30.3189 75.9318 30.2644C75.6593 30.2099 75.1144 30.2099 74.4604 30.2099V35.9865H71.6812V22.1445H75.9318C77.1307 22.1445 79.1471 22.1445 80.2915 23.3434C80.455 23.5069 80.6185 23.7794 80.7275 23.9974C81.1634 24.7603 81.1634 25.6323 81.1634 25.8502C81.1634 27.1581 80.564 28.0301 79.91 28.5205C79.801 28.575 79.692 28.684 79.4741 28.793C79.0381 29.011 78.6021 29.0655 78.1662 29.12C78.2207 29.12 78.4386 29.1745 78.6566 29.229C79.3651 29.5015 79.7465 30.3734 79.9645 30.9184L82.0899 35.9865ZM74.4059 28.0301C74.8419 28.0301 75.2779 28.0301 75.6593 28.0301C76.3678 28.0301 77.3487 28.0301 77.9482 27.1037C78.0572 26.8857 78.2751 26.5042 78.2207 26.0137C78.2207 25.5233 78.0572 25.1963 77.9482 24.9783C77.6212 24.4879 77.0762 24.2699 76.2043 24.2154C75.9863 24.2154 75.8773 24.2154 75.7138 24.2154H74.4059V28.0301Z" fill="#0066B3"/>
<path d="M89.0108 29.6104V31.7902H83.8337V29.6104H89.0108Z" fill="#0066B3"/>
<path d="M98.9291 29.12C99.2016 29.665 99.3651 30.0464 99.6376 30.5369C99.9645 31.1908 100.183 31.5723 100.455 32.2263C100.564 32.5532 100.673 32.7712 100.782 33.0437C100.727 32.3353 100.618 31.7903 100.618 31.0274C100.564 30.5369 100.564 30.1554 100.564 29.665V22.1445H103.18V35.9865H99.8555L95.6594 28.1936C94.8419 26.7767 94.7329 26.5587 94.188 25.0873C94.297 26.2862 94.3515 27.1037 94.3515 28.3026L94.406 35.9865H91.7902V22.1445H95.1689L98.9291 29.12Z" fill="#0066B3"/>
<path d="M108.03 31.7902C108.03 31.8447 108.139 32.4442 108.411 32.8256C109.12 33.97 110.319 34.188 111.136 34.188C111.899 34.188 112.771 34.0245 113.534 33.6431C113.861 33.4796 114.242 33.2071 114.297 33.2071L114.351 35.4959C113.588 35.8229 112.499 36.2589 110.809 36.2589C110.537 36.2589 109.501 36.2589 108.466 35.8774C106.831 35.2235 105.36 33.7521 105.36 30.9728C105.36 29.7194 105.632 28.7929 105.905 28.3025C106.014 28.0845 106.177 27.7575 106.232 27.703C106.341 27.5395 106.45 27.3761 106.613 27.2126C107.376 26.2861 108.52 25.5232 110.373 25.5232C113.697 25.5232 115.005 27.9755 115.005 30.7548C115.005 31.0818 115.005 31.4632 115.005 31.7902C115.005 31.7902 108.03 31.7902 108.03 31.7902ZM112.608 29.9374C112.553 29.3924 112.499 28.7929 112.117 28.248C111.518 27.4305 110.7 27.3761 110.428 27.3761C110.264 27.3761 109.174 27.3761 108.52 28.357C108.084 29.0109 108.084 29.7194 108.03 29.8829C108.03 29.9374 112.608 29.9374 112.608 29.9374Z" fill="#0066B3"/>
<path d="M120.564 25.6866H122.962V27.7029H120.564V32.2261C120.618 33.207 120.945 33.9154 122.144 33.9154C122.58 33.9154 122.907 33.8064 123.071 33.752L123.125 35.8773C122.253 36.0953 121.817 36.1498 121.436 36.1498C120.291 36.1498 119.474 35.8228 119.038 35.3868C118.493 34.9509 118.166 34.2424 118.057 33.1525C118.003 32.662 118.003 32.1716 118.003 32.0081V27.7029H116.041V25.6866H118.003V23.6702L120.564 22.8528V25.6866Z" fill="#0066B3"/>
<path d="M126.722 22.1443L128.684 30.2642C128.956 31.5176 129.174 32.3896 129.447 33.5885C129.556 32.9345 129.61 32.4985 129.719 31.8991C129.828 31.2451 129.937 30.8092 130.046 30.2097L131.736 22.1988H135.441L137.076 29.0653C137.512 30.7547 137.73 31.9536 138.057 33.643C138.439 31.8446 138.711 30.5912 139.093 28.7928L140.618 22.2533H143.343L139.746 36.0953H136.15L134.351 27.7574C134.079 26.504 133.861 25.6321 133.643 24.3787C133.534 25.0326 133.479 25.4686 133.37 26.068C133.261 26.6675 133.152 27.1035 133.043 27.7029L131.191 35.9318H127.594L123.888 22.0898L126.722 22.1443Z" fill="#0066B3"/>
<path d="M151.136 25.9591C153.316 26.94 153.861 28.9018 153.97 29.4468C154.133 30.1007 154.133 30.6457 154.133 30.8637C154.133 33.6975 152.444 35.2778 150.918 35.8773C149.992 36.2043 149.065 36.2043 148.793 36.2043C148.139 36.2043 147.485 36.1498 146.885 35.9318C145.305 35.3868 143.452 33.8065 143.507 30.8637C143.507 29.0108 144.215 27.7574 145.033 26.9945C145.523 26.5585 145.904 26.3405 146.013 26.286C146.558 26.0136 147.539 25.5776 148.847 25.5776C149.556 25.5231 150.428 25.6321 151.136 25.9591ZM147.975 27.6484C147.648 27.7574 147.321 27.9754 147.267 28.0844C146.722 28.5749 146.231 29.5013 146.231 30.8092C146.231 32.0081 146.613 32.9345 146.994 33.3705C147.321 33.752 147.648 33.9155 147.757 33.9699C148.193 34.1879 148.684 34.1879 148.793 34.1879C149.556 34.1879 150.046 33.861 150.373 33.5885C150.973 33.0435 151.3 32.1171 151.3 30.7002C151.3 29.9373 151.191 28.9018 150.428 28.1389C150.101 27.8119 149.61 27.4849 148.793 27.4849C148.52 27.4849 148.248 27.5394 147.975 27.6484Z" fill="#0066B3"/>
<path d="M162.362 28.139C162.199 28.0846 161.926 27.9756 161.545 27.9756C161.218 27.9756 159.692 27.9756 159.147 29.6649C159.038 29.9919 158.984 30.2644 158.929 30.8638C158.929 31.2453 158.929 31.5178 158.929 31.8993V35.932H156.259V28.3025C156.259 27.3216 156.259 26.6132 156.204 25.6322H158.711V28.0846C158.875 27.5396 158.929 27.3216 159.038 27.1036C159.637 25.9592 160.673 25.4688 161.599 25.4688C161.817 25.4688 162.09 25.5232 162.308 25.5232V28.139H162.362Z" fill="#0066B3"/>
<path d="M166.722 21V35.9864H164.052V21H166.722Z" fill="#0066B3"/>
<path d="M179.038 21V35.9864H176.531V33.97C176.422 34.297 176.313 34.5695 176.095 34.8964C175.605 35.6049 174.624 36.1498 173.207 36.1498C172.934 36.1498 172.226 36.1498 171.463 35.7684C169.992 35.0599 168.956 33.4251 168.956 30.8637C168.956 28.9019 169.501 27.594 170.319 26.7766C171.082 26.0136 171.79 25.7411 172.117 25.6866C172.662 25.5232 173.152 25.5232 173.37 25.5232C174.297 25.5232 175.332 25.7411 176.095 26.7766C176.259 26.9945 176.368 27.2125 176.531 27.6485V21H179.038ZM173.152 27.8665C172.716 28.03 172.444 28.3569 172.28 28.5204C171.899 29.0109 171.626 29.7193 171.681 30.8637C171.681 31.0272 171.681 32.1172 172.117 32.9346C172.171 33.0436 172.335 33.3161 172.662 33.5885C173.098 33.97 173.534 34.079 174.024 34.079C174.188 34.079 174.678 34.079 175.114 33.8065C175.55 33.534 175.986 33.1526 176.204 32.2806C176.422 31.6812 176.422 31.1362 176.422 30.9182C176.422 30.1553 176.204 28.9019 175.332 28.1935C175.114 27.9755 174.624 27.703 173.97 27.703C173.643 27.7575 173.37 27.7575 173.152 27.8665Z" fill="#0066B3"/>
</svg>
