<svg width="200" height="60" viewBox="0 0 200 60" fill="none" xmlns="http://www.w3.org/2000/svg">
<g clip-path="url(#clip0)">
<path d="M113.823 26.7142H117.732V40.6428H113.823V38.8321C112.426 40.9214 110.611 41.0607 109.494 41.0607C105.166 41.0607 102.374 37.7178 102.374 33.6785C102.374 29.5 105.166 26.2964 109.215 26.2964C110.332 26.2964 112.426 26.4357 113.683 28.525V26.7142H113.823ZM106.562 33.6785C106.562 35.9071 108.098 37.5785 110.472 37.5785C112.706 37.5785 114.381 35.9071 114.381 33.6785C114.381 31.45 112.845 29.7785 110.472 29.7785C108.238 29.7785 106.562 31.45 106.562 33.6785Z" fill="black"/>
<path d="M125.411 30.0571V40.6428H121.502V30.0571H119.966V26.7142H121.502V21.9785H125.411V26.7142H128.064V30.0571H125.411Z" fill="black"/>
<path d="M137.279 30.0571C136.302 29.2214 135.464 29.0821 135.045 29.0821C134.068 29.0821 133.509 29.5 133.509 30.1964C133.509 30.6142 133.649 31.0321 134.766 31.45L135.743 31.7285C136.86 32.1464 138.536 32.5642 139.234 33.6785C139.653 34.2357 139.932 35.0714 139.932 36.0464C139.932 37.3 139.513 38.5535 138.396 39.5285C137.279 40.5035 135.883 41.0607 134.207 41.0607C131.275 41.0607 129.74 39.6678 128.762 38.6928L130.857 36.325C131.694 37.1607 132.811 37.9964 133.928 37.9964C135.045 37.9964 135.883 37.4392 135.883 36.4642C135.883 35.6285 135.185 35.2107 134.626 35.0714L133.789 34.7928C132.811 34.375 131.694 33.9571 130.857 33.1214C130.158 32.425 129.74 31.5892 129.74 30.475C129.74 29.0821 130.438 27.9678 131.136 27.2714C132.253 26.4357 133.649 26.2964 134.766 26.2964C135.743 26.2964 137.419 26.4357 139.234 27.8285L137.279 30.0571Z" fill="black"/>
<path d="M145.796 28.5249C147.192 26.5749 149.147 26.2964 150.264 26.2964C154.313 26.2964 157.106 29.4999 157.106 33.6785C157.106 37.8571 154.313 41.0607 150.124 41.0607C149.287 41.0607 147.192 40.9214 145.657 38.8321V40.6428H141.887V17.2428H145.796V28.5249ZM145.377 33.6785C145.377 35.9071 146.913 37.5785 149.287 37.5785C151.521 37.5785 153.196 35.9071 153.196 33.6785C153.196 31.4499 151.66 29.7785 149.287 29.7785C146.913 29.7785 145.377 31.4499 145.377 33.6785Z" fill="black"/>
<path d="M163.529 38.5535L156.827 26.7142H161.434L165.763 34.6535L169.672 26.7142H174.14L162.97 48.0249H158.502L163.529 38.5535Z" fill="black"/>
<path d="M101.396 29.0822H97.4868H91.6227V32.9822H96.7887C95.951 35.6286 93.9963 37.4393 90.3661 37.4393C86.317 37.4393 83.3849 34.0965 83.3849 30.0572C83.3849 26.0179 86.1774 22.5357 90.2265 22.5357C92.4604 22.5357 94.6944 23.65 96.0906 25.4607L99.3019 23.3715C97.2076 20.4465 93.8566 18.775 90.2265 18.775C84.0831 18.775 79.0566 23.7893 79.0566 30.0572C79.0566 36.325 83.8038 41.3393 90.2265 41.3393C96.6491 41.3393 101.396 36.325 101.396 30.0572C101.536 29.6393 101.396 29.3607 101.396 29.0822Z" fill="black"/>
<path d="M60.9055 29.5H51.1319V32.2857H57.8338C56.8565 36.4643 53.7848 39.9464 49.7357 41.3393L33.6791 25.3214C35.3546 20.4464 40.1018 16.9643 45.547 16.9643C49.7357 16.9643 53.5055 19.0536 55.8791 22.2572L57.9735 20.4464C55.181 16.6857 50.7131 14.1786 45.547 14.1786C38.2867 14.1786 32.1433 19.3322 30.6074 26.1572L49.0376 44.5429C55.7395 42.8714 60.9055 36.7429 60.9055 29.5Z" fill="white"/>
<path d="M30.1885 29.6393C30.1885 33.5393 31.7243 37.3 34.6564 40.225C37.5885 43.15 41.4979 44.6821 45.2677 44.6821L30.1885 29.6393Z" fill="white"/>
<path d="M45.5472 10C34.7962 10 26 18.775 26 29.5C26 40.225 34.7962 49 45.5472 49C56.2981 49 65.0943 40.225 65.0943 29.5C65.0943 18.775 56.2981 10 45.5472 10ZM34.6566 40.3643C31.7245 37.4393 30.1887 33.5393 30.1887 29.7786L45.4075 44.8214C41.4981 44.6821 37.5887 43.2893 34.6566 40.3643ZM48.8981 44.4036L30.6075 26.1571C32.1434 19.3321 38.2868 14.1786 45.5472 14.1786C50.7132 14.1786 55.1811 16.6857 57.9736 20.4464L55.8792 22.2571C53.5057 19.0536 49.7359 16.9643 45.5472 16.9643C40.1019 16.9643 35.4943 20.4464 33.6792 25.3214L49.7359 41.3393C53.7849 39.9464 56.8566 36.4643 57.834 32.2857H51.1321V29.5H60.9057C60.9057 36.7429 55.7396 42.8714 48.8981 44.4036Z" fill="#663399"/>
</g>
<defs>
<clipPath id="clip0">
<rect width="148" height="39" fill="white" transform="translate(26 10)"/>
</clipPath>
</defs>
</svg>
