<svg width="200" height="60" viewBox="0 0 200 60" fill="none" xmlns="http://www.w3.org/2000/svg">
<path d="M15 21.5069L32.238 21.5052V24.6939H25.309V39.4629H21.929V24.6939H15V21.5069ZM79.727 21.5069L96.965 21.5052V24.6939H90.036V39.4629H86.656V24.6939H79.727V21.5069ZM166.762 21.5069L184 21.5052V24.6939H177.071V39.4629H173.691V24.6939H166.762V21.5069ZM152.735 39.4629H149.186V21.5052H163.72V24.6939H152.735V28.554H161.861V31.7428H152.735V39.4629Z" fill="#0080C8"/>
<path fill-rule="evenodd" clip-rule="evenodd" d="M38.6499 25.8033V28.6564H52.5079V25.7362C52.4986 25.5712 52.4415 25.4125 52.3435 25.2791C52.2454 25.1457 52.1106 25.0433 51.9552 24.9843C49.0738 23.9991 42.28 24.031 39.2802 24.9658C39.1004 25.0219 38.9432 25.1336 38.8317 25.2845C38.7201 25.4354 38.66 25.6178 38.66 25.805L38.6499 25.8033ZM55.9335 39.431H52.5045V31.7109H38.6465V39.431H35.2192V24.2609C35.2192 23.061 35.8276 22.2369 37.3722 21.8996C42.8752 20.7467 48.5626 20.7736 54.0542 21.9785C55.0226 22.2 55.9335 22.8176 55.9335 24.2727V39.431Z" fill="#0080C8"/>
<path d="M141.78 25.6825C141.771 25.5176 141.714 25.359 141.615 25.2258C141.517 25.0927 141.382 24.9907 141.226 24.9323C138.353 23.9471 131.172 23.979 128.166 24.9138C127.986 24.9697 127.828 25.0812 127.717 25.2322C127.605 25.3832 127.545 25.5657 127.546 25.7529V35.3192C127.554 35.484 127.611 35.6427 127.71 35.7759C127.808 35.9091 127.943 36.0111 128.098 36.0694C130.971 37.0546 138.152 37.0227 141.158 36.0879C141.339 36.0321 141.496 35.9206 141.608 35.7696C141.72 35.6187 141.78 35.4362 141.78 35.2487V25.6825ZM124.115 24.2089C124.115 23.0073 124.723 22.1849 126.268 21.8476C131.676 20.6727 138.179 20.7483 143.337 21.9248C144.307 22.148 145.216 22.774 145.216 24.2207V36.7894C145.216 37.9911 144.608 38.8134 143.063 39.1508C137.655 40.3256 131.152 40.25 125.994 39.0719C125.024 38.8504 124.115 38.2327 124.115 36.7777V24.2089ZM101.506 31.721C100.272 31.721 99.5287 30.8818 99.5287 29.7574V24.2626C99.5287 22.9334 100.374 22.1983 101.219 22.007C104.061 21.3353 106.972 20.9973 109.893 21C112.956 21 115.844 21.3911 120.045 22.2688V25.6103C113.961 23.833 106.679 23.9907 103.686 24.939C103.469 24.9878 103.276 25.1126 103.143 25.2906C103.01 25.4687 102.946 25.6881 102.963 25.909V28.1177C102.958 28.1906 102.969 28.2636 102.996 28.3318C103.022 28.4 103.063 28.4616 103.116 28.5124C103.169 28.5631 103.233 28.6019 103.302 28.6259C103.372 28.6499 103.446 28.6586 103.519 28.6514H118.278C119.511 28.6514 120.255 29.4905 120.255 30.615V36.7374C120.255 38.0666 119.41 38.8017 118.565 38.993C115.723 39.6647 112.811 40.0027 109.89 40C106.777 40 103.845 39.5955 99.5287 38.6859V35.3293C105.66 37.1754 113.069 37.0227 116.091 36.0677C116.309 36.0203 116.503 35.8964 116.637 35.7186C116.771 35.5407 116.837 35.3209 116.821 35.0994V32.2563C116.826 32.1834 116.814 32.1103 116.788 32.0422C116.761 31.974 116.72 31.9124 116.667 31.8616C116.614 31.8109 116.551 31.7721 116.481 31.7481C116.412 31.7241 116.338 31.7154 116.265 31.7226L101.506 31.721ZM79.58 39.431H76.151V33.3321C76.1544 33.1449 76.0912 32.9624 75.9725 32.8169C75.8538 32.6714 75.6872 32.5721 75.502 32.5366C70.1819 31.3618 63.0585 31.7377 63.0585 31.7377L63.0433 39.431H59.6329V21.5656H63.0467L63.0619 28.653H64.13C64.785 28.6299 65.428 28.4719 66.0182 28.1891C66.6085 27.9063 67.1332 27.5047 67.559 27.01C69.2828 25.1118 72.5006 21.5622 72.5006 21.5622L77.0078 21.5841C77.0078 21.5841 72.9366 26.1155 71.1841 28.0136C70.911 28.3209 70.5925 28.5852 70.2393 28.7974C72.7101 28.9266 75.426 29.1582 77.7007 29.5761C78.6792 29.754 79.58 30.4152 79.58 31.8703V39.431Z" fill="#0080C8"/>
</svg>
