<svg width="200" height="60" viewBox="0 0 200 60" fill="none" xmlns="http://www.w3.org/2000/svg">
<g clip-path="url(#clip0)">
<path d="M51.2744 40.6688C57.5324 40.7594 63.7644 39.8469 69.7326 37.9659C75.6447 35.9388 79.3002 32.8455 79.3002 30.0526C79.3002 27.2596 75.4341 23.866 69.0707 21.7638C63.2975 20.0538 57.2955 19.2385 51.2744 19.3463C45.1264 19.198 38.9935 20.0189 33.102 21.7788C26.9492 23.8811 23.2485 27.1996 23.2485 30.0526C23.2485 32.9056 26.7236 35.8938 32.5604 37.9209C38.6113 39.8289 44.9294 40.7566 51.2744 40.6688V40.6688Z" stroke="#00D8FF" stroke-width="1.66" stroke-linecap="round" stroke-linejoin="round"/>
<path d="M42.0229 35.3232C45.064 40.7848 48.9648 45.7229 53.5762 49.9486C58.2998 54.048 62.7978 55.6547 65.2198 54.2582C67.6418 52.8617 68.6647 47.8314 67.3108 41.2845C65.9252 35.4382 63.6525 29.8376 60.5714 24.6769C57.6197 19.2943 53.8434 14.4052 49.3791 10.1866C44.4749 5.92207 39.7513 4.37543 37.2692 5.80194C34.787 7.22845 33.9446 11.7182 35.1029 17.8146C36.4653 23.9965 38.8172 29.9186 42.068 35.3532L42.0229 35.3232Z" stroke="#00D8FF" stroke-width="1.66" stroke-linecap="round" stroke-linejoin="round"/>
<path d="M42.0226 24.6618C38.8058 30.0207 36.4743 35.8615 35.1177 41.9601C33.9142 48.0866 34.7566 52.7866 37.1786 54.1831C39.6006 55.5795 44.4897 53.9578 49.4991 49.5131C53.8964 45.3831 57.6308 40.6021 60.5711 35.3381C63.7735 30.1016 66.1339 24.3964 67.5663 18.4303C68.8299 12.0635 67.807 7.19838 65.3248 5.77187C62.8426 4.34536 58.5252 5.84695 53.8316 9.8712C49.1487 14.1431 45.1821 19.1366 42.0828 24.6618H42.0226Z" stroke="#00D8FF" stroke-width="1.66" stroke-linecap="round" stroke-linejoin="round"/>
<path fill-rule="evenodd" clip-rule="evenodd" d="M110.801 39.9931L104.393 30.2778C106.124 30.1695 107.742 29.3827 108.894 28.0889C110.047 26.7951 110.64 25.0992 110.546 23.3705C110.582 22.3994 110.413 21.4316 110.049 20.5304C109.684 19.6292 109.133 18.8152 108.431 18.1416C107.73 17.4681 106.893 16.9503 105.977 16.6222C105.06 16.2941 104.085 16.1632 103.114 16.238H93.5767V39.9781H96.5853V30.5631H101.324L107.341 39.9781L110.801 39.9931ZM102.753 27.9804H96.5252V18.9709H102.693C103.286 18.9709 103.872 19.0874 104.42 19.3138C104.968 19.5402 105.465 19.872 105.884 20.2903C106.303 20.7086 106.636 21.2052 106.862 21.7517C107.089 22.2983 107.206 22.8841 107.206 23.4756C107.206 24.0672 107.089 24.653 106.862 25.1995C106.636 25.7461 106.303 26.2427 105.884 26.661C105.465 27.0793 104.968 27.4111 104.42 27.6375C103.872 27.8639 103.286 27.9804 102.693 27.9804H102.753ZM121.798 40.4135C123.055 40.4605 124.309 40.2518 125.483 39.8C126.657 39.3483 127.727 38.663 128.628 37.7858L127.349 36.0439C125.938 37.4328 124.035 38.2098 122.054 38.2062C121.249 38.2303 120.447 38.0928 119.696 37.8018C118.945 37.5107 118.26 37.0722 117.682 36.512C117.104 35.9518 116.644 35.2815 116.331 34.5408C116.017 33.8001 115.856 33.004 115.856 32.1999H129.771V31.5241C129.771 26.3737 126.762 22.3344 121.497 22.3344C120.342 22.3491 119.201 22.5963 118.143 23.0614C117.086 23.5264 116.133 24.1997 115.342 25.0409C114.552 25.882 113.939 26.8738 113.541 27.9569C113.144 29.0399 112.969 30.1919 113.028 31.344C112.956 32.5228 113.131 33.7035 113.542 34.811C113.954 35.9184 114.591 36.9281 115.415 37.7758C116.239 38.6235 117.231 39.2906 118.327 39.7344C119.423 40.1782 120.6 40.389 121.783 40.3535L121.798 40.4135ZM127.138 30.2778H115.856C115.86 28.7811 116.451 27.3455 117.503 26.2788C118.554 25.2121 119.983 24.5993 121.482 24.5718C122.233 24.5594 122.98 24.6989 123.675 24.982C124.371 25.2651 125.002 25.686 125.531 26.2191C126.06 26.7523 126.474 27.3868 126.751 28.0843C127.027 28.7819 127.159 29.528 127.138 30.2778V30.2778ZM147.507 39.9481V28.1906C147.507 24.0312 144.499 22.4095 140.843 22.4095C139.563 22.3699 138.29 22.6024 137.107 23.0917C135.924 23.5811 134.86 24.3159 133.983 25.2475L135.217 27.0945C135.868 26.3351 136.679 25.7277 137.591 25.3152C138.504 24.9027 139.495 24.695 140.497 24.7069C142.979 24.7069 144.829 26.0283 144.829 28.3408V31.419C144.114 30.6331 143.233 30.0153 142.25 29.6102C141.267 29.2051 140.205 29.0229 139.143 29.0766C138.37 29.025 137.595 29.1329 136.865 29.3937C136.136 29.6544 135.468 30.0624 134.903 30.5921C134.339 31.1218 133.889 31.762 133.584 32.4726C133.278 33.1832 133.122 33.9491 133.126 34.7225C133.127 35.4965 133.285 36.2623 133.592 36.9731C133.899 37.684 134.348 38.3251 134.91 38.8575C135.473 39.3898 136.139 39.8023 136.867 40.0698C137.594 40.3373 138.369 40.4543 139.143 40.4135C140.203 40.446 141.258 40.2509 142.237 39.8417C143.215 39.4324 144.094 38.8184 144.814 38.041V39.9931L147.507 39.9481ZM140.106 38.4465C139.584 38.4931 139.058 38.4308 138.561 38.2633C138.064 38.0959 137.608 37.827 137.221 37.4739C136.834 37.1207 136.525 36.691 136.314 36.2122C136.102 35.7333 135.993 35.2158 135.993 34.6925C135.993 34.1692 136.102 33.6517 136.314 33.1728C136.525 32.6939 136.834 32.2643 137.221 31.9111C137.608 31.558 138.064 31.2891 138.561 31.1217C139.058 30.9542 139.584 30.8919 140.106 30.9385C141.008 30.9067 141.906 31.0888 142.724 31.4699C143.543 31.8509 144.259 32.4201 144.814 33.1308V36.3593C144.251 37.0611 143.53 37.6201 142.709 37.9906C141.888 38.3612 140.991 38.5328 140.091 38.4915L140.106 38.4465ZM160.414 40.3685C161.63 40.43 162.842 40.1876 163.94 39.6631C165.038 39.1387 165.988 38.3489 166.703 37.3653L164.927 35.7436C164.44 36.4466 163.788 37.0195 163.027 37.4122C162.267 37.8049 161.421 38.0053 160.565 37.996C156.894 37.996 154.548 35.143 154.548 31.344C154.548 27.5449 156.819 24.737 160.565 24.737C161.424 24.7098 162.276 24.9025 163.04 25.2967C163.803 25.691 164.453 26.2737 164.927 26.9893L166.703 25.3526C165.986 24.3711 165.036 23.5827 163.938 23.0585C162.841 22.5343 161.63 22.2906 160.414 22.3494C159.245 22.3348 158.085 22.5612 157.007 23.0146C155.93 23.4679 154.957 24.1384 154.151 24.984C153.345 25.8297 152.722 26.8324 152.322 27.9293C151.921 29.0262 151.752 30.1938 151.825 31.359C151.752 32.5241 151.921 33.6917 152.322 34.7886C152.722 35.8856 153.345 36.8882 154.151 37.7339C154.957 38.5796 155.93 39.2501 157.007 39.7034C158.085 40.1567 159.245 40.3831 160.414 40.3685V40.3685ZM174.796 40.3685C175.376 40.4057 175.958 40.328 176.508 40.1399C177.058 39.9518 177.565 39.6569 178 39.2723L177.218 37.2752C176.73 37.7456 176.076 38.0047 175.398 37.996C174.224 37.996 173.653 37.065 173.653 35.7887V25.1724H177.143V22.7699H173.653V18.145H170.975V22.7699H168.132V25.1724H170.975V36.4043C170.897 36.9318 170.941 37.4701 171.102 37.9784C171.264 38.4867 171.539 38.9516 171.907 39.3379C172.275 39.7243 172.727 40.0219 173.227 40.2082C173.728 40.3946 174.264 40.4648 174.796 40.4135V40.3685Z" fill="#00D8FF"/>
</g>
<defs>
<clipPath id="clip0">
<rect width="156" height="52" fill="white" transform="translate(22 4)"/>
</clipPath>
</defs>
</svg>
