<svg width="200" height="60" viewBox="0 0 200 60" fill="none" xmlns="http://www.w3.org/2000/svg">
<path fill-rule="evenodd" clip-rule="evenodd" d="M47 12.7612L61.9292 21.3806V38.6194L47 47.2387L32.0708 38.6194V21.3806L47 12.7612ZM33.7459 22.3477V35.01L44.7118 16.0166L33.7459 22.3477ZM47 15.4034L34.359 37.2983H59.641L47 15.4034ZM57.9659 38.9734H36.0341L47 45.3045L57.9659 38.9734ZM60.2541 35.01L49.2882 16.0166L60.2541 22.3477V35.01Z" fill="#E10098"/>
<path d="M46.9997 17.2563C48.9481 17.2563 50.5277 15.6768 50.5277 13.7283C50.5277 11.7799 48.9481 10.2003 46.9997 10.2003C45.0512 10.2003 43.4717 11.7799 43.4717 13.7283C43.4717 15.6768 45.0512 17.2563 46.9997 17.2563Z" fill="#E10098"/>
<path d="M61.0915 25.3922C63.0399 25.3922 64.6195 23.8126 64.6195 21.8642C64.6195 19.9157 63.0399 18.3362 61.0915 18.3362C59.143 18.3362 57.5635 19.9157 57.5635 21.8642C57.5635 23.8126 59.143 25.3922 61.0915 25.3922Z" fill="#E10098"/>
<path d="M61.0915 41.6638C63.0399 41.6638 64.6195 40.0842 64.6195 38.1358C64.6195 36.1873 63.0399 34.6078 61.0915 34.6078C59.143 34.6078 57.5635 36.1873 57.5635 38.1358C57.5635 40.0842 59.143 41.6638 61.0915 41.6638Z" fill="#E10098"/>
<path d="M46.9997 49.7997C48.9481 49.7997 50.5277 48.2201 50.5277 46.2717C50.5277 44.3232 48.9481 42.7437 46.9997 42.7437C45.0512 42.7437 43.4717 44.3232 43.4717 46.2717C43.4717 48.2201 45.0512 49.7997 46.9997 49.7997Z" fill="#E10098"/>
<path d="M32.9064 41.6638C34.8549 41.6638 36.4344 40.0842 36.4344 38.1358C36.4344 36.1873 34.8549 34.6078 32.9064 34.6078C30.958 34.6078 29.3784 36.1873 29.3784 38.1358C29.3784 40.0842 30.958 41.6638 32.9064 41.6638Z" fill="#E10098"/>
<path d="M32.9064 25.3922C34.8549 25.3922 36.4344 23.8126 36.4344 21.8642C36.4344 19.9157 34.8549 18.3362 32.9064 18.3362C30.958 18.3362 29.3784 19.9157 29.3784 21.8642C29.3784 23.8126 30.958 25.3922 32.9064 25.3922Z" fill="#E10098"/>
<path d="M82.5501 38.65C80.4669 38.65 78.8501 38.05 77.7001 36.85C76.5501 35.65 75.9417 34.0417 75.8753 32.025C75.8585 31.525 75.8501 30.7333 75.8501 29.65C75.8501 28.5667 75.8585 27.775 75.8753 27.275C75.9417 25.2583 76.5501 23.65 77.7001 22.45C78.8501 21.25 80.4669 20.65 82.5501 20.65C83.9669 20.65 85.1585 20.9167 86.1253 21.45C87.0917 21.9833 87.8085 22.6167 88.2753 23.35C88.7585 24.0667 89.0169 24.7083 89.0501 25.275V25.325C89.0501 25.4583 89.0001 25.5667 88.9001 25.65C88.8001 25.7333 88.6753 25.775 88.5249 25.775H87.9753C87.8253 25.775 87.7169 25.7417 87.6501 25.675C87.5833 25.6083 87.5169 25.475 87.4501 25.275C87.1669 24.3917 86.6169 23.65 85.8001 23.05C85.0001 22.45 83.9169 22.15 82.5501 22.15C81.0001 22.15 79.7753 22.575 78.8753 23.425C77.9917 24.275 77.5169 25.6 77.4501 27.4C77.4333 27.9 77.4253 28.65 77.4253 29.65C77.4253 30.65 77.4333 31.4 77.4501 31.9C77.5169 33.7 77.9917 35.025 78.8753 35.875C79.7753 36.725 81.0001 37.15 82.5501 37.15C84.1001 37.15 85.3501 36.7083 86.3001 35.825C87.2501 34.9417 87.7249 33.6333 87.7249 31.9V30.625H83.3753C83.2085 30.625 83.0753 30.575 82.9753 30.475C82.8753 30.3583 82.8253 30.2167 82.8253 30.05V29.7C82.8253 29.5333 82.8753 29.4 82.9753 29.3C83.0753 29.1833 83.2085 29.125 83.3753 29.125H88.7249C88.9085 29.125 89.0501 29.175 89.1501 29.275C89.2501 29.375 89.3001 29.5167 89.3001 29.7V31.9C89.3001 33.2333 89.0333 34.4083 88.5001 35.425C87.9669 36.4417 87.1917 37.2333 86.1753 37.8C85.1585 38.3667 83.9501 38.65 82.5501 38.65Z" fill="#E10098"/>
<path d="M93.3767 38.4C93.2103 38.4 93.0767 38.35 92.9767 38.25C92.8767 38.15 92.8267 38.0167 92.8267 37.85V25.975C92.8267 25.8083 92.8767 25.675 92.9767 25.575C93.0767 25.4583 93.2103 25.4 93.3767 25.4H93.7767C93.9435 25.4 94.0767 25.4583 94.1767 25.575C94.2935 25.675 94.3519 25.8083 94.3519 25.975V27.125C94.9519 25.975 96.0851 25.4 97.7519 25.4H98.6767C98.8435 25.4 98.9767 25.45 99.0767 25.55C99.1767 25.65 99.2267 25.7833 99.2267 25.95V26.3C99.2267 26.4667 99.1767 26.6 99.0767 26.7C98.9767 26.8 98.8435 26.85 98.6767 26.85H97.6019C96.6019 26.85 95.8103 27.1417 95.2267 27.725C94.6435 28.3083 94.3519 29.1 94.3519 30.1V37.85C94.3519 38.0167 94.2935 38.15 94.1767 38.25C94.0767 38.35 93.9435 38.4 93.7767 38.4H93.3767Z" fill="#E10098"/>
<path d="M104.823 38.65C104.023 38.65 103.281 38.4833 102.598 38.15C101.914 37.8167 101.364 37.3667 100.948 36.8C100.548 36.2333 100.348 35.6083 100.348 34.925C100.348 33.825 100.789 32.925 101.673 32.225C102.573 31.525 103.781 31.075 105.298 30.875L109.248 30.325V29.45C109.248 28.5333 108.964 27.8333 108.398 27.35C107.848 26.85 106.998 26.6 105.848 26.6C104.998 26.6 104.298 26.7667 103.748 27.1C103.214 27.4333 102.873 27.8333 102.723 28.3C102.656 28.5 102.573 28.6417 102.473 28.725C102.389 28.7917 102.273 28.825 102.123 28.825H101.773C101.623 28.825 101.489 28.775 101.373 28.675C101.273 28.5583 101.223 28.425 101.223 28.275C101.223 27.9083 101.389 27.4833 101.723 27C102.056 26.5 102.573 26.0667 103.273 25.7C103.973 25.3333 104.831 25.15 105.848 25.15C107.631 25.15 108.898 25.575 109.648 26.425C110.398 27.275 110.773 28.3083 110.773 29.525V37.85C110.773 38.0167 110.723 38.15 110.623 38.25C110.523 38.35 110.389 38.4 110.223 38.4H109.798C109.631 38.4 109.498 38.35 109.398 38.25C109.298 38.15 109.248 38.0167 109.248 37.85V36.675C108.881 37.225 108.339 37.6917 107.623 38.075C106.923 38.4583 105.989 38.65 104.823 38.65ZM105.073 37.2C106.289 37.2 107.289 36.8 108.073 36C108.856 35.2 109.248 34.05 109.248 32.55V31.7L106.023 32.15C104.656 32.3333 103.623 32.65 102.923 33.1C102.223 33.55 101.873 34.1167 101.873 34.8C101.873 35.5667 102.189 36.1583 102.823 36.575C103.473 36.9917 104.223 37.2 105.073 37.2Z" fill="#E10098"/>
<path d="M115.301 43.15C115.135 43.15 115.001 43.1 114.901 43C114.801 42.9 114.751 42.7667 114.751 42.6V25.95C114.751 25.7833 114.801 25.65 114.901 25.55C115.001 25.45 115.135 25.4 115.301 25.4H115.726C115.893 25.4 116.026 25.45 116.126 25.55C116.226 25.65 116.276 25.7833 116.276 25.95V27.125C117.243 25.8083 118.643 25.15 120.476 25.15C122.276 25.15 123.601 25.725 124.451 26.875C125.318 28.0083 125.776 29.4083 125.826 31.075C125.843 31.2417 125.851 31.5167 125.851 31.9C125.851 32.2833 125.843 32.5583 125.826 32.725C125.776 34.3917 125.318 35.8 124.451 36.95C123.601 38.0833 122.276 38.65 120.476 38.65C118.659 38.65 117.259 37.9917 116.276 36.675V42.6C116.276 42.7667 116.226 42.9 116.126 43C116.026 43.1 115.893 43.15 115.726 43.15H115.301ZM120.326 37.2C121.676 37.2 122.659 36.775 123.276 35.925C123.909 35.0583 124.251 33.95 124.301 32.6C124.318 32.4333 124.326 32.2 124.326 31.9C124.326 30.35 124.026 29.0833 123.426 28.1C122.826 27.1 121.793 26.6 120.326 26.6C119.009 26.6 118.018 27.0417 117.351 27.925C116.685 28.7917 116.326 29.8167 116.276 31L116.251 31.975L116.276 32.95C116.293 33.6667 116.451 34.35 116.751 35C117.051 35.6333 117.501 36.1583 118.101 36.575C118.701 36.9917 119.443 37.2 120.326 37.2Z" fill="#E10098"/>
<path d="M129.827 38.4C129.661 38.4 129.527 38.35 129.427 38.25C129.327 38.15 129.277 38.0167 129.277 37.85V21.2C129.277 21.0333 129.327 20.9 129.427 20.8C129.527 20.7 129.661 20.65 129.827 20.65H130.253C130.419 20.65 130.553 20.7 130.653 20.8C130.753 20.9 130.803 21.0333 130.803 21.2V27.125C131.303 26.475 131.869 25.9833 132.503 25.65C133.153 25.3167 133.986 25.15 135.003 25.15C136.636 25.15 137.894 25.675 138.777 26.725C139.661 27.7583 140.103 29.1 140.103 30.75V37.85C140.103 38.0167 140.053 38.15 139.953 38.25C139.853 38.35 139.719 38.4 139.553 38.4H139.127C138.961 38.4 138.827 38.35 138.727 38.25C138.627 38.15 138.577 38.0167 138.577 37.85V30.875C138.577 29.525 138.244 28.475 137.577 27.725C136.927 26.975 135.986 26.6 134.753 26.6C133.553 26.6 132.594 26.9833 131.877 27.75C131.161 28.5 130.803 29.5417 130.803 30.875V37.85C130.803 38.0167 130.753 38.15 130.653 38.25C130.553 38.35 130.419 38.4 130.253 38.4H129.827Z" fill="#E10098"/>
<path d="M155.673 40.025C155.423 40.025 155.156 39.8333 154.873 39.45L153.773 37.925C152.773 38.4083 151.606 38.65 150.273 38.65C145.99 38.65 143.79 36.35 143.673 31.75C143.656 31.25 143.648 30.55 143.648 29.65C143.648 28.75 143.656 28.05 143.673 27.55C143.74 25.2833 144.356 23.5667 145.523 22.4C146.69 21.2333 148.273 20.65 150.273 20.65C152.273 20.65 153.856 21.2333 155.023 22.4C156.19 23.5667 156.806 25.2833 156.873 27.55C156.906 28.55 156.923 29.25 156.923 29.65C156.923 30.05 156.906 30.75 156.873 31.75C156.79 34.1333 156.181 35.8833 155.048 37L156.648 39.25C156.698 39.35 156.723 39.4417 156.723 39.525C156.723 39.6583 156.673 39.775 156.573 39.875C156.473 39.975 156.356 40.025 156.223 40.025H155.673ZM150.273 37.15C151.773 37.15 152.964 36.7 153.848 35.8C154.748 34.8833 155.231 33.4917 155.298 31.625C155.331 30.625 155.348 29.9667 155.348 29.65C155.348 29.3333 155.331 28.675 155.298 27.675C155.231 25.8083 154.748 24.425 153.848 23.525C152.948 22.6083 151.756 22.15 150.273 22.15C148.79 22.15 147.598 22.6083 146.698 23.525C145.798 24.425 145.314 25.8083 145.248 27.675C145.231 28.175 145.223 28.8333 145.223 29.65C145.223 30.4667 145.231 31.125 145.248 31.625C145.314 33.4917 145.79 34.8833 146.673 35.8C147.573 36.7 148.773 37.15 150.273 37.15Z" fill="#E10098"/>
<path d="M161.45 38.4C161.284 38.4 161.15 38.35 161.05 38.25C160.95 38.15 160.9 38.0167 160.9 37.85V21.45C160.9 21.2833 160.95 21.15 161.05 21.05C161.15 20.95 161.284 20.9 161.45 20.9H161.926C162.092 20.9 162.226 20.95 162.326 21.05C162.426 21.15 162.476 21.2833 162.476 21.45V36.9H171.1C171.284 36.9 171.426 36.95 171.526 37.05C171.626 37.15 171.676 37.2917 171.676 37.475V37.85C171.676 38.0167 171.617 38.15 171.5 38.25C171.4 38.35 171.267 38.4 171.1 38.4H161.45Z" fill="#E10098"/>
</svg>
