<svg width="200" height="60" viewBox="0 0 200 60" fill="none" xmlns="http://www.w3.org/2000/svg">
<path d="M114.474 25.3269H106.842V26.1386C109.232 26.1386 109.611 26.6469 109.611 29.6814V35.1435C109.611 38.1704 109.232 38.7241 106.842 38.7241C105.006 38.4662 103.77 37.4876 102.063 35.6138L100.098 33.4821C102.738 33.0117 104.149 31.3504 104.149 29.469C104.149 27.1248 102.146 25.3345 98.3909 25.3345H90.8882V26.1462C93.2778 26.1462 93.6571 26.6545 93.6571 29.689V35.151C93.6571 38.1779 93.2703 38.7317 90.8882 38.7317V39.5435H99.3772V38.7317C96.9875 38.7317 96.6082 38.1779 96.6082 35.151V33.5959H97.3365L102.07 39.5207H114.481C120.581 39.5207 123.221 36.2814 123.221 32.3972C123.213 28.5207 120.565 25.3269 114.474 25.3269ZM96.6006 32.2759V26.6014H98.3454C100.265 26.6014 101.114 27.9214 101.114 29.4614C101.114 30.9559 100.265 32.2759 98.3454 32.2759H96.6006ZM114.595 38.2007H114.299C112.767 38.2007 112.554 37.8214 112.554 35.8566V26.6014C112.554 26.6014 114.428 26.6014 114.603 26.6014C119.041 26.6014 119.845 29.8407 119.845 32.3593C119.845 34.9614 119.033 38.2007 114.595 38.2007Z" fill="#00749A"/>
<path d="M67.1349 33.8538L70.0783 25.1525C70.928 22.6338 70.5487 21.9131 67.8177 21.9131V21.0635H75.8363V21.9131C73.1508 21.9131 72.5135 22.5504 71.4439 25.6683L66.5811 40.249H66.0273L61.6804 26.8973L57.2425 40.249H56.6887L51.9549 25.6607C50.9308 22.5504 50.248 21.9056 47.7749 21.9056V21.0559H57.2425V21.9131C54.7239 21.9131 54.0411 22.5125 54.9363 25.1525L57.7963 33.8538L62.1052 21.0559H62.917L67.1349 33.8538Z" fill="#00749A"/>
<path d="M81.6319 40.082C76.9436 40.082 73.105 36.6303 73.105 32.4048C73.105 28.2248 76.9436 24.7731 81.6319 24.7731C86.3202 24.7731 90.1588 28.2248 90.1588 32.4048C90.1588 36.6227 86.3202 40.082 81.6319 40.082ZM81.6319 26.0931C77.7098 26.0931 76.3443 29.6282 76.3443 32.4048C76.3443 35.2193 77.7098 38.7165 81.6319 38.7165C85.5995 38.7165 86.965 35.2193 86.965 32.4048C86.965 29.6282 85.5995 26.0931 81.6319 26.0931Z" fill="#00749A"/>
<path d="M133.741 38.6711V39.5207H123.978V38.6711C126.838 38.6711 127.346 37.9428 127.346 33.6794V26.8594C127.346 22.5959 126.838 21.9131 123.978 21.9131V21.0559H132.808C137.201 21.0559 139.636 23.3166 139.636 26.3435C139.636 29.2869 137.201 31.5856 132.808 31.5856H130.381V33.6718C130.373 37.9428 130.889 38.6711 133.741 38.6711ZM132.808 22.5959H130.381V30.0152H132.808C135.198 30.0152 136.306 28.3538 136.306 26.3511C136.306 24.3028 135.198 22.5959 132.808 22.5959Z" fill="#464342"/>
<path d="M168.927 35.5151L168.714 36.2813C168.327 37.6923 167.865 38.2006 164.83 38.2006H164.231C162.016 38.2006 161.629 37.6923 161.629 34.6578V32.693C164.952 32.693 165.209 32.9889 165.209 35.2116H166.021V28.8544H165.209C165.209 31.0696 164.952 31.373 161.629 31.373V26.5937H163.973C167 26.5937 167.47 27.102 167.857 28.513L168.069 29.3247H168.752L168.456 25.3192H155.916V26.1309C158.306 26.1309 158.685 26.6392 158.685 29.6737V35.1358C158.685 37.9047 158.359 38.6027 156.478 38.7013C154.687 38.4282 153.458 37.4496 151.782 35.6061L149.817 33.4744C152.465 33.004 153.868 31.3427 153.868 29.4613C153.868 27.1171 151.865 25.3268 148.11 25.3268H140.607V26.1385C142.997 26.1385 143.376 26.6468 143.376 29.6813V35.1434C143.376 38.1702 142.989 38.724 140.607 38.724V39.5358H149.096V38.724C146.707 38.724 146.327 38.1702 146.327 35.1434V33.5958H147.056L151.789 39.5206H169.314L169.572 35.5151H168.927ZM146.327 32.2758V26.6013H148.072C149.992 26.6013 150.841 27.9213 150.841 29.4613C150.841 30.9558 149.992 32.2758 148.072 32.2758H146.327Z" fill="#464342"/>
<path d="M177.583 40.0822C175.876 40.0822 174.382 39.187 173.744 38.6332C173.532 38.8456 173.145 39.4829 173.062 40.0822H172.258V34.1953H173.107C173.449 37.0098 175.413 38.6711 177.924 38.6711C179.29 38.6711 180.398 37.9049 180.398 36.6229C180.398 35.5153 179.419 34.658 177.667 33.8539L175.239 32.7008C173.532 31.8891 172.25 30.4856 172.25 28.6042C172.25 26.556 174.169 24.8111 176.817 24.8111C178.228 24.8111 179.419 25.327 180.147 25.9187C180.36 25.7442 180.572 25.2815 180.701 24.7656H181.513V29.8029H180.618C180.322 27.8001 179.207 26.1387 176.953 26.1387C175.762 26.1387 174.647 26.8215 174.647 27.8911C174.647 28.9987 175.542 29.598 177.591 30.5311L179.935 31.6842C181.983 32.6629 182.795 34.2408 182.795 35.5229C182.787 38.2008 180.443 40.0822 177.583 40.0822Z" fill="#464342"/>
<path d="M190.722 40.0822C189.015 40.0822 187.521 39.187 186.883 38.6332C186.671 38.8456 186.284 39.4829 186.201 40.0822H185.389V34.1953H186.239C186.58 37.0098 188.545 38.6711 191.056 38.6711C192.421 38.6711 193.529 37.9049 193.529 36.6229C193.529 35.5153 192.55 34.658 190.798 33.8539L188.37 32.7008C186.663 31.8891 185.381 30.4856 185.381 28.6042C185.381 26.556 187.301 24.8111 189.948 24.8111C191.359 24.8111 192.55 25.327 193.271 25.9187C193.483 25.7442 193.696 25.2815 193.825 24.7656H194.637V29.8029H193.741C193.445 27.8001 192.33 26.1387 190.077 26.1387C188.886 26.1387 187.771 26.8215 187.771 27.8911C187.771 28.9987 188.666 29.598 190.714 30.5311L193.059 31.6842C195.107 32.6629 195.919 34.2408 195.919 35.5229C195.919 38.2008 193.574 40.0822 190.722 40.0822Z" fill="#464342"/>
<path d="M5.12598 30C5.12598 37.4724 9.46529 43.9283 15.7618 46.9855L6.75701 22.3228C5.71011 24.6669 5.12598 27.269 5.12598 30Z" fill="#00749A"/>
<path d="M36.7375 29.0518C36.7375 26.7228 35.903 25.107 35.1823 23.8477C34.2264 22.2925 33.3313 20.9801 33.3313 19.4249C33.3313 17.6877 34.6437 16.0718 36.5023 16.0718C36.5858 16.0718 36.6616 16.0794 36.7451 16.087C33.3844 13.0146 28.9161 11.1332 24.0002 11.1332C17.4078 11.1332 11.6044 14.5166 8.22852 19.6373C8.66852 19.6525 9.08576 19.6601 9.44231 19.6601C11.4147 19.6601 14.472 19.4173 14.472 19.4173C15.4885 19.3566 15.6099 20.8511 14.5933 20.9725C14.5933 20.9725 13.5692 21.0939 12.4313 21.1546L19.3044 41.5994L23.4313 29.2111L20.4954 21.1546C19.4789 21.0939 18.5154 20.9725 18.5154 20.9725C17.4989 20.9118 17.6202 19.3566 18.6368 19.4173C18.6368 19.4173 21.7547 19.6601 23.6058 19.6601C25.5782 19.6601 28.6354 19.4173 28.6354 19.4173C29.652 19.3566 29.7733 20.8511 28.7568 20.9725C28.7568 20.9725 27.7327 21.0939 26.5947 21.1546L33.4147 41.4401L35.2961 35.1511C36.1154 32.5415 36.7375 30.6677 36.7375 29.0518Z" fill="#00749A"/>
<path d="M24.3263 31.6538L18.667 48.1083C20.3587 48.609 22.1491 48.8745 24.0001 48.8745C26.2001 48.8745 28.3091 48.4952 30.2663 47.8048C30.2132 47.7214 30.1677 47.6379 30.1298 47.5469L24.3263 31.6538Z" fill="#00749A"/>
<path d="M40.5601 20.9496C40.6435 21.5489 40.6891 22.1937 40.6891 22.8917C40.6891 24.8034 40.3325 26.9579 39.2553 29.651L33.4897 46.3179C39.1035 43.0482 42.8739 36.9641 42.8739 30.0075C42.8663 26.7227 42.0318 23.6351 40.5601 20.9496Z" fill="#00749A"/>
<path d="M24 8C11.8697 8 2 17.8697 2 30C2 42.1303 11.8697 52 24 52C36.1303 52 46 42.1303 46 30C46 17.8697 36.1303 8 24 8ZM24 50.9986C12.4234 50.9986 3.00897 41.5766 3.00897 30C3.00897 18.431 12.4234 9.01655 24 9.01655C35.5766 9.01655 44.991 18.431 44.991 30.0076C44.991 41.5766 35.569 50.9986 24 50.9986Z" fill="#00749A"/>
</svg>
