<svg width="200" height="60" viewBox="0 0 200 60" fill="none" xmlns="http://www.w3.org/2000/svg">
<path fill-rule="evenodd" clip-rule="evenodd" d="M62.6239 39.3305C61.2586 39.3305 59.9445 39.147 58.6815 38.7801C57.4186 38.4131 56.369 37.9054 55.5327 37.2569L56.8127 34.4153C58.5535 35.627 60.5076 36.2329 62.6751 36.2329C63.8015 36.2329 64.6676 36.0494 65.2735 35.6825C65.8794 35.3155 66.1823 34.8078 66.1823 34.1593C66.1823 33.579 65.905 33.1267 65.3503 32.8025C64.7956 32.4782 63.8101 32.1625 62.3935 31.8553C60.8063 31.531 59.5391 31.1385 58.5919 30.6777C57.6447 30.2169 56.9535 29.6494 56.5183 28.9753C56.0831 28.3011 55.8655 27.4691 55.8655 26.4793C55.8655 25.387 56.1684 24.4142 56.7743 23.5609C57.3802 22.7075 58.2292 22.0377 59.3215 21.5513C60.4138 21.0649 61.6767 20.8217 63.1103 20.8217C64.3903 20.8217 65.6234 21.0094 66.8095 21.3849C67.9957 21.7603 68.9386 22.2638 69.6383 22.8953L68.3583 25.7369C66.7028 24.5251 64.9621 23.9193 63.1359 23.9193C62.0948 23.9193 61.2756 24.1198 60.6783 24.5209C60.081 24.9219 59.7823 25.4723 59.7823 26.1721C59.7823 26.5817 59.8975 26.9187 60.1279 27.1833C60.3583 27.4478 60.7423 27.6825 61.2799 27.8873C61.8175 28.0921 62.5812 28.3054 63.5711 28.5273C65.8922 29.0393 67.5604 29.6963 68.5759 30.4985C69.5914 31.3006 70.0991 32.4099 70.0991 33.8265C70.0991 35.5331 69.4421 36.8771 68.1279 37.8585C66.8138 38.8398 64.9791 39.3305 62.6239 39.3305ZM79.3663 36.4633C79.7588 36.4633 80.1684 36.4377 80.5951 36.3865L80.3903 39.2025C79.8954 39.2707 79.4004 39.3049 78.9055 39.3049C76.994 39.3049 75.5988 38.8867 74.7199 38.0505C73.841 37.2142 73.4015 35.9427 73.4015 34.2361V29.4233H71.0207V26.5305H73.4015V22.8441H77.2671V26.5305H80.4159V29.4233H77.2671V34.2105C77.2671 35.7123 77.9668 36.4633 79.3663 36.4633ZM88.3519 39.3049C87.0207 39.3049 85.8516 39.0361 84.8447 38.4985C83.8378 37.9609 83.0612 37.2014 82.5151 36.2201C81.969 35.2387 81.6959 34.0825 81.6959 32.7513C81.6959 31.42 81.969 30.2638 82.5151 29.2825C83.0612 28.3011 83.8378 27.5459 84.8447 27.0169C85.8516 26.4878 87.0207 26.2233 88.3519 26.2233C89.6831 26.2233 90.8522 26.4878 91.8591 27.0169C92.866 27.5459 93.6426 28.3011 94.1887 29.2825C94.7348 30.2638 95.0079 31.42 95.0079 32.7513C95.0079 34.0825 94.7348 35.2387 94.1887 36.2201C93.6426 37.2014 92.866 37.9609 91.8591 38.4985C90.8522 39.0361 89.6831 39.3049 88.3519 39.3049ZM88.3519 36.3609C90.2293 36.3609 91.1679 35.1577 91.1679 32.7513C91.1679 31.5395 90.9247 30.635 90.4383 30.0377C89.9519 29.4403 89.2564 29.1417 88.3519 29.1417C86.4746 29.1417 85.5359 30.3448 85.5359 32.7513C85.5359 35.1577 86.4746 36.3609 88.3519 36.3609ZM105.709 29.3977L103.533 29.6281C102.457 29.7305 101.698 30.0334 101.254 30.5369C100.811 31.0403 100.589 31.7102 100.589 32.5465V39.1001H96.7231V26.5305H100.435V28.6553C101.067 27.2046 102.372 26.411 104.352 26.2745L105.478 26.1977L105.709 29.3977ZM116.941 26.5561H120.73L113.152 43.7081H109.235L111.642 38.4089L106.47 26.5561H110.49L113.664 34.5433L116.941 26.5561ZM129.689 26.2233C130.782 26.2233 131.746 26.4878 132.582 27.0169C133.419 27.5459 134.071 28.3011 134.541 29.2825C135.01 30.2638 135.245 31.403 135.245 32.7001C135.245 33.9971 135.01 35.1449 134.541 36.1433C134.071 37.1417 133.414 37.9182 132.57 38.4729C131.725 39.0275 130.765 39.3049 129.689 39.3049C128.819 39.3049 128.034 39.1214 127.334 38.7545C126.635 38.3875 126.097 37.8798 125.721 37.2313V39.1001H121.907V21.0521H125.773V28.2201C126.148 27.5886 126.681 27.0979 127.373 26.7481C128.064 26.3982 128.836 26.2233 129.689 26.2233ZM128.563 36.3609C129.468 36.3609 130.167 36.0409 130.662 35.4009C131.157 34.7609 131.405 33.8606 131.405 32.7001C131.405 31.5566 131.157 30.6819 130.662 30.0761C130.167 29.4702 129.468 29.1673 128.563 29.1673C127.659 29.1673 126.959 29.4787 126.464 30.1017C125.969 30.7246 125.721 31.6078 125.721 32.7513C125.721 33.9118 125.969 34.8035 126.464 35.4265C126.959 36.0494 127.659 36.3609 128.563 36.3609ZM143.641 39.3049C142.31 39.3049 141.141 39.0361 140.134 38.4985C139.127 37.9609 138.351 37.2014 137.805 36.2201C137.259 35.2387 136.985 34.0825 136.985 32.7513C136.985 31.42 137.259 30.2638 137.805 29.2825C138.351 28.3011 139.127 27.5459 140.134 27.0169C141.141 26.4878 142.31 26.2233 143.641 26.2233C144.973 26.2233 146.142 26.4878 147.149 27.0169C148.156 27.5459 148.932 28.3011 149.478 29.2825C150.024 30.2638 150.297 31.42 150.297 32.7513C150.297 34.0825 150.024 35.2387 149.478 36.2201C148.932 37.2014 148.156 37.9609 147.149 38.4985C146.142 39.0361 144.973 39.3049 143.641 39.3049ZM143.641 36.3609C145.519 36.3609 146.458 35.1577 146.458 32.7513C146.458 31.5395 146.214 30.635 145.728 30.0377C145.241 29.4403 144.546 29.1417 143.641 29.1417C141.764 29.1417 140.825 30.3448 140.825 32.7513C140.825 35.1577 141.764 36.3609 143.641 36.3609ZM158.054 39.3049C156.723 39.3049 155.554 39.0361 154.547 38.4985C153.54 37.9609 152.764 37.2014 152.217 36.2201C151.671 35.2387 151.398 34.0825 151.398 32.7513C151.398 31.42 151.671 30.2638 152.217 29.2825C152.764 28.3011 153.54 27.5459 154.547 27.0169C155.554 26.4878 156.723 26.2233 158.054 26.2233C159.385 26.2233 160.555 26.4878 161.561 27.0169C162.568 27.5459 163.345 28.3011 163.891 29.2825C164.437 30.2638 164.71 31.42 164.71 32.7513C164.71 34.0825 164.437 35.2387 163.891 36.2201C163.345 37.2014 162.568 37.9609 161.561 38.4985C160.555 39.0361 159.385 39.3049 158.054 39.3049ZM158.054 36.3609C159.932 36.3609 160.87 35.1577 160.87 32.7513C160.87 31.5395 160.627 30.635 160.141 30.0377C159.654 29.4403 158.959 29.1417 158.054 29.1417C156.177 29.1417 155.238 30.3448 155.238 32.7513C155.238 35.1577 156.177 36.3609 158.054 36.3609ZM180 39.1001H175.264L170.451 33.4937V39.1001H166.585V21.0521H170.451V31.9065L175.085 26.5561H179.693L174.419 32.5465L180 39.1001Z" fill="#333333"/>
<mask id="mask0" style="mask-type:alpha" maskUnits="userSpaceOnUse" x="20" y="14" width="26" height="32">
<path d="M20.9924 43.4869L20.0012 17.0734C19.9684 16.2011 20.6373 15.4618 21.5085 15.4073L43.9751 14.0032C44.8619 13.9478 45.6258 14.6217 45.6812 15.5086C45.6833 15.542 45.6843 15.5755 45.6843 15.6089V44.3911C45.6843 45.2797 44.964 46 44.0754 46C44.0514 46 44.0273 45.9995 44.0033 45.9984L22.528 45.0339C21.6916 44.9963 21.0238 44.3236 20.9924 43.4869Z" fill="white"/>
</mask>
<g mask="url(#mask0)">
<path d="M20.9924 43.4869L20.0012 17.0734C19.9684 16.2011 20.6373 15.4618 21.5085 15.4073L43.9751 14.0032C44.8619 13.9478 45.6258 14.6217 45.6812 15.5086C45.6833 15.542 45.6843 15.5755 45.6843 15.6089V44.3911C45.6843 45.2797 44.964 46 44.0754 46C44.0514 46 44.0273 45.9995 44.0033 45.9984L22.528 45.0339C21.6916 44.9963 21.0238 44.3236 20.9924 43.4869Z" fill="#FF4785"/>
<path d="M38.966 17.9333L39.1195 14.2424L42.2048 14L42.3377 17.8063C42.3424 17.9388 42.2387 18.0499 42.1063 18.0545C42.0495 18.0565 41.9939 18.0383 41.9494 18.0032L40.7596 17.0659L39.3509 18.1345C39.2453 18.2146 39.0947 18.1939 39.0146 18.0883C38.9809 18.0439 38.9637 17.9891 38.966 17.9333Z" fill="white"/>
<path d="M35.0199 26.0613C35.0199 26.6872 39.2362 26.3872 39.8022 25.9475C39.8022 21.685 37.515 19.4451 33.3268 19.4451C29.1386 19.4451 26.792 21.7198 26.792 25.1319C26.792 31.0747 34.812 31.1885 34.812 34.43C34.812 35.3399 34.3664 35.8802 33.3862 35.8802C32.109 35.8802 31.604 35.2279 31.6634 33.01C31.6634 32.5288 26.792 32.3788 26.6435 33.01C26.2653 38.3847 29.6138 39.935 33.4456 39.935C37.1586 39.935 40.0695 37.9559 40.0695 34.3731C40.0695 28.0038 31.9307 28.1744 31.9307 25.0182C31.9307 23.7387 32.8813 23.5681 33.4456 23.5681C34.0397 23.5681 35.109 23.6728 35.0199 26.0613Z" fill="white"/>
</g>
</svg>
