<svg width="200" height="60" viewBox="0 0 200 60" fill="none" xmlns="http://www.w3.org/2000/svg">
<path d="M85.1701 15.0249V39.203L88.2814 39.2267V27.7077H95.7866V24.6676H88.2814V18.065H98.0429V15.0249H85.1701V15.0249ZM103.648 19.9413C104.764 19.9413 105.691 19.0388 105.691 17.8987C105.691 16.7587 104.788 15.8562 103.648 15.8562C102.532 15.8562 101.605 16.7587 101.605 17.8987C101.605 19.0388 102.508 19.9413 103.648 19.9413ZM102.057 22.9813V39.2267H105.168V22.9813H102.057ZM116.711 22.5063C112.578 22.5063 109.704 25.9977 109.704 30.154C109.704 34.3104 112.578 37.8017 116.711 37.8017C118.611 37.8017 120.155 37.0892 121.295 35.8779V38.0392C121.318 40.723 119.181 42.9556 116.473 42.9793C116.45 42.9793 116.45 42.9793 116.426 42.9793C115.428 42.9793 114.455 42.5993 113.671 42.0531L112.103 44.7606C115.808 47.1594 120.748 46.0907 123.124 42.3856C123.955 41.0793 124.406 39.583 124.406 38.0392V23.0051H121.295V24.4539C120.155 23.2426 118.611 22.5063 116.711 22.5063ZM112.816 30.154C112.816 27.5652 114.787 25.5464 117.067 25.5464C119.347 25.5464 121.295 27.589 121.295 30.154C121.295 32.7428 119.323 34.7379 117.067 34.7379C114.787 34.7379 112.816 32.7191 112.816 30.154ZM135.616 25.5464C133.764 25.5702 132.267 27.0902 132.291 28.9427V39.203H129.18V22.9576H132.291V24.4539C133.241 23.1951 134.714 22.4826 136.305 22.5063C138.49 22.5063 140.176 23.5751 141.126 25.2377C142.219 23.5514 144.072 22.5301 146.067 22.5063C149.605 22.5063 151.814 25.3564 151.814 28.8952V39.203H148.727V28.9427C148.727 27.0902 147.254 25.5702 145.402 25.5464C143.549 25.5702 142.053 27.0902 142.076 28.9427V39.203H138.941V28.9427C138.941 27.0902 137.469 25.5702 135.616 25.5464ZM168.392 24.8101C166.967 23.3139 164.972 22.4826 162.906 22.5063C158.274 22.5063 154.997 26.4252 154.997 31.0803C154.997 35.7592 158.274 39.6543 162.906 39.6543C164.972 39.6543 166.943 38.823 168.392 37.3504V39.203H171.503V22.9576H168.392V24.8101ZM158.108 31.0803C158.108 27.9927 160.483 25.5227 163.262 25.5227C166.017 25.5464 168.392 27.9927 168.392 31.0803C168.392 34.1679 166.017 36.6142 163.238 36.6142C160.507 36.6379 158.108 34.1916 158.108 31.0803Z" fill="black"/>
<path d="M44.9842 30.0118C44.9842 25.5941 48.5705 22.0078 52.9881 22.0078C57.4057 22.0078 60.9921 25.5941 60.9921 30.0118C60.9921 34.4294 57.4057 38.0157 52.9881 38.0157C48.5705 38.0157 44.9842 34.4294 44.9842 30.0118Z" fill="#1ABCFE"/>
<path d="M29 45.9961C29 41.5785 32.5863 37.9922 37.0039 37.9922H45.0079V45.9961C45.0079 50.4137 41.4215 54.0001 37.0039 54.0001C32.5863 54.0001 29 50.4137 29 45.9961Z" fill="#0ACF83"/>
<path d="M44.9842 6.02375V22.0079H52.9881C57.4057 22.0079 60.9921 18.4215 60.9921 14.0039C60.9921 9.58634 57.4057 6 52.9881 6H44.9842V6.02375Z" fill="#FF7262"/>
<path d="M29 14.0277C29 18.4453 32.5863 22.0316 37.0039 22.0316H45.0079V6.04748H37.0039C32.5863 6.02373 29 9.61006 29 14.0277Z" fill="#F24E1E"/>
<path d="M29 30.0118C29 34.4294 32.5863 38.0158 37.0039 38.0158H45.0079V22.0316H37.0039C32.5863 22.0079 29 25.5942 29 30.0118Z" fill="#A259FF"/>
</svg>
