<svg width="200" height="60" viewBox="0 0 200 60" fill="none" xmlns="http://www.w3.org/2000/svg">
<path d="M131.366 26.2465V42.455H126.144V23.7083L131.366 26.2465Z" fill="#F37368"/>
<path d="M57.4663 39.4453L61.3825 42.8538L77.881 34.26L76.1768 30.1625L57.4663 39.4453ZM126.144 29.0022L139.415 22.1127L137.167 18.2328L126.144 23.7081V29.0022Z" fill="#F7A199"/>
<path d="M88.7955 24.9774V42.455H83.7915V17.5439L88.7955 24.9774ZM57.4663 39.4454L61.3825 42.8539L68.9247 23.9983L66.4952 17.5439L57.4663 39.4454Z" fill="#F37368"/>
<path d="M66.4956 17.5439H71.6446L81.1812 42.455H75.8871L66.4956 17.5439ZM89.5574 17.5439L100.544 34.5502V42.455L83.7919 17.5439H89.5574ZM109.972 17.5439H115.157V42.455H109.972V17.5439ZM126.144 22.1128H118.167V17.5439H136.769L139.416 22.1128H131.366H126.144Z" fill="#F04939"/>
<path d="M154.754 32.991V42.455H149.605V32.991" fill="#F7A199"/>
<path d="M158.308 17.5439L149.605 32.991H154.754L163.783 17.5439H158.308Z" fill="#F04939"/>
<path d="M149.604 32.991L140.612 17.5439H146.268L152.324 28.132L149.604 32.991Z" fill="#F37368"/>
<path d="M38.1394 20.4447C38.1394 23.8895 40.2788 25.9563 44.5575 27.0441L49.0901 28.0957C53.1513 29.0385 55.617 31.3592 55.617 35.1303C55.6533 36.762 55.1094 38.3575 54.1303 39.6628C54.1303 35.8917 52.1723 33.8611 47.4946 32.6283L43.0346 31.613C39.4448 30.8152 36.689 28.8934 36.689 24.796C36.689 23.2368 37.1966 21.6776 38.1394 20.4447Z" fill="#F04939"/>
<path d="M100.544 33.2811V17.5439H105.548V42.455H100.544V33.2811Z" fill="#F37368"/>
<path d="M51.3385 34.1875C53.2603 35.4204 54.1305 37.1609 54.1305 39.6629C52.4988 41.7297 49.7067 42.8538 46.407 42.8538C40.8592 42.8538 36.9067 40.098 36.0728 35.3479H41.4031C42.092 37.5235 43.905 38.5388 46.3708 38.5388C49.3079 38.575 51.3022 36.9796 51.3385 34.1875ZM38.1396 20.4085C39.6988 18.3779 42.3821 17.145 45.6456 17.145C51.3385 17.145 54.6019 20.1547 55.4359 24.3609H50.2869C49.7067 22.6929 48.2926 21.3875 45.7181 21.3875C42.926 21.4238 41.0405 23.0192 40.9317 25.5575C39.0632 24.527 38.0671 22.5116 38.1396 20.4085Z" fill="#F37368"/>
</svg>
