<svg width="200" height="60" viewBox="0 0 200 60" fill="none" xmlns="http://www.w3.org/2000/svg">
<path d="M84.3343 40.397L79.1359 32.6719L83.8743 25.1475C83.9319 25.0614 83.9319 25.0039 83.9319 24.9178C83.9319 24.7169 83.7884 24.5443 83.5873 24.5443H79.7389C79.423 24.5443 79.2506 24.7169 78.9924 25.1475L76.6373 29.1108L74.0811 25.1475C73.8228 24.774 73.6507 24.5443 73.3348 24.5443H69.0557C68.8264 24.5443 68.6253 24.7454 68.6253 24.9753C68.6253 25.0325 68.654 25.09 68.6826 25.1475L73.5648 32.442L68.5387 40.4259C68.4811 40.5117 68.4811 40.5978 68.4811 40.6553C68.4811 40.8569 68.5963 41 68.797 41H72.6458C72.9613 41 73.1341 40.8569 73.3924 40.4259L76.0631 35.9458L78.9065 40.397C79.1648 40.8275 79.337 41 79.6531 41H83.9895C84.2195 41 84.3917 40.7993 84.3917 40.5977C84.3917 40.5117 84.3626 40.4546 84.3343 40.397ZM61.5472 37.0077C61.002 37.0935 60.1404 37.1799 59.1923 37.1799C57.1535 37.1799 56.6076 35.6867 56.6076 33.6479V31.4077C56.6076 29.3686 57.1535 27.904 59.1923 27.904C60.1404 27.904 61.002 27.9616 61.5472 28.0476V37.0077ZM65.281 24.8026C63.6436 24.4003 61.4037 24.0558 59.1923 24.0558C54.5397 24.0558 51.9836 26.7553 51.9836 31.4077V33.6479C51.9836 38.3002 54.5397 41 59.1923 41C61.4037 41 63.6436 40.6548 65.281 40.253C66.0563 40.0804 66.1708 39.8801 66.1708 39.4203V25.6352C66.1708 25.1756 66.0563 24.9747 65.281 24.8026ZM43.3072 24.3148H42.7615C41.0669 24.3148 39.7742 24.803 38.8266 25.5497C37.879 24.803 36.5868 24.3148 34.8922 24.3148H34.3182C30.2974 24.3148 28 26.1814 28 30.2308V40.3684C28 40.6847 28.2582 41 28.5742 41H32.0778C32.3937 41 32.6525 40.6847 32.6525 40.3684V30.2308C32.6525 28.5936 33.1119 28.1344 34.3182 28.1344H34.8922C36.328 28.1344 36.5008 28.967 36.5008 30.2308V40.3684C36.5008 40.6847 36.759 41 37.075 41H40.607C40.9234 41 41.1529 40.6847 41.1529 40.3684V30.2308C41.1529 28.967 41.3252 28.1344 42.7615 28.1344H43.3072C44.5126 28.1344 45.0009 28.5936 45.0009 30.2308V40.3684C45.0009 40.6847 45.26 41 45.5759 41H49.0792C49.3955 41 49.6537 40.6847 49.6537 40.3684V30.2308C49.6537 26.1814 47.3275 24.3148 43.3072 24.3148Z" fill="#D81E25"/>
<path d="M172.147 24.3351C169.422 24.3351 167.644 24.5643 165.808 25.1669C165.148 25.3963 164.919 25.6831 164.919 26.0848V40.3974C164.919 40.7129 165.206 41 165.521 41H168.992C169.307 41 169.566 40.7129 169.566 40.3974V28.3792C170.168 28.2647 171.315 28.2075 172.147 28.2075C172.692 28.2075 172.922 27.9776 172.922 27.6621V24.8798C172.922 24.4782 172.492 24.3351 172.147 24.3351ZM158.092 31.1041H152.872V30.9892C152.872 28.8958 153.934 27.8055 155.511 27.8055C157.117 27.8055 158.092 28.8667 158.092 30.9892V31.1041ZM155.54 24.0768C150.979 24.0768 148.283 27.0023 148.283 31.6202V33.6276C148.283 39.1642 152.012 41 155.482 41C157.978 41 159.527 40.7706 161.363 40.3115C161.85 40.1964 161.965 39.9957 161.965 39.5372V37.3569C161.965 37.0413 161.735 36.898 161.42 36.898H161.333C160.187 37.0126 157.634 37.1566 155.827 37.1566C153.561 37.1566 152.872 35.6647 152.872 34.0294V33.9725H162.022C162.395 33.9725 162.625 33.7142 162.625 33.284V31.6202C162.625 27.2893 160.244 24.0768 155.54 24.0768ZM146.038 24.3061H142.109V21.2658C142.109 20.979 141.85 20.6922 141.592 20.6922H141.506L138.007 21.2944C137.691 21.352 137.433 21.5529 137.433 21.8684V36.267C137.433 39.9957 139.326 41 142.539 41C143.772 41 145.149 40.8849 145.98 40.7413C146.354 40.6847 146.555 40.4835 146.555 40.1681V37.9592C146.555 37.6438 146.325 37.472 145.952 37.472H143.801C142.567 37.472 142.109 37.2997 142.109 36.2954V27.777H146.038C146.354 27.777 146.612 27.5187 146.612 27.203V24.88C146.612 24.5647 146.354 24.3061 146.038 24.3061ZM132.208 31.7635L128.652 29.7274C128.078 29.383 127.763 29.1534 127.763 28.7234C127.763 28.064 128.165 27.8917 129.283 27.8917C130.746 27.8917 133.213 28.1495 134.044 28.2647H134.159C134.446 28.2647 134.618 28.064 134.618 27.7193V25.3963C134.618 25.0519 134.417 24.8224 134.073 24.7363C132.61 24.3638 131.233 24.0768 128.968 24.0768C125.01 24.0768 123.087 25.6258 123.087 28.5227C123.087 30.3867 124.034 31.8496 125.641 32.7675L129.37 34.9187C130.173 35.3776 130.43 35.6938 130.43 36.1234C130.43 36.8695 130.115 37.242 128.738 37.242C127.82 37.242 125.411 37.0413 123.862 36.8413H123.747C123.403 36.8413 123.202 37.0991 123.202 37.386V39.7092C123.202 40.0532 123.403 40.2823 123.747 40.3688C125.21 40.7706 127.39 41 128.968 41C133.156 41 135.106 38.8771 135.106 36.1812C135.106 34.6321 134.589 33.1404 132.208 31.7635ZM120.273 24.3061H116.745C116.429 24.3061 116.171 24.5931 116.171 24.9086V33.7142C116.171 36.439 115.311 37.0702 113.963 37.0702H113.561C112.213 37.0702 111.353 36.439 111.353 33.7142V24.9086C111.353 24.5931 111.095 24.3061 110.779 24.3061H107.25C106.935 24.3061 106.706 24.5931 106.706 24.9086V33.7142C106.706 40.455 111.754 41 113.561 41H113.963C115.77 41 120.818 40.455 120.818 33.7142V24.9086C120.818 24.5931 120.588 24.3061 120.273 24.3061ZM103.594 19H100.095C99.7794 19 99.4924 19.2583 99.4924 19.5736V40.3974C99.4924 40.7129 99.7794 41 100.095 41H103.594C103.909 41 104.139 40.7129 104.139 40.3974V19.5736C104.139 19.2583 103.909 19 103.594 19ZM96.0528 24.507C95.2491 24.3061 93.9586 24.0768 92.2375 24.0768C88.1931 24.0768 85.5541 26.6582 85.5541 31.3335V33.7429C85.5541 38.4181 88.1931 41 92.2375 41C93.9586 41 95.2491 40.7706 96.0528 40.5693C96.4824 40.455 96.6548 40.3399 96.6548 39.9092V37.3569C96.6548 37.0702 96.3965 36.8695 96.1093 36.8695H96.0528C94.9913 36.9837 94.1876 37.0702 92.553 37.0702C91.2621 37.0702 90.2007 36.2954 90.2007 33.7429V31.3335C90.2007 28.7809 91.2621 28.0064 92.553 28.0064C94.1876 28.0064 94.9913 28.0923 96.0528 28.2071H96.1093C96.3965 28.2071 96.6548 28.0064 96.6548 27.7193V25.1669C96.6548 24.7363 96.4824 24.6216 96.0528 24.507Z" fill="#1A1B1B"/>
</svg>
