<svg width="200" height="60" viewBox="0 0 200 60" fill="none" xmlns="http://www.w3.org/2000/svg">
<path d="M119.555 39.0832C119.555 39.0832 122.861 40 127.083 40C131.582 40 133.665 39.5 133.665 39.5V36.1665C133.665 36.1665 131.415 36.6112 128.277 36.6112C125.527 36.6112 123.832 36.2498 123.832 36.2498V31.528H132.361V28.1946H123.832V23.6948C123.832 23.6948 125.499 23.389 127.999 23.389C130.805 23.389 133.332 23.8336 133.332 23.8336V20.4724C133.332 20.4724 131.11 20 127.499 20C122.694 20 119.555 20.8618 119.555 20.8618V39.0832V39.0832ZM58.6109 31.4997C58.4995 31.7779 58.3613 32.3057 58.2779 32.6114C58.1948 32.3057 58.0556 31.7779 57.9448 31.4997L54.1665 21.8059C53.5278 20.1949 52.5283 20 50.6948 20C50.0557 20 48.7499 20.0835 48.7499 20.0835L46.8057 39.7222H51.1115L52.0556 26.5559L56.1389 36.5277C56.4448 37.3055 57.0556 37.6112 58.2779 37.6112C59.4996 37.6112 60.1112 37.3055 60.4166 36.5277L64.4997 26.5559L65.4444 39.7222H69.7494L67.8053 20.0835C67.8053 20.0835 66.4996 20 65.8611 20C64.0278 20 63.028 20.1949 62.3887 21.8059L58.6109 31.4997ZM37.056 35.5278C36.1393 35.8891 33.9167 36.6112 32.2782 36.6112C30.5003 36.6112 29.1671 36.0002 29.1671 34.0555C29.1671 32.3613 30.0832 31.3892 32.5285 31.3057L37.056 31.1392V35.5278V35.5278ZM34.5003 20C30.667 20 27.667 20.9447 26.5002 21.5282L27.417 24.7503C27.417 24.7503 30.3619 23.6948 33.2502 23.6948C35.7225 23.6948 37 24.389 37 26.8333V28.2225H33.2502C26.8893 28.2225 25 31.1392 25 34.3615C25 38.6388 28.3337 40 31.3614 40C34.889 40 36.9449 38.528 37.1946 38.528C37.3893 38.528 38.1114 39.3054 41.3332 39.3054V25.6946C41.3332 21.6117 38.8058 20 34.5003 20V20ZM86.0555 35.5278C85.1385 35.8891 82.9164 36.6112 81.2779 36.6112C79.4997 36.6112 78.1663 36.0002 78.1663 34.0555C78.1663 32.3613 79.0832 31.3892 81.5276 31.3057L86.0555 31.1392V35.5278V35.5278ZM83.4994 20C79.6659 20 76.6663 20.9447 75.4997 21.5282L76.4163 24.7503C76.4163 24.7503 79.3612 23.6948 82.2494 23.6948C84.7217 23.6948 85.9995 24.389 85.9995 26.8333V28.2225H82.2494C75.8887 28.2225 73.9994 31.1392 73.9994 34.3615C73.9994 38.6388 77.333 40 80.3609 40C83.8885 40 85.944 38.528 86.194 38.528C86.3885 38.528 87.1107 39.3054 90.3328 39.3054V25.6946C90.3328 21.6117 87.8051 20 83.4994 20V20ZM151.638 34.8333C150.61 35.333 148.388 36.1665 146.36 36.1665C143.415 36.1665 142.915 34.8333 142.915 31.7779V20.1667C142.915 20.1667 142.638 20.1667 142.276 20.1667C141.305 20.1667 139.138 20.3333 138.61 20.4448V32.3335C138.61 37.528 139.888 40 145.165 40C149.193 40 151.554 38.4447 151.72 38.4447C151.776 38.4447 153.166 39.3054 155.944 39.3054V20.4448C155.639 20.3892 153.554 20.1667 152.498 20.1667C152.11 20.1667 151.638 20.1667 151.638 20.1667V34.8333V34.8333ZM161.03 39.3054C161.03 39.3054 163.696 40 167.419 40C170.947 40 175.391 38.8057 175.391 34.0283C175.391 30.9166 173.085 29.5834 169.335 28.2225C167.308 27.4724 165.585 26.8057 165.585 25.4167C165.585 24.7503 166.086 23.4449 168.668 23.4449C171.085 23.4449 173.558 24.5557 173.558 24.5557L174.641 21.3615C173.918 21.0003 171.557 20 168.28 20C164.724 20 161.252 21.8892 161.252 25.6946C161.252 29.6117 164.808 30.8058 167.585 31.7227C169.475 32.3613 171.058 33.0283 171.058 34.278C171.058 35.4996 170.391 36.5557 167.196 36.5557C164.585 36.5557 161.808 35.9725 161.808 35.9725L161.03 39.3054ZM100.888 23.7223C101.582 23.5836 102.944 23.389 104.305 23.389C107.416 23.389 109.861 25.1391 109.861 29.8617C109.861 34.4449 108.666 36.6112 103.916 36.6112C102.388 36.6112 100.888 36.389 100.888 36.389V23.7223V23.7223ZM104.499 20C102.055 20 98.6659 20.4168 96.5827 21.1667V39.4165C98.3052 39.7781 101.528 40 103.777 40C111.444 40 114.416 36.9999 114.416 29.8617C114.416 23.6948 110.638 20 104.499 20" fill="#1B69BC"/>
</svg>
