<svg width="200" height="60" viewBox="0 0 200 60" fill="none" xmlns="http://www.w3.org/2000/svg">
<path d="M38 41C44.0751 41 49 36.0751 49 30C49 23.9249 44.0751 19 38 19C31.9249 19 27 23.9249 27 30C27 36.0751 31.9249 41 38 41Z" fill="#EE7719"/>
<path d="M39.3532 27.2673C38.9606 27.2673 38.5898 27.4041 38.2191 28.2787V32.8274C38.2191 34.2297 38.3357 34.3173 39.8843 34.4347V35.1473H34.0999V34.4304C35.2752 34.3155 35.4146 34.1762 35.4146 32.8142V27.7774C35.4146 26.5452 35.2743 26.4277 34.2752 26.1718V25.5583C35.6172 25.4069 36.9393 25.1131 38.2191 24.6819V27.0842H38.2629C39.0026 25.6819 39.7888 24.7178 40.6906 24.7178C41.4996 24.7178 42.078 25.3611 42.078 26.1411C42.0706 26.4943 41.9621 26.8379 41.7653 27.1312C41.5685 27.4245 41.2916 27.6552 40.9676 27.7958C40.667 27.9098 40.4584 27.8642 40.2971 27.7266C39.9544 27.4277 39.6994 27.2673 39.3532 27.2673Z" fill="white"/>
<path d="M164.391 35.3432H159.137V34.7362C160.625 34.5967 160.8 34.4573 160.8 32.9234V24.3925C160.8 22.4402 160.575 20.6848 159.22 20.2911C158.843 20.1901 158.446 20.1821 158.065 20.2679C157.683 20.3537 157.329 20.5307 157.034 20.7833C156.701 21.0375 156.394 21.6035 156.019 21.6035C155.803 21.5773 155.601 21.4836 155.443 21.336C155.284 21.1885 155.177 20.9948 155.138 20.7833C155.03 19.6513 156.884 18.8638 157.907 19.0197C159.329 19.2679 160.607 20.0293 161.492 21.1558C162.377 22.2823 162.806 23.6932 162.695 25.1143V32.9644C162.695 34.4983 162.878 34.6049 164.358 34.7772V35.3842L164.391 35.3432Z" fill="#1E1E1C"/>
<path d="M59.5704 27.2224V24.7616C58.266 25.2012 56.9168 25.4983 55.5468 25.6475V26.2791C56.5527 26.5334 56.694 26.6482 56.694 27.9197V32.9644C56.694 34.3343 56.5527 34.4737 55.3556 34.6049V35.3268H61.2662V34.6049C59.6867 34.4901 59.6036 34.3917 59.6036 32.9644V28.3954C59.9777 27.5095 60.3601 27.3701 60.7591 27.3701C61.1293 27.3988 61.4743 27.5661 61.7235 27.8377C61.8182 27.913 61.9332 27.9594 62.0544 27.9711C62.1755 27.9828 62.2974 27.9592 62.4051 27.9033C62.7311 27.7628 63.0103 27.5342 63.2103 27.2439C63.4103 26.9537 63.5232 26.6135 63.5357 26.2627C63.5509 26.068 63.5245 25.8724 63.4582 25.6884C63.3919 25.5044 63.2872 25.3362 63.1508 25.1947C63.0145 25.0532 62.8495 24.9415 62.6667 24.8669C62.4838 24.7923 62.2871 24.7564 62.0892 24.7616C61.1748 24.7616 60.3435 25.7706 59.6202 27.2224H59.5704Z" fill="#1E1E1C"/>
<path fill-rule="evenodd" clip-rule="evenodd" d="M75.6979 34.6049L75.1326 34.5557C74.426 34.4901 74.3013 33.7355 74.3013 32.5625V24.9093C73.7858 24.9749 73.1208 25.0733 72.3477 25.1635C71.5745 25.2538 70.7931 25.303 70.1364 25.3276V26.0002L70.7682 26.1397C71.3335 26.2545 71.4332 26.4432 71.4332 27.4603V33.2023C71.2464 33.4071 71.0163 33.5691 70.7593 33.6768C70.5022 33.7845 70.2243 33.8353 69.9452 33.8257C69.1887 33.8257 68.4654 33.3171 68.4654 31.8078V28.4365C68.4654 27.0912 68.4654 25.8854 68.5319 24.9093L66.5534 25.1635C65.8218 25.2292 65.0737 25.303 64.4086 25.3276V26.0002L64.9074 26.1151C65.4727 26.2545 65.5891 26.3694 65.5891 27.3455V32.4394C65.5891 34.3425 66.4869 35.5565 68.374 35.5565C69.0931 35.5712 69.7991 35.3648 70.3941 34.9659C70.7707 34.732 71.1193 34.4568 71.4332 34.1456V35.1873L71.6161 35.3514H75.6896V34.6049H75.6979Z" fill="#1E1E1C"/>
<path d="M87.8267 35.3432V34.6049C86.7211 34.4409 86.6047 34.3917 86.6047 32.9644V28.5349C86.6047 26.1397 85.5905 24.7616 83.6203 24.7616C82.4844 24.8529 81.4291 25.3765 80.6774 26.2217V19.2411C79.3108 19.6008 77.9225 19.8748 76.5209 20.0614V20.734C77.7263 20.8735 77.7928 20.8735 77.7928 22.2434V32.9644C77.7928 34.4245 77.6515 34.5229 76.3795 34.6049V35.3268H81.6584V34.6049C80.7855 34.4655 80.6691 34.3671 80.6691 32.9644V27.1404C80.8607 26.9282 81.0966 26.7596 81.3608 26.6463C81.6249 26.5329 81.9108 26.4776 82.1987 26.4842C83.0716 26.4842 83.7284 27.0666 83.7284 28.7646V33.0136C83.7284 34.3425 83.6369 34.4573 82.6477 34.6542V35.376L87.8267 35.3432Z" fill="#1E1E1C"/>
<path d="M106.24 35.3432V34.6049C105.11 34.4409 105.018 34.3671 105.018 32.9644V28.3462C105.018 26.2053 104.096 24.7616 102.142 24.7616C101.447 24.8082 100.783 25.0694 100.247 25.5081C99.6813 25.8854 99.2324 26.2053 98.7669 26.558C98.5887 26.0446 98.2527 25.5988 97.8057 25.2827C97.3587 24.9666 96.8229 24.7959 96.2729 24.7944C95.5191 24.8524 94.8019 25.1389 94.2196 25.6147C93.7706 25.9182 93.4464 26.1725 93.0474 26.476V24.7616C91.7441 25.1479 90.4129 25.4358 89.0654 25.6229V26.2217C90.1461 26.4596 90.1711 26.5498 90.1711 27.9197V32.9644C90.1711 34.3999 90.0796 34.4983 88.7578 34.6049V35.3268H94.0533V34.6049C93.1804 34.4655 93.0474 34.3671 93.0474 32.9644V27.2224C93.4696 26.7974 94.0408 26.5479 94.6435 26.5252C95.5164 26.5252 96.1482 27.1076 96.1482 28.6169V32.9562C96.1482 34.3507 96.0318 34.4245 95.0426 34.5967V35.3186H100.105V34.6049C99.1409 34.4655 99.0246 34.3671 99.0246 32.9644V28.1822C99.0246 27.9279 99.0246 27.649 98.9747 27.3045C99.1855 27.0781 99.4428 26.8987 99.7296 26.7785C100.016 26.6582 100.326 26.5998 100.637 26.6072C101.41 26.6072 102.117 27.0666 102.117 28.7154V32.9644C102.117 34.3753 101.976 34.4983 101.036 34.6049V35.3268L106.24 35.3432Z" fill="#1E1E1C"/>
<path fill-rule="evenodd" clip-rule="evenodd" d="M114.67 32.6199C114.351 32.929 113.973 33.1724 113.557 33.3358C113.142 33.4991 112.698 33.5792 112.251 33.5714C110.696 33.5714 109.349 32.2507 109.283 29.7653C111.444 29.6669 114.229 29.4618 114.554 29.388C115.094 29.2977 115.194 29.0435 115.194 28.5677C115.213 28.0834 115.134 27.6003 114.962 27.1462C114.791 26.6921 114.53 26.276 114.194 25.9221C113.859 25.5682 113.455 25.2834 113.008 25.0842C112.56 24.885 112.077 24.7753 111.586 24.7616C110.938 24.7985 110.305 24.9626 109.722 25.2443C109.14 25.526 108.62 25.9197 108.194 26.4022C107.106 27.5546 106.511 29.0765 106.531 30.6512C106.531 33.2761 108.194 35.5729 111.178 35.5729C111.983 35.5171 112.762 35.2673 113.446 34.8454C114.13 34.4235 114.699 33.8424 115.102 33.1531L114.678 32.5707L114.67 32.6199ZM111.187 25.6721C112.018 25.6721 112.484 26.9271 112.484 28.133C112.484 28.5513 112.367 28.6661 111.993 28.6661C111.162 28.7154 110.33 28.7318 109.399 28.7318C109.516 26.9682 110.339 25.7131 111.17 25.7131L111.187 25.6721Z" fill="#1E1E1C"/>
<path d="M123.008 27.7392C122.899 26.8876 122.736 26.0437 122.518 25.2128C121.849 24.8954 121.114 24.7407 120.373 24.7616C117.929 24.7616 116.582 26.2709 116.582 28.0427C116.582 29.8145 118.245 30.7825 119.433 31.4141C120.622 32.0457 121.096 32.6691 121.096 33.4073C121.107 33.5744 121.084 33.7421 121.028 33.9002C120.973 34.0584 120.885 34.2038 120.771 34.3278C120.657 34.4518 120.519 34.5519 120.365 34.6221C120.21 34.6922 120.044 34.731 119.874 34.7362C118.552 34.7362 117.563 33.2269 117.023 31.7586L116.341 31.898C116.378 32.8736 116.495 33.8447 116.69 34.8018C117.539 35.3441 118.53 35.6292 119.541 35.6221C121.428 35.6221 123.523 34.5229 123.523 32.2261C123.523 30.4379 122.227 29.6013 120.464 28.74C119.4 28.2314 118.885 27.6982 118.885 26.9518C118.873 26.6217 118.991 26.3001 119.214 26.0539C119.437 25.8078 119.748 25.6563 120.082 25.6311C121.029 25.6311 121.744 26.4514 122.343 28.0017L123.025 27.7392H123.008Z" fill="#1E1E1C"/>
<path d="M142.585 35.3432V34.7362C141.239 34.5967 141.056 34.5065 141.056 32.948V28.4611C141.056 26.1889 139.9 24.9093 138.063 24.9093C137.427 24.9374 136.812 25.1453 136.292 25.5081C135.71 25.8608 135.029 26.3283 134.339 26.8123C134.158 26.267 133.809 25.7908 133.341 25.4498C132.874 25.1088 132.31 24.9199 131.728 24.9093C131.037 24.9241 130.366 25.141 129.8 25.5327C129.093 25.9756 128.578 26.353 128.079 26.7221V24.8354C127.031 25.2835 125.931 25.6031 124.804 25.787V26.3283C126.175 26.5334 126.242 26.6482 126.242 28.133V32.9644C126.242 34.4737 126.034 34.6049 124.479 34.7526V35.3596H129.467V34.7526C128.312 34.6131 128.129 34.4737 128.129 32.9644V27.4849C128.822 26.8123 129.723 26.3879 130.689 26.2791C132.128 26.2791 132.743 27.2306 132.743 28.9532V32.9644C132.743 34.4983 132.535 34.6049 131.08 34.7526V35.3596H136.118V34.7526C134.788 34.6049 134.58 34.4573 134.58 32.9644V28.4611C134.587 28.1341 134.561 27.8072 134.505 27.4849C135.22 26.7962 136.154 26.3705 137.149 26.2791C138.628 26.2791 139.219 27.3209 139.219 28.9696V32.8496C139.219 34.4901 138.961 34.5967 137.556 34.7362V35.3432H142.585Z" fill="#1E1E1C"/>
<path fill-rule="evenodd" clip-rule="evenodd" d="M151.273 32.8742C150.925 33.2335 150.509 33.5214 150.048 33.7213C149.587 33.9212 149.091 34.0292 148.588 34.039C146.925 34.039 145.104 32.7347 145.079 29.5766C147.881 29.4864 150.824 29.2485 151.231 29.1829C151.638 29.1173 151.771 28.904 151.771 28.4365C151.755 27.5132 151.378 26.6317 150.721 25.9749C150.063 25.3181 149.174 24.9365 148.238 24.9093C147.577 24.9405 146.929 25.1077 146.336 25.4001C145.743 25.6925 145.219 26.1036 144.797 26.6072C143.784 27.7216 143.232 29.1708 143.251 30.6676C143.251 33.2925 144.913 35.5893 147.839 35.5893C148.606 35.5085 149.347 35.2651 150.01 34.8758C150.673 34.4865 151.242 33.9604 151.68 33.3335L151.298 32.8413L151.273 32.8742ZM147.673 25.7706C147.966 25.7805 148.255 25.8494 148.52 25.9732C148.785 26.097 149.022 26.273 149.216 26.4904C149.41 26.7078 149.556 26.962 149.647 27.2374C149.738 27.5128 149.77 27.8036 149.743 28.0919C149.743 28.4118 149.602 28.5513 149.178 28.5513C147.814 28.6005 146.518 28.6251 145.196 28.6251C145.553 26.7467 146.592 25.7706 147.69 25.7706H147.673Z" fill="#1E1E1C"/>
<path d="M158.065 35.3432V34.7362C156.56 34.5967 156.402 34.4573 156.402 32.8742V24.86C155.332 25.2881 154.217 25.5936 153.077 25.7706V26.3283C154.49 26.5334 154.556 26.6482 154.556 28.0673V32.8742C154.556 34.4573 154.39 34.5967 152.894 34.7362V35.3432H158.065Z" fill="#1E1E1C"/>
<path fill-rule="evenodd" clip-rule="evenodd" d="M172.687 32.8742C172.339 33.2328 171.923 33.5202 171.462 33.7201C171.001 33.9199 170.505 34.0283 170.002 34.039C168.34 34.039 166.519 32.7347 166.494 29.5766C169.296 29.4864 172.238 29.2485 172.637 29.1829C173.037 29.1173 173.178 28.904 173.178 28.4365C173.161 27.5132 172.785 26.6317 172.127 25.9749C171.469 25.3181 170.58 24.9365 169.645 24.9093C168.984 24.9407 168.338 25.1079 167.746 25.4003C167.155 25.6927 166.632 26.1038 166.211 26.6072C165.195 27.7204 164.641 29.1697 164.657 30.6676C164.657 33.2925 166.319 35.5893 169.246 35.5893C170.013 35.5096 170.754 35.2667 171.417 34.8772C172.08 34.4878 172.65 33.9611 173.086 33.3335L172.712 32.8413L172.687 32.8742ZM169.079 25.7706C169.373 25.7805 169.662 25.8495 169.927 25.9732C170.193 26.0969 170.43 26.2728 170.625 26.49C170.819 26.7073 170.967 26.9614 171.059 27.2368C171.15 27.5122 171.184 27.8032 171.158 28.0919C171.158 28.4118 171.016 28.5513 170.592 28.5513C169.221 28.6005 167.932 28.6251 166.61 28.6251C166.96 26.7467 167.999 25.7706 169.063 25.7706H169.079Z" fill="#1E1E1C"/>
</svg>
