<svg width="200" height="60" viewBox="0 0 200 60" fill="none" xmlns="http://www.w3.org/2000/svg">
<path d="M75.6592 17.3448H92.972V18.7115H77.2462V28.9975H92.0342V30.3642H77.2462V41.6572H93.1523V43.0239H75.6592V17.3448ZM94.5229 17.3448H96.3624L104.514 28.6378L112.846 17.3448L124.178 3L105.56 29.8247L115.154 43.0239H113.242L104.514 31.0115L95.7493 43.0239H93.8737L103.54 29.8247L94.5229 17.3448ZM115.839 18.7115V17.3448H135.569V18.7115H126.48V43.0239H124.893V18.7115H115.839Z" fill="black"/>
<path d="M54 17.3448H55.9838L83.3387 58.0001L72.0342 43.024L55.6591 19.287L55.587 43.024H54V17.3448Z" fill="black"/>
<path d="M135.409 41.2448C135.737 41.2448 135.976 40.9953 135.976 40.6728C135.976 40.3504 135.737 40.1009 135.409 40.1009C135.084 40.1009 134.841 40.3504 134.841 40.6728C134.841 40.9953 135.084 41.2448 135.409 41.2448ZM136.968 39.74C136.968 40.692 137.659 41.3139 138.667 41.3139C139.74 41.3139 140.388 40.6728 140.388 39.5596V35.6403H139.523V39.5558C139.523 40.1738 139.211 40.5039 138.659 40.5039C138.165 40.5039 137.829 40.1968 137.817 39.74H136.968ZM141.519 39.6901C141.581 40.6805 142.411 41.3139 143.646 41.3139C144.966 41.3139 145.792 40.6498 145.792 39.5903C145.792 38.7573 145.321 38.2967 144.179 38.0318L143.565 37.8821C142.839 37.7132 142.546 37.4867 142.546 37.0914C142.546 36.5923 143.001 36.266 143.684 36.266C144.333 36.266 144.781 36.5846 144.862 37.0952H145.703C145.653 36.1624 144.827 35.506 143.696 35.506C142.48 35.506 141.67 36.1624 141.67 37.1489C141.67 37.9627 142.129 38.4464 143.136 38.6806L143.854 38.8533C144.592 39.026 144.916 39.2794 144.916 39.7017C144.916 40.193 144.406 40.55 143.712 40.55C142.967 40.55 142.449 40.216 142.376 39.6901H141.519Z" fill="black"/>
</svg>
