<svg width="200" height="60" viewBox="0 0 200 60" fill="none" xmlns="http://www.w3.org/2000/svg">
<path d="M143.145 20.0905V29.5928L137.262 20.0905H131.38V38.733L124.864 20H118.258L112.376 37.4661L107.036 29.2308L113.371 20.0905H106.855L101.606 28.4163V20.0905H95.6335V40H101.606V31.1312L107.127 40H117.172L118.167 36.6516H124.412L125.498 40H136.9V29.5928L143.416 40H148.665V24.9774H153.733V40H159.615V24.9774H165.136V20.0905H143.145ZM119.344 32.1267L121.244 25.8824L123.054 32.1267H119.344Z" fill="#231478"/>
<path d="M93.2805 20.0905H87.3982V40H93.2805V20.0905Z" fill="#231478"/>
<path d="M83.5068 21.991C82.1493 20.6335 80.1584 20 78.0769 20H69.4796V38.19L63.1448 20H56.5385L50.3846 37.8281C49.0271 35.5656 47.2172 32.3982 47.2172 32.3982C49.4796 31.2217 50.5656 29.4118 50.4751 26.6968C50.3846 23.2579 48.0317 20.0905 42.6018 20.0905H35V40H40.7919V33.8462H41.7873L45.4977 40H55.362L56.3575 36.6516H62.6018L63.7783 40H78.0769C80.1584 40 82.0588 39.3665 83.5068 38.009C85.8597 35.6561 85.6787 33.2127 85.6787 30.0452C85.5882 26.9683 85.7692 24.3439 83.5068 21.991ZM41.9683 29.7738H40.7919V24.4344H41.9683C43.8688 24.4344 44.9548 25.3394 44.8643 27.0588C44.8643 28.7783 43.8688 29.7738 41.9683 29.7738ZM57.6244 32.1267L59.5249 25.8824L61.3348 32.1267H57.6244ZM79.9774 30.0452C79.9774 33.3937 79.7964 33.9367 79.4344 34.5701C78.9819 35.2036 78.3484 35.6561 77.0814 35.6561H75.181V24.2534H77.0814C78.3484 24.2534 78.9819 24.7059 79.4344 25.3394C79.7964 25.8824 79.9774 26.4253 79.9774 29.2308V30.0452Z" fill="#231478"/>
</svg>
