<svg width="200" height="60" viewBox="0 0 200 60" fill="none" xmlns="http://www.w3.org/2000/svg">
<path d="M49.0046 32.1981V13.4475H56.1186C60.3915 13.4475 63.6026 16.4934 63.6026 22.7185C63.6026 28.154 61.1536 32.1981 56.1186 32.1981H49.0046ZM52.6308 16.9132V28.7324H55.8641C57.9666 28.7324 59.9765 27.261 59.9765 23.1123C59.9765 19.3308 58.8208 16.9132 55.2174 16.9132H52.6308Z" fill="#0B3D91"/>
<path d="M62.2391 32.1981H65.9116L67.2057 28.0234H73.3728L74.6199 32.1981H78.385L72.2178 13.4475H68.4983L62.2391 32.1981ZM70.3 18.0693H70.3463L72.4253 24.9508H68.1518L70.3 18.0693Z" fill="#0B3D91"/>
<path d="M89.0588 19.7502C88.8278 17.8851 87.2578 16.4678 85.4561 16.4678C82.1993 16.4678 80.9758 19.619 80.9758 22.9014C80.9758 26.0273 82.1993 29.1778 85.4561 29.1778C87.6735 29.1778 88.9211 27.4453 89.1978 24.9765H92.7092C92.3398 29.6509 89.498 32.6442 85.4561 32.6442C80.3513 32.6442 77.3489 28.3116 77.3489 22.9014C77.3489 17.334 80.3513 13.0007 85.4561 13.0007C89.0823 13.0007 92.1316 15.4169 92.5701 19.7502H89.0588Z" fill="#0B3D91"/>
<path d="M93.9758 13.4475H97.602V20.6435H104.278V13.4475H107.904V32.1981H104.278V24.1099H97.602V32.1981H93.9758V13.4475Z" fill="#0B3D91"/>
<path d="M112.359 25.9746C112.359 28.4688 114.068 29.4403 116.007 29.4403C117.277 29.4403 119.218 29.0205 119.218 27.1034C119.218 25.081 116.747 24.7398 114.321 24.0048C111.872 23.2685 109.402 22.1924 109.402 18.6733C109.402 14.8391 112.588 13 115.568 13C119.01 13 122.174 14.7079 122.174 19.0412H118.664C118.548 16.7829 117.14 16.2052 115.407 16.2052C114.252 16.2052 112.912 16.7562 112.912 18.3315C112.912 19.7755 113.698 19.9607 117.832 21.1675C119.033 21.51 122.729 22.3769 122.729 26.631C122.729 30.0713 120.35 32.6441 115.869 32.6441C112.22 32.6441 108.8 30.5964 108.847 25.9746H112.359Z" fill="#0B3D91"/>
<path d="M123.957 13.4475H136.291V16.9139H127.582V20.9313H135.575V24.1365H127.582V28.7317H136.476V32.1981H123.957V13.4475Z" fill="#0B3D91"/>
<path d="M137.584 32.1994H141.21V24.8715H144.837C146.662 24.8715 147.333 25.7378 147.586 27.7075C147.77 29.2041 147.725 31.0173 148.163 32.1994H151.789C151.142 31.1479 151.166 28.9429 151.096 27.7601C150.98 25.8697 150.474 23.8993 148.694 23.3742V23.3216C150.52 22.4819 151.305 20.8267 151.305 18.6211C151.305 15.7844 149.434 13.4475 146.476 13.4475H137.584V32.1994ZM141.21 16.6513H145.184C146.8 16.6513 147.678 17.439 147.678 19.2515C147.678 21.1426 146.8 21.9295 145.184 21.9295H141.21V16.6513Z" fill="#0B3D91"/>
<path d="M49 44.8447H50.7426V36.989H49V44.8447Z" fill="black"/>
<path d="M52.1382 39.1552H53.6363V39.9475H53.6699C54.0695 39.3098 54.7571 39.002 55.4233 39.002C57.0987 39.002 57.5204 39.9375 57.5204 41.3455V44.8439H55.9443V41.6321C55.9443 40.6965 55.6663 40.234 54.9351 40.234C54.0802 40.234 53.7142 40.7065 53.7142 41.8619V44.8439H52.1382V39.1552Z" fill="black"/>
<path d="M60.7165 39.156H61.8708V40.2022H60.7165V43.0175C60.7165 43.546 60.8494 43.6772 61.382 43.6772C61.5485 43.6772 61.7036 43.6672 61.8708 43.6346V44.8553C61.6042 44.8993 61.2597 44.9113 60.9488 44.9113C59.9839 44.9113 59.1404 44.6914 59.1404 43.5573V40.2022H58.1862V39.156H59.1404V37.4521H60.7165V39.156Z" fill="black"/>
<path d="M68.0933 42.379C68.2047 40.6299 67.2606 39.002 65.3085 39.002C63.5659 39.002 62.3787 40.2993 62.3787 42.0052C62.3787 43.7651 63.4994 44.9978 65.3085 44.9978C66.6065 44.9978 67.55 44.4247 67.9939 43.0834H66.6065C66.5071 43.4359 65.9961 43.821 65.3636 43.821C64.4866 43.821 63.9984 43.3692 63.9534 42.379H68.0933ZM63.9534 41.3902C63.9769 40.949 64.265 40.1794 65.2635 40.1794C66.029 40.1794 66.3735 40.5972 66.5179 41.3902H63.9534Z" fill="black"/>
<path d="M69.1011 44.8433H70.6758V36.989H69.1011V44.8433Z" fill="black"/>
<path d="M71.9638 44.8433H73.5392V36.989H71.9638V44.8433Z" fill="black"/>
<path d="M74.8272 38.2773H76.4025V36.9885H74.8272V38.2773ZM74.8272 44.8448H76.4025V39.1562H74.8272V44.8448Z" fill="black"/>
<path d="M83.1601 39.1552H81.6633V39.9155H81.6404C81.263 39.2538 80.6855 39.002 79.9314 39.002C78.3225 39.002 77.467 40.3433 77.467 41.818C77.467 43.3812 78.2003 44.6786 79.92 44.6786C80.6083 44.6786 81.2966 44.3921 81.6404 43.799H81.6633V44.5474C81.6733 45.361 81.2745 45.954 80.3975 45.954C79.8421 45.954 79.3653 45.7575 79.221 45.1731H77.6563C77.7342 46.4718 79.0551 47.0002 80.1859 47.0002C82.827 47.0002 83.1601 45.4163 83.1601 44.4807V39.1552ZM80.3202 43.5005C79.3546 43.5005 79.0437 42.6096 79.0437 41.796C79.0437 40.9484 79.4318 40.1794 80.3202 40.1794C81.3409 40.1794 81.6633 41.0043 81.6633 41.9286C81.6633 42.7435 81.218 43.5005 80.3202 43.5005Z" fill="black"/>
<path d="M89.8628 42.379C89.9742 40.6299 89.0314 39.002 87.0773 39.002C85.3354 39.002 84.1482 40.2993 84.1482 42.0052C84.1482 43.7651 85.2683 44.9978 87.0773 44.9978C88.3754 44.9978 89.3188 44.4247 89.7634 43.0834H88.3754C88.2767 43.4359 87.7656 43.821 87.1331 43.821C86.2561 43.821 85.7672 43.3692 85.7236 42.379H89.8628ZM85.7236 41.3902C85.7457 40.949 86.0345 40.1794 87.0323 40.1794C87.7985 40.1794 88.1424 40.5972 88.2867 41.3902H85.7236Z" fill="black"/>
<path d="M90.7952 39.1552H92.2927V39.9475H92.3263C92.7258 39.3098 93.4135 39.002 94.0796 39.002C95.7557 39.002 96.1768 39.9375 96.1768 41.3455V44.8439H94.6014V41.6321C94.6014 40.6965 94.3234 40.234 93.5914 40.234C92.7373 40.234 92.3706 40.7065 92.3706 41.8619V44.8439H90.7952V39.1552Z" fill="black"/>
<path d="M99.3728 39.156H100.527V40.2022H99.3728V43.0175C99.3728 43.546 99.5051 43.6772 100.038 43.6772C100.204 43.6772 100.36 43.6672 100.527 43.6346V44.8553C100.26 44.8993 99.9161 44.9113 99.6052 44.9113C98.6395 44.9113 97.7968 44.6914 97.7968 43.5573V40.2022H96.8419V39.156H97.7968V37.4521H99.3728V39.156Z" fill="black"/>
<path d="M104.533 36.99H106.274V43.3917H110.136V44.8443H104.533V36.99Z" fill="black"/>
<path d="M110.769 42.0054C110.769 43.8092 111.934 44.9973 113.731 44.9973C115.539 44.9973 116.704 43.8092 116.704 42.0054C116.704 40.1896 115.539 39.0015 113.731 39.0015C111.934 39.0015 110.769 40.1896 110.769 42.0054ZM112.344 42.0054C112.344 41.0932 112.666 40.1796 113.731 40.1796C114.807 40.1796 115.13 41.0932 115.13 42.0054C115.13 42.9076 114.807 43.8199 113.731 43.8199C112.666 43.8199 112.344 42.9076 112.344 42.0054Z" fill="black"/>
<path d="M123.241 39.1552H121.744V39.9155H121.72C121.343 39.2538 120.766 39.002 120.01 39.002C118.403 39.002 117.547 40.3433 117.547 41.818C117.547 43.3812 118.281 44.6786 120.001 44.6786C120.689 44.6786 121.378 44.3921 121.72 43.799H121.744V44.5474C121.754 45.361 121.355 45.954 120.478 45.954C119.923 45.954 119.447 45.7575 119.301 45.1731H117.738C117.815 46.4718 119.135 47.0002 120.267 47.0002C122.909 47.0002 123.241 45.4163 123.241 44.4807V39.1552ZM120.401 43.5005C119.435 43.5005 119.125 42.6096 119.125 41.796C119.125 40.9484 119.513 40.1794 120.401 40.1794C121.421 40.1794 121.744 41.0043 121.744 41.9286C121.744 42.7435 121.299 43.5005 120.401 43.5005Z" fill="black"/>
<path d="M124.55 38.2773H126.126V36.9885H124.55V38.2773ZM124.551 44.8448H126.126V39.1562H124.551V44.8448Z" fill="black"/>
<path d="M128.59 42.9956C128.6 43.6759 129.178 43.9525 129.799 43.9525C130.254 43.9525 130.831 43.7766 130.831 43.2262C130.831 42.7537 130.176 42.5885 129.045 42.3459C128.134 42.1487 127.226 41.8295 127.226 40.8273C127.226 39.3746 128.491 39.0015 129.721 39.0015C130.976 39.0015 132.13 39.4193 132.251 40.8166H130.753C130.71 40.2116 130.243 40.0463 129.678 40.0463C129.323 40.0463 128.8 40.1129 128.8 40.5747C128.8 41.1358 129.688 41.2124 130.587 41.4223C131.508 41.6316 132.407 41.9607 132.407 43.0163C132.407 44.5129 131.098 44.9973 129.788 44.9973C128.456 44.9973 127.159 44.5029 127.092 42.9956H128.59Z" fill="black"/>
<path d="M135.263 39.156H136.418V40.2022H135.263V43.0175C135.263 43.546 135.396 43.6772 135.928 43.6772C136.095 43.6772 136.25 43.6672 136.418 43.6346V44.8553C136.151 44.8993 135.807 44.9113 135.496 44.9113C134.529 44.9113 133.687 44.6914 133.687 43.5573V40.2022H132.733V39.156H133.687V37.4521H135.263V39.156Z" fill="black"/>
<path d="M137.56 38.2773H139.135V36.9885H137.56V38.2773ZM137.559 44.8448H139.134V39.1562H137.559V44.8448Z" fill="black"/>
<path d="M144.128 41.158C144.028 40.5203 143.617 40.1792 142.962 40.1792C141.953 40.1792 141.62 41.1907 141.62 42.0276C141.62 42.8419 141.942 43.8208 142.93 43.8208C143.662 43.8208 144.083 43.359 144.183 42.6653H145.704C145.504 44.172 144.449 44.9976 142.94 44.9976C141.21 44.9976 140.043 43.7868 140.043 42.0823C140.043 40.3111 141.109 39.0017 142.974 39.0017C144.328 39.0017 145.57 39.7054 145.671 41.158H144.128Z" fill="black"/>
<path d="M147.967 42.9956C147.979 43.6759 148.556 43.9525 149.177 43.9525C149.632 43.9525 150.209 43.7766 150.209 43.2262C150.209 42.7537 149.553 42.5885 148.422 42.3459C147.513 42.1487 146.603 41.8295 146.603 40.8273C146.603 39.3746 147.868 39.0015 149.099 39.0015C150.353 39.0015 151.507 39.4193 151.629 40.8166H150.132C150.086 40.2116 149.621 40.0463 149.056 40.0463C148.699 40.0463 148.178 40.1129 148.178 40.5747C148.178 41.1358 149.066 41.2124 149.965 41.4223C150.886 41.6316 151.785 41.9607 151.785 43.0163C151.785 44.5129 150.475 44.9973 149.165 44.9973C147.834 44.9973 146.536 44.5029 146.47 42.9956H147.967Z" fill="black"/>
</svg>
