<svg width="1200" height="630" viewBox="0 0 1200 630" fill="none" xmlns="http://www.w3.org/2000/svg">
<g clip-path="url(#clip0_122_116)">
<rect width="1200" height="630" fill="white"/>
<path d="M1160.37 34.4736H868.636V103.628L968.551 203.565H1200V74.1109L1160.37 34.4736Z" fill="#ECFF00" fill-opacity="0.2"/>
<path opacity="0.2" d="M756.619 241.547L725.025 207.153L725.025 91.1745L812.609 -1.20876L903.393 -1.20875L916.59 11.189L916.59 76.3818L756.619 241.547Z" fill="#065669" fill-opacity="0.4"/>
<path opacity="0.2" d="M56.4595 408.392L49.0908 421.688L56.4595 469.089L96.2506 504.929L207.273 495.102V437.295L165.025 398.565L56.4595 408.392Z" fill="#065669" fill-opacity="0.2"/>
<path d="M0 547.315V620.837H92.7273L130.909 562.703L111.57 466.953L74.876 436.746L0 547.315Z" fill="#ECFF00" fill-opacity="0.4"/>
<path d="M45 111.148C45 105.453 49.6166 100.837 55.3114 100.837H166.674C172.369 100.837 176.985 105.453 176.985 111.148V222.511C176.985 228.206 172.369 232.822 166.674 232.822H55.3114C49.6166 232.822 45 228.206 45 222.511V111.148Z" fill="#06566A"/>
<path fill-rule="evenodd" clip-rule="evenodd" d="M86.3114 117.474H69.6593L65.5186 117.474V122.437H69.6593V208.4L78.0087 216.74H96.5739V127.725L86.3114 117.474Z" fill="#ECFF00"/>
<path fill-rule="evenodd" clip-rule="evenodd" d="M87.7012 163.502H122.559L158.685 199.881L141.256 217.432L141.228 217.403L138.582 220.067L135.102 216.563L137.748 213.899L87.7012 163.502Z" fill="#ECFF00"/>
<path fill-rule="evenodd" clip-rule="evenodd" d="M96.7095 179.584H125.794L167.558 138.547H126.002L90.4736 173.457L96.7095 179.584Z" fill="#06566A"/>
<path fill-rule="evenodd" clip-rule="evenodd" d="M90.8002 173.485H94.4568H119.844L147.915 145.202H153.694V140.211L152.868 140.211H119.844L88.8101 171.479L90.8002 173.485Z" fill="#ECFF00"/>
<path d="M255.473 199.687L267.722 217.426H288.206L267.088 187.122L286.516 166.216H266.138L248.293 185.433V142.458H231.188V217.426H248.293V207.395L255.473 199.687Z" fill="#083D4A"/>
<path d="M303.163 158.191C308.653 158.191 313.194 154.073 313.194 148.582C313.194 142.986 308.653 138.868 303.163 138.868C297.567 138.868 293.132 142.986 293.132 148.582C293.132 154.073 297.567 158.191 303.163 158.191ZM311.821 166.216H294.716V217.426H311.821V166.216Z" fill="#083D4A"/>
<path d="M349.133 204.122C341.847 204.122 337.412 198.737 337.412 191.768C337.412 184.799 341.847 179.52 349.133 179.52C354.412 179.52 358.319 182.582 359.163 187.228H375.318C374.157 174.029 363.281 165.054 349.133 165.054C332.978 165.054 321.152 176.246 321.152 191.768C321.152 207.395 332.978 218.587 349.133 218.587C363.281 218.587 374.157 209.612 375.318 196.414H359.163C358.319 201.06 354.412 204.122 349.133 204.122Z" fill="#083D4A"/>
<path d="M408.7 199.687L420.948 217.426H441.432L420.315 187.122L439.743 166.216H419.364L401.52 185.433V142.458H384.415V217.426H401.52V207.395L408.7 199.687Z" fill="#083D4A"/>
<path d="M442.592 199.793C443.648 213.413 454.524 219.01 467.933 219.01C481.238 219.01 491.902 213.519 491.902 201.693C491.902 192.613 485.567 187.967 475.958 186.172L466.35 184.588C462.337 183.849 461.07 182.265 461.07 180.576C461.07 178.569 463.076 176.88 467.511 176.88C472.263 176.88 475.853 178.675 476.169 182.582H491.374C490.635 169.066 478.281 164.843 467.405 164.843C453.785 164.843 444.598 171.178 444.598 181.948C444.598 190.923 450.723 195.886 459.592 197.364L469.94 199.159C473.318 199.687 474.902 201.06 474.902 202.749C474.902 204.966 472.157 206.339 467.617 206.339C462.232 206.339 458.536 204.333 457.797 199.898L442.592 199.793Z" fill="#083D4A"/>
<path d="M540.313 202.01C536.511 202.749 533.66 203.277 531.232 203.277C526.164 203.277 523.207 200.743 523.207 195.569V180.892H540.629V166.216H523.207V148.793H506.102V166.216H496.071V180.892H506.102V196.097C506.102 209.929 514.338 219.01 526.692 219.01C531.76 219.01 535.561 218.587 542.213 216.476L540.313 202.01Z" fill="#083D4A"/>
<path d="M603.359 166.216H586.254V168.961C582.453 166.532 577.807 165.054 572.211 165.054C558.379 165.054 546.764 176.458 546.764 191.768C546.764 206.973 558.379 218.482 572.211 218.482C577.807 218.482 582.453 217.003 586.254 214.575V217.426H603.359V166.216ZM575.59 204.438C568.621 204.438 563.553 198.842 563.553 191.768C563.553 184.693 568.621 178.992 575.59 178.992C579.391 178.992 583.087 180.153 586.254 183.849V199.687C583.087 203.383 579.391 204.438 575.59 204.438Z" fill="#083D4A"/>
<path d="M649.715 165.371C642.113 165.371 636.622 167.799 632.082 171.706V166.216H614.977V217.426H632.082V188.178C636.094 184.166 641.374 181.948 649.715 181.631V165.371Z" fill="#083D4A"/>
<path d="M698.179 202.01C694.378 202.749 691.527 203.277 689.099 203.277C684.031 203.277 681.074 200.743 681.074 195.569V180.892H698.496V166.216H681.074V148.793H663.969V166.216H653.938V180.892H663.969V196.097C663.969 209.929 672.205 219.01 684.559 219.01C689.627 219.01 693.428 218.587 700.08 216.476L698.179 202.01Z" fill="#083D4A"/>
<path d="M709.132 145.626V217.426H738.063C760.553 217.426 776.814 202.643 776.814 181.315C776.814 160.303 760.553 145.626 738.063 145.626H709.132ZM726.976 201.376V161.675H738.063C749.678 161.675 758.653 170.228 758.653 181.315C758.653 192.718 749.678 201.376 738.063 201.376H726.976Z" fill="#083D4A"/>
<path d="M814.168 144.042C797.274 144.042 785.659 153.123 785.659 167.483C785.659 178.886 792.311 185.538 806.46 188.6L818.286 191.24C824.41 192.401 825.888 194.936 825.888 197.364C825.888 201.271 822.404 203.699 815.752 203.699C807.305 203.699 801.814 199.898 800.653 193.563H782.808C784.498 211.302 799.069 218.904 815.224 218.904C833.174 218.904 845 209.929 845 195.569C845 183.215 836.447 177.936 823.354 175.085L813.323 172.762C807.938 171.601 805.088 169.911 805.088 166.004C805.088 161.358 809.205 158.824 815.33 158.824C822.615 158.824 825.994 162.52 826.944 167.905H844.894C843.099 148.582 825.783 144.042 814.168 144.042Z" fill="#083D4A"/>
<rect y="619.474" width="1200" height="10.9091" fill="#06566A"/>
<path d="M271.74 330.059V338.725H257.098V379H246.805V338.725H232.096V330.059H271.74ZM295.941 341.879C298.177 341.879 300.202 342.266 302.018 343.041C303.855 343.816 305.36 345 306.533 346.594C307.529 347.944 308.138 349.339 308.359 350.777C308.581 352.194 308.691 354.518 308.691 357.75V379H299.029V356.986C299.029 355.038 298.697 353.467 298.033 352.271C297.17 350.589 295.532 349.748 293.119 349.748C290.618 349.748 288.714 350.589 287.408 352.271C286.124 353.932 285.482 356.311 285.482 359.41V379H276.053V330.225H285.482V347.523C286.855 345.421 288.438 343.96 290.23 343.141C292.046 342.299 293.949 341.879 295.941 341.879ZM330.834 349.648C328.643 349.648 326.938 350.335 325.721 351.707C324.525 353.079 323.773 354.939 323.463 357.285H338.172C338.017 354.784 337.253 352.891 335.881 351.607C334.531 350.301 332.848 349.648 330.834 349.648ZM330.834 341.846C333.844 341.846 336.556 342.41 338.969 343.539C341.382 344.668 343.374 346.45 344.945 348.885C346.362 351.032 347.281 353.522 347.701 356.355C347.945 358.016 348.044 360.406 348 363.527H323.23C323.363 367.158 324.503 369.703 326.65 371.164C327.956 372.072 329.528 372.525 331.365 372.525C333.313 372.525 334.896 371.972 336.113 370.865C336.777 370.268 337.364 369.438 337.873 368.375H347.535C347.292 370.522 346.174 372.702 344.182 374.916C341.083 378.436 336.744 380.195 331.166 380.195C326.562 380.195 322.5 378.712 318.98 375.746C315.461 372.78 313.701 367.954 313.701 361.27C313.701 355.005 315.284 350.202 318.449 346.859C321.637 343.517 325.765 341.846 330.834 341.846ZM380.996 379H371.533V330.059H380.996V379ZM405.496 372.326C408.263 372.326 410.388 371.341 411.871 369.371C413.354 367.401 414.096 364.601 414.096 360.971C414.096 357.34 413.354 354.551 411.871 352.604C410.388 350.633 408.263 349.648 405.496 349.648C402.729 349.648 400.593 350.633 399.088 352.604C397.605 354.551 396.863 357.34 396.863 360.971C396.863 364.601 397.605 367.401 399.088 369.371C400.593 371.341 402.729 372.326 405.496 372.326ZM424.023 360.971C424.023 366.283 422.496 370.832 419.441 374.617C416.387 378.38 411.749 380.262 405.529 380.262C399.309 380.262 394.672 378.38 391.617 374.617C388.562 370.832 387.035 366.283 387.035 360.971C387.035 355.747 388.562 351.22 391.617 347.391C394.672 343.561 399.309 341.646 405.529 341.646C411.749 341.646 416.387 343.561 419.441 347.391C422.496 351.22 424.023 355.747 424.023 360.971ZM446.896 342.809H456.492L462.004 368.873L467.648 342.809H477.51L467.018 379H457.289L451.611 352.637L445.867 379H436.039L425.879 342.809H436.039L441.684 368.773L446.896 342.809ZM478.9 355.559H497.959V364.523H478.9V355.559ZM525.016 355.791C524.839 354.441 524.385 353.223 523.654 352.139C522.592 350.678 520.943 349.947 518.707 349.947C515.52 349.947 513.339 351.53 512.166 354.695C511.546 356.378 511.236 358.613 511.236 361.402C511.236 364.059 511.546 366.195 512.166 367.811C513.295 370.821 515.42 372.326 518.541 372.326C520.755 372.326 522.326 371.729 523.256 370.533C524.186 369.338 524.75 367.788 524.949 365.885H534.611C534.39 368.762 533.35 371.485 531.49 374.053C528.524 378.192 524.13 380.262 518.309 380.262C512.487 380.262 508.204 378.535 505.459 375.082C502.714 371.629 501.342 367.146 501.342 361.635C501.342 355.415 502.858 350.578 505.891 347.125C508.923 343.672 513.107 341.945 518.441 341.945C522.979 341.945 526.687 342.964 529.564 345C532.464 347.036 534.18 350.633 534.711 355.791H525.016ZM556.488 372.326C559.255 372.326 561.38 371.341 562.863 369.371C564.346 367.401 565.088 364.601 565.088 360.971C565.088 357.34 564.346 354.551 562.863 352.604C561.38 350.633 559.255 349.648 556.488 349.648C553.721 349.648 551.585 350.633 550.08 352.604C548.597 354.551 547.855 357.34 547.855 360.971C547.855 364.601 548.597 367.401 550.08 369.371C551.585 371.341 553.721 372.326 556.488 372.326ZM575.016 360.971C575.016 366.283 573.488 370.832 570.434 374.617C567.379 378.38 562.742 380.262 556.521 380.262C550.301 380.262 545.664 378.38 542.609 374.617C539.555 370.832 538.027 366.283 538.027 360.971C538.027 355.747 539.555 351.22 542.609 347.391C545.664 343.561 550.301 341.646 556.521 341.646C562.742 341.646 567.379 343.561 570.434 347.391C573.488 351.22 575.016 355.747 575.016 360.971ZM594.17 341.945C596.361 341.945 598.309 342.432 600.014 343.406C601.718 344.358 603.102 345.686 604.164 347.391V330.125H613.76V379H604.562V373.986C603.212 376.133 601.674 377.694 599.947 378.668C598.221 379.642 596.074 380.129 593.506 380.129C589.278 380.129 585.714 378.424 582.814 375.016C579.937 371.585 578.498 367.191 578.498 361.834C578.498 355.658 579.915 350.799 582.748 347.258C585.604 343.716 589.411 341.945 594.17 341.945ZM596.229 372.16C598.907 372.16 600.943 371.164 602.338 369.172C603.732 367.18 604.43 364.601 604.43 361.436C604.43 357.008 603.312 353.843 601.076 351.939C599.704 350.788 598.11 350.213 596.295 350.213C593.528 350.213 591.492 351.264 590.186 353.367C588.902 355.448 588.26 358.038 588.26 361.137C588.26 364.479 588.913 367.158 590.219 369.172C591.547 371.164 593.55 372.16 596.229 372.16ZM635.67 349.648C633.479 349.648 631.774 350.335 630.557 351.707C629.361 353.079 628.609 354.939 628.299 357.285H643.008C642.853 354.784 642.089 352.891 640.717 351.607C639.367 350.301 637.684 349.648 635.67 349.648ZM635.67 341.846C638.68 341.846 641.392 342.41 643.805 343.539C646.217 344.668 648.21 346.45 649.781 348.885C651.198 351.032 652.117 353.522 652.537 356.355C652.781 358.016 652.88 360.406 652.836 363.527H628.066C628.199 367.158 629.339 369.703 631.486 371.164C632.792 372.072 634.364 372.525 636.201 372.525C638.149 372.525 639.732 371.972 640.949 370.865C641.613 370.268 642.2 369.438 642.709 368.375H652.371C652.128 370.522 651.01 372.702 649.018 374.916C645.919 378.436 641.58 380.195 636.002 380.195C631.398 380.195 627.336 378.712 623.816 375.746C620.297 372.78 618.537 367.954 618.537 361.27C618.537 355.005 620.12 350.202 623.285 346.859C626.473 343.517 630.601 341.846 635.67 341.846ZM689.518 329.561C690.115 329.561 690.658 329.583 691.145 329.627C691.632 329.649 692.296 329.693 693.137 329.76V337.463C692.605 337.396 691.709 337.352 690.447 337.33C689.208 337.286 688.344 337.562 687.857 338.16C687.393 338.736 687.16 339.378 687.16 340.086C687.16 340.794 687.16 341.812 687.16 343.141H693.369V349.814H687.16V379H677.73V349.814H672.451V343.141H677.631V340.816C677.631 336.943 678.284 334.275 679.59 332.814C680.962 330.645 684.271 329.561 689.518 329.561ZM717.471 341.945C717.648 341.945 717.792 341.956 717.902 341.979C718.035 341.979 718.312 341.99 718.732 342.012V351.707C718.135 351.641 717.604 351.596 717.139 351.574C716.674 351.552 716.298 351.541 716.01 351.541C712.202 351.541 709.646 352.781 708.34 355.26C707.609 356.654 707.244 358.801 707.244 361.701V379H697.715V342.809H706.746V349.117C708.207 346.704 709.48 345.055 710.564 344.17C712.335 342.687 714.637 341.945 717.471 341.945ZM743.266 361.402C742.668 361.779 742.059 362.089 741.439 362.332C740.842 362.553 740.012 362.764 738.949 362.963L736.824 363.361C734.832 363.715 733.404 364.147 732.541 364.656C731.08 365.52 730.35 366.859 730.35 368.674C730.35 370.29 730.792 371.463 731.678 372.193C732.585 372.902 733.681 373.256 734.965 373.256C737.001 373.256 738.872 372.658 740.576 371.463C742.303 370.268 743.199 368.087 743.266 364.922V361.402ZM737.521 356.986C739.27 356.765 740.521 356.488 741.273 356.156C742.624 355.581 743.299 354.684 743.299 353.467C743.299 351.984 742.779 350.965 741.738 350.412C740.72 349.837 739.215 349.549 737.223 349.549C734.987 349.549 733.404 350.102 732.475 351.209C731.811 352.028 731.368 353.135 731.146 354.529H722.016C722.215 351.364 723.1 348.763 724.672 346.727C727.173 343.539 731.467 341.945 737.555 341.945C741.517 341.945 745.036 342.731 748.113 344.303C751.19 345.874 752.729 348.84 752.729 353.201V369.803C752.729 370.954 752.751 372.348 752.795 373.986C752.861 375.226 753.049 376.067 753.359 376.51C753.669 376.952 754.134 377.318 754.754 377.605V379H744.461C744.173 378.27 743.974 377.583 743.863 376.941C743.753 376.299 743.664 375.569 743.598 374.75C742.292 376.167 740.786 377.373 739.082 378.369C737.046 379.542 734.743 380.129 732.176 380.129C728.9 380.129 726.188 379.199 724.041 377.34C721.916 375.458 720.854 372.802 720.854 369.371C720.854 364.922 722.569 361.701 726 359.709C727.882 358.624 730.648 357.85 734.301 357.385L737.521 356.986ZM800.604 342.012C802.197 342.012 803.769 342.322 805.318 342.941C806.868 343.561 808.273 344.646 809.535 346.195C810.553 347.457 811.24 349.007 811.594 350.844C811.815 352.061 811.926 353.843 811.926 356.189L811.859 379H802.164V355.957C802.164 354.585 801.943 353.456 801.5 352.57C800.659 350.888 799.109 350.047 796.852 350.047C794.24 350.047 792.436 351.132 791.439 353.301C790.93 354.452 790.676 355.835 790.676 357.451V379H781.146V357.451C781.146 355.304 780.925 353.743 780.482 352.77C779.686 351.021 778.125 350.146 775.801 350.146C773.1 350.146 771.285 351.021 770.355 352.77C769.846 353.766 769.592 355.249 769.592 357.219V379H759.996V342.875H769.193V348.154C770.367 346.273 771.473 344.934 772.514 344.137C774.351 342.72 776.73 342.012 779.652 342.012C782.419 342.012 784.655 342.62 786.359 343.838C787.732 344.967 788.772 346.417 789.48 348.188C790.72 346.062 792.258 344.502 794.096 343.506C796.044 342.51 798.213 342.012 800.604 342.012ZM833.936 349.648C831.744 349.648 830.04 350.335 828.822 351.707C827.627 353.079 826.874 354.939 826.564 357.285H841.273C841.118 354.784 840.355 352.891 838.982 351.607C837.632 350.301 835.95 349.648 833.936 349.648ZM833.936 341.846C836.946 341.846 839.658 342.41 842.07 343.539C844.483 344.668 846.475 346.45 848.047 348.885C849.464 351.032 850.382 353.522 850.803 356.355C851.046 358.016 851.146 360.406 851.102 363.527H826.332C826.465 367.158 827.605 369.703 829.752 371.164C831.058 372.072 832.63 372.525 834.467 372.525C836.415 372.525 837.997 371.972 839.215 370.865C839.879 370.268 840.465 369.438 840.975 368.375H850.637C850.393 370.522 849.275 372.702 847.283 374.916C844.184 378.436 839.846 380.195 834.268 380.195C829.663 380.195 825.602 378.712 822.082 375.746C818.562 372.78 816.803 367.954 816.803 361.27C816.803 355.005 818.385 350.202 821.551 346.859C824.738 343.517 828.867 341.846 833.936 341.846ZM873.576 342.809H883.172L888.684 368.873L894.328 342.809H904.189L893.697 379H883.969L878.291 352.637L872.547 379H862.719L852.559 342.809H862.719L868.363 368.773L873.576 342.809ZM924.672 372.326C927.439 372.326 929.564 371.341 931.047 369.371C932.53 367.401 933.271 364.601 933.271 360.971C933.271 357.34 932.53 354.551 931.047 352.604C929.564 350.633 927.439 349.648 924.672 349.648C921.905 349.648 919.769 350.633 918.264 352.604C916.781 354.551 916.039 357.34 916.039 360.971C916.039 364.601 916.781 367.401 918.264 369.371C919.769 371.341 921.905 372.326 924.672 372.326ZM943.199 360.971C943.199 366.283 941.672 370.832 938.617 374.617C935.562 378.38 930.925 380.262 924.705 380.262C918.485 380.262 913.848 378.38 910.793 374.617C907.738 370.832 906.211 366.283 906.211 360.971C906.211 355.747 907.738 351.22 910.793 347.391C913.848 343.561 918.485 341.646 924.705 341.646C930.925 341.646 935.562 343.561 938.617 347.391C941.672 351.22 943.199 355.747 943.199 360.971ZM968.662 341.945C968.839 341.945 968.983 341.956 969.094 341.979C969.227 341.979 969.503 341.99 969.924 342.012V351.707C969.326 351.641 968.795 351.596 968.33 351.574C967.865 351.552 967.489 351.541 967.201 351.541C963.394 351.541 960.837 352.781 959.531 355.26C958.801 356.654 958.436 358.801 958.436 361.701V379H948.906V342.809H957.938V349.117C959.398 346.704 960.671 345.055 961.756 344.17C963.527 342.687 965.829 341.945 968.662 341.945ZM974.402 330.225H983.699V356.588L995.486 342.975H1007.21L994.557 356.82L1007.71 379H996.283L987.617 363.527L983.699 367.611V379H974.402V330.225ZM1049.23 361.402C1048.64 361.779 1048.03 362.089 1047.41 362.332C1046.81 362.553 1045.98 362.764 1044.92 362.963L1042.79 363.361C1040.8 363.715 1039.37 364.147 1038.51 364.656C1037.05 365.52 1036.32 366.859 1036.32 368.674C1036.32 370.29 1036.76 371.463 1037.65 372.193C1038.55 372.902 1039.65 373.256 1040.93 373.256C1042.97 373.256 1044.84 372.658 1046.54 371.463C1048.27 370.268 1049.17 368.087 1049.23 364.922V361.402ZM1043.49 356.986C1045.24 356.765 1046.49 356.488 1047.24 356.156C1048.59 355.581 1049.27 354.684 1049.27 353.467C1049.27 351.984 1048.75 350.965 1047.71 350.412C1046.69 349.837 1045.18 349.549 1043.19 349.549C1040.96 349.549 1039.37 350.102 1038.44 351.209C1037.78 352.028 1037.34 353.135 1037.12 354.529H1027.98C1028.18 351.364 1029.07 348.763 1030.64 346.727C1033.14 343.539 1037.44 341.945 1043.52 341.945C1047.49 341.945 1051.01 342.731 1054.08 344.303C1057.16 345.874 1058.7 348.84 1058.7 353.201V369.803C1058.7 370.954 1058.72 372.348 1058.76 373.986C1058.83 375.226 1059.02 376.067 1059.33 376.51C1059.64 376.952 1060.1 377.318 1060.72 377.605V379H1050.43C1050.14 378.27 1049.94 377.583 1049.83 376.941C1049.72 376.299 1049.63 375.569 1049.57 374.75C1048.26 376.167 1046.76 377.373 1045.05 378.369C1043.01 379.542 1040.71 380.129 1038.14 380.129C1034.87 380.129 1032.16 379.199 1030.01 377.34C1027.88 375.458 1026.82 372.802 1026.82 369.371C1026.82 364.922 1028.54 361.701 1031.97 359.709C1033.85 358.624 1036.62 357.85 1040.27 357.385L1043.49 356.986ZM1086.19 341.945C1089.93 341.945 1092.98 342.93 1095.35 344.9C1097.74 346.848 1098.94 350.091 1098.94 354.629V379H1089.24V356.986C1089.24 355.083 1088.99 353.622 1088.48 352.604C1087.55 350.744 1085.78 349.814 1083.16 349.814C1079.95 349.814 1077.75 351.176 1076.56 353.898C1075.94 355.337 1075.63 357.174 1075.63 359.41V379H1066.2V342.875H1075.33V348.154C1076.55 346.295 1077.7 344.956 1078.78 344.137C1080.73 342.676 1083.2 341.945 1086.19 341.945ZM1120.05 341.945C1122.24 341.945 1124.19 342.432 1125.89 343.406C1127.6 344.358 1128.98 345.686 1130.04 347.391V330.125H1139.64V379H1130.44V373.986C1129.09 376.133 1127.55 377.694 1125.83 378.668C1124.1 379.642 1121.95 380.129 1119.38 380.129C1115.16 380.129 1111.59 378.424 1108.69 375.016C1105.82 371.585 1104.38 367.191 1104.38 361.834C1104.38 355.658 1105.79 350.799 1108.63 347.258C1111.48 343.716 1115.29 341.945 1120.05 341.945ZM1122.11 372.16C1124.79 372.16 1126.82 371.164 1128.22 369.172C1129.61 367.18 1130.31 364.601 1130.31 361.436C1130.31 357.008 1129.19 353.843 1126.96 351.939C1125.58 350.788 1123.99 350.213 1122.17 350.213C1119.41 350.213 1117.37 351.264 1116.06 353.367C1114.78 355.448 1114.14 358.038 1114.14 361.137C1114.14 364.479 1114.79 367.158 1116.1 369.172C1117.43 371.164 1119.43 372.16 1122.11 372.16ZM242.787 451.445C242.986 453.128 243.418 454.323 244.082 455.031C245.255 456.293 247.424 456.924 250.59 456.924C252.449 456.924 253.921 456.647 255.006 456.094C256.113 455.54 256.666 454.71 256.666 453.604C256.666 452.541 256.223 451.733 255.338 451.18C254.452 450.626 251.165 449.674 245.477 448.324C241.382 447.306 238.493 446.033 236.811 444.506C235.128 443.001 234.287 440.831 234.287 437.998C234.287 434.656 235.593 431.789 238.205 429.398C240.839 426.986 244.536 425.779 249.295 425.779C253.811 425.779 257.485 426.687 260.318 428.502C263.174 430.295 264.812 433.405 265.232 437.832H255.77C255.637 436.615 255.294 435.652 254.74 434.943C253.7 433.66 251.929 433.018 249.428 433.018C247.369 433.018 245.897 433.339 245.012 433.98C244.148 434.622 243.717 435.375 243.717 436.238C243.717 437.323 244.182 438.109 245.111 438.596C246.041 439.105 249.328 439.979 254.973 441.219C258.736 442.104 261.558 443.443 263.439 445.236C265.299 447.051 266.229 449.32 266.229 452.043C266.229 455.629 264.889 458.562 262.211 460.842C259.555 463.1 255.438 464.229 249.859 464.229C244.171 464.229 239.965 463.033 237.242 460.643C234.542 458.23 233.191 455.164 233.191 451.445H242.787ZM268.549 433.881V427.141H273.596V417.047H282.959V427.141H288.836V433.881H282.959V453.006C282.959 454.489 283.147 455.419 283.523 455.795C283.9 456.149 285.051 456.326 286.977 456.326C287.264 456.326 287.563 456.326 287.873 456.326C288.205 456.304 288.526 456.282 288.836 456.26V463.332L284.354 463.498C279.882 463.653 276.827 462.878 275.189 461.174C274.127 460.089 273.596 458.418 273.596 456.16V433.881H268.549ZM313.867 445.402C313.27 445.779 312.661 446.089 312.041 446.332C311.443 446.553 310.613 446.764 309.551 446.963L307.426 447.361C305.434 447.715 304.006 448.147 303.143 448.656C301.682 449.52 300.951 450.859 300.951 452.674C300.951 454.29 301.394 455.463 302.279 456.193C303.187 456.902 304.283 457.256 305.566 457.256C307.603 457.256 309.473 456.658 311.178 455.463C312.904 454.268 313.801 452.087 313.867 448.922V445.402ZM308.123 440.986C309.872 440.765 311.122 440.488 311.875 440.156C313.225 439.581 313.9 438.684 313.9 437.467C313.9 435.984 313.38 434.965 312.34 434.412C311.322 433.837 309.816 433.549 307.824 433.549C305.589 433.549 304.006 434.102 303.076 435.209C302.412 436.028 301.969 437.135 301.748 438.529H292.617C292.816 435.364 293.702 432.763 295.273 430.727C297.775 427.539 302.069 425.945 308.156 425.945C312.118 425.945 315.638 426.731 318.715 428.303C321.792 429.874 323.33 432.84 323.33 437.201V453.803C323.33 454.954 323.352 456.348 323.396 457.986C323.463 459.226 323.651 460.067 323.961 460.51C324.271 460.952 324.736 461.318 325.355 461.605V463H315.062C314.775 462.27 314.576 461.583 314.465 460.941C314.354 460.299 314.266 459.569 314.199 458.75C312.893 460.167 311.388 461.373 309.684 462.369C307.647 463.542 305.345 464.129 302.777 464.129C299.501 464.129 296.79 463.199 294.643 461.34C292.518 459.458 291.455 456.802 291.455 453.371C291.455 448.922 293.171 445.701 296.602 443.709C298.483 442.624 301.25 441.85 304.902 441.385L308.123 440.986ZM350.42 425.945C350.597 425.945 350.741 425.956 350.852 425.979C350.984 425.979 351.261 425.99 351.682 426.012V435.707C351.084 435.641 350.553 435.596 350.088 435.574C349.623 435.552 349.247 435.541 348.959 435.541C345.152 435.541 342.595 436.781 341.289 439.26C340.559 440.654 340.193 442.801 340.193 445.701V463H330.664V426.809H339.695V433.117C341.156 430.704 342.429 429.055 343.514 428.17C345.285 426.687 347.587 425.945 350.42 425.945ZM352.541 433.881V427.141H357.588V417.047H366.951V427.141H372.828V433.881H366.951V453.006C366.951 454.489 367.139 455.419 367.516 455.795C367.892 456.149 369.043 456.326 370.969 456.326C371.257 456.326 371.555 456.326 371.865 456.326C372.197 456.304 372.518 456.282 372.828 456.26V463.332L368.346 463.498C363.874 463.653 360.82 462.878 359.182 461.174C358.119 460.089 357.588 458.418 357.588 456.16V433.881H352.541ZM392.182 433.648C389.99 433.648 388.286 434.335 387.068 435.707C385.873 437.079 385.12 438.939 384.811 441.285H399.52C399.365 438.784 398.601 436.891 397.229 435.607C395.878 434.301 394.196 433.648 392.182 433.648ZM392.182 425.846C395.192 425.846 397.904 426.41 400.316 427.539C402.729 428.668 404.721 430.45 406.293 432.885C407.71 435.032 408.628 437.522 409.049 440.355C409.292 442.016 409.392 444.406 409.348 447.527H384.578C384.711 451.158 385.851 453.703 387.998 455.164C389.304 456.072 390.876 456.525 392.713 456.525C394.661 456.525 396.243 455.972 397.461 454.865C398.125 454.268 398.712 453.438 399.221 452.375H408.883C408.639 454.522 407.521 456.702 405.529 458.916C402.43 462.436 398.092 464.195 392.514 464.195C387.91 464.195 383.848 462.712 380.328 459.746C376.809 456.78 375.049 451.954 375.049 445.27C375.049 439.005 376.632 434.202 379.797 430.859C382.984 427.517 387.113 425.846 392.182 425.846ZM434.412 425.945C434.589 425.945 434.733 425.956 434.844 425.979C434.977 425.979 435.253 425.99 435.674 426.012V435.707C435.076 435.641 434.545 435.596 434.08 435.574C433.615 435.552 433.239 435.541 432.951 435.541C429.144 435.541 426.587 436.781 425.281 439.26C424.551 440.654 424.186 442.801 424.186 445.701V463H414.656V426.809H423.688V433.117C425.148 430.704 426.421 429.055 427.506 428.17C429.277 426.687 431.579 425.945 434.412 425.945ZM458.078 414.225H467.375V440.588L479.162 426.975H490.883L478.232 440.82L491.381 463H479.959L471.293 447.527L467.375 451.611V463H458.078V414.225ZM504.758 422.492H495.162V413.76H504.758V422.492ZM495.162 426.809H504.758V463H495.162V426.809ZM509.236 433.881V427.141H514.283V417.047H523.646V427.141H529.523V433.881H523.646V453.006C523.646 454.489 523.835 455.419 524.211 455.795C524.587 456.149 525.738 456.326 527.664 456.326C527.952 456.326 528.251 456.326 528.561 456.326C528.893 456.304 529.214 456.282 529.523 456.26V463.332L525.041 463.498C520.57 463.653 517.515 462.878 515.877 461.174C514.814 460.089 514.283 458.418 514.283 456.16V433.881H509.236ZM565.873 413.561C566.471 413.561 567.013 413.583 567.5 413.627C567.987 413.649 568.651 413.693 569.492 413.76V421.463C568.961 421.396 568.064 421.352 566.803 421.33C565.563 421.286 564.7 421.562 564.213 422.16C563.748 422.736 563.516 423.378 563.516 424.086C563.516 424.794 563.516 425.812 563.516 427.141H569.725V433.814H563.516V463H554.086V433.814H548.807V427.141H553.986V424.816C553.986 420.943 554.639 418.275 555.945 416.814C557.318 414.645 560.627 413.561 565.873 413.561ZM590.406 456.326C593.173 456.326 595.298 455.341 596.781 453.371C598.264 451.401 599.006 448.601 599.006 444.971C599.006 441.34 598.264 438.551 596.781 436.604C595.298 434.633 593.173 433.648 590.406 433.648C587.639 433.648 585.503 434.633 583.998 436.604C582.515 438.551 581.773 441.34 581.773 444.971C581.773 448.601 582.515 451.401 583.998 453.371C585.503 455.341 587.639 456.326 590.406 456.326ZM608.934 444.971C608.934 450.283 607.406 454.832 604.352 458.617C601.297 462.38 596.66 464.262 590.439 464.262C584.219 464.262 579.582 462.38 576.527 458.617C573.473 454.832 571.945 450.283 571.945 444.971C571.945 439.747 573.473 435.22 576.527 431.391C579.582 427.561 584.219 425.646 590.439 425.646C596.66 425.646 601.297 427.561 604.352 431.391C607.406 435.22 608.934 439.747 608.934 444.971ZM634.396 425.945C634.574 425.945 634.717 425.956 634.828 425.979C634.961 425.979 635.238 425.99 635.658 426.012V435.707C635.061 435.641 634.529 435.596 634.064 435.574C633.6 435.552 633.223 435.541 632.936 435.541C629.128 435.541 626.572 436.781 625.266 439.26C624.535 440.654 624.17 442.801 624.17 445.701V463H614.641V426.809H623.672V433.117C625.133 430.704 626.406 429.055 627.49 428.17C629.261 426.687 631.563 425.945 634.396 425.945ZM668.854 422.559V454.5H678.283C683.109 454.5 686.473 452.12 688.377 447.361C689.417 444.749 689.938 441.639 689.938 438.031C689.938 433.051 689.152 429.232 687.58 426.576C686.031 423.898 682.932 422.559 678.283 422.559H668.854ZM680.01 414.059C683.042 414.103 685.566 414.457 687.58 415.121C691.011 416.25 693.789 418.32 695.914 421.33C697.618 423.765 698.781 426.399 699.4 429.232C700.02 432.066 700.33 434.766 700.33 437.334C700.33 443.842 699.024 449.354 696.412 453.869C692.87 459.956 687.403 463 680.01 463H658.926V414.059H680.01ZM720.58 433.648C718.389 433.648 716.684 434.335 715.467 435.707C714.271 437.079 713.519 438.939 713.209 441.285H727.918C727.763 438.784 726.999 436.891 725.627 435.607C724.277 434.301 722.594 433.648 720.58 433.648ZM720.58 425.846C723.59 425.846 726.302 426.41 728.715 427.539C731.128 428.668 733.12 430.45 734.691 432.885C736.108 435.032 737.027 437.522 737.447 440.355C737.691 442.016 737.79 444.406 737.746 447.527H712.977C713.109 451.158 714.249 453.703 716.396 455.164C717.702 456.072 719.274 456.525 721.111 456.525C723.059 456.525 724.642 455.972 725.859 454.865C726.523 454.268 727.11 453.438 727.619 452.375H737.281C737.038 454.522 735.92 456.702 733.928 458.916C730.829 462.436 726.49 464.195 720.912 464.195C716.308 464.195 712.246 462.712 708.727 459.746C705.207 456.78 703.447 451.954 703.447 445.27C703.447 439.005 705.03 434.202 708.195 430.859C711.383 427.517 715.511 425.846 720.58 425.846ZM750.525 451.445C750.725 453.128 751.156 454.323 751.82 455.031C752.993 456.293 755.163 456.924 758.328 456.924C760.188 456.924 761.66 456.647 762.744 456.094C763.851 455.54 764.404 454.71 764.404 453.604C764.404 452.541 763.962 451.733 763.076 451.18C762.191 450.626 758.904 449.674 753.215 448.324C749.12 447.306 746.231 446.033 744.549 444.506C742.867 443.001 742.025 440.831 742.025 437.998C742.025 434.656 743.331 431.789 745.943 429.398C748.577 426.986 752.274 425.779 757.033 425.779C761.549 425.779 765.223 426.687 768.057 428.502C770.912 430.295 772.55 433.405 772.971 437.832H763.508C763.375 436.615 763.032 435.652 762.479 434.943C761.438 433.66 759.667 433.018 757.166 433.018C755.107 433.018 753.635 433.339 752.75 433.98C751.887 434.622 751.455 435.375 751.455 436.238C751.455 437.323 751.92 438.109 752.85 438.596C753.779 439.105 757.066 439.979 762.711 441.219C766.474 442.104 769.296 443.443 771.178 445.236C773.037 447.051 773.967 449.32 773.967 452.043C773.967 455.629 772.628 458.562 769.949 460.842C767.293 463.1 763.176 464.229 757.598 464.229C751.909 464.229 747.703 463.033 744.98 460.643C742.28 458.23 740.93 455.164 740.93 451.445H750.525ZM789.734 422.492H780.139V413.76H789.734V422.492ZM780.139 426.809H789.734V463H780.139V426.809ZM813.471 455.23C815.684 455.23 817.555 454.4 819.082 452.74C820.609 451.058 821.373 448.391 821.373 444.738C821.373 441.307 820.643 438.695 819.182 436.902C817.743 435.109 815.806 434.213 813.371 434.213C810.051 434.213 807.76 435.773 806.498 438.895C805.834 440.555 805.502 442.602 805.502 445.037C805.502 447.14 805.856 449.01 806.564 450.648C807.848 453.703 810.15 455.23 813.471 455.23ZM811.113 425.945C812.928 425.945 814.511 426.222 815.861 426.775C818.163 427.727 820.023 429.476 821.439 432.021V426.809H830.637V461.141C830.637 465.811 829.851 469.331 828.279 471.699C825.579 475.772 820.399 477.809 812.74 477.809C808.114 477.809 804.34 476.901 801.418 475.086C798.496 473.271 796.88 470.559 796.57 466.951H806.863C807.129 468.058 807.561 468.855 808.158 469.342C809.176 470.205 810.892 470.637 813.305 470.637C816.714 470.637 818.993 469.497 820.145 467.217C820.897 465.756 821.273 463.299 821.273 459.846V457.521C820.366 459.071 819.392 460.233 818.352 461.008C816.47 462.447 814.024 463.166 811.014 463.166C806.365 463.166 802.646 461.539 799.857 458.285C797.09 455.009 795.707 450.582 795.707 445.004C795.707 439.625 797.046 435.109 799.725 431.457C802.403 427.783 806.199 425.945 811.113 425.945ZM858.557 425.945C862.298 425.945 865.352 426.93 867.721 428.9C870.111 430.848 871.307 434.091 871.307 438.629V463H861.611V440.986C861.611 439.083 861.357 437.622 860.848 436.604C859.918 434.744 858.147 433.814 855.535 433.814C852.326 433.814 850.123 435.176 848.928 437.898C848.308 439.337 847.998 441.174 847.998 443.41V463H838.568V426.875H847.699V432.154C848.917 430.295 850.068 428.956 851.152 428.137C853.1 426.676 855.568 425.945 858.557 425.945ZM905.166 447.893C905.476 450.128 906.085 451.799 906.992 452.906C908.652 454.921 911.497 455.928 915.525 455.928C917.938 455.928 919.897 455.662 921.402 455.131C924.258 454.113 925.686 452.22 925.686 449.453C925.686 447.837 924.977 446.587 923.561 445.701C922.144 444.838 919.919 444.074 916.887 443.41L911.707 442.248C906.616 441.097 903.096 439.846 901.148 438.496C897.85 436.238 896.201 432.708 896.201 427.904C896.201 423.521 897.795 419.88 900.982 416.98C904.17 414.081 908.852 412.631 915.027 412.631C920.185 412.631 924.579 414.003 928.209 416.748C931.861 419.471 933.776 423.433 933.953 428.635H924.125C923.948 425.691 922.664 423.599 920.273 422.359C918.68 421.54 916.699 421.131 914.33 421.131C911.696 421.131 909.593 421.662 908.021 422.725C906.45 423.787 905.664 425.27 905.664 427.174C905.664 428.923 906.439 430.229 907.988 431.092C908.984 431.667 911.109 432.342 914.363 433.117L922.797 435.143C926.493 436.028 929.283 437.212 931.164 438.695C934.086 440.997 935.547 444.329 935.547 448.689C935.547 453.161 933.831 456.88 930.4 459.846C926.992 462.79 922.166 464.262 915.924 464.262C909.549 464.262 904.535 462.812 900.883 459.912C897.23 456.99 895.404 452.984 895.404 447.893H905.166ZM942.814 469.939L944.01 470.006C944.939 470.05 945.825 470.017 946.666 469.906C947.507 469.796 948.215 469.541 948.791 469.143C949.344 468.766 949.854 467.98 950.318 466.785C950.805 465.59 951.005 464.859 950.916 464.594L937.635 426.809H948.16L956.062 453.504L963.533 426.809H973.594L961.176 462.402C958.785 469.264 956.893 473.514 955.498 475.152C954.104 476.812 951.314 477.643 947.131 477.643C946.29 477.643 945.615 477.632 945.105 477.609C944.596 477.609 943.833 477.576 942.814 477.51V469.939ZM985.576 451.445C985.775 453.128 986.207 454.323 986.871 455.031C988.044 456.293 990.214 456.924 993.379 456.924C995.238 456.924 996.71 456.647 997.795 456.094C998.902 455.54 999.455 454.71 999.455 453.604C999.455 452.541 999.012 451.733 998.127 451.18C997.242 450.626 993.954 449.674 988.266 448.324C984.171 447.306 981.282 446.033 979.6 444.506C977.917 443.001 977.076 440.831 977.076 437.998C977.076 434.656 978.382 431.789 980.994 429.398C983.628 426.986 987.325 425.779 992.084 425.779C996.6 425.779 1000.27 426.687 1003.11 428.502C1005.96 430.295 1007.6 433.405 1008.02 437.832H998.559C998.426 436.615 998.083 435.652 997.529 434.943C996.489 433.66 994.718 433.018 992.217 433.018C990.158 433.018 988.686 433.339 987.801 433.98C986.938 434.622 986.506 435.375 986.506 436.238C986.506 437.323 986.971 438.109 987.9 438.596C988.83 439.105 992.117 439.979 997.762 441.219C1001.52 442.104 1004.35 443.443 1006.23 445.236C1008.09 447.051 1009.02 449.32 1009.02 452.043C1009.02 455.629 1007.68 458.562 1005 460.842C1002.34 463.1 998.227 464.229 992.648 464.229C986.96 464.229 982.754 463.033 980.031 460.643C977.331 458.23 975.98 455.164 975.98 451.445H985.576ZM1011.34 433.881V427.141H1016.38V417.047H1025.75V427.141H1031.62V433.881H1025.75V453.006C1025.75 454.489 1025.94 455.419 1026.31 455.795C1026.69 456.149 1027.84 456.326 1029.77 456.326C1030.05 456.326 1030.35 456.326 1030.66 456.326C1030.99 456.304 1031.32 456.282 1031.62 456.26V463.332L1027.14 463.498C1022.67 463.653 1019.62 462.878 1017.98 461.174C1016.92 460.089 1016.38 458.418 1016.38 456.16V433.881H1011.34ZM1050.98 433.648C1048.79 433.648 1047.08 434.335 1045.87 435.707C1044.67 437.079 1043.92 438.939 1043.61 441.285H1058.32C1058.16 438.784 1057.4 436.891 1056.03 435.607C1054.68 434.301 1052.99 433.648 1050.98 433.648ZM1050.98 425.846C1053.99 425.846 1056.7 426.41 1059.11 427.539C1061.53 428.668 1063.52 430.45 1065.09 432.885C1066.51 435.032 1067.43 437.522 1067.85 440.355C1068.09 442.016 1068.19 444.406 1068.14 447.527H1043.38C1043.51 451.158 1044.65 453.703 1046.79 455.164C1048.1 456.072 1049.67 456.525 1051.51 456.525C1053.46 456.525 1055.04 455.972 1056.26 454.865C1056.92 454.268 1057.51 453.438 1058.02 452.375H1067.68C1067.44 454.522 1066.32 456.702 1064.33 458.916C1061.23 462.436 1056.89 464.195 1051.31 464.195C1046.71 464.195 1042.64 462.712 1039.12 459.746C1035.61 456.78 1033.85 451.954 1033.85 445.27C1033.85 439.005 1035.43 434.202 1038.59 430.859C1041.78 427.517 1045.91 425.846 1050.98 425.846ZM1113.99 426.012C1115.59 426.012 1117.16 426.322 1118.71 426.941C1120.26 427.561 1121.66 428.646 1122.93 430.195C1123.94 431.457 1124.63 433.007 1124.98 434.844C1125.21 436.061 1125.32 437.843 1125.32 440.189L1125.25 463H1115.55V439.957C1115.55 438.585 1115.33 437.456 1114.89 436.57C1114.05 434.888 1112.5 434.047 1110.24 434.047C1107.63 434.047 1105.83 435.132 1104.83 437.301C1104.32 438.452 1104.07 439.835 1104.07 441.451V463H1094.54V441.451C1094.54 439.304 1094.32 437.743 1093.87 436.77C1093.08 435.021 1091.52 434.146 1089.19 434.146C1086.49 434.146 1084.68 435.021 1083.75 436.77C1083.24 437.766 1082.98 439.249 1082.98 441.219V463H1073.39V426.875H1082.58V432.154C1083.76 430.273 1084.86 428.934 1085.9 428.137C1087.74 426.72 1090.12 426.012 1093.04 426.012C1095.81 426.012 1098.05 426.62 1099.75 427.838C1101.12 428.967 1102.16 430.417 1102.87 432.188C1104.11 430.062 1105.65 428.502 1107.49 427.506C1109.43 426.51 1111.6 426.012 1113.99 426.012ZM1140.42 451.445C1140.62 453.128 1141.05 454.323 1141.71 455.031C1142.89 456.293 1145.06 456.924 1148.22 456.924C1150.08 456.924 1151.55 456.647 1152.64 456.094C1153.75 455.54 1154.3 454.71 1154.3 453.604C1154.3 452.541 1153.86 451.733 1152.97 451.18C1152.09 450.626 1148.8 449.674 1143.11 448.324C1139.01 447.306 1136.13 446.033 1134.44 444.506C1132.76 443.001 1131.92 440.831 1131.92 437.998C1131.92 434.656 1133.23 431.789 1135.84 429.398C1138.47 426.986 1142.17 425.779 1146.93 425.779C1151.44 425.779 1155.12 426.687 1157.95 428.502C1160.81 430.295 1162.44 433.405 1162.87 437.832H1153.4C1153.27 436.615 1152.93 435.652 1152.37 434.943C1151.33 433.66 1149.56 433.018 1147.06 433.018C1145 433.018 1143.53 433.339 1142.64 433.98C1141.78 434.622 1141.35 435.375 1141.35 436.238C1141.35 437.323 1141.81 438.109 1142.74 438.596C1143.67 439.105 1146.96 439.979 1152.61 441.219C1156.37 442.104 1159.19 443.443 1161.07 445.236C1162.93 447.051 1163.86 449.32 1163.86 452.043C1163.86 455.629 1162.52 458.562 1159.84 460.842C1157.19 463.1 1153.07 464.229 1147.49 464.229C1141.8 464.229 1137.6 463.033 1134.88 460.643C1132.17 458.23 1130.82 455.164 1130.82 451.445H1140.42Z" fill="black"/>
</g>
<defs>
<clipPath id="clip0_122_116">
<rect width="1200" height="630" fill="white"/>
</clipPath>
</defs>
</svg>
