<svg width="1200" height="630" viewBox="0 0 1200 630" fill="none" xmlns="http://www.w3.org/2000/svg">
<g clip-path="url(#clip0)">
<rect width="1200" height="630" fill="white"/>
<path d="M1160.37 34.4736H868.636V103.628L968.551 203.565H1200V74.1109L1160.37 34.4736Z" fill="#ECFF00" fill-opacity="0.2"/>
<path opacity="0.2" d="M756.619 241.547L725.025 207.153L725.025 91.1745L812.609 -1.20876L903.393 -1.20875L916.59 11.189L916.59 76.3818L756.619 241.547Z" fill="#065669" fill-opacity="0.4"/>
<path opacity="0.2" d="M56.4595 408.392L49.0908 421.688L56.4595 469.089L96.2506 504.929L207.273 495.102V437.295L165.025 398.565L56.4595 408.392Z" fill="#065669" fill-opacity="0.2"/>
<path d="M0 547.315V620.837H92.7273L130.909 562.703L111.57 466.953L74.876 436.746L0 547.315Z" fill="#ECFF00" fill-opacity="0.4"/>
<path d="M45 111.148C45 105.453 49.6166 100.837 55.3114 100.837H166.674C172.369 100.837 176.985 105.453 176.985 111.148V222.511C176.985 228.206 172.369 232.822 166.674 232.822H55.3114C49.6166 232.822 45 228.206 45 222.511V111.148Z" fill="#06566A"/>
<path fill-rule="evenodd" clip-rule="evenodd" d="M86.3114 117.474H69.6593L65.5186 117.474V122.437H69.6593V208.4L78.0087 216.74H96.5739V127.725L86.3114 117.474Z" fill="#ECFF00"/>
<path fill-rule="evenodd" clip-rule="evenodd" d="M87.7012 163.502H122.559L158.685 199.881L141.256 217.432L141.228 217.403L138.582 220.067L135.102 216.563L137.748 213.899L87.7012 163.502Z" fill="#ECFF00"/>
<path fill-rule="evenodd" clip-rule="evenodd" d="M96.7095 179.584H125.794L167.558 138.547H126.002L90.4736 173.457L96.7095 179.584Z" fill="#06566A"/>
<path fill-rule="evenodd" clip-rule="evenodd" d="M90.8002 173.485H94.4568H119.844L147.915 145.202H153.694V140.211L152.868 140.211H119.844L88.8101 171.479L90.8002 173.485Z" fill="#ECFF00"/>
<path d="M255.473 199.687L267.722 217.426H288.206L267.088 187.122L286.516 166.216H266.138L248.293 185.433V142.458H231.188V217.426H248.293V207.395L255.473 199.687Z" fill="#083D4A"/>
<path d="M303.163 158.191C308.653 158.191 313.194 154.073 313.194 148.582C313.194 142.986 308.653 138.868 303.163 138.868C297.567 138.868 293.132 142.986 293.132 148.582C293.132 154.073 297.567 158.191 303.163 158.191ZM311.821 166.216H294.716V217.426H311.821V166.216Z" fill="#083D4A"/>
<path d="M349.133 204.122C341.847 204.122 337.412 198.737 337.412 191.768C337.412 184.799 341.847 179.52 349.133 179.52C354.412 179.52 358.319 182.582 359.163 187.228H375.318C374.157 174.029 363.281 165.054 349.133 165.054C332.978 165.054 321.152 176.246 321.152 191.768C321.152 207.395 332.978 218.587 349.133 218.587C363.281 218.587 374.157 209.612 375.318 196.414H359.163C358.319 201.06 354.412 204.122 349.133 204.122Z" fill="#083D4A"/>
<path d="M408.7 199.687L420.948 217.426H441.432L420.315 187.122L439.743 166.216H419.364L401.52 185.433V142.458H384.415V217.426H401.52V207.395L408.7 199.687Z" fill="#083D4A"/>
<path d="M442.592 199.793C443.648 213.413 454.524 219.01 467.933 219.01C481.238 219.01 491.902 213.519 491.902 201.693C491.902 192.613 485.567 187.967 475.958 186.172L466.35 184.588C462.337 183.849 461.07 182.265 461.07 180.576C461.07 178.569 463.076 176.88 467.511 176.88C472.263 176.88 475.853 178.675 476.169 182.582H491.374C490.635 169.066 478.281 164.843 467.405 164.843C453.785 164.843 444.598 171.178 444.598 181.948C444.598 190.923 450.723 195.886 459.592 197.364L469.94 199.159C473.318 199.687 474.902 201.06 474.902 202.749C474.902 204.966 472.157 206.339 467.617 206.339C462.232 206.339 458.536 204.333 457.797 199.898L442.592 199.793Z" fill="#083D4A"/>
<path d="M540.313 202.01C536.511 202.749 533.66 203.277 531.232 203.277C526.164 203.277 523.207 200.743 523.207 195.569V180.892H540.629V166.216H523.207V148.793H506.102V166.216H496.071V180.892H506.102V196.097C506.102 209.929 514.338 219.01 526.692 219.01C531.76 219.01 535.561 218.587 542.213 216.476L540.313 202.01Z" fill="#083D4A"/>
<path d="M603.359 166.216H586.254V168.961C582.453 166.532 577.807 165.054 572.211 165.054C558.379 165.054 546.764 176.458 546.764 191.768C546.764 206.973 558.379 218.482 572.211 218.482C577.807 218.482 582.453 217.003 586.254 214.575V217.426H603.359V166.216ZM575.59 204.438C568.621 204.438 563.553 198.842 563.553 191.768C563.553 184.693 568.621 178.992 575.59 178.992C579.391 178.992 583.087 180.153 586.254 183.849V199.687C583.087 203.383 579.391 204.438 575.59 204.438Z" fill="#083D4A"/>
<path d="M649.715 165.371C642.113 165.371 636.622 167.799 632.082 171.706V166.216H614.977V217.426H632.082V188.178C636.094 184.166 641.374 181.948 649.715 181.631V165.371Z" fill="#083D4A"/>
<path d="M698.179 202.01C694.378 202.749 691.527 203.277 689.099 203.277C684.031 203.277 681.074 200.743 681.074 195.569V180.892H698.496V166.216H681.074V148.793H663.969V166.216H653.938V180.892H663.969V196.097C663.969 209.929 672.205 219.01 684.558 219.01C689.627 219.01 693.428 218.587 700.08 216.476L698.179 202.01Z" fill="#083D4A"/>
<path d="M709.132 145.626V217.426H738.063C760.553 217.426 776.814 202.643 776.814 181.315C776.814 160.303 760.553 145.626 738.063 145.626H709.132ZM726.976 201.376V161.675H738.063C749.678 161.675 758.653 170.228 758.653 181.315C758.653 192.718 749.678 201.376 738.063 201.376H726.976Z" fill="#083D4A"/>
<path d="M814.168 144.042C797.274 144.042 785.659 153.123 785.659 167.483C785.659 178.886 792.311 185.538 806.46 188.6L818.286 191.24C824.41 192.401 825.888 194.936 825.888 197.364C825.888 201.271 822.404 203.699 815.752 203.699C807.305 203.699 801.814 199.898 800.653 193.563H782.808C784.498 211.302 799.069 218.904 815.224 218.904C833.174 218.904 845 209.929 845 195.569C845 183.215 836.447 177.936 823.354 175.085L813.323 172.762C807.938 171.601 805.088 169.911 805.088 166.004C805.088 161.358 809.205 158.824 815.33 158.824C822.615 158.824 825.994 162.52 826.944 167.905H844.894C843.099 148.582 825.783 144.042 814.168 144.042Z" fill="#083D4A"/>
<rect y="619.474" width="1200" height="10.9091" fill="#06566A"/>
<path d="M271.74 330.059V338.725H257.098V379H246.805V338.725H232.096V330.059H271.74ZM296.441 341.879C298.677 341.879 300.702 342.266 302.518 343.041C304.355 343.816 305.86 345 307.033 346.594C308.029 347.944 308.638 349.339 308.859 350.777C309.081 352.194 309.191 354.518 309.191 357.75V379H299.529V356.986C299.529 355.038 299.197 353.467 298.533 352.271C297.67 350.589 296.032 349.748 293.619 349.748C291.118 349.748 289.214 350.589 287.908 352.271C286.624 353.932 285.982 356.311 285.982 359.41V379H276.553V330.225H285.982V347.523C287.355 345.421 288.938 343.96 290.73 343.141C292.546 342.299 294.449 341.879 296.441 341.879ZM331.834 349.648C329.643 349.648 327.938 350.335 326.721 351.707C325.525 353.079 324.773 354.939 324.463 357.285H339.172C339.017 354.784 338.253 352.891 336.881 351.607C335.531 350.301 333.848 349.648 331.834 349.648ZM331.834 341.846C334.844 341.846 337.556 342.41 339.969 343.539C342.382 344.668 344.374 346.45 345.945 348.885C347.362 351.032 348.281 353.522 348.701 356.355C348.945 358.016 349.044 360.406 349 363.527H324.23C324.363 367.158 325.503 369.703 327.65 371.164C328.956 372.072 330.528 372.525 332.365 372.525C334.313 372.525 335.896 371.972 337.113 370.865C337.777 370.268 338.364 369.438 338.873 368.375H348.535C348.292 370.522 347.174 372.702 345.182 374.916C342.083 378.436 337.744 380.195 332.166 380.195C327.562 380.195 323.5 378.712 319.98 375.746C316.461 372.78 314.701 367.954 314.701 361.27C314.701 355.005 316.284 350.202 319.449 346.859C322.637 343.517 326.765 341.846 331.834 341.846ZM394.949 355.791C394.772 354.441 394.318 353.223 393.588 352.139C392.525 350.678 390.876 349.947 388.641 349.947C385.453 349.947 383.273 351.53 382.1 354.695C381.48 356.378 381.17 358.613 381.17 361.402C381.17 364.059 381.48 366.195 382.1 367.811C383.229 370.821 385.354 372.326 388.475 372.326C390.688 372.326 392.26 371.729 393.189 370.533C394.119 369.338 394.684 367.788 394.883 365.885H404.545C404.324 368.762 403.283 371.485 401.424 374.053C398.458 378.192 394.064 380.262 388.242 380.262C382.421 380.262 378.137 378.535 375.393 375.082C372.648 371.629 371.275 367.146 371.275 361.635C371.275 355.415 372.792 350.578 375.824 347.125C378.857 343.672 383.04 341.945 388.375 341.945C392.913 341.945 396.62 342.964 399.498 345C402.398 347.036 404.113 350.633 404.645 355.791H394.949ZM426.922 372.326C429.689 372.326 431.814 371.341 433.297 369.371C434.78 367.401 435.521 364.601 435.521 360.971C435.521 357.34 434.78 354.551 433.297 352.604C431.814 350.633 429.689 349.648 426.922 349.648C424.155 349.648 422.019 350.633 420.514 352.604C419.031 354.551 418.289 357.34 418.289 360.971C418.289 364.601 419.031 367.401 420.514 369.371C422.019 371.341 424.155 372.326 426.922 372.326ZM445.449 360.971C445.449 366.283 443.922 370.832 440.867 374.617C437.812 378.38 433.175 380.262 426.955 380.262C420.735 380.262 416.098 378.38 413.043 374.617C409.988 370.832 408.461 366.283 408.461 360.971C408.461 355.747 409.988 351.22 413.043 347.391C416.098 343.561 420.735 341.646 426.955 341.646C433.175 341.646 437.812 343.561 440.867 347.391C443.922 351.22 445.449 355.747 445.449 360.971ZM492.197 342.012C493.791 342.012 495.363 342.322 496.912 342.941C498.462 343.561 499.867 344.646 501.129 346.195C502.147 347.457 502.833 349.007 503.188 350.844C503.409 352.061 503.52 353.843 503.52 356.189L503.453 379H493.758V355.957C493.758 354.585 493.536 353.456 493.094 352.57C492.253 350.888 490.703 350.047 488.445 350.047C485.833 350.047 484.029 351.132 483.033 353.301C482.524 354.452 482.27 355.835 482.27 357.451V379H472.74V357.451C472.74 355.304 472.519 353.743 472.076 352.77C471.279 351.021 469.719 350.146 467.395 350.146C464.694 350.146 462.879 351.021 461.949 352.77C461.44 353.766 461.186 355.249 461.186 357.219V379H451.59V342.875H460.787V348.154C461.96 346.273 463.067 344.934 464.107 344.137C465.945 342.72 468.324 342.012 471.246 342.012C474.013 342.012 476.249 342.62 477.953 343.838C479.326 344.967 480.366 346.417 481.074 348.188C482.314 346.062 483.852 344.502 485.689 343.506C487.637 342.51 489.807 342.012 492.197 342.012ZM536.688 360.904C536.688 358.115 536.046 355.647 534.762 353.5C533.5 351.353 531.441 350.279 528.586 350.279C525.155 350.279 522.798 351.906 521.514 355.16C520.85 356.887 520.518 359.078 520.518 361.734C520.518 365.94 521.635 368.895 523.871 370.6C525.199 371.596 526.771 372.094 528.586 372.094C531.22 372.094 533.223 371.076 534.596 369.039C535.99 367.003 536.688 364.291 536.688 360.904ZM531.309 342.012C535.536 342.012 539.111 343.572 542.033 346.693C544.977 349.814 546.449 354.396 546.449 360.439C546.449 366.814 545.01 371.673 542.133 375.016C539.277 378.358 535.592 380.029 531.076 380.029C528.199 380.029 525.808 379.31 523.904 377.871C522.864 377.074 521.846 375.912 520.85 374.385V393.244H511.486V342.809H520.551V348.154C521.569 346.583 522.654 345.343 523.805 344.436C525.908 342.82 528.409 342.012 531.309 342.012ZM569.059 372.326C571.826 372.326 573.951 371.341 575.434 369.371C576.917 367.401 577.658 364.601 577.658 360.971C577.658 357.34 576.917 354.551 575.434 352.604C573.951 350.633 571.826 349.648 569.059 349.648C566.292 349.648 564.156 350.633 562.65 352.604C561.167 354.551 560.426 357.34 560.426 360.971C560.426 364.601 561.167 367.401 562.65 369.371C564.156 371.341 566.292 372.326 569.059 372.326ZM587.586 360.971C587.586 366.283 586.059 370.832 583.004 374.617C579.949 378.38 575.312 380.262 569.092 380.262C562.872 380.262 558.234 378.38 555.18 374.617C552.125 370.832 550.598 366.283 550.598 360.971C550.598 355.747 552.125 351.22 555.18 347.391C558.234 343.561 562.872 341.646 569.092 341.646C575.312 341.646 579.949 343.561 583.004 347.391C586.059 351.22 587.586 355.747 587.586 360.971ZM613.947 341.945C617.688 341.945 620.743 342.93 623.111 344.9C625.502 346.848 626.697 350.091 626.697 354.629V379H617.002V356.986C617.002 355.083 616.747 353.622 616.238 352.604C615.309 350.744 613.538 349.814 610.926 349.814C607.716 349.814 605.514 351.176 604.318 353.898C603.699 355.337 603.389 357.174 603.389 359.41V379H593.959V342.875H603.09V348.154C604.307 346.295 605.458 344.956 606.543 344.137C608.491 342.676 610.959 341.945 613.947 341.945ZM649.24 349.648C647.049 349.648 645.344 350.335 644.127 351.707C642.932 353.079 642.179 354.939 641.869 357.285H656.578C656.423 354.784 655.66 352.891 654.287 351.607C652.937 350.301 651.255 349.648 649.24 349.648ZM649.24 341.846C652.251 341.846 654.962 342.41 657.375 343.539C659.788 344.668 661.78 346.45 663.352 348.885C664.768 351.032 665.687 353.522 666.107 356.355C666.351 358.016 666.451 360.406 666.406 363.527H641.637C641.77 367.158 642.91 369.703 645.057 371.164C646.363 372.072 647.934 372.525 649.771 372.525C651.719 372.525 653.302 371.972 654.52 370.865C655.184 370.268 655.77 369.438 656.279 368.375H665.941C665.698 370.522 664.58 372.702 662.588 374.916C659.489 378.436 655.15 380.195 649.572 380.195C644.968 380.195 640.906 378.712 637.387 375.746C633.867 372.78 632.107 367.954 632.107 361.27C632.107 355.005 633.69 350.202 636.855 346.859C640.043 343.517 644.171 341.846 649.24 341.846ZM692.369 341.945C696.11 341.945 699.165 342.93 701.533 344.9C703.924 346.848 705.119 350.091 705.119 354.629V379H695.424V356.986C695.424 355.083 695.169 353.622 694.66 352.604C693.73 350.744 691.96 349.814 689.348 349.814C686.138 349.814 683.936 351.176 682.74 353.898C682.12 355.337 681.811 357.174 681.811 359.41V379H672.381V342.875H681.512V348.154C682.729 346.295 683.88 344.956 684.965 344.137C686.913 342.676 689.381 341.945 692.369 341.945ZM709.666 349.881V343.141H714.713V333.047H724.076V343.141H729.953V349.881H724.076V369.006C724.076 370.489 724.264 371.419 724.641 371.795C725.017 372.149 726.168 372.326 728.094 372.326C728.382 372.326 728.68 372.326 728.99 372.326C729.322 372.304 729.643 372.282 729.953 372.26V379.332L725.471 379.498C720.999 379.653 717.945 378.878 716.307 377.174C715.244 376.089 714.713 374.418 714.713 372.16V349.881H709.666ZM763.617 379H754.154V330.059H763.617V379ZM782.109 338.492H772.514V329.76H782.109V338.492ZM772.514 342.809H782.109V379H772.514V342.809ZM810.363 342.012C815.122 342.012 818.841 343.727 821.52 347.158C824.22 350.589 825.57 355.016 825.57 360.439C825.57 366.062 824.242 370.721 821.586 374.418C818.93 378.115 815.222 379.963 810.463 379.963C807.475 379.963 805.073 379.365 803.258 378.17C802.173 377.462 801 376.222 799.738 374.451V379H790.475V330.125H799.904V347.523C801.1 345.841 802.417 344.557 803.855 343.672C805.56 342.565 807.729 342.012 810.363 342.012ZM807.939 372.16C810.374 372.16 812.267 371.175 813.617 369.205C814.967 367.235 815.643 364.645 815.643 361.436C815.643 358.868 815.311 356.743 814.646 355.061C813.385 351.873 811.061 350.279 807.674 350.279C804.243 350.279 801.885 351.84 800.602 354.961C799.938 356.621 799.605 358.768 799.605 361.402C799.605 364.501 800.292 367.069 801.664 369.105C803.036 371.142 805.128 372.16 807.939 372.16ZM851.533 341.945C851.71 341.945 851.854 341.956 851.965 341.979C852.098 341.979 852.374 341.99 852.795 342.012V351.707C852.197 351.641 851.666 351.596 851.201 351.574C850.736 351.552 850.36 351.541 850.072 351.541C846.265 351.541 843.708 352.781 842.402 355.26C841.672 356.654 841.307 358.801 841.307 361.701V379H831.777V342.809H840.809V349.117C842.27 346.704 843.542 345.055 844.627 344.17C846.398 342.687 848.7 341.945 851.533 341.945ZM877.828 361.402C877.23 361.779 876.622 362.089 876.002 362.332C875.404 362.553 874.574 362.764 873.512 362.963L871.387 363.361C869.395 363.715 867.967 364.147 867.104 364.656C865.643 365.52 864.912 366.859 864.912 368.674C864.912 370.29 865.355 371.463 866.24 372.193C867.148 372.902 868.243 373.256 869.527 373.256C871.564 373.256 873.434 372.658 875.139 371.463C876.865 370.268 877.762 368.087 877.828 364.922V361.402ZM872.084 356.986C873.833 356.765 875.083 356.488 875.836 356.156C877.186 355.581 877.861 354.684 877.861 353.467C877.861 351.984 877.341 350.965 876.301 350.412C875.283 349.837 873.777 349.549 871.785 349.549C869.549 349.549 867.967 350.102 867.037 351.209C866.373 352.028 865.93 353.135 865.709 354.529H856.578C856.777 351.364 857.663 348.763 859.234 346.727C861.736 343.539 866.03 341.945 872.117 341.945C876.079 341.945 879.599 342.731 882.676 344.303C885.753 345.874 887.291 348.84 887.291 353.201V369.803C887.291 370.954 887.313 372.348 887.357 373.986C887.424 375.226 887.612 376.067 887.922 376.51C888.232 376.952 888.697 377.318 889.316 377.605V379H879.023C878.736 378.27 878.536 377.583 878.426 376.941C878.315 376.299 878.227 375.569 878.16 374.75C876.854 376.167 875.349 377.373 873.645 378.369C871.608 379.542 869.306 380.129 866.738 380.129C863.462 380.129 860.751 379.199 858.604 377.34C856.479 375.458 855.416 372.802 855.416 369.371C855.416 364.922 857.132 361.701 860.562 359.709C862.444 358.624 865.211 357.85 868.863 357.385L872.084 356.986ZM914.881 341.945C915.058 341.945 915.202 341.956 915.312 341.979C915.445 341.979 915.722 341.99 916.143 342.012V351.707C915.545 351.641 915.014 351.596 914.549 351.574C914.084 351.552 913.708 351.541 913.42 351.541C909.613 351.541 907.056 352.781 905.75 355.26C905.02 356.654 904.654 358.801 904.654 361.701V379H895.125V342.809H904.156V349.117C905.617 346.704 906.89 345.055 907.975 344.17C909.745 342.687 912.048 341.945 914.881 341.945ZM922.682 385.939L923.877 386.006C924.807 386.05 925.692 386.017 926.533 385.906C927.374 385.796 928.083 385.541 928.658 385.143C929.212 384.766 929.721 383.98 930.186 382.785C930.673 381.59 930.872 380.859 930.783 380.594L917.502 342.809H928.027L935.93 369.504L943.4 342.809H953.461L941.043 378.402C938.652 385.264 936.76 389.514 935.365 391.152C933.971 392.812 931.182 393.643 926.998 393.643C926.157 393.643 925.482 393.632 924.973 393.609C924.464 393.609 923.7 393.576 922.682 393.51V385.939ZM252.482 426.809H262.078L267.59 452.873L273.234 426.809H283.096L272.604 463H262.875L257.197 436.637L251.453 463H241.625L231.465 426.809H241.625L247.27 452.773L252.482 426.809ZM297.57 422.492H287.975V413.76H297.57V422.492ZM287.975 426.809H297.57V463H287.975V426.809ZM302.549 433.881V427.141H307.596V417.047H316.959V427.141H322.836V433.881H316.959V453.006C316.959 454.489 317.147 455.419 317.523 455.795C317.9 456.149 319.051 456.326 320.977 456.326C321.264 456.326 321.563 456.326 321.873 456.326C322.205 456.304 322.526 456.282 322.836 456.26V463.332L318.354 463.498C313.882 463.653 310.827 462.878 309.189 461.174C308.127 460.089 307.596 458.418 307.596 456.16V433.881H302.549ZM348.367 425.879C350.603 425.879 352.628 426.266 354.443 427.041C356.281 427.816 357.786 429 358.959 430.594C359.955 431.944 360.564 433.339 360.785 434.777C361.007 436.194 361.117 438.518 361.117 441.75V463H351.455V440.986C351.455 439.038 351.123 437.467 350.459 436.271C349.596 434.589 347.958 433.748 345.545 433.748C343.044 433.748 341.14 434.589 339.834 436.271C338.55 437.932 337.908 440.311 337.908 443.41V463H328.479V414.225H337.908V431.523C339.281 429.421 340.863 427.96 342.656 427.141C344.471 426.299 346.375 425.879 348.367 425.879ZM407.465 426.012C412.224 426.012 415.943 427.727 418.621 431.158C421.322 434.589 422.672 439.016 422.672 444.439C422.672 450.062 421.344 454.721 418.688 458.418C416.031 462.115 412.324 463.963 407.564 463.963C404.576 463.963 402.174 463.365 400.359 462.17C399.275 461.462 398.102 460.222 396.84 458.451V463H387.576V414.125H397.006V431.523C398.201 429.841 399.518 428.557 400.957 427.672C402.661 426.565 404.831 426.012 407.465 426.012ZM405.041 456.16C407.476 456.16 409.368 455.175 410.719 453.205C412.069 451.235 412.744 448.645 412.744 445.436C412.744 442.868 412.412 440.743 411.748 439.061C410.486 435.873 408.162 434.279 404.775 434.279C401.344 434.279 398.987 435.84 397.703 438.961C397.039 440.621 396.707 442.768 396.707 445.402C396.707 448.501 397.393 451.069 398.766 453.105C400.138 455.142 402.23 456.16 405.041 456.16ZM438.408 426.809V448.623C438.408 450.682 438.652 452.231 439.139 453.271C440.002 455.109 441.695 456.027 444.219 456.027C447.451 456.027 449.664 454.721 450.859 452.109C451.479 450.693 451.789 448.822 451.789 446.498V426.809H461.385V463H452.188V457.887C452.099 457.997 451.878 458.329 451.523 458.883C451.169 459.436 450.749 459.923 450.262 460.344C448.779 461.672 447.34 462.579 445.945 463.066C444.573 463.553 442.957 463.797 441.098 463.797C435.741 463.797 432.133 461.871 430.273 458.02C429.233 455.895 428.713 452.762 428.713 448.623V426.809H438.408ZM479.777 422.492H470.182V413.76H479.777V422.492ZM470.182 426.809H479.777V463H470.182V426.809ZM498.137 463H488.674V414.059H498.137V463ZM503.182 433.881V427.141H508.229V417.047H517.592V427.141H523.469V433.881H517.592V453.006C517.592 454.489 517.78 455.419 518.156 455.795C518.533 456.149 519.684 456.326 521.609 456.326C521.897 456.326 522.196 456.326 522.506 456.326C522.838 456.304 523.159 456.282 523.469 456.26V463.332L518.986 463.498C514.515 463.653 511.46 462.878 509.822 461.174C508.76 460.089 508.229 458.418 508.229 456.16V433.881H503.182ZM526.189 439.559H545.248V448.523H526.189V439.559ZM560.918 422.492H551.322V413.76H560.918V422.492ZM551.322 426.809H560.918V463H551.322V426.809ZM589.67 425.945C593.411 425.945 596.465 426.93 598.834 428.9C601.225 430.848 602.42 434.091 602.42 438.629V463H592.725V440.986C592.725 439.083 592.47 437.622 591.961 436.604C591.031 434.744 589.26 433.814 586.648 433.814C583.439 433.814 581.236 435.176 580.041 437.898C579.421 439.337 579.111 441.174 579.111 443.41V463H569.682V426.875H578.812V432.154C580.03 430.295 581.181 428.956 582.266 428.137C584.214 426.676 586.682 425.945 589.67 425.945ZM639.803 422.559V454.5H649.232C654.058 454.5 657.423 452.12 659.326 447.361C660.367 444.749 660.887 441.639 660.887 438.031C660.887 433.051 660.101 429.232 658.529 426.576C656.98 423.898 653.881 422.559 649.232 422.559H639.803ZM650.959 414.059C653.992 414.103 656.515 414.457 658.529 415.121C661.96 416.25 664.738 418.32 666.863 421.33C668.568 423.765 669.73 426.399 670.35 429.232C670.969 432.066 671.279 434.766 671.279 437.334C671.279 443.842 669.973 449.354 667.361 453.869C663.82 459.956 658.352 463 650.959 463H629.875V414.059H650.959ZM692.029 433.648C689.838 433.648 688.133 434.335 686.916 435.707C685.721 437.079 684.968 438.939 684.658 441.285H699.367C699.212 438.784 698.449 436.891 697.076 435.607C695.726 434.301 694.044 433.648 692.029 433.648ZM692.029 425.846C695.04 425.846 697.751 426.41 700.164 427.539C702.577 428.668 704.569 430.45 706.141 432.885C707.557 435.032 708.476 437.522 708.896 440.355C709.14 442.016 709.24 444.406 709.195 447.527H684.426C684.559 451.158 685.699 453.703 687.846 455.164C689.152 456.072 690.723 456.525 692.561 456.525C694.508 456.525 696.091 455.972 697.309 454.865C697.973 454.268 698.559 453.438 699.068 452.375H708.73C708.487 454.522 707.369 456.702 705.377 458.916C702.278 462.436 697.939 464.195 692.361 464.195C687.757 464.195 683.695 462.712 680.176 459.746C676.656 456.78 674.896 451.954 674.896 445.27C674.896 439.005 676.479 434.202 679.645 430.859C682.832 427.517 686.96 425.846 692.029 425.846ZM722.475 451.445C722.674 453.128 723.105 454.323 723.77 455.031C724.943 456.293 727.112 456.924 730.277 456.924C732.137 456.924 733.609 456.647 734.693 456.094C735.8 455.54 736.354 454.71 736.354 453.604C736.354 452.541 735.911 451.733 735.025 451.18C734.14 450.626 730.853 449.674 725.164 448.324C721.069 447.306 718.18 446.033 716.498 444.506C714.816 443.001 713.975 440.831 713.975 437.998C713.975 434.656 715.281 431.789 717.893 429.398C720.527 426.986 724.223 425.779 728.982 425.779C733.498 425.779 737.173 426.687 740.006 428.502C742.861 430.295 744.499 433.405 744.92 437.832H735.457C735.324 436.615 734.981 435.652 734.428 434.943C733.387 433.66 731.617 433.018 729.115 433.018C727.057 433.018 725.585 433.339 724.699 433.98C723.836 434.622 723.404 435.375 723.404 436.238C723.404 437.323 723.869 438.109 724.799 438.596C725.729 439.105 729.016 439.979 734.66 441.219C738.423 442.104 741.245 443.443 743.127 445.236C744.986 447.051 745.916 449.32 745.916 452.043C745.916 455.629 744.577 458.562 741.898 460.842C739.242 463.1 735.125 464.229 729.547 464.229C723.858 464.229 719.652 463.033 716.93 460.643C714.229 458.23 712.879 455.164 712.879 451.445H722.475ZM762.184 422.492H752.588V413.76H762.184V422.492ZM752.588 426.809H762.184V463H752.588V426.809ZM786.42 455.23C788.633 455.23 790.504 454.4 792.031 452.74C793.559 451.058 794.322 448.391 794.322 444.738C794.322 441.307 793.592 438.695 792.131 436.902C790.692 435.109 788.755 434.213 786.32 434.213C783 434.213 780.709 435.773 779.447 438.895C778.783 440.555 778.451 442.602 778.451 445.037C778.451 447.14 778.805 449.01 779.514 450.648C780.798 453.703 783.1 455.23 786.42 455.23ZM784.062 425.945C785.878 425.945 787.46 426.222 788.811 426.775C791.113 427.727 792.972 429.476 794.389 432.021V426.809H803.586V461.141C803.586 465.811 802.8 469.331 801.229 471.699C798.528 475.772 793.348 477.809 785.689 477.809C781.063 477.809 777.289 476.901 774.367 475.086C771.445 473.271 769.829 470.559 769.52 466.951H779.812C780.078 468.058 780.51 468.855 781.107 469.342C782.126 470.205 783.841 470.637 786.254 470.637C789.663 470.637 791.943 469.497 793.094 467.217C793.846 465.756 794.223 463.299 794.223 459.846V457.521C793.315 459.071 792.341 460.233 791.301 461.008C789.419 462.447 786.973 463.166 783.963 463.166C779.314 463.166 775.596 461.539 772.807 458.285C770.04 455.009 768.656 450.582 768.656 445.004C768.656 439.625 769.995 435.109 772.674 431.457C775.352 427.783 779.148 425.945 784.062 425.945ZM832.006 425.945C835.747 425.945 838.801 426.93 841.17 428.9C843.561 430.848 844.756 434.091 844.756 438.629V463H835.061V440.986C835.061 439.083 834.806 437.622 834.297 436.604C833.367 434.744 831.596 433.814 828.984 433.814C825.775 433.814 823.572 435.176 822.377 437.898C821.757 439.337 821.447 441.174 821.447 443.41V463H812.018V426.875H821.148V432.154C822.366 430.295 823.517 428.956 824.602 428.137C826.549 426.676 829.018 425.945 832.006 425.945ZM879.615 447.893C879.925 450.128 880.534 451.799 881.441 452.906C883.102 454.921 885.946 455.928 889.975 455.928C892.387 455.928 894.346 455.662 895.852 455.131C898.707 454.113 900.135 452.22 900.135 449.453C900.135 447.837 899.426 446.587 898.01 445.701C896.593 444.838 894.368 444.074 891.336 443.41L886.156 442.248C881.065 441.097 877.546 439.846 875.598 438.496C872.299 436.238 870.65 432.708 870.65 427.904C870.65 423.521 872.244 419.88 875.432 416.98C878.619 414.081 883.301 412.631 889.477 412.631C894.634 412.631 899.028 414.003 902.658 416.748C906.311 419.471 908.225 423.433 908.402 428.635H898.574C898.397 425.691 897.113 423.599 894.723 422.359C893.129 421.54 891.148 421.131 888.779 421.131C886.145 421.131 884.042 421.662 882.471 422.725C880.899 423.787 880.113 425.27 880.113 427.174C880.113 428.923 880.888 430.229 882.438 431.092C883.434 431.667 885.559 432.342 888.812 433.117L897.246 435.143C900.943 436.028 903.732 437.212 905.613 438.695C908.535 440.997 909.996 444.329 909.996 448.689C909.996 453.161 908.281 456.88 904.85 459.846C901.441 462.79 896.615 464.262 890.373 464.262C883.998 464.262 878.984 462.812 875.332 459.912C871.68 456.99 869.854 452.984 869.854 447.893H879.615ZM917.764 469.939L918.959 470.006C919.889 470.05 920.774 470.017 921.615 469.906C922.456 469.796 923.165 469.541 923.74 469.143C924.294 468.766 924.803 467.98 925.268 466.785C925.755 465.59 925.954 464.859 925.865 464.594L912.584 426.809H923.109L931.012 453.504L938.482 426.809H948.543L936.125 462.402C933.734 469.264 931.842 473.514 930.447 475.152C929.053 476.812 926.264 477.643 922.08 477.643C921.239 477.643 920.564 477.632 920.055 477.609C919.546 477.609 918.782 477.576 917.764 477.51V469.939ZM961.025 451.445C961.225 453.128 961.656 454.323 962.32 455.031C963.493 456.293 965.663 456.924 968.828 456.924C970.688 456.924 972.16 456.647 973.244 456.094C974.351 455.54 974.904 454.71 974.904 453.604C974.904 452.541 974.462 451.733 973.576 451.18C972.691 450.626 969.404 449.674 963.715 448.324C959.62 447.306 956.731 446.033 955.049 444.506C953.367 443.001 952.525 440.831 952.525 437.998C952.525 434.656 953.831 431.789 956.443 429.398C959.077 426.986 962.774 425.779 967.533 425.779C972.049 425.779 975.723 426.687 978.557 428.502C981.412 430.295 983.05 433.405 983.471 437.832H974.008C973.875 436.615 973.532 435.652 972.979 434.943C971.938 433.66 970.167 433.018 967.666 433.018C965.607 433.018 964.135 433.339 963.25 433.98C962.387 434.622 961.955 435.375 961.955 436.238C961.955 437.323 962.42 438.109 963.35 438.596C964.279 439.105 967.566 439.979 973.211 441.219C976.974 442.104 979.796 443.443 981.678 445.236C983.537 447.051 984.467 449.32 984.467 452.043C984.467 455.629 983.128 458.562 980.449 460.842C977.793 463.1 973.676 464.229 968.098 464.229C962.409 464.229 958.203 463.033 955.48 460.643C952.78 458.23 951.43 455.164 951.43 451.445H961.025ZM987.287 433.881V427.141H992.334V417.047H1001.7V427.141H1007.57V433.881H1001.7V453.006C1001.7 454.489 1001.89 455.419 1002.26 455.795C1002.64 456.149 1003.79 456.326 1005.71 456.326C1006 456.326 1006.3 456.326 1006.61 456.326C1006.94 456.304 1007.26 456.282 1007.57 456.26V463.332L1003.09 463.498C998.62 463.653 995.566 462.878 993.928 461.174C992.865 460.089 992.334 458.418 992.334 456.16V433.881H987.287ZM1027.43 433.648C1025.24 433.648 1023.53 434.335 1022.31 435.707C1021.12 437.079 1020.37 438.939 1020.06 441.285H1034.77C1034.61 438.784 1033.85 436.891 1032.47 435.607C1031.12 434.301 1029.44 433.648 1027.43 433.648ZM1027.43 425.846C1030.44 425.846 1033.15 426.41 1035.56 427.539C1037.98 428.668 1039.97 430.45 1041.54 432.885C1042.96 435.032 1043.87 437.522 1044.29 440.355C1044.54 442.016 1044.64 444.406 1044.59 447.527H1019.82C1019.96 451.158 1021.1 453.703 1023.24 455.164C1024.55 456.072 1026.12 456.525 1027.96 456.525C1029.91 456.525 1031.49 455.972 1032.71 454.865C1033.37 454.268 1033.96 453.438 1034.47 452.375H1044.13C1043.89 454.522 1042.77 456.702 1040.78 458.916C1037.68 462.436 1033.34 464.195 1027.76 464.195C1023.16 464.195 1019.09 462.712 1015.57 459.746C1012.05 456.78 1010.29 451.954 1010.29 445.27C1010.29 439.005 1011.88 434.202 1015.04 430.859C1018.23 427.517 1022.36 425.846 1027.43 425.846ZM1090.94 426.012C1092.54 426.012 1094.11 426.322 1095.66 426.941C1097.21 427.561 1098.61 428.646 1099.88 430.195C1100.89 431.457 1101.58 433.007 1101.93 434.844C1102.15 436.061 1102.27 437.843 1102.27 440.189L1102.2 463H1092.5V439.957C1092.5 438.585 1092.28 437.456 1091.84 436.57C1091 434.888 1089.45 434.047 1087.19 434.047C1084.58 434.047 1082.78 435.132 1081.78 437.301C1081.27 438.452 1081.02 439.835 1081.02 441.451V463H1071.49V441.451C1071.49 439.304 1071.26 437.743 1070.82 436.77C1070.03 435.021 1068.46 434.146 1066.14 434.146C1063.44 434.146 1061.62 435.021 1060.7 436.77C1060.19 437.766 1059.93 439.249 1059.93 441.219V463H1050.34V426.875H1059.53V432.154C1060.71 430.273 1061.81 428.934 1062.85 428.137C1064.69 426.72 1067.07 426.012 1069.99 426.012C1072.76 426.012 1074.99 426.62 1076.7 427.838C1078.07 428.967 1079.11 430.417 1079.82 432.188C1081.06 430.062 1082.6 428.502 1084.44 427.506C1086.38 426.51 1088.55 426.012 1090.94 426.012ZM1110.33 453.105H1120.39V463H1110.33V453.105Z" fill="black"/>
</g>
<defs>
<clipPath id="clip0">
<rect width="1200" height="630" fill="white"/>
</clipPath>
</defs>
</svg>
