<svg width="800" height="800" viewBox="0 0 800 800" fill="none" xmlns="http://www.w3.org/2000/svg">
<g clip-path="url(#clip0)">
<ellipse opacity="0.5" cx="501.529" cy="191.928" rx="150.011" ry="147.928" fill="url(#paint0_radial)"/>
<circle cx="512.363" cy="182.344" r="52.0042" stroke="black" stroke-width="6"/>
<path d="M508.196 184.844L292.146 657.38L242.047 633.587V587.661L508.196 184.844L224.154 583.235L215.208 566.635L235.785 416.132L508.196 184.844L209.841 416.132V334.241L230.864 288.868L508.196 184.844Z" fill="#ECFF00" fill-opacity="0.6"/>
<path d="M508.196 185.677L602.945 658.213L624.916 634.42V588.495L508.196 185.677L632.762 584.068L636.686 567.469L627.662 416.965L508.196 185.677L639.04 416.965V335.074L629.82 289.702L508.196 185.677Z" fill="#ECFF00" fill-opacity="0.6"/>
<path opacity="0.1" d="M507.504 185.677L583.81 663.374L606.733 640.935L608.534 595.064L507.504 185.677L616.561 591.116L621.139 574.773L618.008 423.903L507.504 185.677L629.396 424.59L632.607 342.795L625.158 296.92L507.504 185.677Z" fill="#ECFF00" fill-opacity="0.6"/>
<path d="M507.803 185.659L629.948 690.77L652.761 663.638L650.864 613.961L507.803 185.659L659.18 608.674L662.743 590.469L646.751 428.246L507.803 185.659L659.074 427.523L655.691 338.943L643.83 290.45L507.803 185.659Z" fill="#ECFF00"/>
<path d="M508.075 185.965L266.137 678.141L213.765 650.746L215.05 602.011L508.075 185.965L196.232 596.547L187.225 578.549L213.217 419.723L508.075 185.965L185.752 418.611L188.042 331.71L211.568 284.464L508.075 185.965Z" fill="#ECFF00" fill-opacity="0.8"/>
<line x1="510.818" y1="188.526" x2="213.296" y2="698.565" stroke="black" stroke-width="8"/>
<path d="M510.242 188.191L624.038 701.133" stroke="black" stroke-width="8"/>
<circle cx="428.19" cy="400.694" r="12.5009" fill="#ECFF00"/>
<path d="M160.1 471.08L147.355 471.08L147.355 451.059L127.334 451.059L127.334 438.216L147.355 438.216L147.355 418.195L160.1 418.195L160.1 438.216L180.219 438.216L180.219 451.059L160.1 451.059L160.1 471.08Z" fill="#ECFF00"/>
<path d="M512.639 696.848L490.144 696.848L490.144 661.512L454.808 661.512L454.808 638.845L490.144 638.845L490.144 603.508L512.639 603.508L512.639 638.845L548.148 638.845L548.148 661.512L512.639 661.512L512.639 696.848Z" fill="#ECFF00"/>
<circle cx="509.03" cy="189.844" r="12.5009" transform="rotate(-90 509.03 189.844)" fill="#ECFF00"/>
<circle cx="120.25" cy="185.261" r="6.25047" transform="rotate(-90 120.25 185.261)" fill="#ECFF00"/>
<path d="M297.203 99.8375L290.775 99.8375L290.775 89.7413L280.679 89.7413L280.679 83.265L290.775 83.265L290.775 73.1688L297.203 73.1688L297.203 83.265L307.348 83.265L307.348 89.7413L297.203 89.7413L297.203 99.8375Z" fill="#ECFF00"/>
</g>
<defs>
<radialGradient id="paint0_radial" cx="0" cy="0" r="1" gradientUnits="userSpaceOnUse" gradientTransform="translate(501.529 191.928) rotate(90) scale(147.928 150.011)">
<stop stop-color="#ECFF00"/>
<stop offset="1" stop-color="#C4C4C4" stop-opacity="0"/>
</radialGradient>
<clipPath id="clip0">
<rect width="800" height="800" fill="white"/>
</clipPath>
</defs>
</svg>
