<?xml version="1.0" encoding="utf-8"?>
<!-- Generator: Adobe Illustrator 22.0.0, SVG Export Plug-In . SVG Version: 6.00 Build 0)  -->
<svg version="1.1" id="svg2" xmlns="http://www.w3.org/2000/svg" xmlns:xlink="http://www.w3.org/1999/xlink" x="0px" y="0px"
	 viewBox="0 0 581.3 581.3" style="enable-background:new 0 0 581.3 581.3;" xml:space="preserve">
<style type="text/css">
	.st0{clip-path:url(#SVGID_2_);}
	.st1{fill:#00749A;}
	.st2{fill:#464342;}
</style>
<g>
	<g>
		<g>
			<g>
				<defs>
					<rect id="SVGID_1_" x="0.7" y="0.6" width="580" height="580"/>
				</defs>
				<clipPath id="SVGID_2_">
					<use xlink:href="#SVGID_1_"  style="overflow:visible;"/>
				</clipPath>
				<g class="st0">
					<path class="st1" d="M1483.3,229h-100.6v10.7c31.5,0,36.5,6.7,36.5,46.7v72c0,39.9-5,47.2-36.5,47.2c-24.2-3.4-40.5-16.3-63-41
						l-25.9-28.1c34.8-6.2,53.4-28.1,53.4-52.9c0-30.9-26.4-54.5-75.9-54.5h-98.9v10.7c31.5,0,36.5,6.7,36.5,46.7v72
						c0,39.9-5.1,47.2-36.5,47.2v10.7h111.9v-10.7c-31.5,0-36.5-7.3-36.5-47.2V338h9.6l62.4,78.1h163.6
						c80.4,0,115.2-42.7,115.2-93.9C1598.5,271.1,1563.6,229,1483.3,229L1483.3,229z M1247.7,320.6v-74.8h23
						c25.3,0,36.5,17.4,36.5,37.7c0,19.7-11.2,37.1-36.5,37.1L1247.7,320.6L1247.7,320.6z M1484.9,398.7h-3.9c-20.2,0-23-5-23-30.9
						v-122c0,0,24.7,0,27,0c58.5,0,69.1,42.7,69.1,75.9C1554.1,356,1543.4,398.7,1484.9,398.7z"/>
					<path class="st1" d="M859.3,341.4l38.8-114.7c11.2-33.2,6.2-42.7-29.8-42.7v-11.2h105.7V184c-35.4,0-43.8,8.4-57.9,49.5
						L852,425.7h-7.3l-57.3-176l-58.5,176h-7.3l-62.4-192.3c-13.5-41-22.5-49.5-55.1-49.5v-11.2h124.8V184
						c-33.2,0-42.2,7.9-30.4,42.7l37.7,114.7l56.8-168.7h10.7L859.3,341.4z"/>
					<path class="st1" d="M1050.4,423.5c-61.8,0-112.4-45.5-112.4-101.2c0-55.1,50.6-100.6,112.4-100.6
						c61.8,0,112.4,45.5,112.4,100.6C1162.8,377.9,1112.2,423.5,1050.4,423.5z M1050.4,239.1c-51.7,0-69.7,46.6-69.7,83.2
						c0,37.1,18,83.2,69.7,83.2c52.3,0,70.3-46.1,70.3-83.2C1120.7,285.7,1102.7,239.1,1050.4,239.1z"/>
					<path class="st2" d="M1737.3,404.9v11.2h-128.7v-11.2c37.7,0,44.4-9.6,44.4-65.8v-89.9c0-56.2-6.7-65.2-44.4-65.2v-11.3H1725
						c57.9,0,90,29.8,90,69.7c0,38.8-32.1,69.1-90,69.1h-32v27.5C1692.9,395.3,1699.7,404.9,1737.3,404.9z M1725,193h-32v97.8h32
						c31.5,0,46.1-21.9,46.1-48.3C1771.1,215.5,1756.5,193,1725,193z"/>
					<path class="st2" d="M2201.1,363.3l-2.8,10.1c-5.1,18.6-11.2,25.3-51.2,25.3h-7.9c-29.2,0-34.3-6.7-34.3-46.7v-25.9
						c43.8,0,47.2,3.9,47.2,33.2h10.7v-83.8h-10.7c0,29.2-3.4,33.2-47.2,33.2v-63h30.9c39.9,0,46.1,6.7,51.2,25.3l2.8,10.7h9
						l-3.9-52.8h-165.3v10.7c31.5,0,36.5,6.7,36.5,46.7v72c0,36.5-4.3,45.7-29.1,47c-23.6-3.6-39.8-16.5-61.9-40.8l-25.9-28.1
						c34.9-6.2,53.4-28.1,53.4-52.9c0-30.9-26.4-54.5-75.9-54.5h-98.9v10.7c31.5,0,36.5,6.7,36.5,46.7v72c0,39.9-5.1,47.2-36.5,47.2
						v10.7h111.9v-10.7c-31.5,0-36.5-7.3-36.5-47.2V338h9.6l62.4,78.1h231l3.4-52.8L2201.1,363.3L2201.1,363.3z M1903.2,320.6v-74.8
						h23c25.3,0,36.5,17.4,36.5,37.7c0,19.7-11.2,37.1-36.5,37.1L1903.2,320.6L1903.2,320.6z"/>
					<path class="st2" d="M2315.2,423.5c-22.5,0-42.2-11.8-50.6-19.1c-2.8,2.8-7.9,11.2-9,19.1H2245v-77.6h11.2
						c4.5,37.1,30.4,59,63.5,59c18,0,32.6-10.1,32.6-27c0-14.6-12.9-25.9-36-36.5l-32-15.2c-22.5-10.7-39.4-29.2-39.4-54
						c0-27,25.3-50,60.2-50c18.6,0,34.3,6.8,43.9,14.6c2.8-2.3,5.6-8.4,7.3-15.2h10.7V288h-11.8c-3.9-26.4-18.6-48.3-48.3-48.3
						c-15.7,0-30.4,9-30.4,23.1c0,14.6,11.8,22.5,38.8,34.8l30.9,15.2c27,12.9,37.7,33.7,37.7,50.6
						C2383.8,398.7,2352.9,423.5,2315.2,423.5L2315.2,423.5z"/>
					<path class="st2" d="M2488.4,423.5c-22.5,0-42.2-11.8-50.6-19.1c-2.8,2.8-7.9,11.2-9,19.1h-10.7v-77.6h11.2
						c4.5,37.1,30.4,59,63.5,59c18,0,32.6-10.1,32.6-27c0-14.6-12.9-25.9-36-36.5l-32-15.2c-22.5-10.7-39.4-29.2-39.4-54
						c0-27,25.3-50,60.2-50c18.6,0,34.3,6.8,43.8,14.6c2.8-2.3,5.6-8.4,7.3-15.2h10.7V288h-11.8c-3.9-26.4-18.6-48.3-48.3-48.3
						c-15.7,0-30.4,9-30.4,23.1c0,14.6,11.8,22.5,38.8,34.8l30.9,15.2c27,12.9,37.7,33.7,37.7,50.6
						C2556.9,398.7,2526,423.5,2488.4,423.5L2488.4,423.5z"/>
					<g>
						<path class="st1" d="M41.9,290.6c0,98.5,57.2,183.6,140.2,223.9L63.4,189.4C49.6,220.3,41.9,254.6,41.9,290.6z"/>
						<path class="st1" d="M458.6,278.1c0-30.7-11-52-20.5-68.6c-12.6-20.5-24.4-37.8-24.4-58.3c0-22.9,17.3-44.2,41.8-44.2
							c1.1,0,2.1,0.1,3.2,0.2c-44.3-40.5-103.2-65.3-168-65.3c-86.9,0-163.4,44.6-207.9,112.1c5.8,0.2,11.3,0.3,16,0.3
							c26,0,66.3-3.2,66.3-3.2c13.4-0.8,15,18.9,1.6,20.5c0,0-13.5,1.6-28.5,2.4l90.6,269.5l54.4-163.3L244.5,174
							c-13.4-0.8-26.1-2.4-26.1-2.4c-13.4-0.8-11.8-21.3,1.6-20.5c0,0,41.1,3.2,65.5,3.2c26,0,66.3-3.2,66.3-3.2
							c13.4-0.8,15,18.9,1.6,20.5c0,0-13.5,1.6-28.5,2.4l89.9,267.4l24.8-82.9C450.4,324.1,458.6,299.4,458.6,278.1z"/>
						<path class="st1" d="M295,312.4l-74.6,216.9c22.3,6.6,45.9,10.1,70.3,10.1c29,0,56.8-5,82.6-14.1c-0.7-1.1-1.3-2.2-1.8-3.4
							L295,312.4z"/>
						<path class="st1" d="M509,171.3c1.1,7.9,1.7,16.4,1.7,25.6c0,25.2-4.7,53.6-18.9,89.1l-76,219.7
							c74-43.1,123.7-123.3,123.7-215C539.4,247.4,528.4,206.7,509,171.3z"/>
						<path class="st1" d="M290.7,0.6c-159.9,0-290,130.1-290,290c0,159.9,130.1,290,290,290c159.9,0,290-130.1,290-290
							C580.7,130.7,450.6,0.6,290.7,0.6z M290.7,567.4C138.1,567.4,14,443.2,14,290.6C14,138.1,138.1,14,290.7,14
							c152.6,0,276.7,124.1,276.7,276.7C567.4,443.2,443.2,567.4,290.7,567.4z"/>
					</g>
				</g>
			</g>
		</g>
	</g>
</g>
</svg>
